<?xml version="1.0" encoding="UTF-8"?>
<!DOCTYPE svg PUBLIC "-//W3C//DTD SVG 1.0//EN" "http://www.w3.org/TR/2001/REC-SVG-20010904/DTD/svg10.dtd">
<!-- Creator: CorelDRAW -->
<svg xmlns="http://www.w3.org/2000/svg" xml:space="preserve" width="1300px" height="1300px" version="1.0" style="shape-rendering:geometricPrecision; text-rendering:geometricPrecision; image-rendering:optimizeQuality; fill-rule:evenodd; clip-rule:evenodd"
viewBox="0 0 1300 1056"
 xmlns:xlink="http://www.w3.org/1999/xlink">
 <defs>
  <style type="text/css">
   <![CDATA[
    .fil1 {fill:red;fill-opacity:0.501961}
    .fil0 {fill:#660066;fill-opacity:0.549020}
   ]]>
  </style>
 </defs>
 <g id="_100:master" visibility="hidden">
  <metadata id="CorelCorpID_0Corel-Layer"/>
  <path class="fil0" d="M961 544l-22 47c9,15 19,32 42,44 17,9 41,15 75,15l13 0 0 -81 -13 0c-43,0 -73,-11 -95,-25z"/>
  <path class="fil1" d="M975 86l0 399c0,9 -2,76 53,82l-71 50c-16,-17 -38,-53 -38,-130 1,-80 1,-163 1,-196l0 -111c0,-34 31,-74 45,-99l10 5z"/>
 </g>
 <g id="Layer_x0020_1" visibility="hidden">
  <metadata id="CorelCorpID_1Corel-Layer"/>
  <path class="fil0" d="M1054 650l1 -81 -2 0c-64,0 -98,-22 -101,-124l-32 18c-3,79 3,187 133,187l1 0z"/>
  <path class="fil1" d="M975 95l0 253 0 207c0,17 0,14 -24,35 -21,-21 -32,-42 -32,-127 0,-72 -2,-142 -2,-172l0 -108c0,-34 41,-85 48,-98l10 10z"/>
 </g>
 <g id="Layer_x0020_2" visibility="hidden">
  <metadata id="CorelCorpID_2Corel-Layer"/>
  <path class="fil0" d="M1074 650l0 -81 -1 0c-64,0 -98,-22 -101,-124l-32 18c-3,79 3,187 133,187l1 0z"/>
  <path class="fil1" d="M990 504l3 65 -51 -32 -25 -354c0,-25 25,-70 48,-102l10 8 15 415z"/>
 </g>
 <g id="Layer_x0020_3">
  <metadata id="CorelCorpID_3Corel-Layer"/>
  <path class="fil1" d="M990 504l1 22c23,37 63,43 103,43l-1 81 -1 0c-103,0 -146,-50 -150,-113l-25 -354c0,-25 25,-70 48,-102l10 8 15 415z"/>
 </g>
</svg>
