<?xml version="1.0" encoding="UTF-8"?>
<!DOCTYPE svg PUBLIC "-//W3C//DTD SVG 1.0//EN" "http://www.w3.org/TR/2001/REC-SVG-20010904/DTD/svg10.dtd">
<!-- Creator: CorelDRAW -->
<svg xmlns="http://www.w3.org/2000/svg" xml:space="preserve" width="1300px" height="1300px" version="1.0" style="shape-rendering:geometricPrecision; text-rendering:geometricPrecision; image-rendering:optimizeQuality; fill-rule:evenodd; clip-rule:evenodd"
viewBox="0 0 1300 1056"
 xmlns:xlink="http://www.w3.org/1999/xlink">
 <defs>
  <style type="text/css">
   <![CDATA[
    .fil0 {fill:#00CCFF;fill-opacity:0.501961}
    .fil1 {fill:#FF99CC}
   ]]>
  </style>
 </defs>
 <g id="Layer_x0020_3" visibility="hidden">
  <metadata id="CorelCorpID_0Corel-Layer"/>
  <path class="fil0" d="M1053 650l0 -81c-105,0 -98,-37 -97,-114l-37 8 0 41c0,87 8,146 134,146z"/>
  <path class="fil1" d="M959 537l-17 77c-48,16 -174,47 -310,46 -173,-2 -279,-48 -199,-260l25 8c-45,134 27,171 182,171 108,-1 254,-18 319,-42z"/>
 </g>
 <g id="Layer_x0020_4">
  <metadata id="CorelCorpID_1Corel-Layer"/>
  <path class="fil1" d="M945 600c-2,2 -5,5 -8,7 -28,20 -149,51 -267,52 -158,0 -313,-25 -237,-259l25 8c-44,154 76,169 212,169 89,0 182,-16 229,-32 19,-7 29,-13 30,-19l8 -55 41 -16 -7 66 0 0c-6,40 42,48 72,48l30 0 0 81 -28 0c-50,0 -77,-14 -97,-45 -1,-2 -2,-3 -3,-5z"/>
 </g>
</svg>
