<?xml version="1.0" encoding="UTF-8"?>
<!DOCTYPE svg PUBLIC "-//W3C//DTD SVG 1.0//EN" "http://www.w3.org/TR/2001/REC-SVG-20010904/DTD/svg10.dtd">
<!-- Creator: CorelDRAW -->
<svg xmlns="http://www.w3.org/2000/svg" xml:space="preserve" width="1300px" height="1300px" version="1.0" style="shape-rendering:geometricPrecision; text-rendering:geometricPrecision; image-rendering:optimizeQuality; fill-rule:evenodd; clip-rule:evenodd"
viewBox="0 0 1300 1056"
 xmlns:xlink="http://www.w3.org/1999/xlink">
 <defs>
  <style type="text/css">
   <![CDATA[
    .fil2 {fill:#999933;fill-opacity:0.501961}
    .fil4 {fill:#FF6600;fill-opacity:0.501961}
    .fil0 {fill:#660066;fill-opacity:0.549020}
    .fil3 {fill:red;fill-opacity:0.549020}
    .fil1 {fill:#CC6633}
   ]]>
  </style>
 </defs>
 <g id="_100:master" visibility="hidden">
  <metadata id="CorelCorpID_0Corel-Layer"/>
  <path class="fil0" d="M980 457l-33 -7c-17,83 -31,119 -114,119l-60 0 0 81 60 0c125,0 128,-100 147,-193z"/>
  <path class="fil1" d="M774 650l0 -81c-21,0 -40,19 -41,40 0,21 20,41 41,41z"/>
  <path class="fil0" d="M915 555l33 -33c23,49 67,47 114,47l0 81 -21 0c-80,0 -110,-41 -126,-95z"/>
 </g>
 <g id="Layer_x0020_1" visibility="hidden">
  <metadata id="CorelCorpID_1Corel-Layer"/>
  <path class="fil0" d="M980 457l-26 -5c-22,99 -50,117 -121,117l-60 0 0 81 60 0c125,0 128,-100 147,-193z"/>
  <path class="fil1" d="M774 650l0 -81c-21,0 -40,19 -41,40 0,21 20,41 41,41z"/>
  <path class="fil0" d="M915 555l33 -33c23,49 67,47 114,47l0 81 -21 0c-80,0 -110,-41 -126,-95z"/>
 </g>
 <g id="Layer_x0020_2" visibility="hidden">
  <metadata id="CorelCorpID_2Corel-Layer"/>
  <path class="fil1" d="M793 650l0 -81c-20,0 -40,19 -40,40 -1,21 20,41 40,41z"/>
  <path class="fil0" d="M1077 650l0 -81 -1 0c-62,0 -98,-19 -114,-119l-30 22c8,78 27,178 144,178l1 0z"/>
  <path class="fil2" d="M965 514l22 51c-22,61 -74,85 -150,85l-45 0 0 -81 45 0c26,0 48,-4 67,-10 26,-8 47,-26 61,-45z"/>
 </g>
 <g id="Layer_x0020_3" visibility="hidden">
  <metadata id="CorelCorpID_3Corel-Layer"/>
  <path class="fil1" d="M813 650l0 -81c-21,0 -40,19 -41,40 0,21 20,41 41,41z"/>
  <path class="fil0" d="M1077 650l0 -81 -1 0c-65,0 -98,-39 -101,-140l-32 18c-3,78 3,203 133,203l1 0z"/>
  <path class="fil2" d="M965 514l22 51c-22,61 -74,85 -150,85l-24 0 0 -81 24 0c26,0 48,-4 67,-10 26,-8 47,-26 61,-45z"/>
 </g>
 <g id="Layer_x0020_4" visibility="hidden">
  <metadata id="CorelCorpID_4Corel-Layer"/>
  <path class="fil1" d="M813 650l0 -81c-20,0 -40,19 -40,40 -1,21 20,41 40,41z"/>
  <path class="fil3" d="M816 569l-4 0 0 81c155,0 163,-95 176,-222l-29 -3c-13,107 -55,144 -143,144z"/>
  <path class="fil2" d="M976 522l-27 45c22,59 75,83 149,83l0 -81c-25,0 -48,-4 -67,-10 -22,-7 -41,-21 -55,-37z"/>
 </g>
 <g id="Layer_x0020_5" visibility="hidden">
  <metadata id="CorelCorpID_5Corel-Layer"/>
  <path class="fil1" d="M819 650l0 -81c-20,0 -40,19 -40,40 -1,21 20,41 40,41z"/>
  <path class="fil2" d="M955 522l-27 45c25,72 102,83 147,83l0 -81c-30,0 -92,-6 -120,-47z"/>
  <path class="fil3" d="M819 569l0 0 0 81 0 0c96,0 135,-37 155,-94l11 -114 -36 -8 -18 99c-8,8 -17,14 -27,19 -22,11 -51,17 -85,17z"/>
 </g>
 <g id="Layer_x0020_6" visibility="hidden">
  <metadata id="CorelCorpID_6Corel-Layer"/>
  <path class="fil1" d="M829 650l0 -81c-20,0 -40,19 -40,40 0,21 20,41 40,41z"/>
  <path class="fil2" d="M829 650l0 -81c26,0 48,-4 68,-10 38,-12 67,-47 75,-73l16 48c-15,83 -71,116 -159,116z"/>
  <path class="fil0" d="M1096 650l0 -81 -13 0c-64,0 -105,-46 -108,-132l-33 16c-1,48 3,112 38,154 21,26 54,43 103,43l13 0z"/>
 </g>
 <g id="Layer_x0020_7" visibility="hidden">
  <metadata id="CorelCorpID_7Corel-Layer"/>
  <path class="fil1" d="M797 650l0 -81c-20,0 -40,19 -40,40 -1,21 20,41 40,41z"/>
  <path class="fil0" d="M1096 650l0 -81 -13 0c-64,0 -105,-46 -108,-132l-33 16c-1,48 3,112 38,154 21,26 54,43 103,43l13 0z"/>
  <path class="fil2" d="M820 650l-24 0 0 -81 24 0c26,0 57,-4 76,-10 39,-12 67,-47 75,-73l13 60c-20,74 -80,104 -164,104z"/>
 </g>
 <g id="Layer_x0020_8" visibility="hidden">
  <metadata id="CorelCorpID_8Corel-Layer"/>
  <path class="fil1" d="M799 650l0 -81c-20,0 -40,19 -40,40 0,21 20,41 40,41z"/>
  <path class="fil2" d="M958 515l24 42c-21,66 -75,93 -154,93l-29 0 0 -81 29 0c51,0 103,-12 130,-54z"/>
  <path class="fil4" d="M1106 650l0 -81c-88,0 -129,-46 -131,-134l-41 32c0,109 47,186 172,183z"/>
 </g>
 <g id="Layer_x0020_9">
  <metadata id="CorelCorpID_9Corel-Layer"/>
  <path class="fil1" d="M799 569l29 0c41,0 81,-8 110,-32 -4,-20 -5,-43 -4,-70l31 -29c6,-5 10,-3 10,4 0,95 41,127 130,127l0 81c-68,0 -115,-17 -143,-54 -27,38 -73,54 -134,54l-29 0 0 0 0 0c-20,0 -40,-20 -40,-41 0,-21 20,-40 40,-40l0 0z"/>
 </g>
</svg>
