<?xml version="1.0" encoding="UTF-8"?>
<!DOCTYPE svg PUBLIC "-//W3C//DTD SVG 1.0//EN" "http://www.w3.org/TR/2001/REC-SVG-20010904/DTD/svg10.dtd">
<!-- Creator: CorelDRAW -->
<svg xmlns="http://www.w3.org/2000/svg" xml:space="preserve" width="1300px" height="1300px" version="1.0" style="shape-rendering:geometricPrecision; text-rendering:geometricPrecision; image-rendering:optimizeQuality; fill-rule:evenodd; clip-rule:evenodd"
viewBox="0 0 1300 1056"
 xmlns:xlink="http://www.w3.org/1999/xlink">
 <defs>
  <style type="text/css">
   <![CDATA[
    .fil2 {fill:#999933;fill-opacity:0.501961}
    .fil1 {fill:#660066;fill-opacity:0.549020}
    .fil0 {fill:#CC6633}
   ]]>
  </style>
 </defs>
 <g id="_100:master" visibility="hidden">
  <metadata id="CorelCorpID_0Corel-Layer"/>
  <path class="fil0" d="M774 650l39 0 0 -81 -39 0c-21,0 -40,19 -41,40 0,21 20,41 41,41z"/>
  <path class="fil1" d="M1065 650l12 0 0 -81 -12 0c-44,0 -74,-11 -96,-25 -10,-7 6,-61 11,-87l-33 -7c-17,83 -31,119 -114,119l-20 0 0 81 20 0c60,0 95,-31 114,-59 15,25 35,59 118,59z"/>
 </g>
 <g id="Layer_x0020_1" visibility="hidden">
  <metadata id="CorelCorpID_1Corel-Layer"/>
  <path class="fil1" d="M980 457l-26 -5c-22,99 -50,117 -121,117l-60 0 0 81 60 0c125,0 128,-100 147,-193z"/>
  <path class="fil0" d="M774 650l0 -81c-21,0 -40,19 -41,40 0,21 20,41 41,41z"/>
  <path class="fil1" d="M915 555l33 -33c23,49 67,47 114,47l0 81 -21 0c-80,0 -110,-41 -126,-95z"/>
 </g>
 <g id="Layer_x0020_2" visibility="hidden">
  <metadata id="CorelCorpID_2Corel-Layer"/>
  <path class="fil0" d="M813 650l0 -81c-21,0 -40,19 -41,40 0,21 20,41 41,41z"/>
  <path class="fil1" d="M1077 650l0 -81 -1 0c-65,0 -98,-22 -101,-124l-32 18c-3,79 3,187 133,187l1 0z"/>
  <path class="fil2" d="M965 514l22 51c-22,61 -74,85 -150,85l-24 0 0 -81 24 0c26,0 48,-4 67,-10 26,-8 47,-26 61,-45z"/>
 </g>
 <g id="Layer_x0020_3" visibility="hidden">
  <metadata id="CorelCorpID_3Corel-Layer"/>
  <path class="fil0" d="M813 650l0 -81c-21,0 -40,19 -41,40 0,21 20,41 41,41z"/>
  <path class="fil1" d="M1077 650l0 -81 -1 0c-65,0 -98,-39 -101,-140l-32 18c-3,78 3,203 133,203l1 0z"/>
  <path class="fil2" d="M965 514l22 51c-22,61 -74,85 -150,85l-24 0 0 -81 24 0c26,0 48,-4 67,-10 26,-8 47,-26 61,-45z"/>
 </g>
 <g id="Layer_x0020_4">
  <metadata id="CorelCorpID_4Corel-Layer"/>
  <path class="fil0" d="M819 569c38,0 83,-7 112,-36l18 -99 36 8 -10 100c31,23 76,27 100,27l0 81c-36,0 -93,-7 -127,-47 -32,39 -82,47 -129,47 -21,0 -41,-20 -40,-41 0,-21 20,-40 40,-40l0 0z"/>
 </g>
</svg>
