<?xml version="1.0" encoding="UTF-8"?>
<!DOCTYPE svg PUBLIC "-//W3C//DTD SVG 1.0//EN" "http://www.w3.org/TR/2001/REC-SVG-20010904/DTD/svg10.dtd">
<!-- Creator: CorelDRAW -->
<svg xmlns="http://www.w3.org/2000/svg" xml:space="preserve" width="1300px" height="1300px" version="1.0" style="shape-rendering:geometricPrecision; text-rendering:geometricPrecision; image-rendering:optimizeQuality; fill-rule:evenodd; clip-rule:evenodd"
viewBox="0 0 1300 1056"
 xmlns:xlink="http://www.w3.org/1999/xlink">
 <defs>
  <style type="text/css">
   <![CDATA[
    .fil0 {fill:#999933;fill-opacity:0.501961}
    .fil2 {fill:#660066;fill-opacity:0.549020}
    .fil1 {fill:#CC6633}
   ]]>
  </style>
 </defs>
 <g id="_100:master" visibility="hidden">
  <metadata id="CorelCorpID_0Corel-Layer"/>
  <path class="fil0" d="M780 650l0 -81 53 0c100,0 130,-57 142,-82 0,102 -57,163 -142,163l-53 0z"/>
  <path class="fil1" d="M780 650l0 -81c-20,0 -40,19 -40,40 -1,21 20,41 40,41z"/>
  <path class="fil2" d="M932 610l-13 -1c11,-33 22,-90 -28,-163l39 -79c81,121 34,201 2,243z"/>
 </g>
 <g id="Layer_x0020_1">
  <metadata id="CorelCorpID_1Corel-Layer"/>
  <path class="fil0" d="M812 650l0 0c-20,0 -40,-20 -39,-41 0,-21 19,-40 39,-40l0 0c26,0 49,-4 68,-10 17,-5 32,-14 44,-26 -5,-33 -19,-69 -41,-103l39 -80c54,83 68,151 41,215 -22,60 -75,85 -150,85l0 0 -1 0z"/>
 </g>
</svg>
