<?xml version="1.0" encoding="UTF-8"?>
<!DOCTYPE svg PUBLIC "-//W3C//DTD SVG 1.0//EN" "http://www.w3.org/TR/2001/REC-SVG-20010904/DTD/svg10.dtd">
<!-- Creator: CorelDRAW -->
<svg xmlns="http://www.w3.org/2000/svg" xml:space="preserve" width="1300px" height="1300px" version="1.0" style="shape-rendering:geometricPrecision; text-rendering:geometricPrecision; image-rendering:optimizeQuality; fill-rule:evenodd; clip-rule:evenodd"
viewBox="0 0 1300 1056"
 xmlns:xlink="http://www.w3.org/1999/xlink">
 <defs>
  <style type="text/css">
   <![CDATA[
    .fil0 {fill:#660066;fill-opacity:0.549020}
    .fil2 {fill:#333333}
    .fil1 {fill:#999966}
   ]]>
  </style>
 </defs>
 <g id="_100:master" visibility="hidden">
  <metadata id="CorelCorpID_0Corel-Layer"/>
  <path class="fil0" d="M980 486l-42 23c-12,100 50,141 118,141l13 0 0 -81 -13 0c-49,0 -89,-23 -76,-83z"/>
  <path class="fil1" d="M354 357l20 9c-90,270 348,216 552,142 17,-6 26,-15 38,-43l18 7c-3,20 -13,91 -44,106 -172,81 -749,178 -584,-221z"/>
 </g>
 <g id="Layer_x0020_1" visibility="hidden">
  <metadata id="CorelCorpID_1Corel-Layer"/>
  <path class="fil2" d="M340 427l25 7c-38,233 393,170 579,97l22 43c-6,15 -15,28 -27,33 -166,78 -709,171 -599,-180z"/>
  <path class="fil0" d="M1072 569l0 81 -5 0c-161,0 -135,-102 -121,-193l28 -3c-13,97 5,115 89,115l9 0z"/>
 </g>
 <g id="Layer_x0020_2">
  <metadata id="CorelCorpID_2Corel-Layer"/>
  <path class="fil1" d="M430 404l25 12c-44,128 46,174 195,173 103,-1 211,-29 283,-61 -2,-26 -2,-52 -4,-73l35 -11 4 39c6,65 58,86 117,86l1 0 0 81 -1 0c-67,0 -108,-21 -130,-52 -2,-3 -3,-5 -5,-8 -63,40 -199,80 -320,80 -151,1 -278,-62 -200,-266z"/>
 </g>
</svg>
