<?xml version="1.0" encoding="UTF-8"?>
<!DOCTYPE svg PUBLIC "-//W3C//DTD SVG 1.0//EN" "http://www.w3.org/TR/2001/REC-SVG-20010904/DTD/svg10.dtd">
<!-- Creator: CorelDRAW -->
<svg xmlns="http://www.w3.org/2000/svg" xml:space="preserve" width="1300px" height="1300px" version="1.0" style="shape-rendering:geometricPrecision; text-rendering:geometricPrecision; image-rendering:optimizeQuality; fill-rule:evenodd; clip-rule:evenodd"
viewBox="0 0 1300 1056"
 xmlns:xlink="http://www.w3.org/1999/xlink">
 <defs>
  <style type="text/css">
   <![CDATA[
    .fil2 {fill:#999933;fill-opacity:0.501961}
    .fil1 {fill:#660066;fill-opacity:0.549020}
    .fil0 {fill:#CC6633}
   ]]>
  </style>
 </defs>
 <g id="_100:master" visibility="hidden">
  <metadata id="CorelCorpID_0Corel-Layer"/>
  <path class="fil0" d="M804 650l0 -81c-20,0 -40,19 -40,40 0,21 20,41 40,41z"/>
  <path class="fil1" d="M949 582l-25 -11c4,-42 -9,-99 -42,-149l38 -80c62,94 71,169 29,240z"/>
  <path class="fil2" d="M804 650l0 -81c26,0 56,-4 76,-10 38,-12 67,-47 75,-73l20 1c0,118 -69,163 -171,163z"/>
 </g>
 <g id="Layer_x0020_1" visibility="hidden">
  <metadata id="CorelCorpID_1Corel-Layer"/>
  <path class="fil1" d="M953 574l-25 -11c13,-38 -8,-87 -46,-133l38 -80c62,94 69,140 33,224z"/>
  <path class="fil2" d="M812 650l-30 0 0 -81 30 0c61,0 122,-17 143,-83l20 1c0,118 -61,163 -163,163z"/>
  <path class="fil0" d="M783 650l0 -81c-20,0 -40,19 -40,40 0,21 20,41 40,41z"/>
 </g>
 <g id="Layer_x0020_2">
  <metadata id="CorelCorpID_2Corel-Layer"/>
  <path class="fil2" d="M812 650l-29 0 -1 0 0 0c-20,-1 -39,-20 -39,-41 0,-20 19,-40 39,-40l0 0 1 0 29 0c45,0 89,-9 119,-40 -7,-29 -22,-67 -49,-99l38 -80c73,90 64,192 29,242l0 0c-26,41 -73,58 -137,58z"/>
 </g>
</svg>
