<?xml version="1.0" encoding="UTF-8"?>
<!DOCTYPE svg PUBLIC "-//W3C//DTD SVG 1.0//EN" "http://www.w3.org/TR/2001/REC-SVG-20010904/DTD/svg10.dtd">
<!-- Creator: CorelDRAW -->
<svg xmlns="http://www.w3.org/2000/svg" xml:space="preserve" width="1300px" height="1300px" version="1.0" style="shape-rendering:geometricPrecision; text-rendering:geometricPrecision; image-rendering:optimizeQuality; fill-rule:evenodd; clip-rule:evenodd"
viewBox="0 0 1300 1056"
 xmlns:xlink="http://www.w3.org/1999/xlink">
 <defs>
  <style type="text/css">
   <![CDATA[
    .fil4 {fill:#00CCFF;fill-opacity:0.501961}
    .fil0 {fill:#999933;fill-opacity:0.501961}
    .fil5 {fill:red;fill-opacity:0.501961}
    .fil2 {fill:#660066;fill-opacity:0.549020}
    .fil3 {fill:#FF6600;fill-opacity:0.549020}
    .fil1 {fill:#CC6633}
   ]]>
  </style>
 </defs>
 <g id="_100:master" visibility="hidden">
  <metadata id="CorelCorpID_0Corel-Layer"/>
  <path class="fil0" d="M780 650l0 -81 53 0c100,0 130,-57 142,-82 0,102 -57,163 -142,163l-53 0z"/>
  <path class="fil1" d="M780 650l0 -81c-20,0 -40,19 -40,40 -1,21 20,41 40,41z"/>
  <path class="fil2" d="M932 610l-13 -1c11,-33 22,-90 -28,-163l39 -79c81,121 34,201 2,243z"/>
 </g>
 <g id="Layer_x0020_1" visibility="hidden">
  <metadata id="CorelCorpID_1Corel-Layer"/>
  <path class="fil0" d="M812 650l0 -81c26,0 49,-4 68,-10 39,-12 67,-47 76,-73l19 1c0,118 -60,163 -163,163z"/>
  <path class="fil1" d="M813 650l0 -81c-20,0 -40,19 -40,40 -1,21 20,41 40,41z"/>
  <path class="fil2" d="M950 590l-25 -11c4,-42 -9,-98 -42,-149l39 -80c62,94 71,169 28,240z"/>
 </g>
 <g id="Layer_x0020_2" visibility="hidden">
  <metadata id="CorelCorpID_2Corel-Layer"/>
  <path class="fil1" d="M780 650l0 -81c-20,0 -40,19 -40,40 -1,21 20,41 40,41z"/>
  <path class="fil2" d="M949 582l-25 -11c4,-42 -9,-99 -42,-149l38 -80c62,94 71,169 29,240z"/>
  <path class="fil0" d="M804 650l-24 0 0 -81 24 0c26,0 56,-4 76,-10 38,-12 67,-47 75,-73l20 1c0,118 -69,163 -171,163z"/>
 </g>
 <g id="Layer_x0020_3" visibility="hidden">
  <metadata id="CorelCorpID_3Corel-Layer"/>
  <path class="fil0" d="M812 650l-30 0 0 -81 30 0c61,0 122,-17 143,-83l20 1c0,118 -61,163 -163,163z"/>
  <path class="fil1" d="M783 650l0 -81c-20,0 -40,19 -40,40 0,21 20,41 40,41z"/>
  <path class="fil2" d="M949 592l-22 25c0,-4 28,-89 -45,-187l38 -80c73,90 64,192 29,242z"/>
 </g>
 <g id="Layer_x0020_4" visibility="hidden">
  <metadata id="CorelCorpID_4Corel-Layer"/>
  <path class="fil0" d="M846 650l-45 0 0 -81 45 0c44,0 129,-17 129,-49 0,80 -34,130 -129,130z"/>
  <path class="fil1" d="M801 650l0 -81c-20,0 -40,19 -40,40 0,21 20,41 40,41z"/>
  <path class="fil3" d="M930 629l-21 -3c11,-24 33,-47 33,-74 0,-16 -18,-64 -61,-113l36 -72c41,39 58,100 59,147 0,35 -11,93 -46,115z"/>
 </g>
 <g id="Layer_x0020_5" visibility="hidden">
  <metadata id="CorelCorpID_5Corel-Layer"/>
  <path class="fil1" d="M796 650l0 -81c-20,0 -40,19 -40,40 0,21 20,41 40,41z"/>
  <path class="fil4" d="M975 504l-33 0c0,50 -40,65 -65,65l-81 0 0 81 49 0c97,0 130,-78 130,-146z"/>
  <path class="fil3" d="M975 504l-33 48c0,-16 -8,-64 -50,-113l36 -72c52,71 47,121 47,137z"/>
 </g>
 <g id="Layer_x0020_6" visibility="hidden">
  <metadata id="CorelCorpID_6Corel-Layer"/>
  <path class="fil5" d="M952 599l-66 43c10,-36 53,-50 50,-88 -2,-35 -31,-77 -46,-109l36 -73c19,39 43,72 49,115 6,41 -14,72 -23,112z"/>
  <path class="fil1" d="M796 650l0 -81c-20,0 -40,19 -40,40 0,21 20,41 40,41z"/>
  <path class="fil3" d="M976 504c-1,114 -49,146 -114,146l-66 0 0 -81 66 0c62,0 101,-27 114,-65z"/>
 </g>
 <g id="Layer_x0020_7">
  <metadata id="CorelCorpID_7Corel-Layer"/>
  <path class="fil1" d="M780 569l65 0c44,0 72,-6 91,-17 -1,-16 -7,-33 -17,-54l-26 -49 36 -74 26 50c12,25 19,52 20,79l0 0 0 6c-2,89 -38,140 -130,140l-65 0c-20,0 -41,-20 -40,-41 0,-21 20,-40 40,-40z"/>
 </g>
</svg>
