<?xml version="1.0" encoding="UTF-8"?>
<!DOCTYPE svg PUBLIC "-//W3C//DTD SVG 1.0//EN" "http://www.w3.org/TR/2001/REC-SVG-20010904/DTD/svg10.dtd">
<!-- Creator: CorelDRAW -->
<svg xmlns="http://www.w3.org/2000/svg" xml:space="preserve" width="1300px" height="1300px" version="1.0" style="shape-rendering:geometricPrecision; text-rendering:geometricPrecision; image-rendering:optimizeQuality; fill-rule:evenodd; clip-rule:evenodd"
viewBox="0 0 1300 1056"
 xmlns:xlink="http://www.w3.org/1999/xlink">
 <defs>
  <style type="text/css">
   <![CDATA[
    .fil3 {fill:#333333;fill-opacity:0.501961}
    .fil4 {fill:#999933;fill-opacity:0.501961}
    .fil1 {fill:#660066;fill-opacity:0.549020}
    .fil0 {fill:#666666}
    .fil2 {fill:#FF9966}
   ]]>
  </style>
 </defs>
 <g id="Layer_x0020_1" visibility="hidden">
  <metadata id="CorelCorpID_0Corel-Layer"/>
  <path class="fil0" d="M933 650l43 -88c25,169 -107,332 -195,332 -33,0 -88,-14 -124,-27 -7,-7 -4,-24 8,-27 50,-2 62,1 113,-22 79,-34 158,-114 155,-168z"/>
  <path class="fil1" d="M936 708l-13 -1c11,-33 22,-90 -28,-163l39 -80c81,122 34,202 2,244z"/>
 </g>
 <g id="Layer_x0020_2" visibility="hidden">
  <metadata id="CorelCorpID_1Corel-Layer"/>
  <path class="fil2" d="M813 305l-21 81c99,70 158,140 132,236l31 -14c11,-27 20,-53 20,-82 0,-91 -64,-149 -162,-221z"/>
  <path class="fil3" d="M729 569c0,-11 19,-24 22,-10 5,24 29,30 61,30 82,0 130,-36 163,-63l-20 82c-8,13 -66,62 -143,62 -44,0 -83,-21 -83,-101z"/>
 </g>
 <g id="Layer_x0020_3">
  <metadata id="CorelCorpID_2Corel-Layer"/>
  <path class="fil4" d="M922 533c1,-24 -51,-120 -125,-155l35 -73c128,82 156,196 130,260 -27,73 -92,85 -158,85 -44,0 -83,-21 -83,-101 0,-11 19,-24 22,-10 5,23 28,30 61,30 43,0 85,-5 118,-36z"/>
 </g>
</svg>
