<?xml version="1.0" encoding="UTF-8"?>
<!DOCTYPE svg PUBLIC "-//W3C//DTD SVG 1.0//EN" "http://www.w3.org/TR/2001/REC-SVG-20010904/DTD/svg10.dtd">
<!-- Creator: CorelDRAW -->
<svg xmlns="http://www.w3.org/2000/svg" xml:space="preserve" width="1300px" height="1300px" version="1.0" style="shape-rendering:geometricPrecision; text-rendering:geometricPrecision; image-rendering:optimizeQuality; fill-rule:evenodd; clip-rule:evenodd"
viewBox="0 0 1300 1056"
 xmlns:xlink="http://www.w3.org/1999/xlink">
 <defs>
  <style type="text/css">
   <![CDATA[
    .fil3 {fill:#333333;fill-opacity:0.501961}
    .fil5 {fill:#999933;fill-opacity:0.501961}
    .fil4 {fill:fuchsia;fill-opacity:0.501961}
    .fil1 {fill:#660066;fill-opacity:0.549020}
    .fil6 {fill:#FF6600;fill-opacity:0.549020}
    .fil0 {fill:#666666}
    .fil2 {fill:#FF9966}
   ]]>
  </style>
 </defs>
 <g id="Layer_x0020_1" visibility="hidden">
  <metadata id="CorelCorpID_0Corel-Layer"/>
  <path class="fil0" d="M933 650l43 -88c25,169 -107,332 -195,332 -33,0 -88,-14 -124,-27 -7,-7 -4,-24 8,-27 50,-2 62,1 113,-22 79,-34 158,-114 155,-168z"/>
  <path class="fil1" d="M936 708l-13 -1c11,-33 22,-90 -28,-163l39 -80c81,122 34,202 2,244z"/>
 </g>
 <g id="Layer_x0020_2" visibility="hidden">
  <metadata id="CorelCorpID_1Corel-Layer"/>
  <path class="fil2" d="M813 305l-21 81c99,70 158,140 132,236l31 -14c11,-27 20,-53 20,-82 0,-91 -64,-149 -162,-221z"/>
  <path class="fil3" d="M729 569c0,-11 19,-24 22,-10 5,24 29,30 61,30 82,0 130,-36 163,-63l-20 82c-8,13 -66,62 -143,62 -44,0 -83,-21 -83,-101z"/>
 </g>
 <g id="Layer_x0020_3" visibility="hidden">
  <metadata id="CorelCorpID_2Corel-Layer"/>
  <path class="fil4" d="M804 381l39 -81c158,117 156,224 99,290 4,-90 -50,-148 -138,-209z"/>
  <path class="fil5" d="M978 515c-3,88 -62,135 -156,135 -81,0 -98,-38 -98,-119l23 -11c0,23 19,49 70,49 111,0 136,-46 147,-61 12,-18 3,-15 14,7z"/>
 </g>
 <g id="Layer_x0020_4" visibility="hidden">
  <metadata id="CorelCorpID_3Corel-Layer"/>
  <path class="fil6" d="M974 519l-43 10c0,-31 -53,-123 -165,-194l36 -72c124,78 173,181 172,256z"/>
  <path class="fil6" d="M931 529l43 -10c1,102 -82,139 -178,139 -85,0 -105,-57 -96,-142l24 1c-2,44 20,61 72,60 74,-2 123,-19 135,-48z"/>
 </g>
 <g id="Layer_x0020_5">
  <metadata id="CorelCorpID_4Corel-Layer"/>
  <path class="fil6" d="M925 547c-8,-59 -52,-124 -143,-181l36 -73c135,95 157,173 157,251 0,92 -81,122 -179,122 -97,0 -103,-62 -97,-137l25 1c1,26 13,54 71,55 82,0 122,-20 129,-38l1 0z"/>
 </g>
</svg>
