<?xml version="1.0" encoding="UTF-8"?>
<!DOCTYPE svg PUBLIC "-//W3C//DTD SVG 1.0//EN" "http://www.w3.org/TR/2001/REC-SVG-20010904/DTD/svg10.dtd">
<!-- Creator: CorelDRAW -->
<svg xmlns="http://www.w3.org/2000/svg" xml:space="preserve" width="1300px" height="1300px" version="1.0" style="shape-rendering:geometricPrecision; text-rendering:geometricPrecision; image-rendering:optimizeQuality; fill-rule:evenodd; clip-rule:evenodd"
viewBox="0 0 1300 1056"
 xmlns:xlink="http://www.w3.org/1999/xlink">
 <defs>
  <style type="text/css">
   <![CDATA[
    .fil1 {fill:#333333;fill-opacity:0.501961}
    .fil2 {fill:red;fill-opacity:0.501961}
    .fil0 {fill:#CCCC33;fill-opacity:0.549020}
   ]]>
  </style>
 </defs>
 <g id="_100:master" visibility="hidden">
  <metadata id="CorelCorpID_0Corel-Layer"/>
  <path class="fil0" d="M1077 569l-1 81c-88,0 -140,-53 -166,-130l-52 -159 44 -78 52 159c16,46 32,127 123,127z"/>
  <path class="fil1" d="M709 551c2,-16 27,-17 28,0 0,61 83,43 191,-7l46 -38c-2,53 -21,99 -56,123 -115,76 -224,55 -209,-78z"/>
 </g>
 <g id="Layer_x0020_1" visibility="hidden">
  <metadata id="CorelCorpID_1Corel-Layer"/>
  <path class="fil2" d="M916 309l34 140c15,61 25,120 123,120l1 0 0 81 -2 0c-122,0 -147,-67 -167,-149l-29 -124 33 -72 7 4z"/>
  <path class="fil1" d="M953 543l11 28 -9 37c-8,13 -66,62 -143,62 -44,0 -83,-21 -83,-101 0,-11 19,-24 22,-10 5,24 29,30 61,30 65,0 109,-23 141,-46z"/>
 </g>
 <g id="Layer_x0020_2" visibility="hidden">
  <metadata id="CorelCorpID_2Corel-Layer"/>
  <path class="fil1" d="M704 569c0,-11 20,-24 23,-10 5,24 28,30 61,30 65,0 124,-23 162,-45 46,-28 18,10 5,64 -8,13 -90,62 -167,62 -44,0 -83,-21 -84,-101z"/>
  <path class="fil2" d="M875 307l59 137c25,58 41,125 141,125l1 0 0 81 -2 0c-117,0 -149,-69 -182,-146l-52 -124 27 -76 8 3z"/>
 </g>
 <g id="Layer_x0020_3">
  <metadata id="CorelCorpID_3Corel-Layer"/>
  <path class="fil2" d="M917 310l59 195c11,35 22,64 99,64l1 0 0 81c-50,0 -101,-10 -131,-54 -32,46 -86,54 -141,54 -44,0 -83,-21 -83,-101 0,-11 19,-24 22,-10 5,23 28,30 61,30 43,0 84,-5 116,-34l-48 -155 36 -73 9 3z"/>
 </g>
</svg>
