<?xml version="1.0" encoding="UTF-8"?>
<!DOCTYPE svg PUBLIC "-//W3C//DTD SVG 1.0//EN" "http://www.w3.org/TR/2001/REC-SVG-20010904/DTD/svg10.dtd">
<!-- Creator: CorelDRAW -->
<svg xmlns="http://www.w3.org/2000/svg" xml:space="preserve" width="1300px" height="1300px" version="1.0" style="shape-rendering:geometricPrecision; text-rendering:geometricPrecision; image-rendering:optimizeQuality; fill-rule:evenodd; clip-rule:evenodd"
viewBox="0 0 1300 1056"
 xmlns:xlink="http://www.w3.org/1999/xlink">
 <defs>
  <style type="text/css">
   <![CDATA[
    .fil0 {fill:#006633}
   ]]>
  </style>
 </defs>
 <g id="_100:master">
  <metadata id="CorelCorpID_0Corel-Layer"/>
  <path class="fil0" d="M705 498l39 -40c3,-3 7,-3 10,0l39 39c3,3 3,7 0,10l-39 40c-3,2 -8,2 -10,0l-39 -40c-3,-2 -3,-7 0,-9zm-53 98l42 -42c3,-3 8,-3 11,0l41 41c3,3 3,7 0,10l-42 42c-3,3 -7,3 -10,0l-42 -41c-2,-3 -2,-8 0,-10zm99 -1l41 -42c3,-3 8,-3 11,0l41 41c3,3 3,8 0,11l-42 41c-3,3 -7,3 -10,0l-41 -41c-3,-3 -3,-7 0,-10z"/>
 </g>
</svg>
