<?xml version="1.0" encoding="UTF-8"?>
<!DOCTYPE svg PUBLIC "-//W3C//DTD SVG 1.0//EN" "http://www.w3.org/TR/2001/REC-SVG-20010904/DTD/svg10.dtd">
<!-- Creator: CorelDRAW -->
<svg xmlns="http://www.w3.org/2000/svg" xml:space="preserve" width="1300px" height="1300px" version="1.0" style="shape-rendering:geometricPrecision; text-rendering:geometricPrecision; image-rendering:optimizeQuality; fill-rule:evenodd; clip-rule:evenodd"
viewBox="0 0 1300 1056"
 xmlns:xlink="http://www.w3.org/1999/xlink">
 <defs>
  <style type="text/css">
   <![CDATA[
    .fil0 {fill:#006633}
   ]]>
  </style>
 </defs>
 <g id="_100:master">
  <metadata id="CorelCorpID_0Corel-Layer"/>
  <path class="fil0" d="M706 504l38 -37c2,-2 6,-2 9,0l37 37c2,3 2,7 0,9l-38 37c-2,3 -6,3 -9,0l-37 -36c-2,-3 -2,-7 0,-10zm-54 92l42 -42c3,-2 8,-2 11,0l41 42c0,0 0,0 1,0l0 0 42 -42c2,-2 7,-2 10,0l41 42c3,3 3,7 0,10l-42 42c-2,3 -7,3 -10,0l-41 -41c-1,-1 -1,-1 -1,-1l0 0 -42 42c-3,3 -7,3 -10,0l-42 -41c-2,-3 -2,-8 0,-11z"/>
 </g>
</svg>
