<?xml version="1.0" encoding="UTF-8"?>
<!DOCTYPE svg PUBLIC "-//W3C//DTD SVG 1.0//EN" "http://www.w3.org/TR/2001/REC-SVG-20010904/DTD/svg10.dtd">
<!-- Creator: CorelDRAW -->
<svg xmlns="http://www.w3.org/2000/svg" xml:space="preserve" width="1300px" height="1300px" version="1.0" style="shape-rendering:geometricPrecision; text-rendering:geometricPrecision; image-rendering:optimizeQuality; fill-rule:evenodd; clip-rule:evenodd"
viewBox="0 0 1300 1056"
 xmlns:xlink="http://www.w3.org/1999/xlink">
 <defs>
  <style type="text/css">
   <![CDATA[
    .fil0 {fill:#666666;fill-opacity:0.850980}
    .fil1 {fill:#336666}
    .fil2 {fill:#996633}
   ]]>
  </style>
 </defs>
 <g id="_100:master" visibility="hidden">
  <metadata id="CorelCorpID_0Corel-Layer"/>
  <path class="fil0" d="M845 563c-91,42 -150,96 -176,148 -45,90 46,183 184,183 54,0 145,-6 201,-20l5 22c-46,51 -141,79 -214,79 -118,0 -258,-52 -232,-247 11,-81 62,-164 164,-220 7,1 73,14 68,55z"/>
  <path class="fil1" d="M829 571l-45 -66c115,-40 178,-111 63,-117 -47,-2 -174,12 -226,29l17 -81c47,-18 169,-32 224,-30 156,6 109,177 -33,265z"/>
  <path class="fil2" d="M1067 569l-1 81 -51 0c-209,0 -269,-228 -395,-236l11 -51c158,17 184,206 377,206l59 0z"/>
 </g>
 <g id="Layer_x0020_1">
  <metadata id="CorelCorpID_1Corel-Layer"/>
  <path class="fil1" d="M784 458c56,-24 94,-54 90,-79 -5,-29 -57,-42 -105,-42 -26,0 -59,9 -91,21 31,27 67,65 106,100zm-213 -56l0 0 0 0 0 0 20 -88 0 0c37,-17 112,-59 195,-59 83,0 167,36 126,142 -10,26 -34,67 -78,104 50,39 102,68 154,68l9 0 0 81 -9 0c-87,0 -151,-55 -206,-114 -108,50 -176,136 -171,207 5,86 112,149 374,105l4 18c-116,113 -463,119 -425,-170 11,-81 67,-164 166,-217 -52,-55 -100,-97 -159,-77z"/>
 </g>
</svg>
