<?xml version="1.0" encoding="UTF-8"?>
<!DOCTYPE svg PUBLIC "-//W3C//DTD SVG 1.0//EN" "http://www.w3.org/TR/2001/REC-SVG-20010904/DTD/svg10.dtd">
<!-- Creator: CorelDRAW -->
<svg xmlns="http://www.w3.org/2000/svg" xml:space="preserve" width="1300px" height="1300px" version="1.0" style="shape-rendering:geometricPrecision; text-rendering:geometricPrecision; image-rendering:optimizeQuality; fill-rule:evenodd; clip-rule:evenodd"
viewBox="0 0 1300 1056"
 xmlns:xlink="http://www.w3.org/1999/xlink">
 <defs>
  <style type="text/css">
   <![CDATA[
    .fil0 {fill:#336666}
    .fil2 {fill:#996633}
    .fil3 {fill:#B3B3B3}
    .fil1 {fill:#CC3300}
   ]]>
  </style>
 </defs>
 <g id="_100:master" visibility="hidden">
  <metadata id="CorelCorpID_0Corel-Layer"/>
  <path class="fil0" d="M603 650l-1 -81 48 0c191,0 384,-137 221,-146 -47,-2 -174,12 -226,29l18 -81c46,-18 168,-32 223,-30 216,8 28,309 -236,309l-47 0z"/>
  <path class="fil1" d="M604 569l0 81c-21,0 -41,-20 -41,-41 0,-21 20,-40 41,-40z"/>
  <path class="fil2" d="M1034 569l0 81 -52 0c-208,0 -212,-193 -338,-201l12 -51c157,17 127,171 319,171l59 0z"/>
 </g>
 <g id="Layer_x0020_1" visibility="hidden">
  <metadata id="CorelCorpID_1Corel-Layer"/>
  <path class="fil0" d="M632 650l-26 0 0 -81 22 0c215,0 339,-118 326,-135 -50,-65 -223,-11 -309,42l18 -81c154,-111 323,-84 333,8 11,106 -152,247 -364,247z"/>
  <path class="fil1" d="M607 569l0 81c-21,0 -41,-20 -41,-41 0,-21 20,-40 41,-40z"/>
  <path class="fil2" d="M1035 569l0 81 -6 0c-250,0 -272,-244 -384,-174l18 -81c89,-49 127,174 367,174l5 0z"/>
 </g>
 <g id="Layer_x0020_3" visibility="hidden">
  <metadata id="CorelCorpID_2Corel-Layer"/>
  <path class="fil3" d="M1056 569l0 81c-58,0 -124,-8 -201,-58 -54,31 -131,58 -184,58l-23 0 0 -81c62,0 80,-5 141,-27 -9,-36 -53,-71 -98,-75l11 -74c131,-88 314,-68 314,34 0,41 -49,94 -95,116 36,11 79,26 121,26l14 0z"/>
 </g>
 <g id="Layer_x0020_2">
  <metadata id="CorelCorpID_3Corel-Layer"/>
  <path class="fil0" d="M664 650l0 0c-20,0 -40,-20 -40,-41 1,-20 20,-40 40,-40l0 0c9,0 18,0 26,0 32,0 73,-11 113,-26 -37,-38 -67,-72 -112,-76l0 0 11 -74c93,-76 325,-86 313,43 -4,43 -37,84 -82,118 29,9 65,15 110,15l15 0 -1 81 -20 0c-79,0 -132,-23 -173,-52 -61,32 -128,52 -174,52l-25 0 -1 0zm197 -131c56,-26 101,-55 103,-67 1,-7 -2,-13 -10,-18 -46,-29 -122,-18 -186,2 29,22 53,55 93,83z"/>
 </g>
</svg>
