<?xml version="1.0" encoding="UTF-8"?>
<!DOCTYPE svg PUBLIC "-//W3C//DTD SVG 1.0//EN" "http://www.w3.org/TR/2001/REC-SVG-20010904/DTD/svg10.dtd">
<!-- Creator: CorelDRAW -->
<svg xmlns="http://www.w3.org/2000/svg" xml:space="preserve" width="1300px" height="1300px" version="1.0" style="shape-rendering:geometricPrecision; text-rendering:geometricPrecision; image-rendering:optimizeQuality; fill-rule:evenodd; clip-rule:evenodd"
viewBox="0 0 1300 1056"
 xmlns:xlink="http://www.w3.org/1999/xlink">
 <defs>
  <style type="text/css">
   <![CDATA[
    .fil2 {fill:#999966}
    .fil1 {fill:#CC3300}
    .fil0 {fill:#CC6633}
    .fil3 {fill:#FF0066}
   ]]>
  </style>
 </defs>
 <g id="_100:master" visibility="hidden">
  <metadata id="CorelCorpID_0Corel-Layer"/>
  <path class="fil0" d="M617 650l1 -81 70 0c124,0 208,-36 287,-61l-21 61c-41,13 -170,81 -281,81l-56 0z"/>
  <path class="fil1" d="M618 569c-21,0 -41,19 -41,40 0,21 20,41 40,41l1 -81z"/>
  <path class="fil2" d="M719 429l-29 -21c82,-144 206,-81 243,-39l-11 32c-69,-27 -169,-15 -203,28z"/>
  <path class="fil3" d="M730 356l24 40c-43,31 -14,112 51,161l-71 33c-107,-113 -46,-190 -4,-234z"/>
 </g>
 <g id="Layer_x0020_1">
  <metadata id="CorelCorpID_1Corel-Layer"/>
  <path class="fil0" d="M605 650l0 0c-20,-1 -40,-20 -40,-41 1,-20 20,-40 40,-40l0 0 1 0 49 0c20,0 41,-1 62,-3 -45,-50 -53,-121 -11,-178 7,-11 16,-20 25,-28l0 0 0 0c25,-20 55,-28 81,-27 55,1 99,40 119,78l-10 12c-55,-22 -144,-32 -200,8 7,56 48,104 80,124 56,-10 115,-25 178,-47l-20 61c-81,41 -176,81 -303,81l-50 0 -1 0z"/>
 </g>
</svg>
