<?xml version="1.0" encoding="UTF-8"?>
<!DOCTYPE svg PUBLIC "-//W3C//DTD SVG 1.0//EN" "http://www.w3.org/TR/2001/REC-SVG-20010904/DTD/svg10.dtd">
<!-- Creator: CorelDRAW -->
<svg xmlns="http://www.w3.org/2000/svg" xml:space="preserve" width="1300px" height="1300px" version="1.0" style="shape-rendering:geometricPrecision; text-rendering:geometricPrecision; image-rendering:optimizeQuality; fill-rule:evenodd; clip-rule:evenodd"
viewBox="0 0 1300 1056"
 xmlns:xlink="http://www.w3.org/1999/xlink">
 <defs>
  <style type="text/css">
   <![CDATA[
    .fil0 {fill:#666666;fill-opacity:0.850980}
    .fil2 {fill:#6699FF;fill-opacity:0.850980}
    .fil5 {fill:#663333}
    .fil1 {fill:#999966}
    .fil3 {fill:#CC6633}
    .fil4 {fill:#FF0066}
   ]]>
  </style>
 </defs>
 <g id="_100:master" visibility="hidden">
  <metadata id="CorelCorpID_0Corel-Layer"/>
  <path class="fil0" d="M985 848l4 18c-116,113 -463,119 -425,-170 13,-93 84,-189 212,-238 56,-21 152,-41 206,-45l-26 76c-74,10 -121,24 -165,43 -245,106 -294,398 194,316z"/>
  <path class="fil1" d="M698 290c81,-128 199,-67 235,-26l-11 32c-58,-23 -137,-19 -181,9 -22,37 7,104 64,146l-71 33c-59,-62 -80,-121 -36,-194z"/>
 </g>
 <g id="Layer_x0020_1" visibility="hidden">
  <metadata id="CorelCorpID_1Corel-Layer"/>
  <path class="fil2" d="M734 452l78 50c-109,39 -217,121 -231,226 -10,67 69,198 388,124l6 21c-191,159 -508,82 -445,-200 28,-101 102,-176 204,-221z"/>
  <path class="fil3" d="M754 523l-29 -70c51,-17 133,-37 209,-40l-20 60c-59,12 -102,29 -160,50z"/>
  <path class="fil4" d="M639 282l48 33c-22,23 11,100 82,148l-66 33c-63,-40 -104,-139 -64,-214z"/>
  <path class="fil5" d="M666 341l-34 -44c55,-133 203,-123 274,-32l-8 24c-79,-21 -172,-25 -232,52z"/>
 </g>
 <g id="Layer_x0020_2">
  <metadata id="CorelCorpID_2Corel-Layer"/>
  <path class="fil4" d="M682 263l0 0c26,-21 56,-28 82,-28 54,2 98,41 119,78l-11 12c-54,-21 -144,-31 -199,9 7,60 54,112 87,128 56,-18 129,-36 170,-32l-16 57c-62,13 -98,33 -147,53 -228,93 -302,354 20,354 50,0 111,-7 182,-24l6 22c-65,55 -146,83 -220,83 -293,0 -316,-340 -63,-484 -65,-49 -83,-135 -35,-201 8,-11 16,-20 25,-27l0 0z"/>
 </g>
</svg>
