<?xml version="1.0" encoding="UTF-8"?>
<!DOCTYPE svg PUBLIC "-//W3C//DTD SVG 1.0//EN" "http://www.w3.org/TR/2001/REC-SVG-20010904/DTD/svg10.dtd">
<!-- Creator: CorelDRAW -->
<svg xmlns="http://www.w3.org/2000/svg" xml:space="preserve" width="1300px" height="1300px" version="1.0" style="shape-rendering:geometricPrecision; text-rendering:geometricPrecision; image-rendering:optimizeQuality; fill-rule:evenodd; clip-rule:evenodd"
viewBox="0 0 1300 1056"
 xmlns:xlink="http://www.w3.org/1999/xlink">
 <defs>
  <style type="text/css">
   <![CDATA[
    .fil0 {fill:#336666}
   ]]>
  </style>
 </defs>
 <g id="_100:master">
  <metadata id="CorelCorpID_0Corel-Layer"/>
  <path class="fil0" d="M603 650l0 0c-20,-1 -40,-20 -40,-41 0,-20 20,-39 39,-40l0 0 2 0 46 0c45,0 89,-8 130,-19 -40,-47 -71,-93 -127,-100 -3,0 -6,1 -8,2l1 -3 -2 0 12 -51 1 0 6 -27c46,-18 168,-32 223,-30 136,5 112,127 9,216 21,7 48,12 80,12l59 0 0 81 -52 0c-68,0 -114,-21 -150,-49 -52,29 -115,49 -182,49l-46 0 -1 0zm238 -122c93,-41 134,-99 30,-105 -26,-1 -77,2 -126,9 37,28 59,66 96,96z"/>
 </g>
</svg>
