<?xml version="1.0" encoding="UTF-8"?>
<!DOCTYPE svg PUBLIC "-//W3C//DTD SVG 1.0//EN" "http://www.w3.org/TR/2001/REC-SVG-20010904/DTD/svg10.dtd">
<!-- Creator: CorelDRAW -->
<svg xmlns="http://www.w3.org/2000/svg" xml:space="preserve" width="1300px" height="1300px" version="1.0" style="shape-rendering:geometricPrecision; text-rendering:geometricPrecision; image-rendering:optimizeQuality; fill-rule:evenodd; clip-rule:evenodd"
viewBox="0 0 1300 1056"
 xmlns:xlink="http://www.w3.org/1999/xlink">
 <defs>
  <style type="text/css">
   <![CDATA[
    .fil0 {fill:#666666;fill-opacity:0.850980}
    .fil2 {fill:#6699FF;fill-opacity:0.850980}
    .fil5 {fill:#663333}
    .fil1 {fill:#999966}
    .fil3 {fill:#CC6633}
    .fil4 {fill:#FF0066}
   ]]>
  </style>
 </defs>
 <g id="_100:master" visibility="hidden">
  <metadata id="CorelCorpID_0Corel-Layer"/>
  <path class="fil0" d="M985 848l4 18c-116,113 -463,119 -425,-170 13,-93 84,-189 212,-238 56,-21 152,-41 206,-45l-26 76c-74,10 -121,24 -165,43 -245,106 -294,398 194,316z"/>
  <path class="fil1" d="M698 290c81,-128 199,-67 235,-26l-11 32c-58,-23 -137,-19 -181,9 -22,37 7,104 64,146l-71 33c-59,-62 -80,-121 -36,-194z"/>
 </g>
 <g id="Layer_x0020_1" visibility="hidden">
  <metadata id="CorelCorpID_1Corel-Layer"/>
  <path class="fil2" d="M734 452l78 50c-109,39 -217,121 -231,226 -10,67 69,198 388,124l6 21c-191,159 -508,82 -445,-200 28,-101 102,-176 204,-221z"/>
  <path class="fil3" d="M754 523l-29 -70c51,-17 133,-37 209,-40l-20 60c-59,12 -102,29 -160,50z"/>
  <path class="fil4" d="M639 282l48 33c-22,23 11,100 82,148l-66 33c-63,-40 -104,-139 -64,-214z"/>
  <path class="fil5" d="M666 341l-34 -44c55,-133 203,-123 274,-32l-8 24c-79,-21 -172,-25 -232,52z"/>
 </g>
 <g id="Layer_x0020_2" visibility="hidden">
  <metadata id="CorelCorpID_2Corel-Layer"/>
  <path class="fil2" d="M788 451l-30 95c-163,97 -185,276 86,274 50,-1 111,-7 182,-24l6 22c-66,56 -146,82 -221,83 -265,2 -279,-327 -23,-450z"/>
  <path class="fil4" d="M739 211c-16,87 -16,185 77,234l-62 35c-51,-26 -98,-117 -73,-198 8,-28 33,-45 58,-71z"/>
  <path class="fil5" d="M683 329c1,-18 -7,-34 -2,-47 26,-65 79,-96 129,-97 52,0 105,34 131,79l-7 18c-32,-7 -76,-15 -121,-15 -37,0 -93,15 -106,64 -3,10 -17,-11 -24,-2z"/>
  <path class="fil3" d="M736 560l42 -104c48,-22 144,-42 197,-50l-7 44c-58,23 -172,70 -232,110z"/>
 </g>
 <g id="Layer_x0020_3" visibility="hidden">
  <metadata id="CorelCorpID_3Corel-Layer"/>
  <path class="fil4" d="M738 217c-32,50 -15,181 78,230l-62 36c-51,-27 -98,-117 -73,-199 8,-27 33,-41 57,-67z"/>
  <path class="fil5" d="M683 331c1,-18 -7,-33 -2,-47 7,-16 14,-32 25,-43 58,-62 177,-49 235,25l-7 18c-59,-13 -206,-27 -227,49 -3,10 -17,-11 -24,-2z"/>
  <path class="fil3" d="M758 546l1 -79c53,-32 150,-49 232,-61l-16 63c-100,28 -154,43 -217,77z"/>
  <path class="fil2" d="M788 451l-30 95c-163,97 -185,276 86,274 50,-1 111,-7 182,-24l6 22c-66,56 -146,82 -221,83 -265,2 -279,-327 -23,-450z"/>
 </g>
 <g id="Layer_x0020_4">
  <metadata id="CorelCorpID_4Corel-Layer"/>
  <path class="fil2" d="M805 547c-191,95 -235,308 54,306 50,0 110,-7 182,-23l5 22c-65,55 -145,82 -220,82 -253,2 -278,-306 -58,-445 -46,-32 -83,-113 -63,-187 0,-2 1,-3 1,-5 2,-4 3,-8 6,-12 5,-12 11,-23 19,-31 9,-10 21,-19 32,-24 63,-32 155,-13 203,49l-6 18c-50,-11 -163,-22 -210,20 7,52 33,110 86,140 53,-18 120,-29 180,-38l-16 63c-87,24 -140,39 -195,65z"/>
 </g>
</svg>
