<?xml version="1.0" encoding="UTF-8"?>
<!DOCTYPE svg PUBLIC "-//W3C//DTD SVG 1.0//EN" "http://www.w3.org/TR/2001/REC-SVG-20010904/DTD/svg10.dtd">
<!-- Creator: CorelDRAW -->
<svg xmlns="http://www.w3.org/2000/svg" xml:space="preserve" width="1300px" height="1300px" version="1.0" style="shape-rendering:geometricPrecision; text-rendering:geometricPrecision; image-rendering:optimizeQuality; fill-rule:evenodd; clip-rule:evenodd"
viewBox="0 0 1300 1056"
 xmlns:xlink="http://www.w3.org/1999/xlink">
 <defs>
  <style type="text/css">
   <![CDATA[
    .fil0 {fill:#336666}
    .fil2 {fill:#996633}
    .fil1 {fill:#CC3300}
   ]]>
  </style>
 </defs>
 <g id="_100:master" visibility="hidden">
  <metadata id="CorelCorpID_0Corel-Layer"/>
  <path class="fil0" d="M603 650l-1 -81 48 0c191,0 384,-137 221,-146 -47,-2 -174,12 -226,29l18 -81c46,-18 168,-32 223,-30 216,8 28,309 -236,309l-47 0z"/>
  <path class="fil1" d="M604 569l0 81c-21,0 -41,-20 -41,-41 0,-21 20,-40 41,-40z"/>
  <path class="fil2" d="M1034 569l0 81 -52 0c-208,0 -212,-193 -338,-201l12 -51c157,17 127,171 319,171l59 0z"/>
 </g>
 <g id="Layer_x0020_1" visibility="hidden">
  <metadata id="CorelCorpID_1Corel-Layer"/>
  <path class="fil0" d="M632 650l-26 0 0 -81 22 0c215,0 339,-118 326,-135 -50,-65 -223,-11 -309,42l18 -81c154,-111 323,-84 333,8 11,106 -152,247 -364,247z"/>
  <path class="fil1" d="M607 569l0 81c-21,0 -41,-20 -41,-41 0,-21 20,-40 41,-40z"/>
  <path class="fil2" d="M1035 569l0 81 -6 0c-250,0 -272,-244 -384,-174l18 -81c89,-49 127,174 367,174l5 0z"/>
 </g>
 <g id="Layer_x0020_2">
  <metadata id="CorelCorpID_2Corel-Layer"/>
  <path class="fil0" d="M608 650l0 0c-20,-1 -40,-20 -40,-41 1,-20 20,-39 39,-40l0 0 2 0 21 0c44,0 92,-11 135,-25 -51,-38 -92,-72 -134,-72l23 -101c37,-18 111,-51 195,-51 83,0 167,36 126,142 -9,22 -33,55 -71,86 38,13 83,21 140,21l14 0 -1 81 -13 0c-85,0 -150,-25 -204,-57 -57,33 -128,57 -209,57l-22 0 -1 0zm225 -134c60,-28 102,-60 103,-72 3,-29 -60,-42 -104,-42 -44,0 -87,15 -133,31 46,18 82,53 134,83z"/>
 </g>
</svg>
