<?xml version="1.0" encoding="UTF-8"?>
<!DOCTYPE svg PUBLIC "-//W3C//DTD SVG 1.0//EN" "http://www.w3.org/TR/2001/REC-SVG-20010904/DTD/svg10.dtd">
<!-- Creator: CorelDRAW -->
<svg xmlns="http://www.w3.org/2000/svg" xml:space="preserve" width="1300px" height="1300px" version="1.0" style="shape-rendering:geometricPrecision; text-rendering:geometricPrecision; image-rendering:optimizeQuality; fill-rule:evenodd; clip-rule:evenodd"
viewBox="0 0 1300 1056"
 xmlns:xlink="http://www.w3.org/1999/xlink">
 <defs>
  <style type="text/css">
   <![CDATA[
    .fil0 {fill:#666666;fill-opacity:0.850980}
    .fil1 {fill:#336666}
    .fil2 {fill:#996633}
   ]]>
  </style>
 </defs>
 <g id="_100:master" visibility="hidden">
  <metadata id="CorelCorpID_0Corel-Layer"/>
  <path class="fil0" d="M845 563c-91,42 -150,96 -176,148 -45,90 46,183 184,183 54,0 145,-6 201,-20l5 22c-46,51 -141,79 -214,79 -118,0 -258,-52 -232,-247 11,-81 62,-164 164,-220 7,1 73,14 68,55z"/>
  <path class="fil1" d="M829 571l-45 -66c115,-40 178,-111 63,-117 -47,-2 -174,12 -226,29l17 -81c47,-18 169,-32 224,-30 156,6 109,177 -33,265z"/>
  <path class="fil2" d="M1067 569l-1 81 -51 0c-209,0 -269,-228 -395,-236l11 -51c158,17 184,206 377,206l59 0z"/>
 </g>
 <g id="Layer_x0020_1" visibility="hidden">
  <metadata id="CorelCorpID_1Corel-Layer"/>
  <path class="fil1" d="M804 523l-35 -59c64,-25 109,-57 105,-85 -5,-29 -57,-42 -105,-42 -59,0 -154,46 -198,65l20 -88c37,-17 112,-59 195,-59 83,0 167,36 126,142 -12,32 -44,84 -108,126z"/>
  <path class="fil2" d="M997 569l0 81 -9 0c-201,0 -279,-296 -417,-248l20 -88c71,-27 235,255 397,255l9 0z"/>
  <path class="fil0" d="M775 459l23 70c-117,49 -192,140 -187,214 5,86 112,149 374,105l4 18c-116,113 -463,119 -425,-170 13,-93 84,-188 211,-237z"/>
 </g>
 <g id="Layer_x0020_2">
  <metadata id="CorelCorpID_2Corel-Layer"/>
  <path class="fil1" d="M726 479c55,-26 98,-54 100,-65 1,-8 -3,-13 -10,-18 -45,-29 -120,-19 -184,1 31,21 61,52 94,82zm-172 -51l-1 1 0 -1 0 0 8 -54 0 0 3 -19c93,-76 325,-86 313,42 -5,47 -43,91 -93,127 40,27 88,46 150,45l59 -1 -1 81 -54 0c-99,0 -163,-41 -214,-88 -193,105 -238,333 63,333 50,0 111,-7 182,-24l6 22c-65,55 -146,83 -220,83 -284,0 -314,-319 -86,-470 -38,-39 -72,-73 -115,-77z"/>
 </g>
</svg>
