<?xml version="1.0" encoding="UTF-8"?>
<!DOCTYPE svg PUBLIC "-//W3C//DTD SVG 1.0//EN" "http://www.w3.org/TR/2001/REC-SVG-20010904/DTD/svg10.dtd">
<!-- Creator: CorelDRAW -->
<svg xmlns="http://www.w3.org/2000/svg" xml:space="preserve" width="1300px" height="1300px" version="1.0" style="shape-rendering:geometricPrecision; text-rendering:geometricPrecision; image-rendering:optimizeQuality; fill-rule:evenodd; clip-rule:evenodd"
viewBox="0 0 1300 1056"
 xmlns:xlink="http://www.w3.org/1999/xlink">
 <defs>
  <style type="text/css">
   <![CDATA[
    .fil4 {fill:#999933;fill-opacity:0.501961}
    .fil3 {fill:#660066;fill-opacity:0.549020}
    .fil2 {fill:#6666FF}
    .fil0 {fill:#996633}
    .fil5 {fill:#CC6633}
    .fil1 {fill:#FFCC00}
   ]]>
  </style>
 </defs>
 <g id="_100:master" visibility="hidden">
  <metadata id="CorelCorpID_0Corel-Layer"/>
  <path class="fil0" d="M960 569l-46 6c27,-96 15,-253 -63,-257 -38,-2 -61,44 -62,62l-36 4c7,-69 51,-152 114,-152 115,0 137,262 93,337z"/>
  <path class="fil1" d="M754 372l37 -4c-16,54 76,56 164,40l-16 80c-101,17 -207,13 -185,-116z"/>
  <path class="fil2" d="M735 569c-20,0 -40,19 -40,40 -1,21 20,41 40,41l78 0 0 -81 -78 0z"/>
  <path class="fil3" d="M928 544l41 -5c-16,70 -67,111 -136,111l-20 0 0 -81 20 0c43,0 74,-11 95,-25z"/>
 </g>
 <g id="Layer_x0020_1" visibility="hidden">
  <metadata id="CorelCorpID_1Corel-Layer"/>
  <path class="fil4" d="M792 650l0 -81 20 0c26,0 49,-4 68,-10 39,-12 67,-47 76,-73l19 1c0,118 -60,163 -163,163l-20 0z"/>
  <path class="fil2" d="M711 569c-20,0 -40,19 -41,40 0,21 21,41 41,41l81 0 0 -81 -81 0z"/>
  <path class="fil0" d="M972 526l-54 54c20,-157 -37,-278 -87,-278 -24,0 -48,39 -52,58l-38 25c3,-69 43,-169 105,-169 100,0 153,207 126,310z"/>
  <path class="fil1" d="M743 364l36 -4c-15,54 98,67 172,7l-16 81c-61,72 -215,44 -192,-84z"/>
 </g>
 <g id="Layer_x0020_2">
  <metadata id="CorelCorpID_2Corel-Layer"/>
  <path class="fil5" d="M911 414c-21,6 -44,10 -65,9 -39,-1 -64,-23 -54,-46l0 0c13,-31 36,-52 59,-52 26,0 48,39 60,89zm-181 155l0 0 113 -1c33,0 55,-7 72,-17 3,-18 5,-36 5,-55 -23,6 -50,8 -75,8 -66,0 -101,-41 -96,-111 -1,-46 30,-149 110,-149 73,0 111,107 115,212 1,12 1,23 0,35l0 0c-3,88 -33,156 -124,159l0 0 0 0 -5 0 -115 0 0 0c-20,-1 -39,-20 -39,-41 0,-20 19,-40 39,-40z"/>
 </g>
</svg>
