<?xml version="1.0" encoding="UTF-8"?>
<!DOCTYPE svg PUBLIC "-//W3C//DTD SVG 1.0//EN" "http://www.w3.org/TR/2001/REC-SVG-20010904/DTD/svg10.dtd">
<!-- Creator: CorelDRAW -->
<svg xmlns="http://www.w3.org/2000/svg" xml:space="preserve" width="1300px" height="1300px" version="1.0" style="shape-rendering:geometricPrecision; text-rendering:geometricPrecision; image-rendering:optimizeQuality; fill-rule:evenodd; clip-rule:evenodd"
viewBox="0 0 1300 1056"
 xmlns:xlink="http://www.w3.org/1999/xlink">
 <defs>
  <style type="text/css">
   <![CDATA[
    .fil0 {fill:#999966}
   ]]>
  </style>
 </defs>
 <g id="_100:master">
  <metadata id="CorelCorpID_0Corel-Layer"/>
  <path class="fil0" d="M430 404l25 12c-44,128 46,174 195,173 70,-1 142,-14 204,-32 -23,-33 -32,-71 -31,-106 4,-81 71,-158 123,-158 45,0 91,78 87,142 -3,47 -23,87 -51,119 27,9 58,15 95,15l20 0 0 81 -20 0c-72,0 -126,-15 -166,-39 -71,32 -181,59 -281,59 -151,1 -278,-62 -200,-266zm488 117c-41,-31 -59,-65 -58,-75 0,-18 43,-67 74,-72 22,-4 58,52 58,76 -1,10 -31,42 -74,71z"/>
 </g>
</svg>
