<?xml version="1.0" encoding="UTF-8"?>
<!DOCTYPE svg PUBLIC "-//W3C//DTD SVG 1.0//EN" "http://www.w3.org/TR/2001/REC-SVG-20010904/DTD/svg10.dtd">
<!-- Creator: CorelDRAW -->
<svg xmlns="http://www.w3.org/2000/svg" xml:space="preserve" width="1300px" height="1300px" version="1.0" style="shape-rendering:geometricPrecision; text-rendering:geometricPrecision; image-rendering:optimizeQuality; fill-rule:evenodd; clip-rule:evenodd"
viewBox="0 0 1300 1056"
 xmlns:xlink="http://www.w3.org/1999/xlink">
 <defs>
  <style type="text/css">
   <![CDATA[
    .fil4 {fill:#999933;fill-opacity:0.501961}
    .fil3 {fill:#660066;fill-opacity:0.549020}
    .fil2 {fill:#6666FF}
    .fil0 {fill:#996633}
    .fil5 {fill:#CC6633}
    .fil1 {fill:#FFCC00}
   ]]>
  </style>
 </defs>
 <g id="_100:master" visibility="hidden">
  <metadata id="CorelCorpID_0Corel-Layer"/>
  <path class="fil0" d="M960 569l-46 6c27,-96 15,-253 -63,-257 -38,-2 -61,44 -62,62l-36 4c7,-69 51,-152 114,-152 115,0 137,262 93,337z"/>
  <path class="fil1" d="M754 372l37 -4c-16,54 76,56 164,40l-16 80c-101,17 -207,13 -185,-116z"/>
  <path class="fil2" d="M735 569c-20,0 -40,19 -40,40 -1,21 20,41 40,41l78 0 0 -81 -78 0z"/>
  <path class="fil3" d="M928 544l41 -5c-16,70 -67,111 -136,111l-20 0 0 -81 20 0c43,0 74,-11 95,-25z"/>
 </g>
 <g id="Layer_x0020_1" visibility="hidden">
  <metadata id="CorelCorpID_1Corel-Layer"/>
  <path class="fil4" d="M792 650l0 -81 20 0c26,0 49,-4 68,-10 39,-12 67,-47 76,-73l19 1c0,118 -60,163 -163,163l-20 0z"/>
  <path class="fil2" d="M711 569c-20,0 -40,19 -41,40 0,21 21,41 41,41l81 0 0 -81 -81 0z"/>
  <path class="fil0" d="M972 526l-54 54c20,-157 -37,-278 -87,-278 -24,0 -48,39 -52,58l-38 25c3,-69 43,-169 105,-169 100,0 153,207 126,310z"/>
  <path class="fil1" d="M743 364l36 -4c-15,54 98,67 172,7l-16 81c-61,72 -215,44 -192,-84z"/>
 </g>
 <g id="Layer_x0020_2">
  <metadata id="CorelCorpID_2Corel-Layer"/>
  <path class="fil5" d="M902 403c-64,26 -136,11 -131,-28l0 0c4,-24 30,-57 54,-57 29,0 59,34 77,85zm-233 166l65 0c75,0 139,-23 187,-56 0,-14 -1,-29 -3,-43 -23,19 -55,28 -84,28 -72,0 -109,-34 -107,-97l0 0c0,-9 1,-18 3,-27l0 0c12,-65 56,-142 111,-142 76,0 136,130 133,236l1 -1c0,123 -121,183 -241,183l-65 0c-20,0 -41,-20 -40,-41 0,-21 20,-40 40,-40z"/>
 </g>
</svg>
