<?xml version="1.0" encoding="UTF-8"?>
<!DOCTYPE svg PUBLIC "-//W3C//DTD SVG 1.0//EN" "http://www.w3.org/TR/2001/REC-SVG-20010904/DTD/svg10.dtd">
<!-- Creator: CorelDRAW -->
<svg xmlns="http://www.w3.org/2000/svg" xml:space="preserve" width="1300px" height="1300px" version="1.0" style="shape-rendering:geometricPrecision; text-rendering:geometricPrecision; image-rendering:optimizeQuality; fill-rule:evenodd; clip-rule:evenodd"
viewBox="0 0 1300 1056"
 xmlns:xlink="http://www.w3.org/1999/xlink">
 <defs>
  <style type="text/css">
   <![CDATA[
    .fil0 {fill:#999966}
   ]]>
  </style>
 </defs>
 <g id="_100:master">
  <metadata id="CorelCorpID_0Corel-Layer"/>
  <path class="fil0" d="M430 404l25 12c-44,128 46,174 195,173 68,-1 139,-13 200,-31 -24,-25 -37,-51 -33,-72 12,-80 82,-169 130,-169 46,0 82,70 82,137 0,35 -18,70 -47,102 28,8 56,13 81,13l25 0 0 81 -25 0c-53,0 -105,-17 -147,-41 -71,33 -184,61 -286,61 -151,1 -278,-62 -200,-266zm568 74c-2,9 -33,33 -78,54 -39,-20 -67,-45 -62,-68 17,-33 59,-65 77,-66 33,-2 64,60 63,80z"/>
 </g>
</svg>
