<?xml version="1.0" encoding="UTF-8"?>
<!DOCTYPE svg PUBLIC "-//W3C//DTD SVG 1.0//EN" "http://www.w3.org/TR/2001/REC-SVG-20010904/DTD/svg10.dtd">
<!-- Creator: CorelDRAW -->
<svg xmlns="http://www.w3.org/2000/svg" xml:space="preserve" width="1300px" height="1300px" version="1.0" style="shape-rendering:geometricPrecision; text-rendering:geometricPrecision; image-rendering:optimizeQuality; fill-rule:evenodd; clip-rule:evenodd"
viewBox="0 0 1300 1056"
 xmlns:xlink="http://www.w3.org/1999/xlink">
 <defs>
  <style type="text/css">
   <![CDATA[
    .fil0 {fill:#336666;fill-opacity:0.600000}
   ]]>
  </style>
 </defs>
 <g id="_100:master">
  <metadata id="CorelCorpID_0Corel-Layer"/>
  <path class="fil0" d="M878 532c38,-20 59,-45 63,-62l0 1c1,-20 -38,-66 -71,-65 -18,1 -52,25 -69,58 0,20 32,47 77,68zm-110 -45c0,-82 66,-162 114,-162 46,0 90,81 90,121 1,38 -14,75 -39,107 32,10 67,16 101,16l22 0 0 81c-69,0 -136,-17 -187,-43 -44,27 -98,43 -155,43l-23 0 0 0 0 0c-20,-1 -40,-20 -40,-41 0,-21 20,-40 40,-40l0 0 0 0 24 0c32,0 61,-4 86,-9 -23,-23 -35,-48 -33,-73z"/>
 </g>
</svg>
