<?xml version="1.0" encoding="UTF-8"?>
<!DOCTYPE svg PUBLIC "-//W3C//DTD SVG 1.0//EN" "http://www.w3.org/TR/2001/REC-SVG-20010904/DTD/svg10.dtd">
<!-- Creator: CorelDRAW -->
<svg xmlns="http://www.w3.org/2000/svg" xml:space="preserve" width="1300px" height="1300px" version="1.0" style="shape-rendering:geometricPrecision; text-rendering:geometricPrecision; image-rendering:optimizeQuality; fill-rule:evenodd; clip-rule:evenodd"
viewBox="0 0 1300 1056"
 xmlns:xlink="http://www.w3.org/1999/xlink">
 <defs>
  <style type="text/css">
   <![CDATA[
    .fil4 {fill:#999933;fill-opacity:0.501961}
    .fil3 {fill:#660066;fill-opacity:0.549020}
    .fil2 {fill:#6666FF}
    .fil0 {fill:#996633}
    .fil1 {fill:#FFCC00}
   ]]>
  </style>
 </defs>
 <g id="_100:master" visibility="hidden">
  <metadata id="CorelCorpID_0Corel-Layer"/>
  <path class="fil0" d="M960 569l-46 6c27,-96 15,-253 -63,-257 -38,-2 -61,44 -62,62l-36 4c7,-69 51,-152 114,-152 115,0 137,262 93,337z"/>
  <path class="fil1" d="M754 372l37 -4c-16,54 76,56 164,40l-16 80c-101,17 -207,13 -185,-116z"/>
  <path class="fil2" d="M735 569c-20,0 -40,19 -40,40 -1,21 20,41 40,41l78 0 0 -81 -78 0z"/>
  <path class="fil3" d="M928 544l41 -5c-16,70 -67,111 -136,111l-20 0 0 -81 20 0c43,0 74,-11 95,-25z"/>
 </g>
 <g id="Layer_x0020_1">
  <metadata id="CorelCorpID_1Corel-Layer"/>
  <path class="fil4" d="M792 569l20 0c26,0 49,-4 68,-10 16,-5 30,-14 42,-24 1,-26 0,-50 -2,-72 -64,49 -182,23 -179,-78l0 0 0 -10c7,-68 45,-159 105,-159 98,0 151,198 127,304 -10,94 -68,130 -161,130l-20 0 -81 0c-20,0 -41,-20 -41,-41 1,-21 21,-40 41,-40l81 0zm113 -175c-18,-57 -47,-92 -74,-92 -24,0 -48,39 -52,58l0 0c-12,43 59,60 126,34z"/>
 </g>
</svg>
