<?xml version="1.0" encoding="UTF-8"?>
<!DOCTYPE svg PUBLIC "-//W3C//DTD SVG 1.0//EN" "http://www.w3.org/TR/2001/REC-SVG-20010904/DTD/svg10.dtd">
<!-- Creator: CorelDRAW -->
<svg xmlns="http://www.w3.org/2000/svg" xml:space="preserve" width="1300px" height="1300px" version="1.0" style="shape-rendering:geometricPrecision; text-rendering:geometricPrecision; image-rendering:optimizeQuality; fill-rule:evenodd; clip-rule:evenodd"
viewBox="0 0 1300 1056"
 xmlns:xlink="http://www.w3.org/1999/xlink">
 <defs>
  <style type="text/css">
   <![CDATA[
    .fil0 {fill:#996633}
    .fil2 {fill:#FF99CC}
    .fil1 {fill:#FFCC00}
   ]]>
  </style>
 </defs>
 <g id="_100:master" visibility="hidden">
  <metadata id="CorelCorpID_0Corel-Layer"/>
  <path class="fil0" d="M975 483l-65 102c28,-54 19,-148 -8,-207 -17,-37 -36,-50 -53,-51 -40,-3 -77,70 -57,79l-41 -5c-1,-68 46,-156 101,-157 33,0 69,27 96,95 16,40 27,91 27,144z"/>
  <path class="fil1" d="M753 383l33 7c-6,32 87,56 160,-3l-8 62c-68,80 -206,52 -185,-66z"/>
  <path class="fil2" d="M975 483c0,67 -17,124 -62,140 -60,16 -167,38 -281,37 -173,-2 -279,-48 -199,-260l25 8c-45,134 27,171 182,171 91,-1 209,-13 282,-31 14,-4 43,-61 53,-65z"/>
 </g>
 <g id="Layer_x0020_1">
  <metadata id="CorelCorpID_1Corel-Layer"/>
  <path class="fil2" d="M972 510l0 0c-4,29 -11,79 -35,97 -28,20 -149,51 -267,52 -158,0 -313,-25 -237,-259l25 8c-44,154 76,169 212,169 102,-1 209,-21 247,-39 2,-14 3,-28 3,-42 -23,6 -50,8 -75,8 -66,0 -101,-41 -96,-111 -1,-46 30,-149 110,-149 73,0 111,107 115,212 1,18 0,37 -2,54zm-61 -96c-12,-50 -34,-89 -60,-89 -23,0 -46,21 -59,52l0 0c-10,23 15,45 54,46 21,1 44,-3 65,-9z"/>
 </g>
</svg>
