<?xml version="1.0" encoding="UTF-8"?>
<!DOCTYPE svg PUBLIC "-//W3C//DTD SVG 1.0//EN" "http://www.w3.org/TR/2001/REC-SVG-20010904/DTD/svg10.dtd">
<!-- Creator: CorelDRAW -->
<svg xmlns="http://www.w3.org/2000/svg" xml:space="preserve" width="1300px" height="1300px" version="1.0" style="shape-rendering:geometricPrecision; text-rendering:geometricPrecision; image-rendering:optimizeQuality; fill-rule:evenodd; clip-rule:evenodd"
viewBox="0 0 1300 1056"
 xmlns:xlink="http://www.w3.org/1999/xlink">
 <defs>
  <style type="text/css">
   <![CDATA[
    .fil0 {fill:#996633}
   ]]>
  </style>
 </defs>
 <g id="_100:master">
  <metadata id="CorelCorpID_0Corel-Layer"/>
  <path class="fil0" d="M960 569l0 0c-23,52 -68,81 -127,81l-98 0c-20,0 -41,-20 -40,-41 0,-21 20,-40 40,-40 33,0 65,0 98,0 38,0 67,-9 87,-20 4,-19 6,-39 7,-59 -96,14 -192,5 -174,-113 10,-68 53,-145 114,-145 115,0 137,262 93,337zm-38 -156c-9,-52 -32,-93 -71,-95 -36,-2 -57,38 -62,58 -3,40 61,46 133,37z"/>
 </g>
</svg>
