<?xml version="1.0" encoding="UTF-8"?>
<!DOCTYPE svg PUBLIC "-//W3C//DTD SVG 1.0//EN" "http://www.w3.org/TR/2001/REC-SVG-20010904/DTD/svg10.dtd">
<!-- Creator: CorelDRAW -->
<svg xmlns="http://www.w3.org/2000/svg" xml:space="preserve" width="1300px" height="1300px" version="1.0" style="shape-rendering:geometricPrecision; text-rendering:geometricPrecision; image-rendering:optimizeQuality; fill-rule:evenodd; clip-rule:evenodd"
viewBox="0 0 1300 1056"
 xmlns:xlink="http://www.w3.org/1999/xlink">
 <defs>
  <style type="text/css">
   <![CDATA[
    .fil0 {fill:#336666;fill-opacity:0.600000}
   ]]>
  </style>
 </defs>
 <g id="_100:master">
  <metadata id="CorelCorpID_0Corel-Layer"/>
  <path class="fil0" d="M882 542c35,-16 61,-39 73,-62 -8,-34 -45,-78 -65,-75 -26,4 -56,28 -70,68 3,18 20,47 62,69zm-92 -79c3,-60 56,-147 112,-139 52,8 81,96 81,131 4,36 -8,74 -34,108 20,4 42,6 68,6l38 0 0 81 -41 0c-50,0 -96,-10 -133,-29 -33,18 -74,29 -121,29l-26 0c-20,0 -40,-20 -40,-41 0,-21 20,-40 40,-40l26 0c19,0 38,-2 55,-6 -18,-27 -27,-61 -25,-100z"/>
 </g>
</svg>
