<?xml version="1.0" encoding="UTF-8"?>
<!DOCTYPE svg PUBLIC "-//W3C//DTD SVG 1.0//EN" "http://www.w3.org/TR/2001/REC-SVG-20010904/DTD/svg10.dtd">
<!-- Creator: CorelDRAW -->
<svg xmlns="http://www.w3.org/2000/svg" xml:space="preserve" width="1300px" height="1300px" version="1.0" style="shape-rendering:geometricPrecision; text-rendering:geometricPrecision; image-rendering:optimizeQuality; fill-rule:evenodd; clip-rule:evenodd"
viewBox="0 0 1300 1056"
 xmlns:xlink="http://www.w3.org/1999/xlink">
 <defs>
  <style type="text/css">
   <![CDATA[
    .fil0 {fill:#999966}
   ]]>
  </style>
 </defs>
 <g id="_100:master">
  <metadata id="CorelCorpID_0Corel-Layer"/>
  <path class="fil0" d="M430 404l25 12c-44,128 46,174 195,173 96,-1 196,-25 267,-54 1,-26 0,-50 -2,-72 -64,49 -182,23 -179,-78l0 0 0 -10c7,-68 46,-159 106,-159 93,0 146,185 129,293l0 -1 -3 13c-6,32 -9,66 -36,80 -69,36 -192,69 -302,69 -151,1 -278,-62 -200,-266zm470 -10c-18,-57 -47,-92 -74,-92 -24,0 -48,39 -52,58l1 0c-13,43 58,60 125,34z"/>
 </g>
</svg>
