<?xml version="1.0" encoding="UTF-8"?>
<!DOCTYPE svg PUBLIC "-//W3C//DTD SVG 1.0//EN" "http://www.w3.org/TR/2001/REC-SVG-20010904/DTD/svg10.dtd">
<!-- Creator: CorelDRAW -->
<svg xmlns="http://www.w3.org/2000/svg" xml:space="preserve" width="1300px" height="1300px" version="1.0" style="shape-rendering:geometricPrecision; text-rendering:geometricPrecision; image-rendering:optimizeQuality; fill-rule:evenodd; clip-rule:evenodd"
viewBox="0 0 1300 1056"
 xmlns:xlink="http://www.w3.org/1999/xlink">
 <defs>
  <style type="text/css">
   <![CDATA[
    .fil0 {fill:#336666;fill-opacity:0.600000}
   ]]>
  </style>
 </defs>
 <g id="_100:master">
  <metadata id="CorelCorpID_0Corel-Layer"/>
  <path class="fil0" d="M888 532c44,-21 76,-45 77,-54 1,-20 -30,-82 -62,-80 -18,1 -61,33 -78,66 -4,23 23,48 63,68zm-104 -46c12,-80 82,-169 130,-169 47,0 83,70 83,137 0,35 -18,70 -48,102 28,8 57,13 82,13l24 0 0 81 -24 0c-53,0 -106,-17 -148,-42 -43,26 -94,42 -145,42l-6 0 -1 0 0 0c-20,-1 -40,-20 -40,-41 1,-21 20,-40 40,-40l0 0 1 0 7 0c26,0 53,-5 78,-11 -24,-26 -36,-51 -33,-72z"/>
 </g>
</svg>
