<?xml version="1.0" encoding="UTF-8"?>
<!DOCTYPE svg PUBLIC "-//W3C//DTD SVG 1.0//EN" "http://www.w3.org/TR/2001/REC-SVG-20010904/DTD/svg10.dtd">
<!-- Creator: CorelDRAW -->
<svg xmlns="http://www.w3.org/2000/svg" xml:space="preserve" width="1300px" height="1300px" version="1.0" style="shape-rendering:geometricPrecision; text-rendering:geometricPrecision; image-rendering:optimizeQuality; fill-rule:evenodd; clip-rule:evenodd"
viewBox="0 0 1300 1056"
 xmlns:xlink="http://www.w3.org/1999/xlink">
 <defs>
  <style type="text/css">
   <![CDATA[
    .fil0 {fill:#999966}
   ]]>
  </style>
 </defs>
 <g id="_100:master">
  <metadata id="CorelCorpID_0Corel-Layer"/>
  <path class="fil0" d="M354 357l20 9c-90,268 341,217 547,144 2,-12 3,-24 3,-36 -96,14 -191,5 -173,-113 10,-68 53,-145 113,-145 103,0 132,204 106,304 -4,23 -12,49 -32,58 -172,81 -749,178 -584,-221zm566 40c-10,-53 -32,-93 -71,-95 -36,-2 -58,37 -62,58 -4,39 61,46 133,37z"/>
 </g>
</svg>
