<?xml version="1.0" encoding="UTF-8"?>
<!DOCTYPE svg PUBLIC "-//W3C//DTD SVG 1.0//EN" "http://www.w3.org/TR/2001/REC-SVG-20010904/DTD/svg10.dtd">
<!-- Creator: CorelDRAW -->
<svg xmlns="http://www.w3.org/2000/svg" xml:space="preserve" width="1300px" height="1300px" version="1.0" style="shape-rendering:geometricPrecision; text-rendering:geometricPrecision; image-rendering:optimizeQuality; fill-rule:evenodd; clip-rule:evenodd"
viewBox="0 0 1300 1056"
 xmlns:xlink="http://www.w3.org/1999/xlink">
 <defs>
  <style type="text/css">
   <![CDATA[
    .fil0 {fill:#336666;fill-opacity:0.600000}
   ]]>
  </style>
 </defs>
 <g id="_100:master">
  <metadata id="CorelCorpID_0Corel-Layer"/>
  <path class="fil0" d="M876 521c43,-29 73,-61 74,-71 0,-24 -36,-80 -58,-76 -31,5 -74,54 -75,72 0,10 18,44 59,75zm-95 -70c4,-81 71,-158 123,-158 44,0 91,78 87,142 -3,47 -23,87 -51,119 27,9 58,15 95,15l20 0 0 81 -20 0c-72,0 -126,-15 -165,-39 -44,26 -89,39 -120,39l-40 0 -1 0 0 0c-20,-1 -40,-20 -39,-41 0,-21 19,-40 40,-40l0 0 0 0 26 0c25,0 50,-6 74,-15 -22,-32 -31,-69 -29,-103z"/>
 </g>
</svg>
