<?xml version="1.0" encoding="UTF-8"?>
<!DOCTYPE svg PUBLIC "-//W3C//DTD SVG 1.0//EN" "http://www.w3.org/TR/2001/REC-SVG-20010904/DTD/svg10.dtd">
<!-- Creator: CorelDRAW -->
<svg xmlns="http://www.w3.org/2000/svg" xml:space="preserve" width="1300px" height="1300px" version="1.0" style="shape-rendering:geometricPrecision; text-rendering:geometricPrecision; image-rendering:optimizeQuality; fill-rule:evenodd; clip-rule:evenodd"
viewBox="0 0 1300 1056"
 xmlns:xlink="http://www.w3.org/1999/xlink">
 <defs>
  <style type="text/css">
   <![CDATA[
    .fil0 {fill:#FF99CC}
   ]]>
  </style>
 </defs>
 <g id="_100:master">
  <metadata id="CorelCorpID_0Corel-Layer"/>
  <path class="fil0" d="M927 613c-39,20 -149,45 -257,46 -158,0 -313,-25 -237,-259l25 8c-44,154 76,169 212,169 73,0 148,-11 199,-23 -14,-26 -21,-56 -19,-91 3,-60 56,-147 112,-139 52,8 81,96 81,131 4,37 -11,75 -41,107 21,4 46,7 75,7l38 0 0 81 -41 0c-57,0 -108,-13 -147,-37zm4 -77c-34,-21 -48,-46 -51,-63 14,-40 44,-64 70,-68 20,-3 57,41 65,74 -13,25 -44,44 -84,57z"/>
 </g>
</svg>
