<?xml version="1.0" encoding="UTF-8"?>
<!DOCTYPE svg PUBLIC "-//W3C//DTD SVG 1.0//EN" "http://www.w3.org/TR/2001/REC-SVG-20010904/DTD/svg10.dtd">
<!-- Creator: CorelDRAW -->
<svg xmlns="http://www.w3.org/2000/svg" xml:space="preserve" width="1300px" height="1300px" version="1.0" style="shape-rendering:geometricPrecision; text-rendering:geometricPrecision; image-rendering:optimizeQuality; fill-rule:evenodd; clip-rule:evenodd"
viewBox="0 0 1300 1056"
 xmlns:xlink="http://www.w3.org/1999/xlink">
 <defs>
  <style type="text/css">
   <![CDATA[
    .fil0 {fill:#996633}
   ]]>
  </style>
 </defs>
 <g id="_100:master">
  <metadata id="CorelCorpID_0Corel-Layer"/>
  <path class="fil0" d="M921 533c1,-21 0,-43 -3,-63 -23,19 -55,28 -84,28 -72,0 -109,-34 -107,-97l0 0c0,-9 1,-18 3,-27l0 0c12,-65 56,-142 111,-142 80,0 141,142 133,251 -3,39 -21,110 -50,122 -70,34 -188,65 -294,65 -151,1 -278,-62 -200,-266l25 12c-44,128 46,174 195,173 97,-1 199,-26 271,-56zm-19 -130c-18,-51 -48,-85 -77,-85 -24,0 -50,33 -54,57l0 0c-5,39 67,54 131,28z"/>
 </g>
</svg>
