<?xml version="1.0" encoding="UTF-8"?>
<!DOCTYPE svg PUBLIC "-//W3C//DTD SVG 1.0//EN" "http://www.w3.org/TR/2001/REC-SVG-20010904/DTD/svg10.dtd">
<!-- Creator: CorelDRAW -->
<svg xmlns="http://www.w3.org/2000/svg" xml:space="preserve" width="1300px" height="1300px" version="1.0" style="shape-rendering:geometricPrecision; text-rendering:geometricPrecision; image-rendering:optimizeQuality; fill-rule:evenodd; clip-rule:evenodd"
viewBox="0 0 1300 1056"
 xmlns:xlink="http://www.w3.org/1999/xlink">
 <defs>
  <style type="text/css">
   <![CDATA[
    .fil0 {fill:#666666}
   ]]>
  </style>
 </defs>
 <g id="_100:master">
  <metadata id="CorelCorpID_0Corel-Layer"/>
  <path class="fil0" d="M802 77l256 -77 -14 42 -257 79 15 -44zm-84 492l0 0 56 0c76,0 121,-14 159,-42 -33,-97 -149,-179 -201,-222 -41,-34 18,-123 49,-138l0 -1 316 -99 -26 84 -289 90 0 0c62,51 223,183 189,291l-1 2c-5,25 -15,45 -29,61l0 0 0 0c-35,40 -94,55 -168,55l-55 0 0 0c-21,0 -41,-20 -41,-41 0,-21 20,-40 41,-40z"/>
 </g>
</svg>
