<?xml version="1.0" encoding="UTF-8"?>
<!DOCTYPE svg PUBLIC "-//W3C//DTD SVG 1.0//EN" "http://www.w3.org/TR/2001/REC-SVG-20010904/DTD/svg10.dtd">
<!-- Creator: CorelDRAW -->
<svg xmlns="http://www.w3.org/2000/svg" xml:space="preserve" width="1300px" height="1300px" version="1.0" style="shape-rendering:geometricPrecision; text-rendering:geometricPrecision; image-rendering:optimizeQuality; fill-rule:evenodd; clip-rule:evenodd"
viewBox="0 0 1300 1056"
 xmlns:xlink="http://www.w3.org/1999/xlink">
 <defs>
  <style type="text/css">
   <![CDATA[
    .fil0 {fill:#999966}
   ]]>
  </style>
 </defs>
 <g id="_100:master">
  <metadata id="CorelCorpID_0Corel-Layer"/>
  <path class="fil0" d="M430 404l25 12c-44,128 46,174 195,173 100,-1 205,-27 277,-59 -11,-61 -76,-124 -135,-173l-63 -52c-42,-35 23,-129 52,-139l0 0 295 -92c32,-10 4,75 -5,77l-291 91 59 49c21,17 42,35 60,55l0 0 1 0c11,12 21,24 30,36 74,99 79,187 194,187l2 0 0 81 -3 0c-89,0 -126,-34 -159,-83 -4,10 -8,19 -13,23 -64,40 -200,80 -321,80 -151,1 -278,-62 -200,-266zm372 -327l256 -77 -14 42 -257 79 15 -44z"/>
 </g>
</svg>
