<?xml version="1.0" encoding="UTF-8"?>
<!DOCTYPE svg PUBLIC "-//W3C//DTD SVG 1.0//EN" "http://www.w3.org/TR/2001/REC-SVG-20010904/DTD/svg10.dtd">
<!-- Creator: CorelDRAW -->
<svg xmlns="http://www.w3.org/2000/svg" xml:space="preserve" width="1300px" height="1300px" version="1.0" style="shape-rendering:geometricPrecision; text-rendering:geometricPrecision; image-rendering:optimizeQuality; fill-rule:evenodd; clip-rule:evenodd"
viewBox="0 0 1300 1056"
 xmlns:xlink="http://www.w3.org/1999/xlink">
 <defs>
  <style type="text/css">
   <![CDATA[
    .fil0 {fill:#666666}
   ]]>
  </style>
 </defs>
 <g id="_100:master">
  <metadata id="CorelCorpID_0Corel-Layer"/>
  <path class="fil0" d="M802 77l256 -77 -14 42 -257 79 15 -44zm-372 327l25 12c-44,128 46,174 195,173 103,-1 211,-29 283,-61 -33,-97 -149,-180 -201,-223 -41,-34 18,-123 49,-138l0 -1 316 -99 -26 84 -289 90 0 0c61,51 219,179 191,287 -2,21 -11,53 -22,62 -64,40 -200,80 -321,80 -151,1 -278,-62 -200,-266z"/>
 </g>
</svg>
