<?xml version="1.0" encoding="UTF-8"?>
<!DOCTYPE svg PUBLIC "-//W3C//DTD SVG 1.0//EN" "http://www.w3.org/TR/2001/REC-SVG-20010904/DTD/svg10.dtd">
<!-- Creator: CorelDRAW -->
<svg xmlns="http://www.w3.org/2000/svg" xml:space="preserve" width="1300px" height="1300px" version="1.0" style="shape-rendering:geometricPrecision; text-rendering:geometricPrecision; image-rendering:optimizeQuality; fill-rule:evenodd; clip-rule:evenodd"
viewBox="0 0 1300 1056"
 xmlns:xlink="http://www.w3.org/1999/xlink">
 <defs>
  <style type="text/css">
   <![CDATA[
    .fil0 {fill:#999933;fill-opacity:0.501961}
   ]]>
  </style>
 </defs>
 <g id="_100:master">
  <metadata id="CorelCorpID_0Corel-Layer"/>
  <path class="fil0" d="M731 650l0 0c-20,-1 -40,-20 -39,-41 0,-20 19,-40 39,-40l0 0 1 0 9 0c76,0 142,-9 190,-31 -7,-64 -75,-130 -137,-181l-62 -52c-41,-34 18,-123 49,-138l0 -1 295 -92c32,-10 4,75 -5,77l-289 90 0 0 60 50c77,64 153,143 130,253l0 0c-3,17 -9,33 -19,45 -47,48 -114,61 -211,61l-10 0 -1 0zm71 -573l256 -77 -14 42 -257 79 15 -44z"/>
 </g>
</svg>
