<?xml version="1.0" encoding="UTF-8"?>
<!DOCTYPE svg PUBLIC "-//W3C//DTD SVG 1.0//EN" "http://www.w3.org/TR/2001/REC-SVG-20010904/DTD/svg10.dtd">
<!-- Creator: CorelDRAW -->
<svg xmlns="http://www.w3.org/2000/svg" xml:space="preserve" width="1300px" height="1300px" version="1.0" style="shape-rendering:geometricPrecision; text-rendering:geometricPrecision; image-rendering:optimizeQuality; fill-rule:evenodd; clip-rule:evenodd"
viewBox="0 0 1300 1056"
 xmlns:xlink="http://www.w3.org/1999/xlink">
 <defs>
  <style type="text/css">
   <![CDATA[
    .fil0 {fill:#666666}
   ]]>
  </style>
 </defs>
 <g id="_100:master">
  <metadata id="CorelCorpID_0Corel-Layer"/>
  <path class="fil0" d="M1066 70l-16 81 -301 93c121,83 250,164 220,295 -16,70 -67,111 -136,111l-150 0 0 0c-20,-1 -40,-20 -40,-41 0,-20 20,-40 40,-40l0 0c50,0 100,0 150,0 43,0 73,-11 94,-24 -5,-108 -168,-195 -231,-235 -7,-5 -14,-8 -15,-17 -2,-35 20,-88 52,-119l0 0 333 -104zm-342 154l0 0 0 0zm29 -135l256 -77 -14 42 -257 80 15 -45z"/>
 </g>
</svg>
