<?xml version="1.0" encoding="UTF-8"?>
<!DOCTYPE svg PUBLIC "-//W3C//DTD SVG 1.0//EN" "http://www.w3.org/TR/2001/REC-SVG-20010904/DTD/svg10.dtd">
<!-- Creator: CorelDRAW -->
<svg xmlns="http://www.w3.org/2000/svg" xml:space="preserve" width="1300px" height="1300px" version="1.0" style="shape-rendering:geometricPrecision; text-rendering:geometricPrecision; image-rendering:optimizeQuality; fill-rule:evenodd; clip-rule:evenodd"
viewBox="0 0 1300 1056"
 xmlns:xlink="http://www.w3.org/1999/xlink">
 <defs>
  <style type="text/css">
   <![CDATA[
    .fil0 {fill:#666666}
   ]]>
  </style>
 </defs>
 <g id="_100:master">
  <metadata id="CorelCorpID_0Corel-Layer"/>
  <path class="fil0" d="M1083 70l-17 81 -268 77c105,81 190,185 174,297 -1,5 -2,10 -3,14l0 0c-5,17 -14,31 -31,39 -172,81 -749,178 -584,-221l20 9c-90,268 340,217 547,144 -19,-96 -118,-180 -176,-216 -7,-5 -14,-8 -15,-18 -3,-34 20,-87 52,-119l0 1 301 -88zm-310 138l0 0 0 0zm25 -146l265 -72 -8 48 -266 69 9 -45z"/>
 </g>
</svg>
