<?xml version="1.0" encoding="UTF-8"?>
<!DOCTYPE svg PUBLIC "-//W3C//DTD SVG 1.0//EN" "http://www.w3.org/TR/2001/REC-SVG-20010904/DTD/svg10.dtd">
<!-- Creator: CorelDRAW -->
<svg xmlns="http://www.w3.org/2000/svg" xml:space="preserve" width="1300px" height="1300px" version="1.0" style="shape-rendering:geometricPrecision; text-rendering:geometricPrecision; image-rendering:optimizeQuality; fill-rule:evenodd; clip-rule:evenodd"
viewBox="0 0 1300 1056"
 xmlns:xlink="http://www.w3.org/1999/xlink">
 <defs>
  <style type="text/css">
   <![CDATA[
    .fil0 {fill:#6666FF}
   ]]>
  </style>
 </defs>
 <g id="_100:master">
  <metadata id="CorelCorpID_0Corel-Layer"/>
  <path class="fil0" d="M818 77l-15 44 222 -78 14 -43 -221 77zm-100 573c-21,0 -41,-20 -41,-41 0,-21 20,-40 41,-40l0 0 0 0 118 0c45,0 77,-12 100,-26 -17,-78 -90,-144 -196,-222 -29,-21 3,-122 49,-139l289 -101 -22 83 -264 95c101,85 182,149 186,244l0 0 0 2c4,87 -49,145 -141,145l-119 0 0 0z"/>
 </g>
</svg>
