<?xml version="1.0" encoding="UTF-8"?>
<!DOCTYPE svg PUBLIC "-//W3C//DTD SVG 1.0//EN" "http://www.w3.org/TR/2001/REC-SVG-20010904/DTD/svg10.dtd">
<!-- Creator: CorelDRAW -->
<svg xmlns="http://www.w3.org/2000/svg" xml:space="preserve" width="1300px" height="1300px" version="1.0" style="shape-rendering:geometricPrecision; text-rendering:geometricPrecision; image-rendering:optimizeQuality; fill-rule:evenodd; clip-rule:evenodd"
viewBox="0 0 1300 1056"
 xmlns:xlink="http://www.w3.org/1999/xlink">
 <defs>
  <style type="text/css">
   <![CDATA[
    .fil0 {fill:#999966}
   ]]>
  </style>
 </defs>
 <g id="_100:master">
  <metadata id="CorelCorpID_0Corel-Layer"/>
  <path class="fil0" d="M354 357l20 9c-90,268 340,217 547,144 -33,-92 -168,-165 -225,-200 -7,-5 -14,-8 -15,-17 -2,-35 20,-88 52,-119l0 0 333 -104 -16 81 -301 93c53,36 107,72 150,112 75,64 112,213 212,213l1 81c-72,0 -114,-43 -152,-95 -5,10 -12,19 -22,23 -172,81 -749,178 -584,-221zm370 -133l0 0 0 0zm29 -135l256 -77 -14 42 -257 80 15 -45z"/>
 </g>
</svg>
