<?xml version="1.0" encoding="UTF-8"?>
<!DOCTYPE svg PUBLIC "-//W3C//DTD SVG 1.0//EN" "http://www.w3.org/TR/2001/REC-SVG-20010904/DTD/svg10.dtd">
<!-- Creator: CorelDRAW -->
<svg xmlns="http://www.w3.org/2000/svg" xml:space="preserve" width="1300px" height="1300px" version="1.0" style="shape-rendering:geometricPrecision; text-rendering:geometricPrecision; image-rendering:optimizeQuality; fill-rule:evenodd; clip-rule:evenodd"
viewBox="0 0 1300 1056"
 xmlns:xlink="http://www.w3.org/1999/xlink">
 <defs>
  <style type="text/css">
   <![CDATA[
    .fil0 {fill:black}
   ]]>
  </style>
 </defs>
 <g id="_100:master">
  <metadata id="CorelCorpID_0Corel-Layer"/>
  <path class="fil0" d="M784 355c45,0 95,48 112,76l-21 18c-29,-21 -55,-28 -80,-29 -26,-1 -87,21 -87,40 0,48 61,64 111,64 29,0 63,-3 99,-11l-29 69c-107,15 -195,38 -239,68l-3 -36c16,-15 66,-39 73,-40 0,-6 -70,-47 -70,-108 0,-61 89,-111 134,-111z"/>
 </g>
</svg>
