<?xml version="1.0" encoding="UTF-8"?>
<!DOCTYPE svg PUBLIC "-//W3C//DTD SVG 1.0//EN" "http://www.w3.org/TR/2001/REC-SVG-20010904/DTD/svg10.dtd">
<!-- Creator: CorelDRAW -->
<svg xmlns="http://www.w3.org/2000/svg" xml:space="preserve" width="1300px" height="1300px" version="1.0" style="shape-rendering:geometricPrecision; text-rendering:geometricPrecision; image-rendering:optimizeQuality; fill-rule:evenodd; clip-rule:evenodd"
viewBox="0 0 1300 1056"
 xmlns:xlink="http://www.w3.org/1999/xlink">
 <defs>
  <style type="text/css">
   <![CDATA[
    .fil0 {fill:#336666;fill-opacity:0.600000}
    .fil2 {fill:#FF9933;fill-opacity:0.600000}
    .fil3 {fill:#FF9966;fill-opacity:0.600000}
    .fil1 {fill:#CC3300}
   ]]>
  </style>
 </defs>
 <g id="Layer_x0020_2" visibility="hidden">
  <metadata id="CorelCorpID_0Corel-Layer"/>
  <path class="fil0" d="M692 426l-26 -28c-85,122 7,197 120,234 87,29 150,9 182,-72l-37 -9c-55,72 -301,-52 -239,-125z"/>
  <path class="fil1" d="M574 569c-21,0 -41,19 -41,40 0,21 20,41 41,41l0 -81z"/>
  <path class="fil1" d="M942 606c-16,-21 -21,-37 -12,-55 17,-32 -87,-122 -218,-198l9 -84c240,144 295,214 241,304l-20 33z"/>
  <path class="fil2" d="M573 569l-2 81c118,0 215,-47 251,-142l-27 -28c-43,82 -165,89 -222,89z"/>
  <path class="fil3" d="M792 486l30 22c37,-86 43,-150 8,-169 -30,-20 -110,-16 -164,59l15 44c60,-99 158,-42 111,44z"/>
 </g>
 <g id="Layer_x0020_3">
  <metadata id="CorelCorpID_1Corel-Layer"/>
  <path class="fil1" d="M938 486c3,-34 -15,-78 -40,-84 -21,-5 -44,6 -59,32 -8,32 2,58 33,69l41 15c12,-11 21,-22 25,-32zm-204 83l50 0c14,0 27,-2 41,-6 -36,-27 -46,-82 -13,-153l0 0c8,-17 19,-34 32,-48l-2 -1 9 -84 105 55c139,73 155,168 131,232 -24,66 -58,78 -105,61l-75 -28c-33,36 -76,53 -117,53l-56 0c-20,0 -40,-20 -40,-41 0,-21 20,-40 40,-40zm235 -115c-3,29 -10,54 -19,77l67 24c23,8 50,8 46,-20 -6,-28 -35,-73 -92,-109 0,11 -1,20 -2,28l0 0z"/>
 </g>
</svg>
