<?xml version="1.0" encoding="UTF-8"?>
<!DOCTYPE svg PUBLIC "-//W3C//DTD SVG 1.0//EN" "http://www.w3.org/TR/2001/REC-SVG-20010904/DTD/svg10.dtd">
<!-- Creator: CorelDRAW -->
<svg xmlns="http://www.w3.org/2000/svg" xml:space="preserve" width="1300px" height="1300px" version="1.0" style="shape-rendering:geometricPrecision; text-rendering:geometricPrecision; image-rendering:optimizeQuality; fill-rule:evenodd; clip-rule:evenodd"
viewBox="0 0 1300 1056"
 xmlns:xlink="http://www.w3.org/1999/xlink">
 <defs>
  <style type="text/css">
   <![CDATA[
    .fil5 {fill:#FF6600;fill-opacity:0.501961}
    .fil4 {fill:#660066;fill-opacity:0.549020}
    .fil2 {fill:#666666;fill-opacity:0.850980}
    .fil6 {fill:#6699FF;fill-opacity:0.850980}
    .fil1 {fill:#FF9933;fill-opacity:0.850980}
    .fil0 {fill:#666633}
    .fil3 {fill:#999966}
   ]]>
  </style>
 </defs>
 <g id="_100:master" visibility="hidden">
  <metadata id="CorelCorpID_0Corel-Layer"/>
  <path class="fil0" d="M1077 650l0 -81 -16 0c-66,0 -116,-13 -132,-90 -4,-18 -35,3 -34,12 14,125 86,159 165,159l17 0z"/>
  <path class="fil1" d="M670 746l-24 76c-38,-172 106,-365 387,-366l-37 72c-162,0 -317,121 -326,218z"/>
  <path class="fil2" d="M640 741l89 -107c-105,122 -79,260 287,260l-41 81c-246,0 -351,-87 -335,-234z"/>
  <path class="fil3" d="M1033 456l-37 72c-102,0 -295,-108 -336,-18l-11 -13c30,-69 67,-91 110,-91 80,1 179,50 274,50z"/>
 </g>
 <g id="Layer_x0020_1" visibility="hidden">
  <metadata id="CorelCorpID_1Corel-Layer"/>
  <path class="fil0" d="M1028 650l0 -81 -15 0c-67,0 -117,-13 -133,-90 -4,-18 -35,3 -34,12 14,125 86,159 165,159l17 0z"/>
  <path class="fil3" d="M976 439l-38 73c-107,0 -255,-60 -325,-58 -21,1 -33,9 -52,36l-20 -12c30,-69 53,-105 96,-105 62,0 215,66 339,66z"/>
  <path class="fil2" d="M989 874l5 22c-46,51 -141,79 -214,79 -118,0 -258,-52 -232,-247 18,-133 146,-274 427,-288l-37 72c-183,39 -295,121 -334,199 -45,90 46,183 184,183 54,0 145,-6 201,-20z"/>
 </g>
 <g id="Layer_x0020_2" visibility="hidden">
  <metadata id="CorelCorpID_2Corel-Layer"/>
  <path class="fil0" d="M1068 650l0 -81 -38 0c-84,0 -130,-71 -126,-139 1,-18 -44,9 -44,19 -8,88 14,201 156,201l52 0z"/>
  <path class="fil2" d="M985 865l4 18c-116,112 -471,93 -433,-196 18,-133 136,-303 419,-303l-37 71c-227,37 -323,178 -336,265 -12,78 119,175 383,145z"/>
 </g>
 <g id="Layer_x0020_3" visibility="hidden">
  <metadata id="CorelCorpID_3Corel-Layer"/>
  <path class="fil2" d="M985 848l4 18c-116,113 -463,119 -425,-170 18,-134 157,-272 411,-272l-37 72c-358,27 -527,449 47,352z"/>
  <path class="fil3" d="M976 423l-38 73c-133,0 -231,-40 -292,-59 -42,-14 -58,-9 -85,29l-20 -12c23,-53 60,-125 128,-98 53,20 163,66 307,67z"/>
  <path class="fil4" d="M993 650l0 -81 -10 0c-64,0 -114,-22 -117,-124l-32 18c-3,79 19,187 149,187l10 0z"/>
 </g>
 <g id="Layer_x0020_4" visibility="hidden">
  <metadata id="CorelCorpID_4Corel-Layer"/>
  <path class="fil5" d="M938 650l77 0 1 -81 -78 0c-79,0 -113,-65 -113,-132l-33 16c0,118 28,197 146,197z"/>
  <path class="fil3" d="M976 407l-38 73c-130,0 -216,-69 -298,-71 -33,0 -66,14 -100,57l-25 -13c43,-97 84,-128 130,-127 81,2 178,79 331,81z"/>
  <path class="fil2" d="M577 728l-53 -20c8,-142 156,-304 451,-302l-37 74c-202,4 -349,125 -361,248z"/>
  <path class="fil2" d="M524 708l54 -1c-14,81 86,140 198,140 66,0 137,-13 189,-34l10 19c-48,68 -133,99 -216,99 -150,-1 -248,-79 -235,-223z"/>
 </g>
 <g id="Layer_x0020_5" visibility="hidden">
  <metadata id="CorelCorpID_5Corel-Layer"/>
  <path class="fil6" d="M530 673c48,-169 222,-267 445,-267l-37 73c-131,-1 -338,101 -357,249l-51 -55z"/>
  <path class="fil6" d="M530 673l51 55c-10,67 69,198 388,124l6 21c-191,159 -508,82 -445,-200z"/>
  <path class="fil5" d="M976 650l40 0 0 -81 -40 0c-40,0 -84,-5 -110,-44 -14,-23 -20,-54 -21,-81l-33 16c0,27 1,55 7,81 12,61 49,109 157,109z"/>
  <path class="fil3" d="M935 407l40 -3 -38 80c-59,12 -95,11 -153,-19 -81,-42 -163,-103 -244,1l-25 -13c133,-273 230,-30 420,-46z"/>
 </g>
 <g id="Layer_x0020_6">
  <metadata id="CorelCorpID_6Corel-Layer"/>
  <path class="fil6" d="M1020 423l0 0 2 0 -19 81c-7,0 -14,0 -21,-1 -20,1 -40,3 -59,6 21,43 67,60 133,60l17 0 0 81 -17 0c-116,0 -162,-45 -176,-129l0 -2c-251,69 -345,337 -21,334 50,0 110,-7 182,-23l5 22c-65,55 -145,82 -220,82 -267,3 -280,-342 -18,-467 -41,-11 -78,-20 -109,-20 -33,0 -54,12 -77,50l-22 -12c39,-87 67,-119 115,-119 81,0 187,52 293,57 4,0 8,0 12,0z"/>
 </g>
</svg>
