<?xml version="1.0" encoding="UTF-8"?>
<!DOCTYPE svg PUBLIC "-//W3C//DTD SVG 1.0//EN" "http://www.w3.org/TR/2001/REC-SVG-20010904/DTD/svg10.dtd">
<!-- Creator: CorelDRAW -->
<svg xmlns="http://www.w3.org/2000/svg" xml:space="preserve" width="1300px" height="1300px" version="1.0" style="shape-rendering:geometricPrecision; text-rendering:geometricPrecision; image-rendering:optimizeQuality; fill-rule:evenodd; clip-rule:evenodd"
viewBox="0 0 1300 1056"
 xmlns:xlink="http://www.w3.org/1999/xlink">
 <defs>
  <style type="text/css">
   <![CDATA[
    .fil0 {fill:#CC3300}
   ]]>
  </style>
 </defs>
 <g id="_100:master">
  <metadata id="CorelCorpID_0Corel-Layer"/>
  <path class="fil0" d="M793 563c42,-6 77,-18 103,-38 -5,-42 -26,-86 -36,-86 -16,6 -43,46 -67,124zm2 94c15,61 58,113 141,79 -18,-29 -59,-58 -141,-79zm-95 -88c21,0 42,-1 62,-3 11,-83 60,-191 114,-208 29,21 49,108 49,136l0 0c0,28 -10,53 -26,75l124 0 0 81 -71 0c26,34 27,72 20,103 -25,140 -198,80 -215,-108 -18,3 -38,5 -57,5 -20,0 -41,-20 -41,-41 1,-21 21,-40 41,-40z"/>
 </g>
</svg>
