<?xml version="1.0" encoding="UTF-8"?>
<!DOCTYPE svg PUBLIC "-//W3C//DTD SVG 1.0//EN" "http://www.w3.org/TR/2001/REC-SVG-20010904/DTD/svg10.dtd">
<!-- Creator: CorelDRAW -->
<svg xmlns="http://www.w3.org/2000/svg" xml:space="preserve" width="1300px" height="1300px" version="1.0" style="shape-rendering:geometricPrecision; text-rendering:geometricPrecision; image-rendering:optimizeQuality; fill-rule:evenodd; clip-rule:evenodd"
viewBox="0 0 1300 1056"
 xmlns:xlink="http://www.w3.org/1999/xlink">
 <defs>
  <style type="text/css">
   <![CDATA[
    .fil4 {fill:#660066;fill-opacity:0.549020}
    .fil3 {fill:#4D4D4D}
    .fil0 {fill:#666633}
    .fil2 {fill:#999966}
    .fil1 {fill:#CC3300}
   ]]>
  </style>
 </defs>
 <g id="_100:master" visibility="hidden">
  <metadata id="CorelCorpID_0Corel-Layer"/>
  <path class="fil0" d="M995 650l0 -81 -15 0c-66,0 -116,-13 -133,-90 -3,-18 -34,3 -33,12 14,125 86,159 165,159l16 0z"/>
  <path class="fil1" d="M471 569c-20,0 -40,19 -40,40 -1,21 20,41 40,41l0 -81z"/>
  <path class="fil2" d="M976 439l-38 73c-107,0 -255,-84 -325,-82 -21,1 -33,9 -52,36l-20 -12c30,-69 53,-105 96,-105 62,0 215,90 339,90z"/>
  <path class="fil3" d="M471 569l0 81 106 0c149,0 259,-138 361,-138l38 -73c-135,0 -229,130 -418,130l-87 0z"/>
 </g>
 <g id="Layer_x0020_1" visibility="hidden">
  <metadata id="CorelCorpID_1Corel-Layer"/>
  <path class="fil4" d="M993 650l0 -81 -10 0c-64,0 -114,-22 -117,-124l-32 18c-3,79 19,187 149,187l10 0z"/>
  <path class="fil1" d="M471 569c-20,0 -40,19 -40,40 -1,21 20,41 40,41l0 -81z"/>
  <path class="fil2" d="M976 431l-38 73c-133,0 -231,-48 -292,-67 -42,-14 -58,-9 -85,29l-20 -12c23,-53 60,-125 128,-98 53,20 163,74 307,75z"/>
  <path class="fil3" d="M471 569l0 81 106 0c147,0 228,-140 330,-148 1,0 3,1 4,1l32 -73c-135,0 -196,139 -385,139l-87 0z"/>
 </g>
 <g id="Layer_x0020_2" visibility="hidden">
  <metadata id="CorelCorpID_2Corel-Layer"/>
  <path class="fil4" d="M993 650l0 -81 -10 0c-64,0 -114,-22 -117,-124l-32 18c-3,79 19,187 149,187l10 0z"/>
  <path class="fil1" d="M488 569c-21,0 -41,19 -41,40 0,21 20,41 41,41l0 -81z"/>
  <path class="fil3" d="M504 569l-16 0 0 81 16 0c248,0 291,-139 434,-146l38 -73c-156,-4 -227,138 -472,138z"/>
  <path class="fil2" d="M976 431l-38 73c-164,0 -309,-170 -396,-62l-25 -13c103,-235 223,0 459,2z"/>
 </g>
 <g id="Layer_x0020_3">
  <metadata id="CorelCorpID_3Corel-Layer"/>
  <path class="fil1" d="M463 569l0 0 1 0 104 0c138,0 169,-56 221,-102 -83,-42 -167,-107 -249,-1l-25 -13c132,-272 229,-31 418,-46 3,0 6,0 10,0l32 -3 0 2 0 0 -38 79 -9 1 -32 6c-9,2 -17,2 -25,2l-2 0c3,11 8,22 14,31 25,39 69,44 109,44l40 0 0 81 -40 0c-108,0 -145,-48 -157,-109 -2,-9 -4,-19 -5,-29 -73,46 -74,138 -262,138l-104 0 -1 0 0 0c-20,0 -40,-20 -40,-41 0,-21 20,-40 40,-40z"/>
 </g>
</svg>
