<?xml version="1.0" encoding="UTF-8"?>
<!DOCTYPE svg PUBLIC "-//W3C//DTD SVG 1.0//EN" "http://www.w3.org/TR/2001/REC-SVG-20010904/DTD/svg10.dtd">
<!-- Creator: CorelDRAW -->
<svg xmlns="http://www.w3.org/2000/svg" xml:space="preserve" width="1300px" height="1300px" version="1.0" style="shape-rendering:geometricPrecision; text-rendering:geometricPrecision; image-rendering:optimizeQuality; fill-rule:evenodd; clip-rule:evenodd"
viewBox="0 0 1300 1056"
 xmlns:xlink="http://www.w3.org/1999/xlink">
 <defs>
  <style type="text/css">
   <![CDATA[
    .fil1 {fill:#4D4D4D;fill-opacity:0.501961}
    .fil2 {fill:#999966}
    .fil0 {fill:#CC3300}
   ]]>
  </style>
 </defs>
 <g id="_100:master" visibility="hidden">
  <metadata id="CorelCorpID_0Corel-Layer"/>
  <path class="fil0" d="M594 569c-20,0 -40,19 -41,40 0,21 21,41 41,41l0 -81z"/>
  <path class="fil1" d="M594 569l0 81 56 0c225,0 195,-130 357,-146l29 -69c-191,4 -169,134 -384,134l-58 0z"/>
  <path class="fil2" d="M629 468l-17 -12c87,-310 278,28 430,-33l-35 81c-197,2 -276,-195 -378,-36z"/>
 </g>
 <g id="Layer_x0020_1">
  <metadata id="CorelCorpID_1Corel-Layer"/>
  <path class="fil0" d="M545 569l0 0 68 0c128,0 198,-52 262,-94 -59,-23 -113,-52 -160,-52 -33,0 -53,11 -77,50l-21 -13c38,-86 66,-119 114,-119 85,0 180,82 291,82l-19 81 -4 0c-138,0 -189,146 -389,146l-65 0 0 0c-20,0 -41,-20 -40,-41 0,-21 20,-40 40,-40z"/>
 </g>
</svg>
