<?xml version="1.0" encoding="UTF-8"?>
<!DOCTYPE svg PUBLIC "-//W3C//DTD SVG 1.0//EN" "http://www.w3.org/TR/2001/REC-SVG-20010904/DTD/svg10.dtd">
<!-- Creator: CorelDRAW -->
<svg xmlns="http://www.w3.org/2000/svg" xml:space="preserve" width="1300px" height="1300px" version="1.0" style="shape-rendering:geometricPrecision; text-rendering:geometricPrecision; image-rendering:optimizeQuality; fill-rule:evenodd; clip-rule:evenodd"
viewBox="0 0 1300 1056"
 xmlns:xlink="http://www.w3.org/1999/xlink">
 <defs>
  <style type="text/css">
   <![CDATA[
    .fil4 {fill:#660066;fill-opacity:0.549020}
    .fil2 {fill:#666666;fill-opacity:0.850980}
    .fil1 {fill:#FF9933;fill-opacity:0.850980}
    .fil0 {fill:#666633}
    .fil3 {fill:#999966}
   ]]>
  </style>
 </defs>
 <g id="_100:master" visibility="hidden">
  <metadata id="CorelCorpID_0Corel-Layer"/>
  <path class="fil0" d="M1077 650l0 -81 -16 0c-66,0 -116,-13 -132,-90 -4,-18 -35,3 -34,12 14,125 86,159 165,159l17 0z"/>
  <path class="fil1" d="M670 746l-24 76c-38,-172 106,-365 387,-366l-37 72c-162,0 -317,121 -326,218z"/>
  <path class="fil2" d="M640 741l89 -107c-105,122 -79,260 287,260l-41 81c-246,0 -351,-87 -335,-234z"/>
  <path class="fil3" d="M1033 456l-37 72c-102,0 -295,-108 -336,-18l-11 -13c30,-69 67,-91 110,-91 80,1 179,50 274,50z"/>
 </g>
 <g id="Layer_x0020_1" visibility="hidden">
  <metadata id="CorelCorpID_1Corel-Layer"/>
  <path class="fil0" d="M1028 650l0 -81 -15 0c-67,0 -117,-13 -133,-90 -4,-18 -35,3 -34,12 14,125 86,159 165,159l17 0z"/>
  <path class="fil3" d="M976 439l-38 73c-107,0 -255,-60 -325,-58 -21,1 -33,9 -52,36l-20 -12c30,-69 53,-105 96,-105 62,0 215,66 339,66z"/>
  <path class="fil2" d="M989 874l5 22c-46,51 -141,79 -214,79 -118,0 -258,-52 -232,-247 18,-133 146,-274 427,-288l-37 72c-183,39 -295,121 -334,199 -45,90 46,183 184,183 54,0 145,-6 201,-20z"/>
 </g>
 <g id="Layer_x0020_2" visibility="hidden">
  <metadata id="CorelCorpID_2Corel-Layer"/>
  <path class="fil0" d="M1068 650l0 -81 -38 0c-84,0 -130,-71 -126,-139 1,-18 -44,9 -44,19 -8,88 14,201 156,201l52 0z"/>
  <path class="fil2" d="M985 865l4 18c-116,112 -471,93 -433,-196 18,-133 136,-303 419,-303l-37 71c-227,37 -323,178 -336,265 -12,78 119,175 383,145z"/>
 </g>
 <g id="Layer_x0020_3" visibility="hidden">
  <metadata id="CorelCorpID_3Corel-Layer"/>
  <path class="fil2" d="M985 848l4 18c-116,113 -463,119 -425,-170 18,-134 157,-272 411,-272l-37 72c-358,27 -527,449 47,352z"/>
  <path class="fil3" d="M976 423l-38 73c-133,0 -231,-40 -292,-59 -42,-14 -58,-9 -85,29l-20 -12c23,-53 60,-125 128,-98 53,20 163,66 307,67z"/>
  <path class="fil4" d="M993 650l0 -81 -10 0c-64,0 -114,-22 -117,-124l-32 18c-3,79 19,187 149,187l10 0z"/>
 </g>
 <g id="Layer_x0020_4">
  <metadata id="CorelCorpID_4Corel-Layer"/>
  <path class="fil3" d="M976 418l-1 1 0 0 -37 72c-22,2 -43,5 -64,10 17,54 59,68 109,68l10 0 0 81 -10 0c-105,0 -139,-71 -147,-139 -283,88 -367,419 149,332l4 18c-116,113 -463,119 -425,-170 12,-86 74,-175 185,-226 -41,-12 -76,-24 -103,-33 -42,-14 -58,-9 -85,29l-20 -12c23,-53 60,-125 128,-98 53,20 163,66 307,67z"/>
 </g>
</svg>
