<?xml version="1.0" encoding="UTF-8"?>
<!DOCTYPE svg PUBLIC "-//W3C//DTD SVG 1.0//EN" "http://www.w3.org/TR/2001/REC-SVG-20010904/DTD/svg10.dtd">
<!-- Creator: CorelDRAW -->
<svg xmlns="http://www.w3.org/2000/svg" xml:space="preserve" width="1300px" height="1300px" version="1.0" style="shape-rendering:geometricPrecision; text-rendering:geometricPrecision; image-rendering:optimizeQuality; fill-rule:evenodd; clip-rule:evenodd"
viewBox="0 0 1300 1056"
 xmlns:xlink="http://www.w3.org/1999/xlink">
 <defs>
  <style type="text/css">
   <![CDATA[
    .fil0 {fill:#CC3300}
   ]]>
  </style>
 </defs>
 <g id="_100:master">
  <metadata id="CorelCorpID_0Corel-Layer"/>
  <path class="fil0" d="M780 560c46,-10 86,-28 116,-52 -10,-43 -24,-109 -30,-102 -11,13 -61,84 -86,154zm0 94c32,68 102,136 170,103 -17,-37 -64,-79 -170,-103zm-113 -85l33 0c12,0 24,-1 35,-2 27,-128 117,-246 133,-262 41,-40 57,132 65,163l0 0c-1,36 -18,71 -45,101l148 0 0 81 -86 0c53,54 45,112 24,148 -6,9 -13,17 -20,23l-1 1 0 0c-65,48 -197,-28 -218,-175 -12,2 -23,3 -35,3l-33 0c-20,0 -40,-20 -40,-41 0,-21 20,-40 40,-40z"/>
 </g>
</svg>
