<?xml version="1.0" encoding="UTF-8"?>
<!DOCTYPE svg PUBLIC "-//W3C//DTD SVG 1.0//EN" "http://www.w3.org/TR/2001/REC-SVG-20010904/DTD/svg10.dtd">
<!-- Creator: CorelDRAW -->
<svg xmlns="http://www.w3.org/2000/svg" xml:space="preserve" width="1300px" height="1300px" version="1.0" style="shape-rendering:geometricPrecision; text-rendering:geometricPrecision; image-rendering:optimizeQuality; fill-rule:evenodd; clip-rule:evenodd"
viewBox="0 0 1300 1056"
 xmlns:xlink="http://www.w3.org/1999/xlink">
 <defs>
  <style type="text/css">
   <![CDATA[
    .fil2 {fill:#666666;fill-opacity:0.850980}
    .fil3 {fill:#6699FF;fill-opacity:0.850980}
    .fil0 {fill:#FF9933;fill-opacity:0.850980}
    .fil1 {fill:#999966}
   ]]>
  </style>
 </defs>
 <g id="_100:master" visibility="hidden">
  <metadata id="CorelCorpID_0Corel-Layer"/>
  <path class="fil0" d="M670 746l-24 76c-38,-172 106,-365 387,-366l-37 72c-162,0 -317,121 -326,218z"/>
  <path class="fil1" d="M1033 456l-37 72c-102,0 -319,-141 -360,-50l-12 -13c31,-69 67,-92 110,-91 80,1 204,82 299,82z"/>
  <path class="fil2" d="M640 741l89 -107c-105,122 -79,260 287,260l-41 81c-246,0 -351,-87 -335,-234z"/>
 </g>
 <g id="Layer_x0020_1" visibility="hidden">
  <metadata id="CorelCorpID_1Corel-Layer"/>
  <path class="fil2" d="M692 756l-43 25c2,-149 134,-327 384,-325l-37 72c-146,0 -299,150 -304,228z"/>
  <path class="fil2" d="M649 781l43 -26c-10,96 88,123 191,123 51,0 140,-9 169,-20l5 22c-37,28 -113,79 -189,79 -120,0 -220,-59 -219,-178z"/>
  <path class="fil1" d="M1033 456l-37 72c-102,0 -295,-108 -336,-18l-11 -13c30,-69 67,-91 110,-91 80,1 179,50 274,50z"/>
 </g>
 <g id="Layer_x0020_2" visibility="hidden">
  <metadata id="CorelCorpID_2Corel-Layer"/>
  <path class="fil1" d="M976 382l-38 73c-107,0 -255,-60 -325,-57 -21,0 -33,9 -52,36l-20 -13c30,-69 53,-104 96,-104 62,-1 215,65 339,65z"/>
  <path class="fil2" d="M985 865l4 18c-116,112 -471,93 -433,-196 18,-133 136,-303 419,-303l-37 71c-227,37 -323,178 -336,265 -12,78 119,175 383,145z"/>
 </g>
 <g id="Layer_x0020_3" visibility="hidden">
  <metadata id="CorelCorpID_3Corel-Layer"/>
  <path class="fil1" d="M976 407l-38 73c-130,0 -216,-69 -298,-71 -33,0 -66,14 -100,57l-25 -13c43,-97 84,-128 130,-127 81,2 178,79 331,81z"/>
  <path class="fil2" d="M577 728l-53 -20c8,-142 156,-304 451,-302l-37 74c-202,4 -349,125 -361,248z"/>
  <path class="fil2" d="M524 708l54 -1c-14,81 86,140 198,140 66,0 137,-13 189,-34l10 19c-48,68 -133,99 -216,99 -150,-1 -248,-79 -235,-223z"/>
 </g>
 <g id="Layer_x0020_4" visibility="hidden">
  <metadata id="CorelCorpID_4Corel-Layer"/>
  <path class="fil3" d="M530 673l51 55c-10,67 69,198 388,124l6 21c-191,159 -508,82 -445,-200z"/>
  <path class="fil3" d="M530 673c48,-169 222,-267 445,-267l-37 73c-131,-1 -338,101 -357,249l-51 -55z"/>
  <path class="fil1" d="M976 407l-38 73c-182,0 -317,-155 -398,-14l-25 -13c96,-259 232,-47 461,-46z"/>
 </g>
 <g id="Layer_x0020_5">
  <metadata id="CorelCorpID_5Corel-Layer"/>
  <path class="fil1" d="M933 410l41 -4 -40 86c-345,0 -539,386 -147,385 50,0 111,-6 182,-23l6 22c-65,55 -146,82 -220,83 -313,0 -317,-388 -8,-511 -70,-37 -140,-69 -209,20l-25 -12c133,-274 230,-30 420,-46z"/>
 </g>
</svg>
