<?xml version="1.0" encoding="UTF-8"?>
<!DOCTYPE svg PUBLIC "-//W3C//DTD SVG 1.0//EN" "http://www.w3.org/TR/2001/REC-SVG-20010904/DTD/svg10.dtd">
<!-- Creator: CorelDRAW -->
<svg xmlns="http://www.w3.org/2000/svg" xml:space="preserve" width="1300px" height="1300px" version="1.0" style="shape-rendering:geometricPrecision; text-rendering:geometricPrecision; image-rendering:optimizeQuality; fill-rule:evenodd; clip-rule:evenodd"
viewBox="0 0 1300 1056"
 xmlns:xlink="http://www.w3.org/1999/xlink">
 <defs>
  <style type="text/css">
   <![CDATA[
    .fil0 {fill:#336666;fill-opacity:0.600000}
   ]]>
  </style>
 </defs>
 <g id="Layer_x0020_1">
  <metadata id="CorelCorpID_0Corel-Layer"/>
  <path class="fil0" d="M941 595c8,-30 -7,-77 -82,-145 -2,12 -4,21 -5,26 -7,26 -19,50 -34,71 47,23 95,41 121,48zm-282 -174c10,-21 33,-50 60,-73l-15 -10 38 -79c274,178 268,273 238,336 -11,21 -37,79 -63,79 -1,0 -2,0 -2,-1 -58,-20 -114,-43 -159,-67 -45,29 -97,44 -144,44l-22 0 -1 0 0 0c-20,-1 -40,-20 -40,-41 0,-20 20,-40 40,-40l0 0 1 0 23 0c19,0 42,-5 66,-12 -38,-33 -51,-81 -20,-136zm32 26c-4,21 32,48 78,74 24,-12 41,-23 46,-31 5,-22 4,-71 -21,-91l-2 -2c-36,-24 -88,16 -101,50l0 0z"/>
 </g>
</svg>
