<?xml version="1.0" encoding="UTF-8"?>
<!DOCTYPE svg PUBLIC "-//W3C//DTD SVG 1.0//EN" "http://www.w3.org/TR/2001/REC-SVG-20010904/DTD/svg10.dtd">
<!-- Creator: CorelDRAW -->
<svg xmlns="http://www.w3.org/2000/svg" xml:space="preserve" width="1300px" height="1300px" version="1.0" style="shape-rendering:geometricPrecision; text-rendering:geometricPrecision; image-rendering:optimizeQuality; fill-rule:evenodd; clip-rule:evenodd"
viewBox="0 0 1300 1056"
 xmlns:xlink="http://www.w3.org/1999/xlink">
 <defs>
  <style type="text/css">
   <![CDATA[
    .fil4 {fill:#660066;fill-opacity:0.549020}
    .fil3 {fill:#4D4D4D}
    .fil0 {fill:#666633}
    .fil2 {fill:#999966}
    .fil1 {fill:#CC3300}
   ]]>
  </style>
 </defs>
 <g id="_100:master" visibility="hidden">
  <metadata id="CorelCorpID_0Corel-Layer"/>
  <path class="fil0" d="M995 650l0 -81 -15 0c-66,0 -116,-13 -133,-90 -3,-18 -34,3 -33,12 14,125 86,159 165,159l16 0z"/>
  <path class="fil1" d="M471 569c-20,0 -40,19 -40,40 -1,21 20,41 40,41l0 -81z"/>
  <path class="fil2" d="M976 439l-38 73c-107,0 -255,-84 -325,-82 -21,1 -33,9 -52,36l-20 -12c30,-69 53,-105 96,-105 62,0 215,90 339,90z"/>
  <path class="fil3" d="M471 569l0 81 106 0c149,0 259,-138 361,-138l38 -73c-135,0 -229,130 -418,130l-87 0z"/>
 </g>
 <g id="Layer_x0020_1" visibility="hidden">
  <metadata id="CorelCorpID_1Corel-Layer"/>
  <path class="fil4" d="M993 650l0 -81 -10 0c-64,0 -114,-22 -117,-124l-32 18c-3,79 19,187 149,187l10 0z"/>
  <path class="fil1" d="M471 569c-20,0 -40,19 -40,40 -1,21 20,41 40,41l0 -81z"/>
  <path class="fil2" d="M976 431l-38 73c-133,0 -231,-48 -292,-67 -42,-14 -58,-9 -85,29l-20 -12c23,-53 60,-125 128,-98 53,20 163,74 307,75z"/>
  <path class="fil3" d="M471 569l0 81 106 0c147,0 228,-140 330,-148 1,0 3,1 4,1l32 -73c-135,0 -196,139 -385,139l-87 0z"/>
 </g>
 <g id="Layer_x0020_2">
  <metadata id="CorelCorpID_2Corel-Layer"/>
  <path class="fil1" d="M504 569l0 0 0 0 30 0c106,0 179,-46 253,-85 -59,-16 -106,-36 -141,-47 -42,-14 -58,-9 -85,29l-20 -12c23,-53 60,-125 128,-98 53,20 163,74 307,75l-38 73 -2 0 0 0 -1 0c-5,0 -9,0 -13,0 -15,1 -30,3 -44,7 19,46 58,58 105,58l10 0 0 81 -10 0c-97,0 -134,-60 -145,-124 -90,42 -172,124 -285,124l-49 0 0 0 0 0c-21,0 -41,-20 -41,-41 0,-21 20,-40 41,-40z"/>
 </g>
</svg>
