<?xml version="1.0" encoding="UTF-8"?>
<!DOCTYPE svg PUBLIC "-//W3C//DTD SVG 1.0//EN" "http://www.w3.org/TR/2001/REC-SVG-20010904/DTD/svg10.dtd">
<!-- Creator: CorelDRAW -->
<svg xmlns="http://www.w3.org/2000/svg" xml:space="preserve" width="1300px" height="1300px" version="1.0" style="shape-rendering:geometricPrecision; text-rendering:geometricPrecision; image-rendering:optimizeQuality; fill-rule:evenodd; clip-rule:evenodd"
viewBox="0 0 1300 1056"
 xmlns:xlink="http://www.w3.org/1999/xlink">
 <defs>
  <style type="text/css">
   <![CDATA[
    .fil0 {fill:#CC3300}
   ]]>
  </style>
 </defs>
 <g id="_100:master" visibility="hidden">
  <metadata id="CorelCorpID_0Corel-Layer"/>
  <path class="fil0" d="M832 479l-29 -28c14,-23 31,-48 52,-73l18 39c-16,23 -30,44 -41,62z"/>
  <path class="fil0" d="M803 451l29 28c-34,49 -5,83 32,90 52,10 123,-26 73,-75l-113 -112 36 -79 115 114c104,104 -16,229 -112,233 -70,3 -136,-70 -60,-199z"/>
 </g>
 <g id="Layer_x0020_1">
  <metadata id="CorelCorpID_1Corel-Layer"/>
  <path class="fil0" d="M865 430c-56,87 -90,129 -9,139 95,11 99,-32 80,-55l-71 -84zm107 8c46,56 -11,229 -115,212 -119,-19 -106,-123 -18,-250l-15 -18 36 -79 112 135z"/>
 </g>
</svg>
