<?xml version="1.0" encoding="UTF-8"?>
<!DOCTYPE svg PUBLIC "-//W3C//DTD SVG 1.0//EN" "http://www.w3.org/TR/2001/REC-SVG-20010904/DTD/svg10.dtd">
<!-- Creator: CorelDRAW -->
<svg xmlns="http://www.w3.org/2000/svg" xml:space="preserve" width="1300px" height="1300px" version="1.0" style="shape-rendering:geometricPrecision; text-rendering:geometricPrecision; image-rendering:optimizeQuality; fill-rule:evenodd; clip-rule:evenodd"
viewBox="0 0 1300 1056"
 xmlns:xlink="http://www.w3.org/1999/xlink">
 <defs>
  <style type="text/css">
   <![CDATA[
    .fil1 {fill:#006633}
    .fil0 {fill:#CC3300}
    .fil2 {fill:#CCCCCC}
    .fil4 {fill:red}
    .fil3 {fill:#FFFF66}
   ]]>
  </style>
 </defs>
 <g id="_100:master" visibility="hidden">
  <metadata id="CorelCorpID_0Corel-Layer"/>
  <path class="fil0" d="M667 650l0 -81c-20,0 -40,19 -40,40 0,21 20,41 40,41z"/>
  <path class="fil1" d="M953 822c47,-36 94,-178 -157,-253l-34 81c197,39 209,135 191,172z"/>
  <path class="fil2" d="M904 543l29 -75c-8,-31 -24,-203 -65,-163 -17,17 -117,148 -137,284l34 33c7,-83 86,-199 101,-216 8,-10 31,117 38,137z"/>
  <path class="fil2" d="M700 569l-33 0 0 81 33 0c118,0 233,-88 233,-183 -36,60 -130,102 -233,102z"/>
  <path class="fil3" d="M989 727c-103,116 -232,-58 -225,-146l-30 -12c-30,255 258,367 255,158z"/>
  <path class="fil4" d="M831 569l205 0 0 81 -150 0c-23,-12 -37,-61 -55,-81z"/>
 </g>
 <g id="Layer_x0020_1">
  <metadata id="CorelCorpID_1Corel-Layer"/>
  <path class="fil0" d="M780 560c46,-10 86,-28 116,-52 -10,-43 -23,-108 -30,-102 -22,20 -64,89 -86,154zm1 93c27,54 85,96 145,73 -23,-37 -75,-61 -145,-73zm-114 -84c23,0 45,0 67,-2 17,-108 93,-215 128,-242 34,-27 59,60 71,143l0 0c8,33 -14,69 -50,101l137 0 0 81 -77 0c12,16 19,33 22,50l0 0 0 0c6,37 -10,70 -29,88l0 -1c-58,60 -184,5 -202,-141 -12,3 -24,4 -34,4l-33 0c-20,0 -40,-20 -40,-41 0,-21 20,-40 40,-40z"/>
 </g>
</svg>
