<?xml version="1.0" encoding="UTF-8"?>
<!DOCTYPE svg PUBLIC "-//W3C//DTD SVG 1.0//EN" "http://www.w3.org/TR/2001/REC-SVG-20010904/DTD/svg10.dtd">
<!-- Creator: CorelDRAW -->
<svg xmlns="http://www.w3.org/2000/svg" xml:space="preserve" width="1300px" height="1300px" version="1.0" style="shape-rendering:geometricPrecision; text-rendering:geometricPrecision; image-rendering:optimizeQuality; fill-rule:evenodd; clip-rule:evenodd"
viewBox="0 0 1300 1056"
 xmlns:xlink="http://www.w3.org/1999/xlink">
 <defs>
  <style type="text/css">
   <![CDATA[
    .fil3 {fill:red;fill-opacity:0.501961}
    .fil2 {fill:#660066;fill-opacity:0.549020}
    .fil1 {fill:#CCCC33;fill-opacity:0.549020}
    .fil0 {fill:#FF6600}
   ]]>
  </style>
 </defs>
 <g id="_100:master" visibility="hidden">
  <metadata id="CorelCorpID_0Corel-Layer"/>
  <path class="fil0" d="M856 341l-5 49 -83 74c-68,60 25,68 103,44l27 66c-159,65 -261,-35 -143,-141l101 -92z"/>
  <path class="fil1" d="M1014 569l0 81c-113,0 -154,-64 -164,-125l-29 -175 41 -61 12 10 30 172c12,72 28,98 110,98z"/>
 </g>
 <g id="Layer_x0020_1" visibility="hidden">
  <metadata id="CorelCorpID_1Corel-Layer"/>
  <path class="fil2" d="M961 544l-22 47c9,15 19,32 42,44 17,9 41,15 75,15l13 0 0 -81 -13 0c-43,0 -73,-11 -95,-25z"/>
  <path class="fil3" d="M975 224l0 261c0,9 -2,76 53,82l-71 50c-16,-17 -38,-53 -38,-130 1,-102 1,-66 1,-169 0,-33 31,-74 45,-99l10 5z"/>
  <path class="fil0" d="M945 313l-3 46c-58,33 -129,78 -112,118 10,25 44,19 117,-5l-6 35c-53,64 -138,60 -164,17 -25,-44 25,-120 168,-211z"/>
 </g>
 <g id="Layer_x0020_2">
  <metadata id="CorelCorpID_2Corel-Layer"/>
  <path class="fil0" d="M892 414l-21 11c-64,34 -104,69 -75,80 19,7 67,1 107,-12l-11 -79zm24 141c-57,30 -158,49 -180,-7 -18,-43 22,-104 92,-142l58 -31 -6 -42 40 -68 7 5 26 177c7,47 11,81 41,103 23,16 52,19 80,19l0 81 -2 0c-103,0 -139,-40 -156,-95z"/>
 </g>
</svg>
