<?xml version="1.0" encoding="UTF-8"?>
<!DOCTYPE svg PUBLIC "-//W3C//DTD SVG 1.0//EN" "http://www.w3.org/TR/2001/REC-SVG-20010904/DTD/svg10.dtd">
<!-- Creator: CorelDRAW -->
<svg xmlns="http://www.w3.org/2000/svg" xml:space="preserve" width="1300px" height="1300px" version="1.0" style="shape-rendering:geometricPrecision; text-rendering:geometricPrecision; image-rendering:optimizeQuality; fill-rule:evenodd; clip-rule:evenodd"
viewBox="0 0 1300 1056"
 xmlns:xlink="http://www.w3.org/1999/xlink">
 <defs>
  <style type="text/css">
   <![CDATA[
    .fil5 {fill:#FF6600;fill-opacity:0.501961}
    .fil4 {fill:#660066;fill-opacity:0.549020}
    .fil3 {fill:#4D4D4D}
    .fil0 {fill:#666633}
    .fil2 {fill:#999966}
    .fil1 {fill:#CC3300}
   ]]>
  </style>
 </defs>
 <g id="_100:master" visibility="hidden">
  <metadata id="CorelCorpID_0Corel-Layer"/>
  <path class="fil0" d="M995 650l0 -81 -15 0c-66,0 -116,-13 -133,-90 -3,-18 -34,3 -33,12 14,125 86,159 165,159l16 0z"/>
  <path class="fil1" d="M471 569c-20,0 -40,19 -40,40 -1,21 20,41 40,41l0 -81z"/>
  <path class="fil2" d="M976 439l-38 73c-107,0 -255,-84 -325,-82 -21,1 -33,9 -52,36l-20 -12c30,-69 53,-105 96,-105 62,0 215,90 339,90z"/>
  <path class="fil3" d="M471 569l0 81 106 0c149,0 259,-138 361,-138l38 -73c-135,0 -229,130 -418,130l-87 0z"/>
 </g>
 <g id="Layer_x0020_1" visibility="hidden">
  <metadata id="CorelCorpID_1Corel-Layer"/>
  <path class="fil4" d="M993 650l0 -81 -10 0c-64,0 -114,-22 -117,-124l-32 18c-3,79 19,187 149,187l10 0z"/>
  <path class="fil1" d="M471 569c-20,0 -40,19 -40,40 -1,21 20,41 40,41l0 -81z"/>
  <path class="fil2" d="M976 431l-38 73c-133,0 -231,-48 -292,-67 -42,-14 -58,-9 -85,29l-20 -12c23,-53 60,-125 128,-98 53,20 163,74 307,75z"/>
  <path class="fil3" d="M471 569l0 81 106 0c147,0 228,-140 330,-148 1,0 3,1 4,1l32 -73c-135,0 -196,139 -385,139l-87 0z"/>
 </g>
 <g id="Layer_x0020_2" visibility="hidden">
  <metadata id="CorelCorpID_2Corel-Layer"/>
  <path class="fil4" d="M993 650l0 -81 -10 0c-64,0 -114,-22 -117,-124l-32 18c-3,79 19,187 149,187l10 0z"/>
  <path class="fil1" d="M488 569c-21,0 -41,19 -41,40 0,21 20,41 41,41l0 -81z"/>
  <path class="fil3" d="M504 569l-16 0 0 81 16 0c248,0 291,-139 434,-146l38 -73c-156,-4 -227,138 -472,138z"/>
  <path class="fil2" d="M976 431l-38 73c-164,0 -309,-170 -396,-62l-25 -13c103,-235 223,0 459,2z"/>
 </g>
 <g id="Layer_x0020_3" visibility="hidden">
  <metadata id="CorelCorpID_3Corel-Layer"/>
  <path class="fil1" d="M480 569c-20,0 -41,19 -41,40 0,21 20,41 41,41l0 -81z"/>
  <path class="fil5" d="M992 650l40 0 0 -81 -40 0c-40,0 -84,-5 -109,-44 -15,-23 -21,-54 -21,-81l-34 16c0,27 1,55 7,81 12,61 49,109 157,109z"/>
  <path class="fil2" d="M935 407l40 -1 -38 79c-125,12 -216,-75 -296,-79 -34,-1 -66,13 -101,60l-26 -14c48,-87 96,-130 143,-128 76,4 159,89 278,83z"/>
  <path class="fil3" d="M479 569l0 81 63 0c194,0 270,-163 395,-165l38 -79c-171,0 -226,163 -444,163l-52 0z"/>
 </g>
 <g id="Layer_x0020_4">
  <metadata id="CorelCorpID_4Corel-Layer"/>
  <path class="fil1" d="M875 475l0 0 0 0 0 0zm-330 94l0 0 68 0c127,0 197,-51 261,-93l0 -2c-59,-23 -113,-51 -159,-51 -33,0 -53,11 -77,50l-21 -13c38,-86 66,-119 114,-119 85,0 180,82 291,82l-19 81 -4 0c-27,0 -50,5 -72,14 23,36 67,51 129,51l0 81c-107,0 -154,-38 -172,-110 -72,43 -139,110 -274,110l-65 0 0 0c-20,0 -41,-20 -40,-41 0,-21 20,-40 40,-40z"/>
 </g>
</svg>
