<?xml version="1.0" encoding="UTF-8"?>
<!DOCTYPE svg PUBLIC "-//W3C//DTD SVG 1.0//EN" "http://www.w3.org/TR/2001/REC-SVG-20010904/DTD/svg10.dtd">
<!-- Creator: CorelDRAW -->
<svg xmlns="http://www.w3.org/2000/svg" xml:space="preserve" width="1300px" height="1300px" version="1.0" style="shape-rendering:geometricPrecision; text-rendering:geometricPrecision; image-rendering:optimizeQuality; fill-rule:evenodd; clip-rule:evenodd"
viewBox="0 0 1300 1056"
 xmlns:xlink="http://www.w3.org/1999/xlink">
 <defs>
  <style type="text/css">
   <![CDATA[
    .fil0 {fill:#660066;fill-opacity:0.549020}
   ]]>
  </style>
 </defs>
 <g id="_100:master">
  <metadata id="CorelCorpID_0Corel-Layer"/>
  <path class="fil0" d="M1085 650l-1 0c-68,0 -110,-22 -132,-55 -4,4 -8,8 -13,12 -28,20 -148,51 -267,52 -77,0 -153,-6 -202,-39 -7,-7 -6,-79 11,-82 39,34 112,39 191,39 106,-1 217,-22 251,-41l-16 -388 49 -67 6 3c2,59 10,279 12,425 20,52 68,60 110,60l1 0 0 81z"/>
 </g>
</svg>
