<?xml version="1.0" encoding="UTF-8"?>
<!DOCTYPE svg PUBLIC "-//W3C//DTD SVG 1.0//EN" "http://www.w3.org/TR/2001/REC-SVG-20010904/DTD/svg10.dtd">
<!-- Creator: CorelDRAW -->
<svg xmlns="http://www.w3.org/2000/svg" xml:space="preserve" width="1300px" height="1300px" version="1.0" style="shape-rendering:geometricPrecision; text-rendering:geometricPrecision; image-rendering:optimizeQuality; fill-rule:evenodd; clip-rule:evenodd"
viewBox="0 0 1300 1056"
 xmlns:xlink="http://www.w3.org/1999/xlink">
 <defs>
  <style type="text/css">
   <![CDATA[
    .fil6 {fill:#999933;fill-opacity:0.501961}
    .fil2 {fill:#660066;fill-opacity:0.549020}
    .fil5 {fill:#FF6600;fill-opacity:0.600000}
    .fil0 {fill:#666666}
    .fil3 {fill:#6666FF}
    .fil4 {fill:#999966}
    .fil1 {fill:#FF9966}
   ]]>
  </style>
 </defs>
 <g id="_100:master" visibility="hidden">
  <metadata id="CorelCorpID_0Corel-Layer"/>
  <path class="fil0" d="M1066 70l-16 81 -317 98 -14 5 13 -79 334 -105z"/>
  <path class="fil1" d="M927 552l42 -13c31,-133 -102,-214 -224,-298 -9,-6 -12,-10 -21,-17l9 -50c-32,31 -54,84 -52,119 1,9 8,12 15,17 65,40 234,131 231,242z"/>
  <path class="fil2" d="M928 544l41 -5c-16,70 -67,111 -136,111l-20 0 0 -81 20 0c43,0 74,-11 95,-25z"/>
  <path class="fil3" d="M684 650l0 -81c-21,0 -41,19 -41,40 0,21 20,41 41,41z"/>
  <path class="fil4" d="M814 569l0 81 -131 0 0 -81 131 0z"/>
  <path class="fil5" d="M848 413l51 -57c89,80 99,213 228,213l1 0 0 81 -2 0c-171,0 -169,-147 -278,-237z"/>
 </g>
 <g id="Layer_x0020_1">
  <metadata id="CorelCorpID_1Corel-Layer"/>
  <path class="fil6" d="M731 650l0 0c-20,-1 -40,-20 -39,-41 0,-20 19,-40 39,-40l0 0 1 0 9 0c76,0 142,-9 190,-31 -7,-64 -75,-130 -137,-181l-62 -52c-41,-34 18,-123 49,-138l0 -1 295 -92c32,-10 4,75 -5,77l-289 90 0 0 60 50c21,17 41,35 60,55l0 0 0 0c11,12 21,24 30,36 75,99 80,187 195,187l1 0 0 81 -2 0c-90,0 -127,-34 -160,-84 -3,9 -7,16 -13,23 -47,48 -114,61 -211,61l-10 0 -1 0z"/>
 </g>
</svg>
