<?xml version="1.0" encoding="UTF-8"?>
<!DOCTYPE svg PUBLIC "-//W3C//DTD SVG 1.0//EN" "http://www.w3.org/TR/2001/REC-SVG-20010904/DTD/svg10.dtd">
<!-- Creator: CorelDRAW -->
<svg xmlns="http://www.w3.org/2000/svg" xml:space="preserve" width="1300px" height="1300px" version="1.0" style="shape-rendering:geometricPrecision; text-rendering:geometricPrecision; image-rendering:optimizeQuality; fill-rule:evenodd; clip-rule:evenodd"
viewBox="0 0 1300 1056"
 xmlns:xlink="http://www.w3.org/1999/xlink">
 <defs>
  <style type="text/css">
   <![CDATA[
    .fil0 {fill:#FF6600;fill-opacity:0.600000}
   ]]>
  </style>
 </defs>
 <g id="_100:master">
  <metadata id="CorelCorpID_0Corel-Layer"/>
  <path class="fil0" d="M929 362l0 0c57,85 98,207 211,207l1 81c-88,0 -137,-43 -179,-101 -5,13 -13,24 -24,29 -172,81 -749,178 -584,-221l20 9c-90,268 340,217 547,144 -5,-24 -15,-48 -29,-71 -6,-10 -13,-21 -21,-31 -39,-51 -90,-92 -126,-114 -7,-5 -14,-8 -15,-18 -3,-34 20,-87 52,-119l0 1 301 -88 -17 81 -268 77c52,40 99,85 131,134zm-156 -154l0 0 0 0z"/>
 </g>
</svg>
