<?xml version="1.0" encoding="UTF-8"?>
<!DOCTYPE svg PUBLIC "-//W3C//DTD SVG 1.0//EN" "http://www.w3.org/TR/2001/REC-SVG-20010904/DTD/svg10.dtd">
<!-- Creator: CorelDRAW -->
<svg xmlns="http://www.w3.org/2000/svg" xml:space="preserve" width="1300px" height="1300px" version="1.0" style="shape-rendering:geometricPrecision; text-rendering:geometricPrecision; image-rendering:optimizeQuality; fill-rule:evenodd; clip-rule:evenodd"
viewBox="0 0 1300 1056"
 xmlns:xlink="http://www.w3.org/1999/xlink">
 <defs>
  <style type="text/css">
   <![CDATA[
    .fil6 {fill:#999933;fill-opacity:0.501961}
    .fil2 {fill:#660066;fill-opacity:0.549020}
    .fil5 {fill:#FF6600;fill-opacity:0.600000}
    .fil0 {fill:#666666}
    .fil3 {fill:#6666FF}
    .fil4 {fill:#999966}
    .fil1 {fill:#FF9966}
   ]]>
  </style>
 </defs>
 <g id="_100:master" visibility="hidden">
  <metadata id="CorelCorpID_0Corel-Layer"/>
  <polygon class="fil0" points="1066,70 1050,151 733,249 719,254 732,175 "/>
  <path class="fil1" d="M927 552l42 -13c31,-133 -102,-214 -224,-298 -9,-6 -12,-10 -21,-17l9 -50c-32,31 -54,84 -52,119 1,9 8,12 15,17 65,40 234,131 231,242z"/>
  <path class="fil2" d="M928 544l41 -5c-16,70 -67,111 -136,111l-20 0 0 -81 20 0c43,0 74,-11 95,-25z"/>
  <path class="fil3" d="M684 650l0 -81c-21,0 -41,19 -41,40 0,21 20,41 41,41z"/>
  <polygon class="fil4" points="814,569 814,650 683,650 683,569 "/>
  <path class="fil5" d="M848 413l51 -57c89,80 99,213 228,213l1 0 0 81 -2 0c-171,0 -169,-147 -278,-237z"/>
 </g>
 <g id="Layer_x0020_1">
  <metadata id="CorelCorpID_1Corel-Layer"/>
  <path class="fil6" d="M718 569l0 0 56 0c76,0 121,-14 159,-42 -33,-97 -149,-179 -201,-222 -41,-34 18,-123 49,-138l0 -1 316 -99 -26 84 -289 90 0 0c28,23 76,62 117,108l0 0 6 7c92,105 159,213 233,213l0 81c-68,0 -120,-48 -170,-107 -6,21 -15,38 -27,52l0 0 0 0c-35,40 -94,55 -168,55l-55 0 0 0c-21,0 -41,-20 -41,-41 0,-21 20,-40 41,-40z"/>
 </g>
</svg>
