<?xml version="1.0" encoding="UTF-8"?>
<!DOCTYPE svg PUBLIC "-//W3C//DTD SVG 1.0//EN" "http://www.w3.org/TR/2001/REC-SVG-20010904/DTD/svg10.dtd">
<!-- Creator: CorelDRAW -->
<svg xmlns="http://www.w3.org/2000/svg" xml:space="preserve" width="1300px" height="1300px" version="1.0" style="shape-rendering:geometricPrecision; text-rendering:geometricPrecision; image-rendering:optimizeQuality; fill-rule:evenodd; clip-rule:evenodd"
viewBox="0 0 1300 1056"
 xmlns:xlink="http://www.w3.org/1999/xlink">
 <defs>
  <style type="text/css">
   <![CDATA[
    .fil0 {fill:#666633}
   ]]>
  </style>
 </defs>
 <g id="_100:master">
  <metadata id="CorelCorpID_0Corel-Layer"/>
  <path class="fil0" d="M921 496l1 -1c1,-83 -2,-170 -2,-204l0 -111c0,-34 34,-74 47,-99l10 5 0 262c0,51 0,94 -2,130 7,42 29,91 100,91l0 81c-76,0 -116,-33 -136,-72l-1 0c-172,81 -749,178 -584,-221l20 9c-90,268 341,217 547,144 0,-5 0,-10 0,-14z"/>
 </g>
</svg>
