<?xml version="1.0" encoding="UTF-8"?>
<!DOCTYPE svg PUBLIC "-//W3C//DTD SVG 1.0//EN" "http://www.w3.org/TR/2001/REC-SVG-20010904/DTD/svg10.dtd">
<!-- Creator: CorelDRAW -->
<svg xmlns="http://www.w3.org/2000/svg" xml:space="preserve" width="1300px" height="1300px" version="1.0" style="shape-rendering:geometricPrecision; text-rendering:geometricPrecision; image-rendering:optimizeQuality; fill-rule:evenodd; clip-rule:evenodd"
viewBox="0 0 1300 1056"
 xmlns:xlink="http://www.w3.org/1999/xlink">
 <defs>
  <style type="text/css">
   <![CDATA[
    .fil6 {fill:#999933;fill-opacity:0.501961}
    .fil2 {fill:#660066;fill-opacity:0.549020}
    .fil7 {fill:#663333;fill-opacity:0.600000}
    .fil5 {fill:#FF6600;fill-opacity:0.600000}
    .fil0 {fill:#666666}
    .fil3 {fill:#6666FF}
    .fil4 {fill:#999966}
    .fil1 {fill:#FF9966}
   ]]>
  </style>
 </defs>
 <g id="_100:master" visibility="hidden">
  <metadata id="CorelCorpID_0Corel-Layer"/>
  <polygon class="fil0" points="1066,70 1050,151 733,249 719,254 732,175 "/>
  <path class="fil1" d="M927 552l42 -13c31,-133 -102,-214 -224,-298 -9,-6 -12,-10 -21,-17l9 -50c-32,31 -54,84 -52,119 1,9 8,12 15,17 65,40 234,131 231,242z"/>
  <path class="fil2" d="M928 544l41 -5c-16,70 -67,111 -136,111l-20 0 0 -81 20 0c43,0 74,-11 95,-25z"/>
  <path class="fil3" d="M684 650l0 -81c-21,0 -41,19 -41,40 0,21 20,41 41,41z"/>
  <polygon class="fil4" points="814,569 814,650 683,650 683,569 "/>
  <path class="fil5" d="M848 413l51 -57c89,80 99,213 228,213l1 0 0 81 -2 0c-171,0 -169,-147 -278,-237z"/>
 </g>
 <g id="Layer_x0020_1" visibility="hidden">
  <metadata id="CorelCorpID_1Corel-Layer"/>
  <path class="fil6" d="M718 650l0 -81 73 0c106,0 135,-27 184,-82 0,123 -64,163 -185,163l-72 0z"/>
  <path class="fil3" d="M718 650l0 -81c-21,0 -41,19 -41,40 0,21 20,41 41,41z"/>
  <path class="fil1" d="M934 573l29 -16c36,-94 4,-167 -173,-316l-1 -75c-46,16 -78,117 -49,139 129,100 188,170 194,268z"/>
  <path class="fil0" d="M1080 148c-138,31 -184,47 -314,104l-15 4 38 -90c118,-51 191,-69 316,-99l-25 81z"/>
  <path class="fil5" d="M855 406l55 -52c130,166 137,215 228,215l32 0 0 81 -32 0c-163,0 -163,-130 -283,-244z"/>
 </g>
 <g id="Layer_x0020_2">
  <metadata id="CorelCorpID_2Corel-Layer"/>
  <path class="fil7" d="M929 385l96 117c52,63 69,67 122,67l0 81c-58,0 -99,-9 -158,-78l-15 -19c-15,60 -63,97 -137,97l-103 0 0 0 -2 0 0 0c-20,-1 -39,-20 -39,-41 1,-20 20,-39 39,-40l0 0 2 0 102 0c45,0 77,-12 100,-26 -17,-78 -90,-144 -196,-222 -29,-21 3,-122 49,-139l289 -101 -22 83 -264 95c54,45 103,85 136,126 1,0 1,0 1,0z"/>
 </g>
</svg>
