<?xml version="1.0" encoding="UTF-8"?>
<!DOCTYPE svg PUBLIC "-//W3C//DTD SVG 1.0//EN" "http://www.w3.org/TR/2001/REC-SVG-20010904/DTD/svg10.dtd">
<!-- Creator: CorelDRAW -->
<svg xmlns="http://www.w3.org/2000/svg" xml:space="preserve" width="1300px" height="1300px" version="1.0" style="shape-rendering:geometricPrecision; text-rendering:geometricPrecision; image-rendering:optimizeQuality; fill-rule:evenodd; clip-rule:evenodd"
viewBox="0 0 1300 1056"
 xmlns:xlink="http://www.w3.org/1999/xlink">
 <defs>
  <style type="text/css">
   <![CDATA[
    .fil0 {fill:#FF99CC}
   ]]>
  </style>
 </defs>
 <g id="_100:master">
  <metadata id="CorelCorpID_0Corel-Layer"/>
  <path class="fil0" d="M953 592c-4,6 -9,11 -15,14 -1,1 -2,2 -3,3l0 -1c-122,66 -383,74 -447,-14 -28,-39 -39,-93 -6,-194l25 8c-19,66 -7,106 22,131 82,71 401,25 402,-13 -24,-71 -93,-133 -191,-205 -29,-21 3,-122 49,-139l289 -101 -22 83 -264 95c119,99 209,170 181,296 -4,11 -11,25 -20,37z"/>
 </g>
</svg>
