<?xml version="1.0" encoding="UTF-8"?>
<!DOCTYPE svg PUBLIC "-//W3C//DTD SVG 1.0//EN" "http://www.w3.org/TR/2001/REC-SVG-20010904/DTD/svg10.dtd">
<!-- Creator: CorelDRAW -->
<svg xmlns="http://www.w3.org/2000/svg" xml:space="preserve" width="1300px" height="1300px" version="1.0" style="shape-rendering:geometricPrecision; text-rendering:geometricPrecision; image-rendering:optimizeQuality; fill-rule:evenodd; clip-rule:evenodd"
viewBox="0 0 1300 1056"
 xmlns:xlink="http://www.w3.org/1999/xlink">
 <defs>
  <style type="text/css">
   <![CDATA[
    .fil0 {fill:#FF6600;fill-opacity:0.600000}
   ]]>
  </style>
 </defs>
 <g id="_100:master">
  <metadata id="CorelCorpID_0Corel-Layer"/>
  <path class="fil0" d="M929 362l0 0c57,85 98,207 211,207l1 81c-86,0 -135,-41 -176,-96 -19,61 -68,96 -132,96l-126 0 0 0c-20,-1 -40,-20 -40,-41 1,-20 20,-40 40,-40l0 0 126 0c41,0 70,-10 91,-22 1,-38 -12,-75 -32,-108 -6,-10 -13,-21 -21,-31 -39,-51 -90,-92 -126,-114 -7,-5 -14,-8 -15,-18 -3,-34 20,-87 52,-119l0 1 301 -88 -17 81 -268 77c52,40 99,85 131,134zm-156 -154l0 0 0 0z"/>
 </g>
</svg>
