<?xml version="1.0" encoding="UTF-8"?>
<!DOCTYPE svg PUBLIC "-//W3C//DTD SVG 1.0//EN" "http://www.w3.org/TR/2001/REC-SVG-20010904/DTD/svg10.dtd">
<!-- Creator: CorelDRAW -->
<svg xmlns="http://www.w3.org/2000/svg" xml:space="preserve" width="1300px" height="1300px" version="1.0" style="shape-rendering:geometricPrecision; text-rendering:geometricPrecision; image-rendering:optimizeQuality; fill-rule:evenodd; clip-rule:evenodd"
viewBox="0 0 1300 1056"
 xmlns:xlink="http://www.w3.org/1999/xlink">
 <defs>
  <style type="text/css">
   <![CDATA[
    .fil0 {fill:#FF6600;fill-opacity:0.600000}
   ]]>
  </style>
 </defs>
 <g id="_100:master">
  <metadata id="CorelCorpID_0Corel-Layer"/>
  <path class="fil0" d="M902 359l0 0 0 0c19,19 35,38 48,59 1,2 2,4 3,5 42,73 86,146 174,146l1 81c-80,0 -128,-35 -167,-85 -22,54 -68,85 -128,85l-150 0 0 0c-20,-1 -40,-20 -40,-41 0,-20 20,-40 40,-40l0 0c50,0 100,0 150,0 43,0 73,-11 94,-24 -1,-17 -5,-34 -13,-50 -6,-10 -13,-21 -19,-31 -52,-70 -152,-125 -199,-154 -7,-5 -14,-8 -15,-17 -2,-35 20,-88 52,-119l0 0 333 -104 -16 81 -301 93c54,37 110,74 153,115zm-178 -135l0 0 0 0z"/>
 </g>
</svg>
