<?xml version="1.0" encoding="UTF-8"?>
<!DOCTYPE svg PUBLIC "-//W3C//DTD SVG 1.0//EN" "http://www.w3.org/TR/2001/REC-SVG-20010904/DTD/svg10.dtd">
<!-- Creator: CorelDRAW -->
<svg xmlns="http://www.w3.org/2000/svg" xml:space="preserve" width="1300px" height="1300px" version="1.0" style="shape-rendering:geometricPrecision; text-rendering:geometricPrecision; image-rendering:optimizeQuality; fill-rule:evenodd; clip-rule:evenodd"
viewBox="0 0 1300 1056"
 xmlns:xlink="http://www.w3.org/1999/xlink">
 <defs>
  <style type="text/css">
   <![CDATA[
    .fil1 {fill:red;fill-opacity:0.501961}
    .fil2 {fill:#660066;fill-opacity:0.549020}
    .fil0 {fill:#FF9933}
   ]]>
  </style>
 </defs>
 <g id="_100:master" visibility="hidden">
  <metadata id="CorelCorpID_0Corel-Layer"/>
  <path class="fil0" d="M710 731l21 -81c129,-31 202,-81 204,-183l40 61c0,105 -122,183 -265,203z"/>
  <path class="fil1" d="M974 504l3 65 -51 -32 -25 -354c0,-25 25,-70 48,-102l10 8 15 415z"/>
  <path class="fil2" d="M1093 650l1 -81 -2 0c-53,0 -116,-12 -119,-113l-36 7 5 74c4,63 47,113 150,113l1 0z"/>
  <path class="fil1" d="M744 151l15 415c2,65 5,126 -46,166l-8 -7c13,-13 9,-83 6,-127l-25 -353c0,-25 25,-70 48,-102l10 8z"/>
 </g>
 <g id="Layer_x0020_1">
  <metadata id="CorelCorpID_1Corel-Layer"/>
  <path class="fil1" d="M784 536c7,-43 -14,-89 -33,-125 -19,-36 -44,-72 -73,-123 -11,-23 -7,-74 0,-113l13 3c53,104 103,184 125,257 7,21 12,64 -32,101zm-134 10c40,17 84,23 114,23 83,0 125,-21 160,-69l-22 -317c-1,-25 25,-70 47,-102l11 8 13 372c5,96 67,108 119,108l2 0 -1 81 -1 0c-82,0 -126,-32 -143,-77 -32,48 -86,77 -164,77 -68,0 -89,-41 -135,-104z"/>
 </g>
</svg>
