<?xml version="1.0" encoding="UTF-8"?>
<!DOCTYPE svg PUBLIC "-//W3C//DTD SVG 1.0//EN" "http://www.w3.org/TR/2001/REC-SVG-20010904/DTD/svg10.dtd">
<!-- Creator: CorelDRAW -->
<svg xmlns="http://www.w3.org/2000/svg" xml:space="preserve" width="1300px" height="1300px" version="1.0" style="shape-rendering:geometricPrecision; text-rendering:geometricPrecision; image-rendering:optimizeQuality; fill-rule:evenodd; clip-rule:evenodd"
viewBox="0 0 1300 1056"
 xmlns:xlink="http://www.w3.org/1999/xlink">
 <defs>
  <style type="text/css">
   <![CDATA[
    .fil0 {fill:#CC6633}
   ]]>
  </style>
 </defs>
 <g id="_100:master">
  <metadata id="CorelCorpID_0Corel-Layer"/>
  <path class="fil0" d="M792 569l29 0c23,0 46,-3 67,-9 18,-6 36,-17 36,-30l-25 -350c-1,-10 0,-23 6,-34l29 -55c8,-15 21,-11 21,0l19 432c2,24 5,37 -15,67l0 0c-26,42 -74,60 -138,60l-29 0 -1 0 0 0c-20,0 -40,-20 -39,-41 0,-21 20,-40 40,-40l0 0z"/>
 </g>
</svg>
