<?xml version="1.0" encoding="UTF-8"?>
<!DOCTYPE svg PUBLIC "-//W3C//DTD SVG 1.0//EN" "http://www.w3.org/TR/2001/REC-SVG-20010904/DTD/svg10.dtd">
<!-- Creator: CorelDRAW -->
<svg xmlns="http://www.w3.org/2000/svg" xml:space="preserve" width="1300px" height="1300px" version="1.0" style="shape-rendering:geometricPrecision; text-rendering:geometricPrecision; image-rendering:optimizeQuality; fill-rule:evenodd; clip-rule:evenodd"
viewBox="0 0 1300 1056"
 xmlns:xlink="http://www.w3.org/1999/xlink">
 <defs>
  <style type="text/css">
   <![CDATA[
    .fil0 {fill:red;fill-opacity:0.501961}
   ]]>
  </style>
 </defs>
 <g id="_100:master">
  <metadata id="CorelCorpID_0Corel-Layer"/>
  <path class="fil0" d="M975 86l0 284c0,30 -16,61 -41,91 15,25 25,49 25,73 0,47 -34,116 -130,116l-97 0 -19 -81c33,-12 103,-59 151,-106 -37,-45 -91,-106 -149,-184 -21,-28 -16,-81 -19,-109l11 -2 56 79c47,66 101,121 140,171 9,-14 15,-28 15,-39l0 -199c-1,-34 34,-74 47,-99l10 5zm-172 483l25 0c39,0 79,-10 87,-23 5,-7 -3,-23 -20,-45 -28,25 -60,49 -92,68z"/>
 </g>
</svg>
