<?xml version="1.0" encoding="UTF-8"?>
<!DOCTYPE svg PUBLIC "-//W3C//DTD SVG 1.0//EN" "http://www.w3.org/TR/2001/REC-SVG-20010904/DTD/svg10.dtd">
<!-- Creator: CorelDRAW -->
<svg xmlns="http://www.w3.org/2000/svg" xml:space="preserve" width="1300px" height="1300px" version="1.0" style="shape-rendering:geometricPrecision; text-rendering:geometricPrecision; image-rendering:optimizeQuality; fill-rule:evenodd; clip-rule:evenodd"
viewBox="0 0 1300 1056"
 xmlns:xlink="http://www.w3.org/1999/xlink">
 <defs>
  <style type="text/css">
   <![CDATA[
    .fil1 {fill:red;fill-opacity:0.501961}
    .fil3 {fill:#FF6600;fill-opacity:0.501961}
    .fil2 {fill:#660066;fill-opacity:0.549020}
    .fil0 {fill:#FF9933}
   ]]>
  </style>
 </defs>
 <g id="_100:master" visibility="hidden">
  <metadata id="CorelCorpID_0Corel-Layer"/>
  <path class="fil0" d="M710 731l21 -81c129,-31 202,-81 204,-183l40 61c0,105 -122,183 -265,203z"/>
  <path class="fil1" d="M974 504l3 65 -51 -32 -25 -354c0,-25 25,-70 48,-102l10 8 15 415z"/>
  <path class="fil2" d="M1093 650l1 -81 -2 0c-53,0 -116,-12 -119,-113l-36 7 5 74c4,63 47,113 150,113l1 0z"/>
  <path class="fil1" d="M744 151l15 415c2,65 5,126 -46,166l-8 -7c13,-13 9,-83 6,-127l-25 -353c0,-25 25,-70 48,-102l10 8z"/>
 </g>
 <g id="Layer_x0020_1">
  <metadata id="CorelCorpID_1Corel-Layer"/>
  <path class="fil3" d="M727 518l13 4c73,-61 56,-213 19,-365l-6 -3 -49 67c27,71 60,218 23,297zm345 132c-85,0 -121,-28 -132,-89l-1 1c-36,64 -136,88 -194,88 -31,0 -66,-58 -58,-92 8,-5 8,11 47,11 42,0 134,-11 193,-56l-20 -365 49 -67 6 3 12 360 0 0c1,14 1,29 1,43 1,58 23,82 97,82l0 81z"/>
 </g>
</svg>
