<?xml version="1.0" encoding="UTF-8"?>
<!DOCTYPE svg PUBLIC "-//W3C//DTD SVG 1.0//EN" "http://www.w3.org/TR/2001/REC-SVG-20010904/DTD/svg10.dtd">
<!-- Creator: CorelDRAW -->
<svg xmlns="http://www.w3.org/2000/svg" xml:space="preserve" width="1300px" height="1300px" version="1.0" style="shape-rendering:geometricPrecision; text-rendering:geometricPrecision; image-rendering:optimizeQuality; fill-rule:evenodd; clip-rule:evenodd"
viewBox="0 0 1300 1056"
 xmlns:xlink="http://www.w3.org/1999/xlink">
 <defs>
  <style type="text/css">
   <![CDATA[
    .fil0 {fill:#CC6633}
   ]]>
  </style>
 </defs>
 <g id="_100:master">
  <metadata id="CorelCorpID_0Corel-Layer"/>
  <path class="fil0" d="M813 569c25,0 48,-4 67,-10 18,-6 35,-16 47,-29l-24 -347c0,-25 25,-70 48,-102l10 8 14 402c0,5 0,11 -1,16 0,9 -1,17 -3,28 -2,12 -5,23 -9,34l0 0 0 0c-23,58 -75,81 -149,81 -21,0 -41,-20 -41,-41 1,-21 20,-40 41,-40l0 0z"/>
 </g>
</svg>
