<?xml version="1.0" encoding="UTF-8"?>
<!DOCTYPE svg PUBLIC "-//W3C//DTD SVG 1.0//EN" "http://www.w3.org/TR/2001/REC-SVG-20010904/DTD/svg10.dtd">
<!-- Creator: CorelDRAW -->
<svg xmlns="http://www.w3.org/2000/svg" xml:space="preserve" width="1300px" height="1300px" version="1.0" style="shape-rendering:geometricPrecision; text-rendering:geometricPrecision; image-rendering:optimizeQuality; fill-rule:evenodd; clip-rule:evenodd"
viewBox="0 0 1300 1056"
 xmlns:xlink="http://www.w3.org/1999/xlink">
 <defs>
  <style type="text/css">
   <![CDATA[
    .fil2 {fill:#999933;fill-opacity:0.501961}
    .fil1 {fill:red;fill-opacity:0.501961}
    .fil0 {fill:#FF9933}
   ]]>
  </style>
 </defs>
 <g id="_100:master" visibility="hidden">
  <metadata id="CorelCorpID_0Corel-Layer"/>
  <path class="fil0" d="M737 569l16 69c-12,-80 226,-182 219,-331l-1 -23 -58 -22 4 49c5,78 -196,201 -180,258z"/>
  <path class="fil1" d="M971 288l-56 -9 -9 -96c-1,-25 25,-70 47,-102l11 8 7 199z"/>
  <path class="fil2" d="M788 569c58,0 124,-21 143,-83l20 8c0,47 -9,76 -26,102 -26,38 -71,54 -138,54l-31 0 -19 -81 51 0z"/>
  <path class="fil1" d="M951 495l-33 48c-33,-99 -134,-209 -219,-291 -17,-19 -28,-69 -32,-108l12 -1c97,100 214,226 272,352z"/>
 </g>
 <g id="Layer_x0020_1">
  <metadata id="CorelCorpID_1Corel-Layer"/>
  <path class="fil1" d="M727 518c31,-96 20,-161 -23,-297l49 -67 6 3c37,152 54,304 -19,365l-13 -4zm212 44c-36,64 -136,88 -194,88 -31,0 -66,-58 -58,-92 8,-5 8,11 47,11 42,0 134,-11 193,-56l-20 -365 49 -67 6 3 13 370c0,50 -20,86 -36,108z"/>
 </g>
</svg>
