<?xml version="1.0" encoding="UTF-8"?>
<!DOCTYPE svg PUBLIC "-//W3C//DTD SVG 1.0//EN" "http://www.w3.org/TR/2001/REC-SVG-20010904/DTD/svg10.dtd">
<!-- Creator: CorelDRAW -->
<svg xmlns="http://www.w3.org/2000/svg" xml:space="preserve" width="1300px" height="1300px" version="1.0" style="shape-rendering:geometricPrecision; text-rendering:geometricPrecision; image-rendering:optimizeQuality; fill-rule:evenodd; clip-rule:evenodd"
viewBox="0 0 1300 1056"
 xmlns:xlink="http://www.w3.org/1999/xlink">
 <defs>
  <style type="text/css">
   <![CDATA[
    .fil2 {fill:#999933;fill-opacity:0.501961}
    .fil1 {fill:red;fill-opacity:0.501961}
    .fil0 {fill:#FF9933}
   ]]>
  </style>
 </defs>
 <g id="_100:master" visibility="hidden">
  <metadata id="CorelCorpID_0Corel-Layer"/>
  <path class="fil0" d="M737 569l16 69c-12,-80 226,-182 219,-331l-1 -23 -58 -22 4 49c5,78 -196,201 -180,258z"/>
  <path class="fil1" d="M971 288l-56 -9 -9 -96c-1,-25 25,-70 47,-102l11 8 7 199z"/>
  <path class="fil2" d="M788 569c58,0 124,-21 143,-83l20 8c0,47 -9,76 -26,102 -26,38 -71,54 -138,54l-31 0 -19 -81 51 0z"/>
  <path class="fil1" d="M951 495l-33 48c-33,-99 -134,-209 -219,-291 -17,-19 -28,-69 -32,-108l12 -1c97,100 214,226 272,352z"/>
 </g>
 <g id="Layer_x0020_1">
  <metadata id="CorelCorpID_1Corel-Layer"/>
  <path class="fil1" d="M650 569c88,0 274,-14 269,-137l-11 -253c0,-11 1,-24 7,-34l30 -55c9,-15 21,-10 21,1l7 342c3,161 -116,217 -270,217 -20,0 -35,-9 -41,-34l-12 -47zm65 -36l-13 -13c48,-108 6,-243 -25,-314l30 -54c9,-16 17,-10 22,0 75,170 71,307 -14,381z"/>
 </g>
</svg>
