<?xml version="1.0" encoding="UTF-8"?>
<!DOCTYPE svg PUBLIC "-//W3C//DTD SVG 1.0//EN" "http://www.w3.org/TR/2001/REC-SVG-20010904/DTD/svg10.dtd">
<!-- Creator: CorelDRAW -->
<svg xmlns="http://www.w3.org/2000/svg" xml:space="preserve" width="1300px" height="1300px" version="1.0" style="shape-rendering:geometricPrecision; text-rendering:geometricPrecision; image-rendering:optimizeQuality; fill-rule:evenodd; clip-rule:evenodd"
viewBox="0 0 1300 1056"
 xmlns:xlink="http://www.w3.org/1999/xlink">
 <defs>
  <style type="text/css">
   <![CDATA[
    .fil0 {fill:#FF9933}
   ]]>
  </style>
 </defs>
 <g id="_100:master">
  <metadata id="CorelCorpID_0Corel-Layer"/>
  <path class="fil0" d="M713 152l91 205c18,42 60,145 -23,193 16,-46 8,-90 -10,-131 -24,-53 -49,-99 -74,-158 -14,-31 2,-82 5,-110l11 1zm262 320l0 0 0 1c12,70 29,96 110,96l0 81c-85,0 -129,-36 -150,-79 -57,66 -161,104 -214,114 -22,-10 3,-69 17,-77 79,-14 176,-85 181,-111 -1,-89 -8,-165 -10,-205l-4 -111c-1,-34 32,-76 44,-100l11 4 14 386 0 0 1 1z"/>
 </g>
</svg>
