<?xml version="1.0" encoding="UTF-8"?>
<!DOCTYPE svg PUBLIC "-//W3C//DTD SVG 1.0//EN" "http://www.w3.org/TR/2001/REC-SVG-20010904/DTD/svg10.dtd">
<!-- Creator: CorelDRAW -->
<svg xmlns="http://www.w3.org/2000/svg" xml:space="preserve" width="1300px" height="1300px" version="1.0" style="shape-rendering:geometricPrecision; text-rendering:geometricPrecision; image-rendering:optimizeQuality; fill-rule:evenodd; clip-rule:evenodd"
viewBox="0 0 1300 1056"
 xmlns:xlink="http://www.w3.org/1999/xlink">
 <defs>
  <style type="text/css">
   <![CDATA[
    .fil0 {fill:#CC6633}
   ]]>
  </style>
 </defs>
 <g id="_100:master">
  <metadata id="CorelCorpID_0Corel-Layer"/>
  <path class="fil0" d="M796 569l56 0c26,0 60,-7 76,-21 0,-16 -1,-36 -3,-62l-30 -337 46 -68 7 3c5,70 22,273 26,399 1,7 1,14 1,21l0 0c0,7 0,14 -1,20 -2,61 -18,82 -33,94 -6,7 -13,12 -21,16l0 0 0 0c-19,11 -44,16 -73,16l-51 0c-20,0 -40,-20 -40,-41 0,-21 20,-40 40,-40z"/>
 </g>
</svg>
