<?xml version="1.0" encoding="UTF-8"?>
<!DOCTYPE svg PUBLIC "-//W3C//DTD SVG 1.0//EN" "http://www.w3.org/TR/2001/REC-SVG-20010904/DTD/svg10.dtd">
<!-- Creator: CorelDRAW -->
<svg xmlns="http://www.w3.org/2000/svg" xml:space="preserve" width="1300px" height="1300px" version="1.0" style="shape-rendering:geometricPrecision; text-rendering:geometricPrecision; image-rendering:optimizeQuality; fill-rule:evenodd; clip-rule:evenodd"
viewBox="0 0 1300 1056"
 xmlns:xlink="http://www.w3.org/1999/xlink">
 <defs>
  <style type="text/css">
   <![CDATA[
    .fil3 {fill:#999933;fill-opacity:0.501961}
    .fil2 {fill:red;fill-opacity:0.501961}
    .fil0 {fill:#660066;fill-opacity:0.549020}
    .fil1 {fill:#CC6633}
   ]]>
  </style>
 </defs>
 <g id="_100:master" visibility="hidden">
  <metadata id="CorelCorpID_0Corel-Layer"/>
  <path class="fil0" d="M969 512l-42 25c5,63 47,113 150,113l2 0 0 -81 -2 0c-40,0 -87,-7 -108,-57z"/>
  <path class="fil1" d="M813 650l0 -81c-21,0 -40,19 -41,40 0,21 20,41 41,41z"/>
  <path class="fil2" d="M978 569l-50 -32 -25 -354c0,-25 25,-70 48,-102l10 8 14 399 3 81z"/>
  <path class="fil3" d="M812 650l0 -81c26,0 49,-4 68,-10 39,-12 67,-47 76,-73l19 1c0,118 -60,163 -163,163z"/>
 </g>
 <g id="Layer_x0020_1">
  <metadata id="CorelCorpID_1Corel-Layer"/>
  <path class="fil1" d="M829 650l0 0 0 0c-20,0 -40,-20 -40,-41 0,-21 20,-40 40,-40l0 0c36,0 70,-6 99,-26 0,-2 0,-4 -1,-6l1 -1 -25 -353c0,-25 25,-70 48,-102l10 8 15 438c23,36 64,42 103,42l0 81c-45,0 -94,-9 -124,-44 -28,31 -71,44 -126,44l0 0z"/>
 </g>
</svg>
