<?xml version="1.0" encoding="UTF-8"?>
<!DOCTYPE svg PUBLIC "-//W3C//DTD SVG 1.0//EN" "http://www.w3.org/TR/2001/REC-SVG-20010904/DTD/svg10.dtd">
<!-- Creator: CorelDRAW -->
<svg xmlns="http://www.w3.org/2000/svg" xml:space="preserve" width="1300px" height="1300px" version="1.0" style="shape-rendering:geometricPrecision; text-rendering:geometricPrecision; image-rendering:optimizeQuality; fill-rule:evenodd; clip-rule:evenodd"
viewBox="0 0 1300 1056"
 xmlns:xlink="http://www.w3.org/1999/xlink">
 <defs>
  <style type="text/css">
   <![CDATA[
    .fil1 {fill:red;fill-opacity:0.501961}
    .fil2 {fill:#660066;fill-opacity:0.549020}
    .fil0 {fill:#FF9933}
   ]]>
  </style>
 </defs>
 <g id="_100:master" visibility="hidden">
  <metadata id="CorelCorpID_0Corel-Layer"/>
  <path class="fil0" d="M710 731l21 -81c129,-31 202,-81 204,-183l40 61c0,105 -122,183 -265,203z"/>
  <path class="fil1" d="M974 504l3 65 -51 -32 -25 -354c0,-25 25,-70 48,-102l10 8 15 415z"/>
  <path class="fil2" d="M1093 650l1 -81 -2 0c-53,0 -116,-12 -119,-113l-36 7 5 74c4,63 47,113 150,113l1 0z"/>
  <path class="fil1" d="M744 151l15 415c2,65 5,126 -46,166l-8 -7c13,-13 9,-83 6,-127l-25 -353c0,-25 25,-70 48,-102l10 8z"/>
 </g>
 <g id="Layer_x0020_1">
  <metadata id="CorelCorpID_1Corel-Layer"/>
  <path class="fil1" d="M715 533l-13 -13c48,-108 6,-243 -25,-314l30 -54c9,-16 17,-10 22,0 75,170 71,307 -14,381zm-65 36c88,0 274,-14 269,-137l-11 -253c0,-11 1,-24 7,-34l30 -55c9,-15 21,-10 21,1l7 342c0,2 0,4 0,7 0,0 0,1 0,2 0,95 42,127 131,127l0 81c-90,0 -143,-29 -163,-93 -45,67 -133,93 -238,93 -20,0 -35,-9 -41,-34l-12 -47z"/>
 </g>
</svg>
