<?xml version="1.0" encoding="UTF-8"?>
<!DOCTYPE svg PUBLIC "-//W3C//DTD SVG 1.0//EN" "http://www.w3.org/TR/2001/REC-SVG-20010904/DTD/svg10.dtd">
<!-- Creator: CorelDRAW -->
<svg xmlns="http://www.w3.org/2000/svg" xml:space="preserve" width="1300px" height="1300px" version="1.0" style="shape-rendering:geometricPrecision; text-rendering:geometricPrecision; image-rendering:optimizeQuality; fill-rule:evenodd; clip-rule:evenodd"
viewBox="0 0 1300 1056"
 xmlns:xlink="http://www.w3.org/1999/xlink">
 <defs>
  <style type="text/css">
   <![CDATA[
    .fil0 {fill:black}
   ]]>
  </style>
 </defs>
 <g id="_100:master">
  <metadata id="CorelCorpID_0Corel-Layer"/>
  <path class="fil0" d="M650 544c0,-44 32,-86 95,-126l25 0 2 2c-56,43 -84,76 -84,99 0,23 12,35 38,38 -3,25 -14,37 -36,37 -22,-1 -40,-26 -40,-50l0 0zm188 24l-10 35c-14,-1 -25,-3 -36,-6 -27,27 -64,45 -84,53l-11 -35c24,-11 44,-21 60,-31 -102,-56 50,-193 70,-75 3,21 -2,40 -11,57 7,1 14,1 22,2zm-35 -36c-11,-78 -109,0 -16,28 11,-12 16,-21 16,-28z"/>
 </g>
</svg>
