<?xml version="1.0" encoding="UTF-8"?>
<!DOCTYPE svg PUBLIC "-//W3C//DTD SVG 1.0//EN" "http://www.w3.org/TR/2001/REC-SVG-20010904/DTD/svg10.dtd">
<!-- Creator: CorelDRAW -->
<svg xmlns="http://www.w3.org/2000/svg" xml:space="preserve" width="1300px" height="1300px" version="1.0" style="shape-rendering:geometricPrecision; text-rendering:geometricPrecision; image-rendering:optimizeQuality; fill-rule:evenodd; clip-rule:evenodd"
viewBox="0 0 1300 1056"
 xmlns:xlink="http://www.w3.org/1999/xlink">
 <defs>
  <style type="text/css">
   <![CDATA[
    .fil0 {fill:black}
   ]]>
  </style>
 </defs>
 <g id="_100:master">
  <metadata id="CorelCorpID_0Corel-Layer"/>
  <path class="fil0" d="M650 504c0,-62 44,-121 132,-176l35 0 2 3c-78,60 -117,105 -117,137 0,32 18,50 53,54 -3,34 -20,51 -49,51 -32,-2 -56,-36 -56,-69l0 0zm261 32l-15 49c-18,-2 -35,-5 -49,-9 -38,38 -89,63 -116,74l-16 -49c34,-14 61,-29 83,-43 -141,-78 70,-267 97,-103 4,29 -2,55 -15,78 10,2 20,3 31,3zm-49 -49c-15,-108 -151,-1 -23,38 16,-16 23,-29 23,-38z"/>
 </g>
</svg>
