<?xml version="1.0" encoding="UTF-8"?>
<!DOCTYPE svg PUBLIC "-//W3C//DTD SVG 1.0//EN" "http://www.w3.org/TR/2001/REC-SVG-20010904/DTD/svg10.dtd">
<!-- Creator: CorelDRAW -->
<svg xmlns="http://www.w3.org/2000/svg" xml:space="preserve" width="1300px" height="1300px" version="1.0" style="shape-rendering:geometricPrecision; text-rendering:geometricPrecision; image-rendering:optimizeQuality; fill-rule:evenodd; clip-rule:evenodd"
viewBox="0 0 1300 1056"
 xmlns:xlink="http://www.w3.org/1999/xlink">
 <defs>
  <style type="text/css">
   <![CDATA[
    .fil1 {fill:red;fill-opacity:0.501961}
    .fil0 {fill:#996633}
   ]]>
  </style>
 </defs>
 <g id="_100:master" visibility="hidden">
  <metadata id="CorelCorpID_0Corel-Layer"/>
  <path class="fil0" d="M939 495l39 -49c19,72 111,123 162,123l1 81c-64,0 -144,-26 -202,-155z"/>
  <path class="fil1" d="M1061 595l-22 0c-33,117 -167,40 -180,-92l-38 35c-22,150 195,315 240,57z"/>
  <path class="fil0" d="M978 446l19 65c-205,92 -223,106 -234,187 -3,-146 -32,-150 215,-252z"/>
  <path class="fil1" d="M761 603l51 -2c3,123 7,183 7,285 0,34 -34,75 -48,99l-10 -4 0 -378z"/>
 </g>
 <g id="Layer_x0020_2">
  <metadata id="CorelCorpID_1Corel-Layer"/>
  <path class="fil1" d="M806 576c60,53 89,73 124,25 -51,-38 -85,-79 -107,-49 -5,8 -12,16 -17,24zm158 47c-64,144 -132,78 -198,16l-7 10c3,99 6,177 6,265 0,20 -34,54 -40,63l-10 -5 0 -262 0 0c-2,-97 -6,-85 79,-200l18 -25c30,-40 60,-32 93,-5 59,49 85,89 172,89l0 81 -20 0c-35,0 -66,-12 -93,-27z"/>
 </g>
</svg>
