<?xml version="1.0" encoding="UTF-8"?>
<!DOCTYPE svg PUBLIC "-//W3C//DTD SVG 1.0//EN" "http://www.w3.org/TR/2001/REC-SVG-20010904/DTD/svg10.dtd">
<!-- Creator: CorelDRAW -->
<svg xmlns="http://www.w3.org/2000/svg" xml:space="preserve" width="1300px" height="1300px" version="1.0" style="shape-rendering:geometricPrecision; text-rendering:geometricPrecision; image-rendering:optimizeQuality; fill-rule:evenodd; clip-rule:evenodd"
viewBox="0 0 1300 1056"
 xmlns:xlink="http://www.w3.org/1999/xlink">
 <defs>
  <style type="text/css">
   <![CDATA[
    .fil0 {fill:#333300}
    .fil4 {fill:#333300;fill-opacity:0.501961}
    .fil7 {fill:#999933;fill-opacity:0.501961}
    .fil5 {fill:red;fill-opacity:0.501961}
    .fil1 {fill:#FF6699;fill-opacity:0.501961}
    .fil6 {fill:#CC3300}
    .fil2 {fill:#CC6633}
    .fil3 {fill:#CC9933}
   ]]>
  </style>
 </defs>
 <g id="_100:master" visibility="hidden">
  <metadata id="CorelCorpID_0Corel-Layer"/>
  <path class="fil0" d="M720 551c69,65 76,86 150,8l28 34c-100,149 -142,108 -219,11l41 -53z"/>
  <path class="fil1" d="M631 562c55,-5 105,-70 133,-106 17,-22 34,-20 53,-5 78,62 112,118 206,118l0 81c-87,0 -155,-62 -222,-119 -17,-14 -30,-15 -41,-4l-81 77 -48 -42z"/>
  <path class="fil2" d="M560 650l0 -81c-21,0 -40,19 -41,40 0,21 20,41 41,41z"/>
  <path class="fil3" d="M725 560l-23 -34c-35,36 -94,43 -133,43l-9 0 0 81 9 0c62,0 108,-25 156,-90z"/>
 </g>
 <g id="Layer_x0020_1" visibility="hidden">
  <metadata id="CorelCorpID_1Corel-Layer"/>
  <path class="fil4" d="M731 558c37,36 77,124 162,29l26 18c-87,176 -164,99 -240,2l52 -49z"/>
  <path class="fil1" d="M658 576l99 -95c102,-100 117,88 257,88l0 81c-170,0 -183,-163 -255,-107l-81 63 -20 -30z"/>
  <path class="fil2" d="M600 650l0 -81c-20,0 -40,19 -40,40 0,21 20,41 40,41z"/>
  <path class="fil3" d="M732 569l-22 -43c-16,15 -32,43 -101,43l-9 0 0 81 9 0c41,0 75,-17 123,-81z"/>
 </g>
 <g id="Layer_x0020_2" visibility="hidden">
  <metadata id="CorelCorpID_2Corel-Layer"/>
  <path class="fil5" d="M773 525l27 44c-25,33 -79,81 -142,81l0 -81c60,0 100,-25 115,-44z"/>
  <path class="fil6" d="M658 650l0 -81c-20,0 -40,19 -40,40 -1,21 20,41 40,41z"/>
  <path class="fil7" d="M821 531l-61 69 -37 -16 92 -110c99,-119 132,95 242,95l20 0 0 81 -20 0c-144,0 -188,-174 -236,-119z"/>
  <path class="fil5" d="M743 618l50 -61c27,22 82,77 139,40l35 21c-63,150 -176,37 -224,0z"/>
 </g>
 <g id="Layer_x0020_3" visibility="hidden">
  <metadata id="CorelCorpID_3Corel-Layer"/>
  <path class="fil6" d="M672 650l0 -81c-20,0 -40,19 -41,40 0,21 21,41 41,41z"/>
  <path class="fil7" d="M954 487l-25 80c26,72 102,83 147,83l0 -81c-19,0 -51,-2 -79,-15 -32,-14 -24,-33 -43,-67z"/>
  <path class="fil7" d="M915 662l-25 -12 24 -53c13,-29 -59,-141 -84,-102l-34 54 -23 -20 49 -84c56,-95 195,69 134,158l-41 59z"/>
  <path class="fil5" d="M773 528l-2 81c-11,16 -42,41 -91,41l-8 0 0 -81 5 0c28,0 81,-16 96,-41z"/>
  <path class="fil5" d="M767 609l6 -81c52,38 123,72 183,75l-46 67c-35,0 -126,-45 -143,-61z"/>
 </g>
 <g id="Layer_x0020_4">
  <metadata id="CorelCorpID_4Corel-Layer"/>
  <path class="fil7" d="M898 522l0 0c-25,-46 -66,-71 -98,-19l-25 41c25,20 91,49 122,49 7,0 13,-4 16,-10 2,-6 4,-12 1,-23 -3,-8 -5,-16 -9,-24 -2,-5 -5,-9 -7,-14zm51 -39c22,46 47,86 133,86l0 81c-59,0 -98,-19 -126,-44 -16,53 -59,86 -133,50 -30,-12 -63,-26 -87,-43l-3 -2c-22,22 -53,36 -102,39l0 0 -1 0 0 0c-20,-1 -40,-20 -40,-41 0,-20 20,-40 40,-40l0 0c75,-3 97,-23 132,-88l12 -22c19,-35 54,-75 103,-64 27,6 55,44 72,88z"/>
 </g>
</svg>
