<?xml version="1.0" encoding="UTF-8"?>
<!DOCTYPE svg PUBLIC "-//W3C//DTD SVG 1.0//EN" "http://www.w3.org/TR/2001/REC-SVG-20010904/DTD/svg10.dtd">
<!-- Creator: CorelDRAW -->
<svg xmlns="http://www.w3.org/2000/svg" xml:space="preserve" width="1300px" height="1300px" version="1.0" style="shape-rendering:geometricPrecision; text-rendering:geometricPrecision; image-rendering:optimizeQuality; fill-rule:evenodd; clip-rule:evenodd"
viewBox="0 0 1300 1056"
 xmlns:xlink="http://www.w3.org/1999/xlink">
 <defs>
  <style type="text/css">
   <![CDATA[
    .fil3 {fill:#336699;fill-opacity:0.501961}
    .fil2 {fill:#999933;fill-opacity:0.501961}
    .fil1 {fill:red;fill-opacity:0.501961}
    .fil0 {fill:#FF6633}
   ]]>
  </style>
 </defs>
 <g id="_100:master" visibility="hidden">
  <metadata id="CorelCorpID_0Corel-Layer"/>
  <path class="fil0" d="M907 503l-139 25c-59,11 -108,10 -111,92 0,1 -7,-21 -7,-20 -7,-122 55,-141 133,-153l171 -27 -47 83z"/>
  <path class="fil1" d="M747 455l-30 -16c53,-125 76,-165 115,-157 60,13 133,103 121,139l-47 82c15,-50 -94,-168 -113,-132l-46 84z"/>
  <path class="fil1" d="M650 561l51 -41c3,123 7,175 7,277 0,34 -34,74 -47,99l-10 -5 -1 -330z"/>
 </g>
 <g id="Layer_x0020_1" visibility="hidden">
  <metadata id="CorelCorpID_1Corel-Layer"/>
  <path class="fil0" d="M917 589c-138,0 -257,35 -260,121 0,0 -7,-21 -7,-21 -9,-157 111,-184 309,-181l-42 81z"/>
  <path class="fil1" d="M650 677l43 -76c3,123 7,211 7,313 0,20 -34,54 -40,63l-10 -5 0 -295z"/>
  <path class="fil2" d="M923 578l-12 -4 7 -58c3,-32 -108,-115 -116,-69l-16 89 -29 -12 22 -123c18,-107 231,13 181,108l-37 69z"/>
 </g>
 <g id="Layer_x0020_2" visibility="hidden">
  <metadata id="CorelCorpID_2Corel-Layer"/>
  <path class="fil2" d="M945 604l-28 -5 11 -58c7,-31 -90,-123 -105,-79l-20 60 -28 -14 29 -93c31,-105 206,22 167,122l-26 67z"/>
  <path class="fil1" d="M970 537l-27 76c-53,14 -126,-24 -180,-24 -54,0 -97,27 -101,105 0,1 -12,-38 -12,-37 -5,-120 49,-149 112,-149 64,0 144,43 208,29z"/>
  <path class="fil2" d="M649 657l40 -75 21 291c0,25 -17,70 -40,102l-10 -8 -11 -310z"/>
 </g>
 <g id="Layer_x0020_3" visibility="hidden">
  <metadata id="CorelCorpID_3Corel-Layer"/>
  <path class="fil1" d="M868 528l-21 77c-30,-8 -59,-16 -84,-16 -54,0 -97,27 -101,105 0,1 -12,-38 -12,-37 -5,-120 49,-149 112,-149 33,0 69,11 106,20z"/>
  <path class="fil2" d="M649 657l40 -75 21 291c0,25 -17,70 -40,102l-10 -8 -11 -310z"/>
  <path class="fil2" d="M932 544c-1,-67 -92,-132 -109,-89l-23 56 132 33zm-168 -38l29 -75c11,-28 26,-61 55,-64 73,-8 150,86 120,182 -24,80 -72,69 -93,64l-105 -28 -6 -79z"/>
 </g>
 <g id="Layer_x0020_4" visibility="hidden">
  <metadata id="CorelCorpID_4Corel-Layer"/>
  <path class="fil2" d="M948 609l-26 -76c-2,-30 -53,-92 -90,-96 -23,-2 -37,38 -51,95l-24 -30c11,-57 30,-138 77,-150 55,-14 126,57 143,108 22,66 5,98 -29,149z"/>
  <path class="fil1" d="M701 652c-1,19 -1,37 0,54l15 171c1,10 -1,23 -6,34l-31 54c-8,15 -21,10 -21,0l-8 -253c-1,-20 44,-61 51,-60z"/>
  <path class="fil2" d="M948 528l0 81c-187,30 -278,41 -298,117 0,-151 68,-178 298,-198z"/>
 </g>
 <g id="Layer_x0020_5" visibility="hidden">
  <metadata id="CorelCorpID_5Corel-Layer"/>
  <path class="fil2" d="M925 631c-50,2 -118,-36 -180,-34 -35,2 -71,13 -95,42 -9,-104 52,-121 102,-122 62,-2 138,37 191,36 14,0 30,-8 27,-17l49 6c-6,61 -51,87 -94,89z"/>
  <path class="fil1" d="M695 562l20 242c1,31 -22,61 -37,88 -9,15 -21,10 -22,0l-8 -269c0,-5 5,-71 47,-61z"/>
  <path class="fil3" d="M1013 568l-43 -27c-4,-39 -47,-105 -85,-105 -14,-1 -28,6 -40,27l-38 65 -35 -9 47 -99c17,-33 47,-68 89,-66 84,3 131,132 105,214z"/>
 </g>
 <g id="Layer_x0020_6">
  <metadata id="CorelCorpID_6Corel-Layer"/>
  <path class="fil3" d="M949 535c-13,-68 -115,-167 -145,-74l-15 48c2,0 5,1 8,1l152 25zm-192 -27l24 -89c43,-161 235,-41 203,118l0 0 0 1c-2,8 -4,16 -7,25 -15,52 -22,56 -76,48l-122 -19c-32,-5 -83,-2 -79,45l30 188 -46 69 -7 -3 -17 -234 0 0c-9,-77 16,-145 97,-149z"/>
 </g>
</svg>
