<?xml version="1.0" encoding="UTF-8"?>
<!DOCTYPE svg PUBLIC "-//W3C//DTD SVG 1.0//EN" "http://www.w3.org/TR/2001/REC-SVG-20010904/DTD/svg10.dtd">
<!-- Creator: CorelDRAW -->
<svg xmlns="http://www.w3.org/2000/svg" xml:space="preserve" width="1300px" height="1300px" version="1.0" style="shape-rendering:geometricPrecision; text-rendering:geometricPrecision; image-rendering:optimizeQuality; fill-rule:evenodd; clip-rule:evenodd"
viewBox="0 0 1300 1056"
 xmlns:xlink="http://www.w3.org/1999/xlink">
 <defs>
  <style type="text/css">
   <![CDATA[
    .fil2 {fill:#999933;fill-opacity:0.501961}
    .fil0 {fill:red;fill-opacity:0.501961}
    .fil1 {fill:#CC3300}
   ]]>
  </style>
 </defs>
 <g id="_100:master" visibility="hidden">
  <metadata id="CorelCorpID_0Corel-Layer"/>
  <path class="fil0" d="M981 544c-26,208 -205,33 -233,64 -18,21 -45,42 -98,42l0 -81c60,0 74,-19 98,-41 38,-36 171,112 204,-10l29 26z"/>
  <path class="fil1" d="M650 650l0 -81c-20,0 -40,19 -41,40 0,21 21,41 41,41z"/>
  <path class="fil2" d="M975 569l-20 40c-19,-115 -110,-186 -147,-124l-40 66 -32 -7 64 -117c67,-123 216,40 175,142z"/>
 </g>
 <g id="Layer_x0020_1" visibility="hidden">
  <metadata id="CorelCorpID_1Corel-Layer"/>
  <path class="fil0" d="M749 523l29 40c-16,40 -81,87 -144,87l0 -81c74,0 100,-27 115,-46z"/>
  <path class="fil1" d="M634 650l0 -81c-21,0 -41,19 -41,40 0,21 20,41 41,41z"/>
  <path class="fil2" d="M967 585l-51 -11c3,-26 -61,-115 -95,-76l-61 69 -37 -15 92 -110c73,-89 181,19 152,143z"/>
  <path class="fil0" d="M743 585l50 -61c27,22 82,77 139,41l35 20c-63,151 -176,38 -224,0z"/>
 </g>
 <g id="Layer_x0020_2" visibility="hidden">
  <metadata id="CorelCorpID_2Corel-Layer"/>
  <path class="fil1" d="M672 650l0 -81c-20,0 -40,19 -41,40 0,21 21,41 41,41z"/>
  <path class="fil2" d="M915 662l-25 -12 24 -53c13,-29 -59,-141 -84,-102l-34 54 -23 -20 49 -84c56,-95 195,69 134,158l-41 59z"/>
  <path class="fil0" d="M773 528l-2 81c-11,16 -42,41 -91,41l-8 0 0 -81 5 0c28,0 81,-16 96,-41z"/>
  <path class="fil0" d="M767 609l6 -81c52,38 123,72 183,75l-46 67c-35,0 -126,-45 -143,-61z"/>
 </g>
 <g id="Layer_x0020_3" visibility="hidden">
  <metadata id="CorelCorpID_3Corel-Layer"/>
  <path class="fil1" d="M672 650l0 -81c-20,0 -40,19 -41,40 0,21 21,41 41,41z"/>
  <path class="fil2" d="M936 583c6,-67 -79,-140 -100,-98l-27 53 127 45zm-163 -54l36 -72c13,-26 31,-57 60,-58 74,-1 142,99 103,193 -25,62 -32,79 -68,65l-133 -48 2 -80z"/>
  <path class="fil0" d="M773 528l-2 81c-11,16 -42,41 -91,41l-8 0 0 -81 5 0c28,0 81,-16 96,-41z"/>
 </g>
 <g id="Layer_x0020_4" visibility="hidden">
  <metadata id="CorelCorpID_4Corel-Layer"/>
  <path class="fil1" d="M672 650l0 -81c-20,0 -40,19 -41,40 0,21 21,41 41,41z"/>
  <path class="fil2" d="M936 583c6,-67 -79,-140 -100,-98l-27 53 127 45zm-163 -54l36 -72c13,-26 31,-57 60,-58 74,-1 142,99 103,193 -25,62 -32,79 -68,65l-133 -48 2 -80z"/>
  <path class="fil0" d="M773 528l-2 81c-11,16 -42,41 -91,41l-8 0 0 -81 5 0c28,0 81,-16 96,-41z"/>
 </g>
 <g id="Layer_x0020_5">
  <metadata id="CorelCorpID_5Corel-Layer"/>
  <path class="fil1" d="M672 569l5 0c28,0 80,-16 96,-40l36 -72c13,-26 31,-57 60,-58 74,-1 142,99 103,193 -31,77 -78,62 -99,54l-102 -37c-11,16 -42,41 -91,41l-8 0c-21,0 -41,-20 -41,-41 1,-20 20,-40 41,-40zm264 14l-127 -45 27 -53c21,-42 106,31 100,98z"/>
 </g>
</svg>
