<?xml version="1.0" encoding="UTF-8"?>
<!DOCTYPE svg PUBLIC "-//W3C//DTD SVG 1.0//EN" "http://www.w3.org/TR/2001/REC-SVG-20010904/DTD/svg10.dtd">
<!-- Creator: CorelDRAW -->
<svg xmlns="http://www.w3.org/2000/svg" xml:space="preserve" width="1300px" height="1300px" version="1.0" style="shape-rendering:geometricPrecision; text-rendering:geometricPrecision; image-rendering:optimizeQuality; fill-rule:evenodd; clip-rule:evenodd"
viewBox="0 0 1300 1056"
 xmlns:xlink="http://www.w3.org/1999/xlink">
 <defs>
  <style type="text/css">
   <![CDATA[
    .fil3 {fill:#000066;fill-opacity:0.501961}
    .fil1 {fill:#999933;fill-opacity:0.501961}
    .fil2 {fill:red;fill-opacity:0.501961}
    .fil0 {fill:#996633}
   ]]>
  </style>
 </defs>
 <g id="_100:master" visibility="hidden">
  <metadata id="CorelCorpID_0Corel-Layer"/>
  <path class="fil0" d="M659 653c-14,-107 99,-166 181,-166 83,0 99,82 187,82l10 0 0 81 -10 0c-114,0 -120,-82 -187,-82 -68,0 -163,38 -181,85z"/>
  <path class="fil1" d="M806 500l25 12 -24 53c-13,29 60,140 85,101l33 -54 24 20 -49 84c-55,95 -196,-68 -135,-157l41 -59z"/>
  <path class="fil1" d="M657 629l38 -79 25 323c0,25 -17,70 -40,102l-10 -8 -13 -338z"/>
 </g>
 <g id="Layer_x0020_1" visibility="hidden">
  <metadata id="CorelCorpID_1Corel-Layer"/>
  <path class="fil1" d="M954 487l-25 80c26,72 102,83 147,83l0 -81c-19,0 -51,-2 -79,-15 -32,-14 -24,-33 -43,-67z"/>
  <path class="fil1" d="M915 662l-25 -12 24 -53c13,-29 -59,-141 -84,-102l-34 54 -23 -20 49 -84c56,-95 195,69 134,158l-41 59z"/>
  <path class="fil2" d="M956 603l-46 67c-62,0 -126,-58 -187,-71 -32,-8 -77,22 -81,56 -6,-93 33,-136 82,-138 68,-2 126,81 232,86z"/>
  <path class="fil1" d="M641 631l38 -79 25 323c1,26 -17,70 -39,102l-10 -7 -14 -339z"/>
 </g>
 <g id="Layer_x0020_2" visibility="hidden">
  <metadata id="CorelCorpID_2Corel-Layer"/>
  <path class="fil2" d="M874 444l-19 80c-105,16 -199,78 -205,170 0,1 0,-38 0,-37 -20,-104 70,-195 224,-213z"/>
  <path class="fil1" d="M649 657l40 -75 21 291c0,25 -17,70 -40,102l-10 -8 -11 -310z"/>
  <path class="fil1" d="M798 485l28 24c-33,57 5,156 42,127l47 -36 29 23 -64 50c-23,18 -53,38 -79,26 -67,-31 -78,-146 -3,-214z"/>
  <path class="fil1" d="M854 524l20 -81c12,18 34,126 186,126l0 81c-175,0 -195,-118 -206,-126z"/>
 </g>
 <g id="Layer_x0020_3">
  <metadata id="CorelCorpID_3Corel-Layer"/>
  <path class="fil3" d="M852 422c7,-10 30,-32 44,-16l-1 2 1 -2c23,35 36,71 54,101 21,36 31,62 113,62l0 81c-53,0 -85,-10 -108,-28 -59,193 -234,113 -161,-89 -43,19 -77,49 -96,89l32 203 -46 69 -7 -3 -16 -215 0 0c-1,-8 -1,-15 -2,-23l1 0c-3,-105 45,-172 180,-213 4,-6 8,-12 12,-18zm11 62c-56,156 0,217 70,116 -10,-12 -18,-26 -27,-41 -13,-22 -26,-48 -43,-75z"/>
 </g>
</svg>
