<?xml version="1.0" encoding="UTF-8"?>
<!DOCTYPE svg PUBLIC "-//W3C//DTD SVG 1.0//EN" "http://www.w3.org/TR/2001/REC-SVG-20010904/DTD/svg10.dtd">
<!-- Creator: CorelDRAW -->
<svg xmlns="http://www.w3.org/2000/svg" xml:space="preserve" width="1300px" height="1300px" version="1.0" style="shape-rendering:geometricPrecision; text-rendering:geometricPrecision; image-rendering:optimizeQuality; fill-rule:evenodd; clip-rule:evenodd"
viewBox="0 0 1300 1056"
 xmlns:xlink="http://www.w3.org/1999/xlink">
 <defs>
  <style type="text/css">
   <![CDATA[
    .fil2 {fill:#999933;fill-opacity:0.501961}
    .fil1 {fill:red;fill-opacity:0.501961}
    .fil0 {fill:#FF6633}
   ]]>
  </style>
 </defs>
 <g id="_100:master" visibility="hidden">
  <metadata id="CorelCorpID_0Corel-Layer"/>
  <path class="fil0" d="M907 503l-139 25c-59,11 -108,10 -111,92 0,1 -7,-21 -7,-20 -7,-122 55,-141 133,-153l171 -27 -47 83z"/>
  <path class="fil1" d="M747 455l-30 -16c53,-125 76,-165 115,-157 60,13 133,103 121,139l-47 82c15,-50 -94,-168 -113,-132l-46 84z"/>
  <path class="fil1" d="M650 561l51 -41c3,123 7,175 7,277 0,34 -34,74 -47,99l-10 -5 -1 -330z"/>
 </g>
 <g id="Layer_x0020_1" visibility="hidden">
  <metadata id="CorelCorpID_1Corel-Layer"/>
  <path class="fil0" d="M917 589c-138,0 -257,35 -260,121 0,0 -7,-21 -7,-21 -9,-157 111,-184 309,-181l-42 81z"/>
  <path class="fil1" d="M650 677l43 -76c3,123 7,211 7,313 0,20 -34,54 -40,63l-10 -5 0 -295z"/>
  <path class="fil2" d="M923 578l-12 -4 7 -58c3,-32 -108,-115 -116,-69l-16 89 -29 -12 22 -123c18,-107 231,13 181,108l-37 69z"/>
 </g>
 <g id="Layer_x0020_2" visibility="hidden">
  <metadata id="CorelCorpID_2Corel-Layer"/>
  <path class="fil2" d="M945 604l-28 -5 11 -58c7,-31 -90,-123 -105,-79l-20 60 -28 -14 29 -93c31,-105 206,22 167,122l-26 67z"/>
  <path class="fil1" d="M970 537l-27 76c-53,14 -126,-24 -180,-24 -54,0 -97,27 -101,105 0,1 -12,-38 -12,-37 -5,-120 49,-149 112,-149 64,0 144,43 208,29z"/>
  <path class="fil2" d="M649 657l40 -75 21 291c0,25 -17,70 -40,102l-10 -8 -11 -310z"/>
 </g>
 <g id="Layer_x0020_3" visibility="hidden">
  <metadata id="CorelCorpID_3Corel-Layer"/>
  <path class="fil1" d="M868 528l-21 77c-30,-8 -59,-16 -84,-16 -54,0 -97,27 -101,105 0,1 -12,-38 -12,-37 -5,-120 49,-149 112,-149 33,0 69,11 106,20z"/>
  <path class="fil2" d="M649 657l40 -75 21 291c0,25 -17,70 -40,102l-10 -8 -11 -310z"/>
  <path class="fil2" d="M932 544c-1,-67 -92,-132 -109,-89l-23 56 132 33zm-168 -38l29 -75c11,-28 26,-61 55,-64 73,-8 150,86 120,182 -24,80 -72,69 -93,64l-105 -28 -6 -79z"/>
 </g>
 <g id="Layer_x0020_4" visibility="hidden">
  <metadata id="CorelCorpID_4Corel-Layer"/>
  <path class="fil2" d="M948 609l-26 -76c-2,-30 -53,-92 -90,-96 -23,-2 -37,38 -51,95l-24 -30c11,-57 30,-138 77,-150 55,-14 126,57 143,108 22,66 5,98 -29,149z"/>
  <path class="fil1" d="M701 652c-1,19 -1,37 0,54l15 171c1,10 -1,23 -6,34l-31 54c-8,15 -21,10 -21,0l-8 -253c-1,-20 44,-61 51,-60z"/>
  <path class="fil2" d="M948 528l0 81c-187,30 -278,41 -298,117 0,-151 68,-178 298,-198z"/>
 </g>
 <g id="Layer_x0020_5">
  <metadata id="CorelCorpID_5Corel-Layer"/>
  <path class="fil2" d="M851 530c19,-21 31,-46 45,-71 19,-35 53,-75 103,-64 42,9 86,95 86,158 0,81 -44,149 -140,103 -17,-7 -35,-14 -51,-22l0 0 0 0c-6,-3 -11,-6 -16,-9 -51,-23 -96,-18 -129,0 -1,16 -1,32 0,46l16 198c0,10 -1,23 -7,34l-30 54c-8,15 -21,10 -21,0l-9 -280c-10,-115 73,-161 153,-147zm184 53c2,-6 4,-12 1,-23 -19,-66 -74,-123 -114,-57l-25 41c25,20 91,49 122,49 7,0 13,-4 16,-10z"/>
 </g>
</svg>
