<?xml version="1.0" encoding="UTF-8"?>
<!DOCTYPE svg PUBLIC "-//W3C//DTD SVG 1.0//EN" "http://www.w3.org/TR/2001/REC-SVG-20010904/DTD/svg10.dtd">
<!-- Creator: CorelDRAW -->
<svg xmlns="http://www.w3.org/2000/svg" xml:space="preserve" width="1300px" height="1300px" version="1.0" style="shape-rendering:geometricPrecision; text-rendering:geometricPrecision; image-rendering:optimizeQuality; fill-rule:evenodd; clip-rule:evenodd"
viewBox="0 0 1300 1056"
 xmlns:xlink="http://www.w3.org/1999/xlink">
 <defs>
  <style type="text/css">
   <![CDATA[
    .fil0 {fill:#333300}
    .fil4 {fill:#333300;fill-opacity:0.501961}
    .fil5 {fill:red;fill-opacity:0.501961}
    .fil1 {fill:#FF6699;fill-opacity:0.501961}
    .fil2 {fill:#CC6633}
    .fil3 {fill:#CC9933}
   ]]>
  </style>
 </defs>
 <g id="_100:master" visibility="hidden">
  <metadata id="CorelCorpID_0Corel-Layer"/>
  <path class="fil0" d="M720 551c69,65 76,86 150,8l28 34c-100,149 -142,108 -219,11l41 -53z"/>
  <path class="fil1" d="M631 562c55,-5 105,-70 133,-106 17,-22 34,-20 53,-5 78,62 112,118 206,118l0 81c-87,0 -155,-62 -222,-119 -17,-14 -30,-15 -41,-4l-81 77 -48 -42z"/>
  <path class="fil2" d="M560 650l0 -81c-21,0 -40,19 -41,40 0,21 20,41 41,41z"/>
  <path class="fil3" d="M725 560l-23 -34c-35,36 -94,43 -133,43l-9 0 0 81 9 0c62,0 108,-25 156,-90z"/>
 </g>
 <g id="Layer_x0020_1" visibility="hidden">
  <metadata id="CorelCorpID_1Corel-Layer"/>
  <path class="fil4" d="M731 558c37,36 77,124 162,29l26 18c-87,176 -164,99 -240,2l52 -49z"/>
  <path class="fil1" d="M658 576l99 -95c102,-100 117,88 257,88l0 81c-170,0 -183,-163 -255,-107l-81 63 -20 -30z"/>
  <path class="fil2" d="M600 650l0 -81c-20,0 -40,19 -40,40 0,21 20,41 40,41z"/>
  <path class="fil3" d="M732 569l-22 -43c-16,15 -32,43 -101,43l-9 0 0 81 9 0c41,0 75,-17 123,-81z"/>
 </g>
 <g id="Layer_x0020_2">
  <metadata id="CorelCorpID_2Corel-Layer"/>
  <path class="fil5" d="M746 620c-25,17 -55,30 -88,30 -20,0 -41,-20 -40,-41 0,-21 20,-40 40,-40 56,0 94,-21 111,-40 15,-18 31,-37 46,-55 99,-119 132,95 242,95l20 0 0 81 -20 0c-37,0 -67,-11 -92,-27 -62,140 -170,36 -219,-3zm75 -89l-25 28c28,24 80,73 135,39 -52,-46 -80,-101 -110,-67z"/>
 </g>
</svg>
