<?xml version="1.0" encoding="UTF-8"?>
<!DOCTYPE svg PUBLIC "-//W3C//DTD SVG 1.0//EN" "http://www.w3.org/TR/2001/REC-SVG-20010904/DTD/svg10.dtd">
<!-- Creator: CorelDRAW -->
<svg xmlns="http://www.w3.org/2000/svg" xml:space="preserve" width="1300px" height="1300px" version="1.0" style="shape-rendering:geometricPrecision; text-rendering:geometricPrecision; image-rendering:optimizeQuality; fill-rule:evenodd; clip-rule:evenodd"
viewBox="0 0 1300 1056"
 xmlns:xlink="http://www.w3.org/1999/xlink">
 <defs>
  <style type="text/css">
   <![CDATA[
    .fil0 {fill:#333300}
    .fil11 {fill:#00CCFF;fill-opacity:0.501961}
    .fil10 {fill:lime;fill-opacity:0.501961}
    .fil4 {fill:#333300;fill-opacity:0.501961}
    .fil8 {fill:#336699;fill-opacity:0.501961}
    .fil9 {fill:#9900CC;fill-opacity:0.501961}
    .fil7 {fill:#999933;fill-opacity:0.501961}
    .fil5 {fill:red;fill-opacity:0.501961}
    .fil1 {fill:#FF6699;fill-opacity:0.501961}
    .fil6 {fill:#CC3300}
    .fil2 {fill:#CC6633}
    .fil3 {fill:#CC9933}
   ]]>
  </style>
 </defs>
 <g id="_100:master" visibility="hidden">
  <metadata id="CorelCorpID_0Corel-Layer"/>
  <path class="fil0" d="M720 551c69,65 76,86 150,8l28 34c-100,149 -142,108 -219,11l41 -53z"/>
  <path class="fil1" d="M631 562c55,-5 105,-70 133,-106 17,-22 34,-20 53,-5 78,62 112,118 206,118l0 81c-87,0 -155,-62 -222,-119 -17,-14 -30,-15 -41,-4l-81 77 -48 -42z"/>
  <path class="fil2" d="M560 650l0 -81c-21,0 -40,19 -41,40 0,21 20,41 41,41z"/>
  <path class="fil3" d="M725 560l-23 -34c-35,36 -94,43 -133,43l-9 0 0 81 9 0c62,0 108,-25 156,-90z"/>
 </g>
 <g id="Layer_x0020_1" visibility="hidden">
  <metadata id="CorelCorpID_1Corel-Layer"/>
  <path class="fil4" d="M731 558c37,36 77,124 162,29l26 18c-87,176 -164,99 -240,2l52 -49z"/>
  <path class="fil1" d="M658 576l99 -95c102,-100 117,88 257,88l0 81c-170,0 -183,-163 -255,-107l-81 63 -20 -30z"/>
  <path class="fil2" d="M600 650l0 -81c-20,0 -40,19 -40,40 0,21 20,41 40,41z"/>
  <path class="fil3" d="M732 569l-22 -43c-16,15 -32,43 -101,43l-9 0 0 81 9 0c41,0 75,-17 123,-81z"/>
 </g>
 <g id="Layer_x0020_2" visibility="hidden">
  <metadata id="CorelCorpID_2Corel-Layer"/>
  <path class="fil5" d="M773 525l27 44c-25,33 -79,81 -142,81l0 -81c60,0 100,-25 115,-44z"/>
  <path class="fil6" d="M658 650l0 -81c-20,0 -40,19 -40,40 -1,21 20,41 40,41z"/>
  <path class="fil7" d="M821 531l-61 69 -37 -16 92 -110c99,-119 132,95 242,95l20 0 0 81 -20 0c-144,0 -188,-174 -236,-119z"/>
  <path class="fil5" d="M743 618l50 -61c27,22 82,77 139,40l35 21c-63,150 -176,37 -224,0z"/>
 </g>
 <g id="Layer_x0020_3" visibility="hidden">
  <metadata id="CorelCorpID_3Corel-Layer"/>
  <path class="fil6" d="M672 650l0 -81c-20,0 -40,19 -41,40 0,21 21,41 41,41z"/>
  <path class="fil7" d="M954 487l-25 80c26,72 102,83 147,83l0 -81c-19,0 -51,-2 -79,-15 -32,-14 -24,-33 -43,-67z"/>
  <path class="fil7" d="M915 662l-25 -12 24 -53c13,-29 -59,-141 -84,-102l-34 54 -23 -20 49 -84c56,-95 195,69 134,158l-41 59z"/>
  <path class="fil5" d="M773 528l-2 81c-11,16 -42,41 -91,41l-8 0 0 -81 5 0c28,0 81,-16 96,-41z"/>
  <path class="fil5" d="M767 609l6 -81c52,38 123,72 183,75l-46 67c-35,0 -126,-45 -143,-61z"/>
 </g>
 <g id="Layer_x0020_4" visibility="hidden">
  <metadata id="CorelCorpID_4Corel-Layer"/>
  <path class="fil7" d="M911 522l41 -60c26,56 29,107 127,107l0 81c-116,0 -139,-71 -168,-128z"/>
  <path class="fil7" d="M630 650l0 -81c75,-3 97,-23 132,-88l33 26c-23,35 -17,31 -29,55 -23,47 -54,84 -136,88z"/>
  <path class="fil6" d="M631 650l0 -81c-21,0 -41,19 -41,40 0,21 20,41 41,41z"/>
  <path class="fil8" d="M969 607l-44 -27c-3,-38 -47,-104 -85,-105 -14,0 -27,7 -40,28l-35 60 -37 -18 46 -86c18,-32 47,-67 90,-66 84,3 130,132 105,214z"/>
  <path class="fil9" d="M926 575l48 7c-8,80 -83,99 -133,84 -36,-11 -77,-28 -108,-45l-42 -23 79 -47c33,17 92,42 128,42 15,0 30,-8 28,-18z"/>
 </g>
 <g id="Layer_x0020_5" visibility="hidden">
  <metadata id="CorelCorpID_5Corel-Layer"/>
  <path class="fil7" d="M1092 569l0 81c-172,0 -222,-160 -266,-164 -45,-4 -53,164 -196,164l0 -81c156,0 135,-157 199,-160 54,-3 100,160 263,160z"/>
  <path class="fil6" d="M631 650l0 -81c-21,0 -41,19 -41,40 0,21 20,41 41,41z"/>
  <path class="fil9" d="M944 532l28 37c-58,223 -266,78 -226,-26l38 -11c-16,70 130,128 160,0z"/>
 </g>
 <g id="Layer_x0020_6" visibility="hidden">
  <metadata id="CorelCorpID_6Corel-Layer"/>
  <path class="fil10" d="M630 650l0 -81c55,0 111,-19 123,-47l21 -48 21 21 -17 44c-31,76 -53,111 -148,111z"/>
  <path class="fil6" d="M631 650l0 -81c-21,0 -41,19 -41,40 0,21 20,41 41,41z"/>
  <path class="fil8" d="M945 617l-25 -33c-4,-40 -101,-149 -132,-72l-24 59 -27 -11 42 -96c79,-162 247,72 166,153z"/>
  <path class="fil9" d="M920 584l43 4c-51,127 -121,86 -237,33l37 -71c11,6 169,81 157,34z"/>
  <path class="fil11" d="M943 601c20,39 60,49 114,49l41 0 0 -81 -41 0c-40,0 -84,-1 -95,-43 -13,-49 -14,45 -19,75z"/>
 </g>
 <g id="Layer_x0020_7" visibility="hidden">
  <metadata id="CorelCorpID_7Corel-Layer"/>
  <path class="fil10" d="M630 650l0 -81c55,0 107,-24 122,-50l28 -48 7 33 -7 38c-14,70 -55,108 -150,108z"/>
  <path class="fil6" d="M631 650l0 -81c-21,0 -41,19 -41,40 0,21 20,41 41,41z"/>
  <path class="fil8" d="M991 563l-33 68c-72,-48 -126,-171 -165,-108l-29 45 -33 -16 49 -81c78,-130 147,68 211,92z"/>
  <path class="fil9" d="M949 575l19 12c-58,193 -188,95 -256,27l50 -62c67,65 151,127 187,23z"/>
  <path class="fil11" d="M931 601c19,39 60,49 114,49l40 0 0 -81 -40 0c-40,0 -70,0 -105,-51 -28,-43 -4,53 -9,83z"/>
 </g>
 <g id="Layer_x0020_8">
  <metadata id="CorelCorpID_8Corel-Layer"/>
  <path class="fil6" d="M916 586c-49,39 -106,-2 -149,-34l25 -43c30,-54 70,3 90,32 11,15 22,31 34,45zm-324 -17l0 0 0 0 30 0c67,0 92,-10 117,-52l15 -27 0 0 19 -35c43,-80 91,-61 149,28 26,40 49,86 148,86l0 81c-55,0 -93,-13 -121,-34 -65,113 -158,60 -228,1 -20,22 -49,33 -102,33l-27 0 0 0 0 0c-20,0 -40,-20 -40,-41 0,-21 20,-40 40,-40z"/>
 </g>
</svg>
