<?xml version="1.0" encoding="UTF-8"?>
<!DOCTYPE svg PUBLIC "-//W3C//DTD SVG 1.0//EN" "http://www.w3.org/TR/2001/REC-SVG-20010904/DTD/svg10.dtd">
<!-- Creator: CorelDRAW -->
<svg xmlns="http://www.w3.org/2000/svg" xml:space="preserve" width="1300px" height="1300px" version="1.0" style="shape-rendering:geometricPrecision; text-rendering:geometricPrecision; image-rendering:optimizeQuality; fill-rule:evenodd; clip-rule:evenodd"
viewBox="0 0 1300 1056"
 xmlns:xlink="http://www.w3.org/1999/xlink">
 <defs>
  <style type="text/css">
   <![CDATA[
    .fil2 {fill:#999933;fill-opacity:0.501961}
    .fil1 {fill:red;fill-opacity:0.501961}
    .fil0 {fill:#FF6633}
   ]]>
  </style>
 </defs>
 <g id="_100:master" visibility="hidden">
  <metadata id="CorelCorpID_0Corel-Layer"/>
  <path class="fil0" d="M907 503l-139 25c-59,11 -108,10 -111,92 0,1 -7,-21 -7,-20 -7,-122 55,-141 133,-153l171 -27 -47 83z"/>
  <path class="fil1" d="M747 455l-30 -16c53,-125 76,-165 115,-157 60,13 133,103 121,139l-47 82c15,-50 -94,-168 -113,-132l-46 84z"/>
  <path class="fil1" d="M650 561l51 -41c3,123 7,175 7,277 0,34 -34,74 -47,99l-10 -5 -1 -330z"/>
 </g>
 <g id="Layer_x0020_1" visibility="hidden">
  <metadata id="CorelCorpID_1Corel-Layer"/>
  <path class="fil0" d="M917 589c-138,0 -257,35 -260,121 0,0 -7,-21 -7,-21 -9,-157 111,-184 309,-181l-42 81z"/>
  <path class="fil1" d="M650 677l43 -76c3,123 7,211 7,313 0,20 -34,54 -40,63l-10 -5 0 -295z"/>
  <path class="fil2" d="M923 578l-12 -4 7 -58c3,-32 -108,-115 -116,-69l-16 89 -29 -12 22 -123c18,-107 231,13 181,108l-37 69z"/>
 </g>
 <g id="Layer_x0020_2" visibility="hidden">
  <metadata id="CorelCorpID_2Corel-Layer"/>
  <path class="fil2" d="M945 604l-28 -5 11 -58c7,-31 -90,-123 -105,-79l-20 60 -28 -14 29 -93c31,-105 206,22 167,122l-26 67z"/>
  <path class="fil1" d="M970 537l-27 76c-53,14 -126,-24 -180,-24 -54,0 -97,27 -101,105 0,1 -12,-38 -12,-37 -5,-120 49,-149 112,-149 64,0 144,43 208,29z"/>
  <path class="fil2" d="M649 657l40 -75 21 291c0,25 -17,70 -40,102l-10 -8 -11 -310z"/>
 </g>
 <g id="Layer_x0020_3">
  <metadata id="CorelCorpID_3Corel-Layer"/>
  <path class="fil1" d="M816 597c-19,-4 -37,-8 -53,-8 -28,0 -53,8 -71,25l18 259c0,25 -17,70 -40,102l-10 -8 -10 -312c-5,-118 49,-147 112,-147 1,0 2,0 2,0l0 -2 29 -75c11,-28 26,-61 55,-64 73,-8 150,86 120,182 -24,80 -72,69 -93,64l-59 -16zm-4 -83c11,3 24,6 36,9l84 21c-1,-67 -92,-132 -109,-89l-23 56 12 3z"/>
 </g>
</svg>
