<?xml version="1.0" encoding="UTF-8"?>
<!DOCTYPE svg PUBLIC "-//W3C//DTD SVG 1.0//EN" "http://www.w3.org/TR/2001/REC-SVG-20010904/DTD/svg10.dtd">
<!-- Creator: CorelDRAW -->
<svg xmlns="http://www.w3.org/2000/svg" xml:space="preserve" width="1300px" height="1300px" version="1.0" style="shape-rendering:geometricPrecision; text-rendering:geometricPrecision; image-rendering:optimizeQuality; fill-rule:evenodd; clip-rule:evenodd"
viewBox="0 0 1300 1056"
 xmlns:xlink="http://www.w3.org/1999/xlink">
 <defs>
  <style type="text/css">
   <![CDATA[
    .fil5 {fill:#00CCFF;fill-opacity:0.501961}
    .fil2 {fill:#999933;fill-opacity:0.501961}
    .fil4 {fill:#FF6600;fill-opacity:0.501961}
    .fil3 {fill:#660066;fill-opacity:0.549020}
    .fil6 {fill:#663333;fill-opacity:0.549020}
    .fil0 {fill:#999933}
    .fil1 {fill:#FF9966}
   ]]>
  </style>
 </defs>
 <g id="Layer_x0020_1" visibility="hidden">
  <metadata id="CorelCorpID_0Corel-Layer"/>
  <path class="fil0" d="M975 654l-46 61c-95,109 -418,129 -306,-169 5,-14 -26,-25 -32,-11 -181,440 384,402 384,119z"/>
  <path class="fil1" d="M929 715l46 -61c1,-18 1,-96 -57,-207l-39 80c53,118 51,172 50,188z"/>
  <path class="fil2" d="M933 477l-4 90c26,72 102,83 147,83l0 -81c-19,0 -51,-2 -79,-15 -32,-14 -45,-43 -64,-77z"/>
 </g>
 <g id="Layer_x0020_2" visibility="hidden">
  <metadata id="CorelCorpID_1Corel-Layer"/>
  <path class="fil3" d="M1086 650l0 -81 -2 0c-89,0 -125,-38 -163,-107l-5 1 18 74c16,61 47,113 150,113l2 0z"/>
 </g>
 <g id="Layer_x0020_3" visibility="hidden">
  <metadata id="CorelCorpID_2Corel-Layer"/>
  <path class="fil4" d="M926 470l-32 56c21,52 66,124 162,124l0 -81c-68,2 -105,-47 -130,-99z"/>
  <path class="fil3" d="M968 710l-29 17c7,-41 -21,-129 -65,-201l38 -80c63,102 72,210 56,264z"/>
  <path class="fil0" d="M975 649l-37 38c-9,131 -450,235 -337,-112l-24 -12c-182,446 413,404 398,86z"/>
 </g>
 <g id="Layer_x0020_4" visibility="hidden">
  <metadata id="CorelCorpID_3Corel-Layer"/>
  <path class="fil3" d="M1067 650l0 -81 -2 0c-70,0 -99,-23 -127,-67l-23 35c5,63 47,113 150,113l2 0z"/>
  <path class="fil3" d="M975 658l-41 41c0,-53 -36,-130 -60,-173l38 -80c31,58 72,143 63,212z"/>
  <path class="fil0" d="M976 643l-42 42c-9,54 -108,107 -193,107 -91,1 -168,-56 -108,-223l-25 -13c-101,223 1,317 127,318 106,0 226,-74 239,-194 1,-7 2,-29 2,-37z"/>
 </g>
 <g id="Layer_x0020_5" visibility="hidden">
  <metadata id="CorelCorpID_4Corel-Layer"/>
  <path class="fil5" d="M943 601c20,39 60,49 114,49l41 0 0 -81 -41 0c-40,0 -84,-1 -95,-43 -13,-49 -14,45 -19,75z"/>
  <path class="fil6" d="M617 542l22 10c-69,169 20,228 120,228 78,0 164,-36 184,-85 5,-13 3,-63 -50,-152l39 -80c35,59 53,118 52,171 -3,150 -121,227 -229,227 -132,0 -236,-104 -138,-319z"/>
 </g>
 <g id="Layer_x0020_6">
  <metadata id="CorelCorpID_5Corel-Layer"/>
  <path class="fil5" d="M975 633l0 6c1,304 -505,307 -357,-78l26 8c-91,259 231,260 289,98 -3,-55 -31,-101 -51,-139l36 -73c8,14 15,29 22,42l0 0 0 2c3,5 5,10 8,16 21,42 49,54 99,54l16 0 0 81 -12 0c-29,0 -54,-3 -76,-17z"/>
 </g>
</svg>
