<?xml version="1.0" encoding="UTF-8"?>
<!DOCTYPE svg PUBLIC "-//W3C//DTD SVG 1.0//EN" "http://www.w3.org/TR/2001/REC-SVG-20010904/DTD/svg10.dtd">
<!-- Creator: CorelDRAW -->
<svg xmlns="http://www.w3.org/2000/svg" xml:space="preserve" width="1300px" height="1300px" version="1.0" style="shape-rendering:geometricPrecision; text-rendering:geometricPrecision; image-rendering:optimizeQuality; fill-rule:evenodd; clip-rule:evenodd"
viewBox="0 0 1300 1056"
 xmlns:xlink="http://www.w3.org/1999/xlink">
 <defs>
  <style type="text/css">
   <![CDATA[
    .fil0 {fill:#CC3300;fill-opacity:0.501961}
   ]]>
  </style>
 </defs>
 <g id="_100:master">
  <metadata id="CorelCorpID_0Corel-Layer"/>
  <path class="fil0" d="M770 591c-18,38 -70,59 -110,59 -101,0 -166,-144 48,-440 -13,-15 -23,-24 -26,-27l45 -94c118,133 248,285 248,414 0,91 -33,147 -115,147 -34,0 -70,-16 -90,-59zm-20 -336c-192,283 -135,304 -85,314 39,7 71,-29 75,-68l56 -13c5,54 30,81 66,81 141,0 -14,-202 -112,-314z"/>
 </g>
</svg>
