<?xml version="1.0" encoding="UTF-8"?>
<!DOCTYPE svg PUBLIC "-//W3C//DTD SVG 1.0//EN" "http://www.w3.org/TR/2001/REC-SVG-20010904/DTD/svg10.dtd">
<!-- Creator: CorelDRAW -->
<svg xmlns="http://www.w3.org/2000/svg" xml:space="preserve" width="1300px" height="1300px" version="1.0" style="shape-rendering:geometricPrecision; text-rendering:geometricPrecision; image-rendering:optimizeQuality; fill-rule:evenodd; clip-rule:evenodd"
viewBox="0 0 1300 1056"
 xmlns:xlink="http://www.w3.org/1999/xlink">
 <defs>
  <style type="text/css">
   <![CDATA[
    .fil0 {fill:#4D4D4D}
   ]]>
  </style>
 </defs>
 <g id="_100:master">
  <metadata id="CorelCorpID_0Corel-Layer"/>
  <path class="fil0" d="M732 382c-26,11 -61,19 -89,18 -87,-4 -119,-73 -108,-151 35,-256 236,-191 250,8 0,151 46,259 97,303l-39 110c-58,-63 -105,-147 -111,-288zm-10 -88c-1,-10 -1,-21 -2,-31 -24,-122 -135,-78 -143,-18 -7,61 41,64 71,64 29,0 55,-7 74,-15z"/>
 </g>
</svg>
