<?xml version="1.0" encoding="UTF-8"?>
<!DOCTYPE svg PUBLIC "-//W3C//DTD SVG 1.0//EN" "http://www.w3.org/TR/2001/REC-SVG-20010904/DTD/svg10.dtd">
<!-- Creator: CorelDRAW -->
<svg xmlns="http://www.w3.org/2000/svg" xml:space="preserve" width="1300px" height="1300px" version="1.0" style="shape-rendering:geometricPrecision; text-rendering:geometricPrecision; image-rendering:optimizeQuality; fill-rule:evenodd; clip-rule:evenodd"
viewBox="0 0 1300 1056"
 xmlns:xlink="http://www.w3.org/1999/xlink">
 <defs>
  <style type="text/css">
   <![CDATA[
    .fil0 {fill:#CC6633}
   ]]>
  </style>
 </defs>
 <g id="_100:master">
  <metadata id="CorelCorpID_0Corel-Layer"/>
  <path class="fil0" d="M751 208c9,16 19,29 30,41 -23,-123 106,-231 246,-117 5,7 -9,32 -16,30 -211,-51 -220,122 -90,147 49,2 96,-9 129,-25 14,-6 34,31 22,41 -96,82 -204,84 -283,23 25,143 11,261 -10,302l-31 20c16,-150 -2,-296 -98,-485l45 -104c23,42 41,85 56,127z"/>
 </g>
</svg>
