<?xml version="1.0" encoding="UTF-8"?>
<!DOCTYPE svg PUBLIC "-//W3C//DTD SVG 1.0//EN" "http://www.w3.org/TR/2001/REC-SVG-20010904/DTD/svg10.dtd">
<!-- Creator: CorelDRAW -->
<svg xmlns="http://www.w3.org/2000/svg" xml:space="preserve" width="1300px" height="1300px" version="1.0" style="shape-rendering:geometricPrecision; text-rendering:geometricPrecision; image-rendering:optimizeQuality; fill-rule:evenodd; clip-rule:evenodd"
viewBox="0 0 1300 1056"
 xmlns:xlink="http://www.w3.org/1999/xlink">
 <defs>
  <style type="text/css">
   <![CDATA[
    .fil0 {fill:#FF9933}
   ]]>
  </style>
 </defs>
 <g id="_100:master">
  <metadata id="CorelCorpID_0Corel-Layer"/>
  <path class="fil0" d="M650 91l79 -91c7,22 12,43 18,64l0 0 1 6c17,65 67,117 138,112 54,-4 87,-79 83,-135 -1,-14 54,-26 55,0 1,36 -2,69 -9,97 15,5 32,7 50,6 53,-4 86,-79 83,-135 -1,-13 54,-26 55,1 7,214 -137,292 -238,232 -49,55 -121,66 -179,31 17,148 11,267 10,371l-69 20c4,-183 -3,-373 -77,-579z"/>
 </g>
</svg>
