<?xml version="1.0" encoding="UTF-8"?>
<!DOCTYPE svg PUBLIC "-//W3C//DTD SVG 1.0//EN" "http://www.w3.org/TR/2001/REC-SVG-20010904/DTD/svg10.dtd">
<!-- Creator: CorelDRAW -->
<svg xmlns="http://www.w3.org/2000/svg" xml:space="preserve" width="1300px" height="1300px" version="1.0" style="shape-rendering:geometricPrecision; text-rendering:geometricPrecision; image-rendering:optimizeQuality; fill-rule:evenodd; clip-rule:evenodd"
viewBox="0 0 1300 1056"
 xmlns:xlink="http://www.w3.org/1999/xlink">
 <defs>
  <style type="text/css">
   <![CDATA[
    .fil0 {fill:black}
   ]]>
  </style>
 </defs>
 <g id="_100:master">
  <metadata id="CorelCorpID_0Corel-Layer"/>
  <path class="fil0" d="M592 236c-71,0 -106,-31 -106,-93 0,-59 25,-44 33,-30 15,27 42,40 82,41 4,0 24,-3 60,-7 36,-5 63,-8 80,-8 24,0 36,12 37,36 0,237 24,363 74,399 -5,32 -14,60 -22,92 -33,-28 -55,-58 -67,-89 -18,-47 -28,-127 -28,-261l0 -59c0,-21 -3,-32 -10,-33l-133 12z"/>
 </g>
</svg>
