<?xml version="1.0" encoding="UTF-8"?>
<!DOCTYPE svg PUBLIC "-//W3C//DTD SVG 1.0//EN" "http://www.w3.org/TR/2001/REC-SVG-20010904/DTD/svg10.dtd">
<!-- Creator: CorelDRAW -->
<svg xmlns="http://www.w3.org/2000/svg" xml:space="preserve" width="1300px" height="1300px" version="1.0" style="shape-rendering:geometricPrecision; text-rendering:geometricPrecision; image-rendering:optimizeQuality; fill-rule:evenodd; clip-rule:evenodd"
viewBox="0 0 1300 1056"
 xmlns:xlink="http://www.w3.org/1999/xlink">
 <defs>
  <style type="text/css">
   <![CDATA[
    .fil0 {fill:#CCCC33}
   ]]>
  </style>
 </defs>
 <g id="_100:master">
  <metadata id="CorelCorpID_0Corel-Layer"/>
  <path class="fil0" d="M735 165c62,127 182,85 175,-51 -1,-28 27,-37 32,-12 7,37 10,69 8,97 62,52 136,23 131,-85 -2,-28 26,-37 31,-12 45,219 -96,263 -194,195 -32,43 -83,57 -131,43 28,146 14,268 -8,310l-31 20c16,-150 -2,-296 -98,-485l45 -104c15,28 28,56 40,84z"/>
 </g>
</svg>
