<?xml version="1.0" encoding="UTF-8"?>
<!DOCTYPE svg PUBLIC "-//W3C//DTD SVG 1.0//EN" "http://www.w3.org/TR/2001/REC-SVG-20010904/DTD/svg10.dtd">
<!-- Creator: CorelDRAW -->
<svg xmlns="http://www.w3.org/2000/svg" xml:space="preserve" width="1300px" height="1300px" version="1.0" style="shape-rendering:geometricPrecision; text-rendering:geometricPrecision; image-rendering:optimizeQuality; fill-rule:evenodd; clip-rule:evenodd"
viewBox="0 0 1300 1056"
 xmlns:xlink="http://www.w3.org/1999/xlink">
 <defs>
  <style type="text/css">
   <![CDATA[
    .fil0 {fill:black}
   ]]>
  </style>
 </defs>
 <g id="_100:master">
  <metadata id="CorelCorpID_0Corel-Layer"/>
  <path class="fil0" d="M607 159c-81,0 -121,-36 -121,-108 0,-67 29,-50 38,-33 17,30 47,45 94,46 4,0 28,-3 69,-8 41,-5 72,-8 91,-8 28,0 42,13 42,41 0,271 28,415 85,457 -5,37 -15,69 -25,105 -38,-32 -63,-66 -76,-102 -22,-54 -32,-146 -32,-299l0 -68c0,-23 -4,-36 -12,-38l-153 15z"/>
 </g>
</svg>
