<?xml version="1.0" encoding="UTF-8"?>
<!DOCTYPE svg PUBLIC "-//W3C//DTD SVG 1.0//EN" "http://www.w3.org/TR/2001/REC-SVG-20010904/DTD/svg10.dtd">
<!-- Creator: CorelDRAW -->
<svg xmlns="http://www.w3.org/2000/svg" xml:space="preserve" width="1300px" height="1300px" version="1.0" style="shape-rendering:geometricPrecision; text-rendering:geometricPrecision; image-rendering:optimizeQuality; fill-rule:evenodd; clip-rule:evenodd"
viewBox="0 0 1300 1056"
 xmlns:xlink="http://www.w3.org/1999/xlink">
 <defs>
  <style type="text/css">
   <![CDATA[
    .fil0 {fill:#FF9933}
   ]]>
  </style>
 </defs>
 <g id="_100:master" visibility="hidden">
  <metadata id="CorelCorpID_0Corel-Layer"/>
  <path class="fil0" d="M932 101c-71,110 -129,252 -155,365 -26,-113 -81,-255 -152,-365l-11 -3 -35 70c-2,3 -3,6 1,14 108,166 156,300 168,458l52 29c9,-172 63,-311 178,-487 4,-8 2,-11 1,-14l-36 -70 -11 3z"/>
 </g>
 <g id="Layer_x0020_1">
  <metadata id="CorelCorpID_1Corel-Layer"/>
  <path class="fil0" d="M960 185l-45 -104c-68,124 -151,341 -146,406 -5,-65 -79,-282 -147,-406l-45 104c90,176 170,335 171,485l41 -20c7,-130 72,-293 171,-465z"/>
 </g>
</svg>
