<?xml version="1.0" encoding="UTF-8"?>
<!DOCTYPE svg PUBLIC "-//W3C//DTD SVG 1.0//EN" "http://www.w3.org/TR/2001/REC-SVG-20010904/DTD/svg10.dtd">
<!-- Creator: CorelDRAW -->
<svg xmlns="http://www.w3.org/2000/svg" xml:space="preserve" width="1300px" height="1300px" version="1.0" style="shape-rendering:geometricPrecision; text-rendering:geometricPrecision; image-rendering:optimizeQuality; fill-rule:evenodd; clip-rule:evenodd"
viewBox="0 0 1300 1056"
 xmlns:xlink="http://www.w3.org/1999/xlink">
 <defs>
  <style type="text/css">
   <![CDATA[
    .fil0 {fill:#CCCC33}
   ]]>
  </style>
 </defs>
 <g id="_100:master">
  <metadata id="CorelCorpID_0Corel-Layer"/>
  <path class="fil0" d="M993 174c16,7 35,10 56,8 53,-4 86,-78 83,-135 -1,-13 53,-25 54,1 8,215 -137,293 -239,231 -42,55 -105,72 -160,53 16,94 13,179 12,318l-69 20c1,-169 -1,-308 -80,-469l61 -120c7,19 14,37 21,56l0 0c22,52 67,90 129,85 53,-4 86,-78 83,-135 -1,-13 54,-26 55,1 1,32 -2,60 -6,86z"/>
 </g>
</svg>
