<?xml version="1.0" encoding="UTF-8"?>
<!DOCTYPE svg PUBLIC "-//W3C//DTD SVG 1.0//EN" "http://www.w3.org/TR/2001/REC-SVG-20010904/DTD/svg10.dtd">
<!-- Creator: CorelDRAW -->
<svg xmlns="http://www.w3.org/2000/svg" xml:space="preserve" width="1300px" height="1300px" version="1.0" style="shape-rendering:geometricPrecision; text-rendering:geometricPrecision; image-rendering:optimizeQuality; fill-rule:evenodd; clip-rule:evenodd"
viewBox="0 0 1300 1056"
 xmlns:xlink="http://www.w3.org/1999/xlink">
 <defs>
  <style type="text/css">
   <![CDATA[
    .fil2 {fill:#999933;fill-opacity:0.501961}
    .fil0 {fill:#999933}
    .fil1 {fill:#FF9966}
   ]]>
  </style>
 </defs>
 <g id="Layer_x0020_1" visibility="hidden">
  <metadata id="CorelCorpID_0Corel-Layer"/>
  <path class="fil0" d="M975 654l-46 61c-95,109 -418,129 -306,-169 5,-14 -26,-25 -32,-11 -181,440 384,402 384,119z"/>
  <path class="fil1" d="M929 715l46 -61c1,-18 1,-96 -57,-207l-39 80c53,118 51,172 50,188z"/>
  <path class="fil2" d="M933 477l-4 90c26,72 102,83 147,83l0 -81c-19,0 -51,-2 -79,-15 -32,-14 -45,-43 -64,-77z"/>
 </g>
 <g id="Layer_x0020_2">
  <metadata id="CorelCorpID_1Corel-Layer"/>
  <path class="fil1" d="M975 654c0,283 -581,321 -400,-119 6,-14 37,-3 32,11 -112,298 227,278 322,169 6,-11 5,-85 -50,-188l39 -80c3,5 6,10 8,15l0 0c38,69 60,107 150,107l2 0 0 81c-35,0 -72,-5 -102,-24 0,13 0,23 -1,28z"/>
 </g>
</svg>
