<?xml version="1.0" encoding="UTF-8"?>
<!DOCTYPE svg PUBLIC "-//W3C//DTD SVG 1.0//EN" "http://www.w3.org/TR/2001/REC-SVG-20010904/DTD/svg10.dtd">
<!-- Creator: CorelDRAW -->
<svg xmlns="http://www.w3.org/2000/svg" xml:space="preserve" width="1300px" height="1300px" version="1.0" style="shape-rendering:geometricPrecision; text-rendering:geometricPrecision; image-rendering:optimizeQuality; fill-rule:evenodd; clip-rule:evenodd"
viewBox="0 0 1300 1056"
 xmlns:xlink="http://www.w3.org/1999/xlink">
 <defs>
  <style type="text/css">
   <![CDATA[
    .fil0 {fill:black}
   ]]>
  </style>
 </defs>
 <g id="_100:master">
  <metadata id="CorelCorpID_0Corel-Layer"/>
  <path class="fil0" d="M838 349c0,13 -156,129 -160,144 0,12 30,29 89,53 60,25 102,37 129,37 -18,42 -34,63 -48,63l-2 0c-25,0 -69,-13 -133,-40 -69,-32 -103,-55 -104,-71 0,-17 5,-35 17,-50 12,-15 48,-51 108,-109 -76,-49 -114,-79 -114,-92 0,-8 8,-24 23,-49 16,-25 29,-41 39,-48 37,-27 71,-49 102,-65 32,-15 51,-26 60,-31 8,-4 15,-7 19,-7 4,0 7,3 7,7 0,5 -8,25 -24,60l-112 60c-2,1 -51,32 -51,35 0,6 27,23 78,52 51,30 77,47 77,51l0 0z"/>
 </g>
</svg>
