<?xml version="1.0" encoding="UTF-8"?>
<!DOCTYPE svg PUBLIC "-//W3C//DTD SVG 1.0//EN" "http://www.w3.org/TR/2001/REC-SVG-20010904/DTD/svg10.dtd">
<!-- Creator: CorelDRAW -->
<svg xmlns="http://www.w3.org/2000/svg" xml:space="preserve" width="1300px" height="1300px" version="1.0" style="shape-rendering:geometricPrecision; text-rendering:geometricPrecision; image-rendering:optimizeQuality; fill-rule:evenodd; clip-rule:evenodd"
viewBox="0 0 1300 1056"
 xmlns:xlink="http://www.w3.org/1999/xlink">
 <defs>
  <style type="text/css">
   <![CDATA[
    .fil0 {fill:#CC3300;fill-opacity:0.501961}
   ]]>
  </style>
 </defs>
 <g id="_100:master">
  <metadata id="CorelCorpID_0Corel-Layer"/>
  <path class="fil0" d="M547 161l40 -87c29,47 164,213 220,354 61,153 -4,228 -76,231 -43,2 -83,-21 -107,-68 -19,38 -66,61 -106,63 -63,2 -123,-52 -74,-199 36,-112 113,-240 138,-294l36 37c-172,288 -150,377 -101,381 39,2 73,-15 84,-80l34 -10c15,46 52,92 108,91 51,-2 72,-100 -196,-419z"/>
 </g>
</svg>
