<?xml version="1.0" encoding="UTF-8"?>
<!DOCTYPE svg PUBLIC "-//W3C//DTD SVG 1.0//EN" "http://www.w3.org/TR/2001/REC-SVG-20010904/DTD/svg10.dtd">
<!-- Creator: CorelDRAW -->
<svg xmlns="http://www.w3.org/2000/svg" xml:space="preserve" width="1300px" height="1300px" version="1.0" style="shape-rendering:geometricPrecision; text-rendering:geometricPrecision; image-rendering:optimizeQuality; fill-rule:evenodd; clip-rule:evenodd"
viewBox="0 0 1300 1056"
 xmlns:xlink="http://www.w3.org/1999/xlink">
 <defs>
  <style type="text/css">
   <![CDATA[
    .fil0 {fill:#CC6633}
   ]]>
  </style>
 </defs>
 <g id="_100:master">
  <metadata id="CorelCorpID_0Corel-Layer"/>
  <path class="fil0" d="M764 233c12,34 32,57 56,72 -21,-37 -34,-82 -29,-116l0 0 0 0c0,-2 1,-4 1,-6l1 0c31,-102 165,-129 264,-54l-17 43c-63,-16 -124,-14 -172,29 5,48 42,114 77,123 46,-6 93,-21 135,-39l-10 66c-76,36 -192,84 -276,37 8,74 6,151 5,262l-69 20c1,-169 -1,-308 -80,-469l61 -120c19,50 38,101 53,152z"/>
 </g>
</svg>
