<?xml version="1.0" encoding="UTF-8"?>
<!DOCTYPE svg PUBLIC "-//W3C//DTD SVG 1.0//EN" "http://www.w3.org/TR/2001/REC-SVG-20010904/DTD/svg10.dtd">
<!-- Creator: CorelDRAW -->
<svg xmlns="http://www.w3.org/2000/svg" xml:space="preserve" width="1300px" height="1300px" version="1.0" style="shape-rendering:geometricPrecision; text-rendering:geometricPrecision; image-rendering:optimizeQuality; fill-rule:evenodd; clip-rule:evenodd"
viewBox="0 0 1300 1056"
 xmlns:xlink="http://www.w3.org/1999/xlink">
 <defs>
  <style type="text/css">
   <![CDATA[
    .fil0 {fill:#4D4D4D}
   ]]>
  </style>
 </defs>
 <g id="_100:master">
  <metadata id="CorelCorpID_0Corel-Layer"/>
  <path class="fil0" d="M860 586l-45 67c-51,-35 -95,-71 -100,-253 -21,9 -57,16 -78,15 -82,-3 -112,-69 -102,-142 15,-111 70,-159 115,-159 45,-1 106,54 114,167 8,113 -3,248 96,305zm-214 -384c-36,-2 -67,35 -71,68 -4,32 38,59 66,59 29,0 54,-7 72,-15 -3,-48 -32,-111 -67,-112z"/>
 </g>
</svg>
