<?xml version="1.0" encoding="UTF-8"?>
<!DOCTYPE svg PUBLIC "-//W3C//DTD SVG 1.0//EN" "http://www.w3.org/TR/2001/REC-SVG-20010904/DTD/svg10.dtd">
<!-- Creator: CorelDRAW -->
<svg xmlns="http://www.w3.org/2000/svg" xml:space="preserve" width="1300px" height="1300px" version="1.0" style="shape-rendering:geometricPrecision; text-rendering:geometricPrecision; image-rendering:optimizeQuality; fill-rule:evenodd; clip-rule:evenodd"
viewBox="0 0 1300 1056"
 xmlns:xlink="http://www.w3.org/1999/xlink">
 <defs>
  <style type="text/css">
   <![CDATA[
    .fil0 {fill:#4D4D4D}
   ]]>
  </style>
 </defs>
 <g id="_100:master">
  <metadata id="CorelCorpID_0Corel-Layer"/>
  <path class="fil0" d="M866 588l-54 79c-61,-42 -112,-85 -118,-301 -26,11 -69,18 -94,18 -98,-4 -134,-82 -121,-170 18,-132 83,-190 136,-190 54,0 127,66 137,200 10,135 -5,296 114,364zm-255 -459c-43,-1 -80,43 -85,81 -5,39 45,72 79,71 34,0 65,-8 86,-18 -4,-57 -38,-132 -80,-134z"/>
 </g>
</svg>
