<?xml version="1.0" encoding="UTF-8"?>
<!DOCTYPE svg PUBLIC "-//W3C//DTD SVG 1.0//EN" "http://www.w3.org/TR/2001/REC-SVG-20010904/DTD/svg10.dtd">
<!-- Creator: CorelDRAW -->
<svg xmlns="http://www.w3.org/2000/svg" xml:space="preserve" width="1300px" height="1300px" version="1.0" style="shape-rendering:geometricPrecision; text-rendering:geometricPrecision; image-rendering:optimizeQuality; fill-rule:evenodd; clip-rule:evenodd"
viewBox="0 0 1300 1056"
 xmlns:xlink="http://www.w3.org/1999/xlink">
 <defs>
  <style type="text/css">
   <![CDATA[
    .fil2 {fill:#999933;fill-opacity:0.501961}
    .fil4 {fill:#FF6600;fill-opacity:0.501961}
    .fil3 {fill:#660066;fill-opacity:0.549020}
    .fil0 {fill:#999933}
    .fil1 {fill:#FF9966}
   ]]>
  </style>
 </defs>
 <g id="Layer_x0020_1" visibility="hidden">
  <metadata id="CorelCorpID_0Corel-Layer"/>
  <path class="fil0" d="M975 654l-46 61c-95,109 -418,129 -306,-169 5,-14 -26,-25 -32,-11 -181,440 384,402 384,119z"/>
  <path class="fil1" d="M929 715l46 -61c1,-18 1,-96 -57,-207l-39 80c53,118 51,172 50,188z"/>
  <path class="fil2" d="M933 477l-4 90c26,72 102,83 147,83l0 -81c-19,0 -51,-2 -79,-15 -32,-14 -45,-43 -64,-77z"/>
 </g>
 <g id="Layer_x0020_2" visibility="hidden">
  <metadata id="CorelCorpID_1Corel-Layer"/>
  <path class="fil3" d="M1086 650l0 -81 -2 0c-89,0 -125,-38 -163,-107l-5 1 18 74c16,61 47,113 150,113l2 0z"/>
 </g>
 <g id="Layer_x0020_3" visibility="hidden">
  <metadata id="CorelCorpID_2Corel-Layer"/>
  <path class="fil4" d="M926 470l-32 56c21,52 66,124 162,124l0 -81c-68,2 -105,-47 -130,-99z"/>
  <path class="fil3" d="M968 710l-29 17c7,-41 -21,-129 -65,-201l38 -80c63,102 72,210 56,264z"/>
  <path class="fil0" d="M975 649l-37 38c-9,131 -450,235 -337,-112l-24 -12c-182,446 413,404 398,86z"/>
 </g>
 <g id="Layer_x0020_4">
  <metadata id="CorelCorpID_3Corel-Layer"/>
  <path class="fil3" d="M1067 650c-31,0 -63,-4 -91,-18 0,4 0,8 0,11l0 0c0,8 -1,30 -2,37 -13,120 -133,194 -239,194 -126,-1 -228,-95 -127,-318l25 13c-60,167 17,224 108,223 85,0 184,-53 193,-107 -6,-52 -38,-120 -60,-159l38 -80c10,19 21,40 31,63 26,39 55,60 122,60l2 0 0 81z"/>
 </g>
</svg>
