<?xml version="1.0" encoding="UTF-8"?>
<!DOCTYPE svg PUBLIC "-//W3C//DTD SVG 1.0//EN" "http://www.w3.org/TR/2001/REC-SVG-20010904/DTD/svg10.dtd">
<!-- Creator: CorelDRAW -->
<svg xmlns="http://www.w3.org/2000/svg" xml:space="preserve" width="1300px" height="1300px" version="1.0" style="shape-rendering:geometricPrecision; text-rendering:geometricPrecision; image-rendering:optimizeQuality; fill-rule:evenodd; clip-rule:evenodd"
viewBox="0 0 1300 1056"
 xmlns:xlink="http://www.w3.org/1999/xlink">
 <defs>
  <style type="text/css">
   <![CDATA[
    .fil2 {fill:#660066;fill-opacity:0.549020}
    .fil1 {fill:#999933}
    .fil0 {fill:#FF9966}
   ]]>
  </style>
 </defs>
 <g id="_100:master" visibility="hidden">
  <metadata id="CorelCorpID_0Corel-Layer"/>
  <path class="fil0" d="M902 409l-36 79c53,118 69,180 68,197 -141,214 -528,160 -390,-180 6,-13 -26,-25 -32,-11 -215,532 459,477 467,156 1,-34 -8,-114 -77,-241z"/>
 </g>
 <g id="Layer_x0020_1" visibility="hidden">
  <metadata id="CorelCorpID_1Corel-Layer"/>
  <path class="fil1" d="M975 654l-46 61c-95,109 -434,129 -322,-169 5,-14 -26,-25 -32,-11 -181,440 400,402 400,119z"/>
  <path class="fil0" d="M929 715l46 -61c1,-18 9,-85 -57,-207l-39 80c55,103 57,176 50,188z"/>
 </g>
 <g id="Layer_x0020_2">
  <metadata id="CorelCorpID_2Corel-Layer"/>
  <path class="fil2" d="M934 685c-6,-52 -38,-120 -60,-159l38 -80c29,54 66,131 64,197l0 0c0,8 -1,30 -2,37 -13,120 -133,194 -239,194 -126,-1 -228,-95 -127,-318l25 13c-60,167 17,224 108,223 85,0 184,-53 193,-107z"/>
 </g>
</svg>
