<?xml version="1.0" encoding="UTF-8"?>
<!DOCTYPE svg PUBLIC "-//W3C//DTD SVG 1.0//EN" "http://www.w3.org/TR/2001/REC-SVG-20010904/DTD/svg10.dtd">
<!-- Creator: CorelDRAW -->
<svg xmlns="http://www.w3.org/2000/svg" xml:space="preserve" width="1300px" height="1300px" version="1.0" style="shape-rendering:geometricPrecision; text-rendering:geometricPrecision; image-rendering:optimizeQuality; fill-rule:evenodd; clip-rule:evenodd"
viewBox="0 0 1300 1056"
 xmlns:xlink="http://www.w3.org/1999/xlink">
 <defs>
  <style type="text/css">
   <![CDATA[
    .fil0 {fill:#996633}
   ]]>
  </style>
 </defs>
 <g id="_100:master">
  <metadata id="CorelCorpID_0Corel-Layer"/>
  <path class="fil0" d="M920 727c4,-27 5,-52 4,-76 -93,-3 -194,-21 -181,-127 7,-68 46,-157 105,-157 71,0 118,105 130,202 19,0 35,0 43,0l13 0 0 81 -19 0c-11,0 -23,0 -37,0l0 5 1 -1c-1,283 -582,321 -401,-119 6,-14 37,-3 32,11 -107,286 201,279 310,181zm-7 -159c-17,-70 -50,-115 -81,-115 -24,0 -47,39 -51,58l0 0c-12,41 62,53 132,57z"/>
 </g>
</svg>
