<?xml version="1.0" encoding="UTF-8"?>
<!DOCTYPE svg PUBLIC "-//W3C//DTD SVG 1.0//EN" "http://www.w3.org/TR/2001/REC-SVG-20010904/DTD/svg10.dtd">
<!-- Creator: CorelDRAW -->
<svg xmlns="http://www.w3.org/2000/svg" xml:space="preserve" width="1300px" height="1300px" version="1.0" style="shape-rendering:geometricPrecision; text-rendering:geometricPrecision; image-rendering:optimizeQuality; fill-rule:evenodd; clip-rule:evenodd"
viewBox="0 0 1300 1056"
 xmlns:xlink="http://www.w3.org/1999/xlink">
 <defs>
  <style type="text/css">
   <![CDATA[
    .fil0 {fill:#FFCC00}
   ]]>
  </style>
 </defs>
 <g id="_100:master">
  <metadata id="CorelCorpID_0Corel-Layer"/>
  <path class="fil0" d="M840 650l0 0c-63,-2 -96,-42 -91,-111l0 0 0 0c-2,-38 26,-149 110,-149 65,0 102,86 113,179l63 0 1 81 -62 0c-11,140 -124,211 -228,211 -131,0 -236,-104 -138,-319l23 11c-70,168 19,227 119,227 66,0 137,-25 170,-62 3,-22 3,-44 1,-68l-81 0zm4 -81l0 0 69 0c-12,-55 -35,-98 -62,-98 -23,0 -46,21 -59,52 -10,24 15,45 52,46z"/>
 </g>
</svg>
