<?xml version="1.0" encoding="UTF-8"?>
<!DOCTYPE svg PUBLIC "-//W3C//DTD SVG 1.0//EN" "http://www.w3.org/TR/2001/REC-SVG-20010904/DTD/svg10.dtd">
<!-- Creator: CorelDRAW -->
<svg xmlns="http://www.w3.org/2000/svg" xml:space="preserve" width="1300px" height="1300px" version="1.0" style="shape-rendering:geometricPrecision; text-rendering:geometricPrecision; image-rendering:optimizeQuality; fill-rule:evenodd; clip-rule:evenodd"
viewBox="0 0 1300 1056"
 xmlns:xlink="http://www.w3.org/1999/xlink">
 <defs>
  <style type="text/css">
   <![CDATA[
    .fil0 {fill:#996633}
   ]]>
  </style>
 </defs>
 <g id="_100:master">
  <metadata id="CorelCorpID_0Corel-Layer"/>
  <path class="fil0" d="M923 685c-1,-14 -2,-28 -2,-33 -1,-10 -1,-20 -3,-30 -23,19 -55,28 -84,28 -72,0 -109,-34 -107,-97l0 0c0,-9 1,-18 3,-27l0 0c12,-65 56,-142 111,-142 73,0 132,121 133,225l1 -1c15,318 -580,361 -398,-86l24 13c-102,312 244,259 322,150zm-21 -130c-18,-51 -48,-85 -77,-85 -24,0 -50,33 -54,57l0 0c-5,39 67,54 131,28z"/>
 </g>
</svg>
