<?xml version="1.0" encoding="UTF-8"?>
<!DOCTYPE svg PUBLIC "-//W3C//DTD SVG 1.0//EN" "http://www.w3.org/TR/2001/REC-SVG-20010904/DTD/svg10.dtd">
<!-- Creator: CorelDRAW -->
<svg xmlns="http://www.w3.org/2000/svg" xml:space="preserve" width="1300px" height="1300px" version="1.0" style="shape-rendering:geometricPrecision; text-rendering:geometricPrecision; image-rendering:optimizeQuality; fill-rule:evenodd; clip-rule:evenodd"
viewBox="0 0 1300 1056"
 xmlns:xlink="http://www.w3.org/1999/xlink">
 <defs>
  <style type="text/css">
   <![CDATA[
    .fil1 {fill:#FF6600;fill-opacity:0.549020}
    .fil2 {fill:#996633}
    .fil0 {fill:#FFCC00}
   ]]>
  </style>
 </defs>
 <g id="_100:master" visibility="hidden">
  <metadata id="CorelCorpID_0Corel-Layer"/>
  <path class="fil0" d="M753 530l33 8c-7,32 85,56 160,-4l-8 63c-68,94 -207,60 -185,-67z"/>
  <path class="fil1" d="M934 695c9,-13 41,-61 41,-61 -3,150 -121,227 -229,227 -131,0 -236,-104 -138,-319l23 11c-70,168 19,227 119,227 79,0 164,-36 184,-85z"/>
  <path class="fil2" d="M975 631l0 3 -41 61c4,-13 -5,-110 -32,-169 -17,-37 -36,-51 -53,-52 -33,-2 -64,48 -63,70 2,18 -1,9 -35,5 -1,-69 46,-157 101,-157 33,0 69,27 96,94 16,41 27,92 27,145z"/>
 </g>
 <g id="Layer_x0020_1">
  <metadata id="CorelCorpID_1Corel-Layer"/>
  <path class="fil1" d="M974 636l1 -2c-3,150 -121,227 -229,227 -131,0 -236,-104 -138,-319l23 11c-70,168 19,227 119,227 66,0 137,-25 170,-62 4,-24 3,-49 1,-77 -23,7 -51,9 -76,9 -66,0 -101,-41 -96,-111 -1,-44 27,-149 110,-149 73,0 111,107 115,212 1,11 1,22 0,34zm-63 -76c-12,-50 -34,-89 -60,-89 -23,0 -46,21 -60,53 -9,24 16,45 55,45 21,1 44,-3 65,-9z"/>
 </g>
</svg>
