<?xml version="1.0" encoding="UTF-8"?>
<!DOCTYPE svg PUBLIC "-//W3C//DTD SVG 1.0//EN" "http://www.w3.org/TR/2001/REC-SVG-20010904/DTD/svg10.dtd">
<!-- Creator: CorelDRAW -->
<svg xmlns="http://www.w3.org/2000/svg" xml:space="preserve" width="1300px" height="1300px" version="1.0" style="shape-rendering:geometricPrecision; text-rendering:geometricPrecision; image-rendering:optimizeQuality; fill-rule:evenodd; clip-rule:evenodd"
viewBox="0 0 1300 1056"
 xmlns:xlink="http://www.w3.org/1999/xlink">
 <defs>
  <style type="text/css">
   <![CDATA[
    .fil0 {fill:#996633}
   ]]>
  </style>
 </defs>
 <g id="_100:master">
  <metadata id="CorelCorpID_0Corel-Layer"/>
  <path class="fil0" d="M917 729c3,-14 8,-37 10,-50 2,-12 3,-23 4,-35 -97,14 -193,5 -174,-115 9,-69 52,-149 114,-149 108,0 134,230 100,320 -58,240 -549,250 -378,-165 5,-14 37,-3 32,11 -107,285 182,279 292,183zm10 -163c-9,-54 -31,-98 -72,-100 -34,-2 -56,35 -61,56l0 -1c-14,48 56,55 133,45z"/>
 </g>
</svg>
