<?xml version="1.0" encoding="UTF-8"?>
<!DOCTYPE svg PUBLIC "-//W3C//DTD SVG 1.0//EN" "http://www.w3.org/TR/2001/REC-SVG-20010904/DTD/svg10.dtd">
<!-- Creator: CorelDRAW -->
<svg xmlns="http://www.w3.org/2000/svg" xml:space="preserve" width="1300px" height="1300px" version="1.0" style="shape-rendering:geometricPrecision; text-rendering:geometricPrecision; image-rendering:optimizeQuality; fill-rule:evenodd; clip-rule:evenodd"
viewBox="0 0 1300 1056"
 xmlns:xlink="http://www.w3.org/1999/xlink">
 <defs>
  <style type="text/css">
   <![CDATA[
    .fil0 {fill:#996633}
   ]]>
  </style>
 </defs>
 <g id="_100:master">
  <metadata id="CorelCorpID_0Corel-Layer"/>
  <path class="fil0" d="M923 685c-1,-12 -2,-23 -2,-35l-87 0c-72,0 -109,-34 -107,-97l0 0c0,-9 1,-18 3,-27l0 0c12,-65 56,-142 111,-142 64,0 116,92 130,185l64 0 1 81 -63 0c-36,279 -569,299 -396,-128l24 13c-102,312 244,259 322,150zm-16 -117c-18,-58 -50,-98 -82,-98 -24,0 -50,33 -54,57l0 0c-3,26 26,41 65,41l71 0z"/>
 </g>
</svg>
