<?xml version="1.0" encoding="UTF-8"?>
<!DOCTYPE svg PUBLIC "-//W3C//DTD SVG 1.0//EN" "http://www.w3.org/TR/2001/REC-SVG-20010904/DTD/svg10.dtd">
<!-- Creator: CorelDRAW -->
<svg xmlns="http://www.w3.org/2000/svg" xml:space="preserve" width="1300px" height="1300px" version="1.0" style="shape-rendering:geometricPrecision; text-rendering:geometricPrecision; image-rendering:optimizeQuality; fill-rule:evenodd; clip-rule:evenodd"
viewBox="0 0 1300 1056"
 xmlns:xlink="http://www.w3.org/1999/xlink">
 <defs>
  <style type="text/css">
   <![CDATA[
    .fil0 {fill:#FF9999}
   ]]>
  </style>
 </defs>
 <g id="_100:master">
  <metadata id="CorelCorpID_0Corel-Layer"/>
  <path class="fil0" d="M853 650l0 0c-64,-4 -110,-34 -96,-122 9,-68 52,-148 114,-148 70,0 106,96 113,189l72 0 0 81 -73 0c-3,19 -6,37 -12,50 -58,240 -549,250 -378,-165 5,-14 37,-3 32,11 -107,285 182,279 292,183 3,-14 8,-37 10,-50 2,-10 3,-19 3,-29l-77 0zm-2 -81l77 0c-9,-56 -32,-101 -73,-103 -34,-2 -56,35 -61,56l0 -1c-9,31 17,44 57,48z"/>
 </g>
</svg>
