<?xml version="1.0" encoding="UTF-8"?>
<!DOCTYPE svg PUBLIC "-//W3C//DTD SVG 1.0//EN" "http://www.w3.org/TR/2001/REC-SVG-20010904/DTD/svg10.dtd">
<!-- Creator: CorelDRAW -->
<svg xmlns="http://www.w3.org/2000/svg" xml:space="preserve" width="1300px" height="1300px" version="1.0" style="shape-rendering:geometricPrecision; text-rendering:geometricPrecision; image-rendering:optimizeQuality; fill-rule:evenodd; clip-rule:evenodd"
viewBox="0 0 1300 1056"
 xmlns:xlink="http://www.w3.org/1999/xlink">
 <defs>
  <style type="text/css">
   <![CDATA[
    .fil0 {fill:#996633}
   ]]>
  </style>
 </defs>
 <g id="_100:master">
  <metadata id="CorelCorpID_0Corel-Layer"/>
  <path class="fil0" d="M920 727c5,-41 5,-79 1,-113 -64,49 -182,23 -179,-78l0 0 1 -10c6,-68 45,-159 105,-159 93,0 145,179 130,288l1 -1c-1,283 -582,321 -401,-119 6,-14 37,-3 32,11 -107,286 201,279 310,181zm-13 -182c-18,-57 -47,-92 -75,-92 -24,0 -47,39 -51,58l0 0c-12,43 59,60 126,34z"/>
 </g>
</svg>
