<?xml version="1.0" encoding="UTF-8"?>
<!DOCTYPE svg PUBLIC "-//W3C//DTD SVG 1.0//EN" "http://www.w3.org/TR/2001/REC-SVG-20010904/DTD/svg10.dtd">
<!-- Creator: CorelDRAW -->
<svg xmlns="http://www.w3.org/2000/svg" xml:space="preserve" width="1300px" height="1300px" version="1.0" style="shape-rendering:geometricPrecision; text-rendering:geometricPrecision; image-rendering:optimizeQuality; fill-rule:evenodd; clip-rule:evenodd"
viewBox="0 0 1300 1056"
 xmlns:xlink="http://www.w3.org/1999/xlink">
 <defs>
  <style type="text/css">
   <![CDATA[
    .fil3 {fill:#999933;fill-opacity:0.501961}
    .fil5 {fill:#336699;fill-opacity:0.549020}
    .fil0 {fill:#660066;fill-opacity:0.549020}
    .fil2 {fill:#999933;fill-opacity:0.549020}
    .fil6 {fill:fuchsia;fill-opacity:0.549020}
    .fil4 {fill:#FF6666;fill-opacity:0.549020}
    .fil1 {fill:#666633}
   ]]>
  </style>
 </defs>
 <g id="_100:master" visibility="hidden">
  <metadata id="CorelCorpID_0Corel-Layer"/>
  <path class="fil0" d="M960 544l-22 47c15,25 35,59 118,59l12 0 0 -81 -12 0c-44,0 -74,-11 -96,-25z"/>
  <path class="fil0" d="M936 724l-14 -1c12,-33 -2,-130 -52,-203l39 -80c94,125 73,196 27,284z"/>
  <path class="fil1" d="M923 650l52 -49c1,155 -117,293 -198,293 -33,0 -88,-14 -124,-27 -7,-7 -4,-24 8,-27 107,13 269,-85 262,-190z"/>
 </g>
 <g id="Layer_x0020_1" visibility="hidden">
  <metadata id="CorelCorpID_1Corel-Layer"/>
  <path class="fil0" d="M912 730c10,-8 58,-46 -34,-202l39 -80c114,212 35,282 -5,282z"/>
  <path class="fil1" d="M930 646l44 19c-18,101 -109,196 -165,196 -32,0 -71,-14 -107,-26 -7,-7 -4,-25 7,-28 87,11 205,-69 221,-161z"/>
  <path class="fil2" d="M921 555l5 -89c18,28 32,103 119,103l6 0 0 81 -6 0c-54,0 -102,-25 -124,-95z"/>
 </g>
 <g id="Layer_x0020_2" visibility="hidden">
  <metadata id="CorelCorpID_2Corel-Layer"/>
  <path class="fil2" d="M924 555l2 -89c25,43 38,103 124,103l21 0 0 81 -21 0c-80,0 -110,-41 -126,-95z"/>
  <path class="fil0" d="M912 730c10,-8 58,-46 -34,-202l39 -80c119,202 35,282 -5,282z"/>
  <path class="fil1" d="M930 646l-18 -53 54 -37 12 68c19,107 -93,245 -149,245 -33,0 -83,-5 -119,-18 -7,-7 -4,-25 7,-28 75,10 239,-100 213,-177z"/>
 </g>
 <g id="Layer_x0020_4" visibility="hidden">
  <metadata id="CorelCorpID_3Corel-Layer"/>
  <path class="fil1" d="M930 646c1,-10 1,-20 -3,-30l49 -22c2,23 2,47 -2,71 -18,101 -109,196 -165,196 -32,0 -71,-14 -107,-26 -7,-7 -4,-25 7,-28 87,11 205,-69 221,-161z"/>
  <path class="fil0" d="M913 714c10,-8 58,-46 -34,-203l39 -79c114,212 35,282 -5,282z"/>
  <path class="fil3" d="M937 470l-8 97c26,72 102,83 147,83l0 -81c-19,0 -51,-2 -79,-15 -32,-14 -41,-50 -60,-84z"/>
 </g>
 <g id="Layer_x0020_5" visibility="hidden">
  <metadata id="CorelCorpID_4Corel-Layer"/>
  <path class="fil1" d="M930 646c1,-10 1,-20 -3,-30l49 -22c2,23 2,47 -2,71 -18,101 -109,196 -165,196 -32,0 -71,-14 -107,-26 -7,-7 -4,-25 7,-28 87,11 205,-69 221,-161z"/>
  <path class="fil4" d="M967 689l-43 -21c23,-48 -22,-114 -51,-167l38 -80c20,41 27,54 50,107 23,52 18,119 6,161z"/>
  <path class="fil0" d="M1083 650l0 -81 -2 0c-89,0 -112,-38 -149,-107l-6 1 5 74c5,63 48,113 150,113l2 0z"/>
 </g>
 <g id="Layer_x0020_6" visibility="hidden">
  <metadata id="CorelCorpID_5Corel-Layer"/>
  <path class="fil0" d="M1084 650l0 -81 -2 0c-89,0 -112,-38 -150,-107l-5 1 5 74c5,63 47,113 150,113l2 0z"/>
  <path class="fil0" d="M683 833c-3,-16 5,-19 17,-20 85,-3 230,-67 238,-164 -1,-24 -39,-109 -64,-139l38 -80c61,86 63,172 63,188 1,123 -89,252 -182,235l-110 -20z"/>
 </g>
 <g id="Layer_x0020_7" visibility="hidden">
  <metadata id="CorelCorpID_6Corel-Layer"/>
  <path class="fil0" d="M1090 650l0 -81 -1 0c-90,0 -112,-38 -150,-107l-5 1 5 74c4,63 47,113 150,113l1 0z"/>
  <path class="fil0" d="M932 639c1,-33 -19,-89 -50,-127l38 -80c46,70 62,130 52,182 -11,114 -94,230 -181,215l-110 -20c-2,-16 5,-20 17,-20 79,-3 207,-65 234,-150z"/>
 </g>
 <g id="Layer_x0020_8" visibility="hidden">
  <metadata id="CorelCorpID_7Corel-Layer"/>
  <path class="fil0" d="M1064 650l0 -81 -1 0c-71,0 -100,-23 -127,-67l-23 35c4,63 47,113 150,113l1 0z"/>
  <path class="fil5" d="M892 562c34,-61 54,-48 68,-16 11,27 15,51 15,64 0,147 -142,263 -211,243 -41,-12 -64,-17 -104,-33 -3,-16 2,-30 14,-29 65,9 179,1 251,-141 4,-12 8,-34 -33,-88z"/>
  <path class="fil5" d="M1005 561l-12 79c-59,-10 -84,-60 -128,-111l39 -80c27,51 61,101 101,112z"/>
 </g>
 <g id="Layer_x0020_9">
  <metadata id="CorelCorpID_8Corel-Layer"/>
  <path class="fil6" d="M925 626c1,-10 -15,-42 -64,-118l39 -80c19,32 34,57 44,79 27,40 56,62 124,62l2 0 0 81c-32,0 -66,-4 -95,-20 -4,108 -76,223 -172,223l-88 0c-5,-13 1,-27 16,-29 86,-12 167,-93 194,-198z"/>
 </g>
</svg>
