<?xml version="1.0" encoding="UTF-8"?>
<!DOCTYPE svg PUBLIC "-//W3C//DTD SVG 1.0//EN" "http://www.w3.org/TR/2001/REC-SVG-20010904/DTD/svg10.dtd">
<!-- Creator: CorelDRAW -->
<svg xmlns="http://www.w3.org/2000/svg" xml:space="preserve" width="1300px" height="1300px" version="1.0" style="shape-rendering:geometricPrecision; text-rendering:geometricPrecision; image-rendering:optimizeQuality; fill-rule:evenodd; clip-rule:evenodd"
viewBox="0 0 1300 1056"
 xmlns:xlink="http://www.w3.org/1999/xlink">
 <defs>
  <style type="text/css">
   <![CDATA[
    .fil0 {fill:#00CCFF;fill-opacity:0.501961}
    .fil3 {fill:#663333;fill-opacity:0.501961}
    .fil1 {fill:#000066;fill-opacity:0.549020}
    .fil2 {fill:#663333;fill-opacity:0.549020}
   ]]>
  </style>
 </defs>
 <g id="Layer_x0020_10" visibility="hidden">
  <metadata id="CorelCorpID_0Corel-Layer"/>
  <path class="fil0" d="M1047 650l0 -81c-41,0 -75,-5 -96,-43 -24,-45 -13,45 -18,75 19,39 59,49 114,49z"/>
  <path class="fil1" d="M916 634l46 -50c0,114 -32,212 -97,245 -46,23 -108,14 -152,16 -11,0 -8,-28 9,-29 45,-3 175,-68 194,-182z"/>
  <path class="fil2" d="M962 593l-50 61c14,-53 -11,-76 -43,-129l38 -80c35,59 55,90 55,148z"/>
 </g>
 <g id="Layer_x0020_11">
  <metadata id="CorelCorpID_1Corel-Layer"/>
  <path class="fil3" d="M967 701c-23,84 -85,140 -155,158 -34,9 -117,-38 -130,-50l10 -26c79,32 104,13 120,6 51,-21 102,-68 121,-122 2,-27 -16,-65 -47,-111l36 -73c5,9 10,18 14,26 24,40 50,60 102,60l17 0 0 81c-28,0 -55,0 -80,-13 -1,20 -3,41 -8,64z"/>
 </g>
</svg>
