<?xml version="1.0" encoding="UTF-8"?>
<!DOCTYPE svg PUBLIC "-//W3C//DTD SVG 1.0//EN" "http://www.w3.org/TR/2001/REC-SVG-20010904/DTD/svg10.dtd">
<!-- Creator: CorelDRAW -->
<svg xmlns="http://www.w3.org/2000/svg" xml:space="preserve" width="1300px" height="1300px" version="1.0" style="shape-rendering:geometricPrecision; text-rendering:geometricPrecision; image-rendering:optimizeQuality; fill-rule:evenodd; clip-rule:evenodd"
viewBox="0 0 1300 1056"
 xmlns:xlink="http://www.w3.org/1999/xlink">
 <defs>
  <style type="text/css">
   <![CDATA[
    .fil3 {fill:#999933;fill-opacity:0.501961}
    .fil0 {fill:#660066;fill-opacity:0.549020}
    .fil2 {fill:#999933;fill-opacity:0.549020}
    .fil1 {fill:#666633}
   ]]>
  </style>
 </defs>
 <g id="_100:master" visibility="hidden">
  <metadata id="CorelCorpID_0Corel-Layer"/>
  <path class="fil0" d="M960 544l-22 47c15,25 35,59 118,59l12 0 0 -81 -12 0c-44,0 -74,-11 -96,-25z"/>
  <path class="fil0" d="M936 724l-14 -1c12,-33 -2,-130 -52,-203l39 -80c94,125 73,196 27,284z"/>
  <path class="fil1" d="M923 650l52 -49c1,155 -117,293 -198,293 -33,0 -88,-14 -124,-27 -7,-7 -4,-24 8,-27 107,13 269,-85 262,-190z"/>
 </g>
 <g id="Layer_x0020_1" visibility="hidden">
  <metadata id="CorelCorpID_1Corel-Layer"/>
  <path class="fil0" d="M912 730c10,-8 58,-46 -34,-202l39 -80c114,212 35,282 -5,282z"/>
  <path class="fil1" d="M930 646l44 19c-18,101 -109,196 -165,196 -32,0 -71,-14 -107,-26 -7,-7 -4,-25 7,-28 87,11 205,-69 221,-161z"/>
  <path class="fil2" d="M921 555l5 -89c18,28 32,103 119,103l6 0 0 81 -6 0c-54,0 -102,-25 -124,-95z"/>
 </g>
 <g id="Layer_x0020_2" visibility="hidden">
  <metadata id="CorelCorpID_2Corel-Layer"/>
  <path class="fil2" d="M924 555l2 -89c25,43 38,103 124,103l21 0 0 81 -21 0c-80,0 -110,-41 -126,-95z"/>
  <path class="fil0" d="M912 730c10,-8 58,-46 -34,-202l39 -80c119,202 35,282 -5,282z"/>
  <path class="fil1" d="M930 646l-18 -53 54 -37 12 68c19,107 -93,245 -149,245 -33,0 -83,-5 -119,-18 -7,-7 -4,-25 7,-28 75,10 239,-100 213,-177z"/>
 </g>
 <g id="Layer_x0020_4" visibility="hidden">
  <metadata id="CorelCorpID_3Corel-Layer"/>
  <path class="fil1" d="M930 646c1,-10 1,-20 -3,-30l49 -22c2,23 2,47 -2,71 -18,101 -109,196 -165,196 -32,0 -71,-14 -107,-26 -7,-7 -4,-25 7,-28 87,11 205,-69 221,-161z"/>
  <path class="fil0" d="M913 714c10,-8 58,-46 -34,-203l39 -79c114,212 35,282 -5,282z"/>
  <path class="fil3" d="M937 470l-8 97c26,72 102,83 147,83l0 -81c-19,0 -51,-2 -79,-15 -32,-14 -41,-50 -60,-84z"/>
 </g>
 <g id="Layer_x0020_5">
  <metadata id="CorelCorpID_4Corel-Layer"/>
  <path class="fil1" d="M977 623c0,14 -1,28 -3,42 -18,101 -109,196 -165,196 -32,0 -71,-14 -107,-26 -7,-7 -4,-25 7,-28 80,10 186,-57 215,-139l0 0c2,-5 3,-9 5,-14 9,-47 -30,-105 -56,-153l38 -80c9,17 15,29 21,41l0 0c37,69 60,107 149,107l2 0 0 81c-36,0 -75,-6 -106,-27z"/>
 </g>
</svg>
