<?xml version="1.0" encoding="UTF-8"?>
<!DOCTYPE svg PUBLIC "-//W3C//DTD SVG 1.0//EN" "http://www.w3.org/TR/2001/REC-SVG-20010904/DTD/svg10.dtd">
<!-- Creator: CorelDRAW -->
<svg xmlns="http://www.w3.org/2000/svg" xml:space="preserve" width="1300px" height="1300px" version="1.0" style="shape-rendering:geometricPrecision; text-rendering:geometricPrecision; image-rendering:optimizeQuality; fill-rule:evenodd; clip-rule:evenodd"
viewBox="0 0 1300 1056"
 xmlns:xlink="http://www.w3.org/1999/xlink">
 <defs>
  <style type="text/css">
   <![CDATA[
    .fil0 {fill:#660066;fill-opacity:0.549020}
    .fil2 {fill:#CC6633;fill-opacity:0.549020}
    .fil1 {fill:#666633}
    .fil3 {fill:#FF6633}
   ]]>
  </style>
 </defs>
 <g id="_100:master" visibility="hidden">
  <metadata id="CorelCorpID_0Corel-Layer"/>
  <path class="fil0" d="M912 730c10,-8 58,-46 -34,-202l39 -80c119,202 35,282 -5,282z"/>
  <path class="fil1" d="M930 646l-18 -53 54 -37 12 68c19,107 -93,245 -149,245 -33,0 -83,-5 -119,-18 -7,-7 -4,-25 7,-28 75,10 239,-100 213,-177z"/>
 </g>
 <g id="Layer_x0020_1" visibility="hidden">
  <metadata id="CorelCorpID_1Corel-Layer"/>
  <path class="fil2" d="M958 691l-13 -2c5,-46 -46,-136 -64,-162l38 -80c37,56 85,160 39,244z"/>
  <path class="fil3" d="M928 612l48 -22c13,109 -71,263 -146,263 -32,0 -83,-6 -118,-18 -7,-7 -4,-25 7,-28 136,-3 226,-118 209,-195z"/>
 </g>
 <g id="Layer_x0020_2" visibility="hidden">
  <metadata id="CorelCorpID_2Corel-Layer"/>
  <path class="fil0" d="M912 730c10,-8 58,-46 -34,-202l39 -80c114,212 35,282 -5,282z"/>
  <path class="fil1" d="M930 646l44 19c-18,101 -109,196 -165,196 -32,0 -71,-14 -107,-26 -7,-7 -4,-25 7,-28 87,11 205,-69 221,-161z"/>
 </g>
 <g id="Layer_x0020_3" visibility="hidden">
  <metadata id="CorelCorpID_3Corel-Layer"/>
  <path class="fil1" d="M930 646c1,-10 1,-20 -3,-30l49 -22c2,23 2,47 -2,71 -18,101 -109,196 -165,196 -32,0 -71,-14 -107,-26 -7,-7 -4,-25 7,-28 87,11 205,-69 221,-161z"/>
  <path class="fil0" d="M913 714c10,-8 58,-46 -34,-203l39 -79c114,212 35,282 -5,282z"/>
 </g>
 <g id="Layer_x0020_4">
  <metadata id="CorelCorpID_4Corel-Layer"/>
  <path class="fil1" d="M977 605c1,20 0,40 -3,60 -18,101 -109,196 -165,196 -32,0 -71,-14 -107,-26 -7,-7 -4,-25 7,-28 80,10 186,-57 215,-139l0 0c2,-5 3,-9 5,-14 9,-47 -30,-105 -56,-153l38 -80c20,41 27,54 50,107 11,24 15,51 16,77z"/>
 </g>
</svg>
