<?xml version="1.0" encoding="UTF-8"?>
<!DOCTYPE svg PUBLIC "-//W3C//DTD SVG 1.0//EN" "http://www.w3.org/TR/2001/REC-SVG-20010904/DTD/svg10.dtd">
<!-- Creator: CorelDRAW -->
<svg xmlns="http://www.w3.org/2000/svg" xml:space="preserve" width="1300px" height="1300px" version="1.0" style="shape-rendering:geometricPrecision; text-rendering:geometricPrecision; image-rendering:optimizeQuality; fill-rule:evenodd; clip-rule:evenodd"
viewBox="0 0 1300 1056"
 xmlns:xlink="http://www.w3.org/1999/xlink">
 <defs>
  <style type="text/css">
   <![CDATA[
    .fil0 {fill:#999933;fill-opacity:0.501961}
   ]]>
  </style>
 </defs>
 <g id="_100:master">
  <metadata id="CorelCorpID_0Corel-Layer"/>
  <path class="fil0" d="M539 505c12,22 29,39 50,51 71,-77 156,-214 253,-211 70,2 132,82 133,146l0 0c0,26 -3,62 -22,82 -53,57 -152,88 -243,89 -49,1 -97,-10 -137,-36 1,6 1,12 1,17l0 0c0,8 -2,30 -2,37 -13,120 -133,194 -239,194 -126,-1 -229,-95 -127,-318l25 13c-60,167 16,224 107,223 86,0 185,-53 193,-107 -5,-52 -37,-120 -60,-159l39 -80c9,18 19,38 29,59zm77 64c29,10 62,14 96,13 77,-2 162,-26 218,-58 -15,-45 -61,-97 -106,-97 -72,-2 -161,92 -208,142z"/>
 </g>
</svg>
