<?xml version="1.0" encoding="UTF-8"?>
<!DOCTYPE svg PUBLIC "-//W3C//DTD SVG 1.0//EN" "http://www.w3.org/TR/2001/REC-SVG-20010904/DTD/svg10.dtd">
<!-- Creator: CorelDRAW -->
<svg xmlns="http://www.w3.org/2000/svg" xml:space="preserve" width="1300px" height="1300px" version="1.0" style="shape-rendering:geometricPrecision; text-rendering:geometricPrecision; image-rendering:optimizeQuality; fill-rule:evenodd; clip-rule:evenodd"
viewBox="0 0 1300 1056"
 xmlns:xlink="http://www.w3.org/1999/xlink">
 <defs>
  <style type="text/css">
   <![CDATA[
    .fil0 {fill:#999933;fill-opacity:0.501961}
   ]]>
  </style>
 </defs>
 <g id="_100:master">
  <metadata id="CorelCorpID_0Corel-Layer"/>
  <path class="fil0" d="M534 496l0 0c13,27 32,46 55,60 71,-77 156,-214 253,-211 70,2 132,82 133,146l0 0c0,16 -1,37 -7,54 29,19 66,24 99,24l0 81c-62,0 -109,-17 -136,-57 -56,44 -141,69 -221,69 -50,1 -98,-10 -137,-36 0,6 0,12 0,17l0 0c0,8 -1,30 -2,37 -13,120 -133,194 -239,194 -126,-1 -228,-95 -127,-318l25 13c-60,167 17,224 107,223 86,0 185,-53 194,-107 -6,-52 -38,-120 -61,-159l39 -80c8,15 16,32 25,50zm82 73c29,10 62,14 96,13 77,-2 162,-26 218,-58 -15,-45 -61,-97 -106,-97 -72,-2 -161,92 -208,142z"/>
 </g>
</svg>
