<?xml version="1.0" encoding="UTF-8"?>
<!DOCTYPE svg PUBLIC "-//W3C//DTD SVG 1.0//EN" "http://www.w3.org/TR/2001/REC-SVG-20010904/DTD/svg10.dtd">
<!-- Creator: CorelDRAW -->
<svg xmlns="http://www.w3.org/2000/svg" xml:space="preserve" width="1300px" height="1300px" version="1.0" style="shape-rendering:geometricPrecision; text-rendering:geometricPrecision; image-rendering:optimizeQuality; fill-rule:evenodd; clip-rule:evenodd"
viewBox="0 0 1300 1056"
 xmlns:xlink="http://www.w3.org/1999/xlink">
 <defs>
  <style type="text/css">
   <![CDATA[
    .fil5 {fill:#999933;fill-opacity:0.501961}
    .fil3 {fill:#660066;fill-opacity:0.549020}
    .fil0 {fill:#663333;fill-opacity:0.549020}
    .fil4 {fill:red;fill-opacity:0.549020}
    .fil1 {fill:#CC6633}
    .fil2 {fill:#CC9933}
   ]]>
  </style>
 </defs>
 <g id="_800:master" visibility="hidden">
  <metadata id="CorelCorpID_0Corel-Layer"/>
  <path class="fil0" d="M944 516l-17 85c19,29 52,49 107,49l2 0 0 -81 -2 0c-45,0 -75,-11 -90,-53z"/>
  <path class="fil0" d="M538 516l-18 85c19,29 52,49 108,49l1 0 1 -81 -2 0c-45,0 -75,-11 -90,-53z"/>
  <path class="fil1" d="M401 650l0 -81c-20,0 -40,19 -40,40 0,21 20,41 40,41z"/>
  <path class="fil0" d="M401 569l0 81 24 0c47,0 110,-34 117,-68l27 -125 -33 -7 -11 45c-19,80 -81,74 -124,74z"/>
 </g>
 <g id="_100:master" visibility="hidden">
  <metadata id="CorelCorpID_1Corel-Layer"/>
  <polygon class="fil2" points="815,650 815,569 627,569 623,650 "/>
  <path class="fil3" d="M928 544l41 -5c-16,70 -67,111 -136,111l-20 0 0 -81 20 0c43,0 74,-11 95,-25z"/>
  <path class="fil4" d="M609 582l-25 -13c104,-89 193,-187 279,-175 51,7 117,63 106,145l-39 27c4,-38 -38,-90 -84,-100 -99,-19 -167,60 -237,116z"/>
 </g>
 <g id="Layer_x0020_1" visibility="hidden">
  <metadata id="CorelCorpID_2Corel-Layer"/>
  <path class="fil1" d="M395 650l0 -81c-21,0 -40,19 -41,40 0,21 20,41 41,41z"/>
  <path class="fil4" d="M603 582l-27 -13c84,-83 190,-244 308,-188 56,27 91,89 91,127l-45 55c-1,-29 -44,-86 -83,-105 -88,-45 -186,71 -244,124z"/>
  <path class="fil5" d="M975 508c0,27 -5,61 -22,81 -69,70 -388,103 -448,12l18 -85c37,105 393,50 452,-8z"/>
  <path class="fil0" d="M393 569l0 81 23 0c48,0 111,-34 118,-68l27 -125 -33 -7 -11 45c-19,80 -81,74 -124,74z"/>
  <path class="fil5" d="M941 522l-27 45c26,72 102,83 147,83l0 -81c-30,0 -91,-6 -120,-47z"/>
 </g>
 <g id="Layer_x0020_2">
  <metadata id="CorelCorpID_3Corel-Layer"/>
  <path class="fil4" d="M587 566c72,-76 165,-210 263,-207 70,2 125,68 125,133l0 0c0,26 -6,47 -17,65 21,12 48,12 75,12l41 0 -1 81 -41 0c-47,0 -95,-16 -115,-49 -55,39 -137,49 -189,49l-94 0 0 -1 0 1c-47,0 -94,-16 -115,-48 -19,30 -54,48 -120,48l-25 0c-20,0 -40,-20 -40,-41 0,-20 19,-40 40,-40l41 0c59,0 82,-17 86,-43l9 -55 40 -16 -11 83c12,17 29,25 48,28zm340 -33c-7,-50 -47,-92 -95,-93 -73,-1 -159,79 -208,129l11 0 0 0 93 0c80,0 151,-12 199,-36z"/>
 </g>
</svg>
