<?xml version="1.0" encoding="UTF-8"?>
<!DOCTYPE svg PUBLIC "-//W3C//DTD SVG 1.0//EN" "http://www.w3.org/TR/2001/REC-SVG-20010904/DTD/svg10.dtd">
<!-- Creator: CorelDRAW -->
<svg xmlns="http://www.w3.org/2000/svg" xml:space="preserve" width="1300px" height="1300px" version="1.0" style="shape-rendering:geometricPrecision; text-rendering:geometricPrecision; image-rendering:optimizeQuality; fill-rule:evenodd; clip-rule:evenodd"
viewBox="0 0 1300 1056"
 xmlns:xlink="http://www.w3.org/1999/xlink">
 <defs>
  <style type="text/css">
   <![CDATA[
    .fil0 {fill:#CC6633}
   ]]>
  </style>
 </defs>
 <g id="_100:master">
  <metadata id="CorelCorpID_0Corel-Layer"/>
  <path class="fil0" d="M618 566c48,-50 135,-141 206,-139 45,0 91,52 106,97 -56,32 -141,56 -218,58 -35,1 -68,-4 -94,-16zm-233 3l29 0c38,0 76,-7 104,-27 -6,-22 -8,-46 -6,-75l25 -21c3,-3 16,-14 16,1l0 7c1,45 16,76 40,97 71,-78 154,-209 249,-206 70,2 132,82 133,146l0 0c0,26 -4,61 -22,82 -55,56 -152,88 -243,89 -64,1 -126,-17 -163,-63 -28,36 -73,51 -133,51l-29 0 0 0c-21,0 -41,-20 -40,-41 0,-21 20,-40 40,-40l0 0z"/>
 </g>
</svg>
