<?xml version="1.0" encoding="UTF-8"?>
<!DOCTYPE svg PUBLIC "-//W3C//DTD SVG 1.0//EN" "http://www.w3.org/TR/2001/REC-SVG-20010904/DTD/svg10.dtd">
<!-- Creator: CorelDRAW -->
<svg xmlns="http://www.w3.org/2000/svg" xml:space="preserve" width="1300px" height="1300px" version="1.0" style="shape-rendering:geometricPrecision; text-rendering:geometricPrecision; image-rendering:optimizeQuality; fill-rule:evenodd; clip-rule:evenodd"
viewBox="0 0 1300 1056"
 xmlns:xlink="http://www.w3.org/1999/xlink">
 <defs>
  <style type="text/css">
   <![CDATA[
    .fil0 {fill:red;fill-opacity:0.549020}
   ]]>
  </style>
 </defs>
 <g id="_100:master">
  <metadata id="CorelCorpID_0Corel-Layer"/>
  <path class="fil0" d="M587 566c72,-76 165,-210 263,-207 70,2 125,68 125,132l0 0 0 1c-1,132 -163,158 -247,158l-94 0 0 -1 0 1c-47,0 -94,-16 -115,-48 -19,30 -54,48 -120,48l-25 0c-20,0 -40,-20 -40,-41 0,-20 19,-40 40,-40l41 0c59,0 82,-17 86,-43l9 -55 40 -16 -11 83c12,17 29,25 48,28zm340 -34c-8,-50 -47,-91 -95,-92 -73,-1 -159,79 -208,129l11 0 0 0 93 0c81,0 151,-13 199,-37z"/>
 </g>
</svg>
