<?xml version="1.0" encoding="UTF-8"?>
<!DOCTYPE svg PUBLIC "-//W3C//DTD SVG 1.0//EN" "http://www.w3.org/TR/2001/REC-SVG-20010904/DTD/svg10.dtd">
<!-- Creator: CorelDRAW -->
<svg xmlns="http://www.w3.org/2000/svg" xml:space="preserve" width="1300px" height="1300px" version="1.0" style="shape-rendering:geometricPrecision; text-rendering:geometricPrecision; image-rendering:optimizeQuality; fill-rule:evenodd; clip-rule:evenodd"
viewBox="0 0 1300 1056"
 xmlns:xlink="http://www.w3.org/1999/xlink">
 <defs>
  <style type="text/css">
   <![CDATA[
    .fil0 {fill:red;fill-opacity:0.549020}
   ]]>
  </style>
 </defs>
 <g id="_100:master">
  <metadata id="CorelCorpID_0Corel-Layer"/>
  <path class="fil0" d="M583 562c82,-84 186,-236 301,-181 56,27 91,89 91,127 0,12 -1,27 -4,41 30,17 68,20 90,20l0 81c-36,0 -92,-7 -126,-46 -85,53 -313,76 -403,22 1,13 0,23 0,28 -1,283 -581,321 -401,-119 6,-14 38,-3 32,11 -111,298 227,278 323,169 5,-11 5,-85 -50,-188l39 -80c6,12 12,23 17,34 14,23 44,61 73,74 6,3 11,5 18,7zm339 -25c-14,-29 -46,-65 -75,-79 -82,-42 -173,55 -231,112 92,15 228,-5 306,-33z"/>
 </g>
</svg>
