<?xml version="1.0" encoding="UTF-8"?>
<!DOCTYPE svg PUBLIC "-//W3C//DTD SVG 1.0//EN" "http://www.w3.org/TR/2001/REC-SVG-20010904/DTD/svg10.dtd">
<!-- Creator: CorelDRAW -->
<svg xmlns="http://www.w3.org/2000/svg" xml:space="preserve" width="1300px" height="1300px" version="1.0" style="shape-rendering:geometricPrecision; text-rendering:geometricPrecision; image-rendering:optimizeQuality; fill-rule:evenodd; clip-rule:evenodd"
viewBox="0 0 1300 1056"
 xmlns:xlink="http://www.w3.org/1999/xlink">
 <defs>
  <style type="text/css">
   <![CDATA[
    .fil0 {fill:red;fill-opacity:0.549020}
   ]]>
  </style>
 </defs>
 <g id="_100:master">
  <metadata id="CorelCorpID_0Corel-Layer"/>
  <path class="fil0" d="M586 566c73,-75 166,-210 264,-207 70,2 125,68 125,133l0 0c0,26 -6,47 -17,65 21,12 48,12 75,12l41 0 -1 81 -41 0c-47,0 -95,-16 -115,-49 -55,39 -137,49 -189,49l-94 0 0 -1 0 1c-27,0 -54,-5 -76,-16l0 5c1,304 -506,307 -357,-78l25 8c-90,259 232,260 290,98 -3,-55 -31,-101 -51,-139l36 -73c9,17 18,34 26,51l0 0 3 8c16,34 30,47 56,52zm341 -33c-7,-50 -47,-92 -95,-93 -73,-1 -159,79 -208,129l11 0 0 0 93 0c80,0 151,-12 199,-36z"/>
 </g>
</svg>
