<?xml version="1.0" encoding="UTF-8"?>
<!DOCTYPE svg PUBLIC "-//W3C//DTD SVG 1.0//EN" "http://www.w3.org/TR/2001/REC-SVG-20010904/DTD/svg10.dtd">
<!-- Creator: CorelDRAW -->
<svg xmlns="http://www.w3.org/2000/svg" xml:space="preserve" width="1300px" height="1300px" version="1.0" style="shape-rendering:geometricPrecision; text-rendering:geometricPrecision; image-rendering:optimizeQuality; fill-rule:evenodd; clip-rule:evenodd"
viewBox="0 0 1300 1056"
 xmlns:xlink="http://www.w3.org/1999/xlink">
 <defs>
  <style type="text/css">
   <![CDATA[
    .fil0 {fill:#CC6633}
   ]]>
  </style>
 </defs>
 <g id="_100:master">
  <metadata id="CorelCorpID_0Corel-Layer"/>
  <path class="fil0" d="M922 537c-61,22 -156,38 -238,38 -28,-1 -51,-1 -70,-4 59,-56 151,-155 233,-113 29,14 60,50 75,79zm-522 32c35,0 82,4 109,-38l0 1c1,-21 4,-45 8,-72l37 -12c-9,70 -2,101 28,115 83,-84 186,-237 302,-182 56,27 91,89 91,127 0,27 -5,61 -22,81 -40,41 -164,69 -273,68 -86,-2 -135,-11 -157,-47 -24,22 -66,40 -100,40l-24 0 0 0c-20,0 -40,-20 -40,-41 1,-21 20,-40 41,-40l0 0z"/>
 </g>
</svg>
