<?xml version="1.0" encoding="UTF-8"?>
<!DOCTYPE svg PUBLIC "-//W3C//DTD SVG 1.0//EN" "http://www.w3.org/TR/2001/REC-SVG-20010904/DTD/svg10.dtd">
<!-- Creator: CorelDRAW -->
<svg xmlns="http://www.w3.org/2000/svg" xml:space="preserve" width="1300px" height="1300px" version="1.0" style="shape-rendering:geometricPrecision; text-rendering:geometricPrecision; image-rendering:optimizeQuality; fill-rule:evenodd; clip-rule:evenodd"
viewBox="0 0 1300 1056"
 xmlns:xlink="http://www.w3.org/1999/xlink">
 <defs>
  <style type="text/css">
   <![CDATA[
    .fil3 {fill:#999933;fill-opacity:0.501961}
    .fil0 {fill:#660066;fill-opacity:0.549020}
    .fil2 {fill:red;fill-opacity:0.549020}
    .fil1 {fill:#FF9966}
   ]]>
  </style>
 </defs>
 <g id="_100:master" visibility="hidden">
  <metadata id="CorelCorpID_0Corel-Layer"/>
  <path class="fil0" d="M570 476l17 125c19,29 75,49 112,49 38,0 82,-23 92,-68l27 -125 -34 -7 -10 45c-10,41 -21,73 -74,74 -57,0 -104,-46 -130,-93z"/>
  <path class="fil1" d="M613 654c1,-18 8,-85 -57,-207l-39 80c55,103 56,177 50,188 -96,109 -434,129 -322,-169 5,-14 -26,-25 -32,-11 -181,440 400,402 400,119z"/>
  <path class="fil2" d="M874 578l-90 -35 -24 72 87 37c75,31 104,-5 113,-50l32 -145 -33 -7 -21 86c-8,33 -20,58 -64,42z"/>
  <path class="fil3" d="M965 522l-28 45c26,72 103,83 148,83l0 -81c-31,0 -92,-6 -120,-47z"/>
 </g>
 <g id="Layer_x0020_1">
  <metadata id="CorelCorpID_1Corel-Layer"/>
  <path class="fil3" d="M790 541c37,41 104,32 149,0 -5,-21 -6,-46 -5,-74l31 -29c6,-5 10,-3 10,4 0,95 41,127 130,127l0 81c-65,0 -111,-15 -139,-49 -48,64 -158,67 -208,4 -19,24 -44,42 -76,45l0 0 -6 0c-21,1 -44,-5 -63,-15 -3,-1 -7,-3 -10,-5 0,5 0,9 0,13l0 0c0,8 -1,30 -2,37 -13,120 -133,194 -239,194 -126,-1 -228,-95 -127,-318l25 13c-60,167 17,224 107,223 86,0 185,-53 194,-107 -6,-52 -38,-120 -61,-159l39 -80c4,8 8,16 12,24l0 0c11,22 24,44 42,62l0 -1c47,50 132,56 162,-15l16 -37c9,-21 36,10 36,18l-17 44z"/>
 </g>
</svg>
