<?xml version="1.0" encoding="UTF-8"?>
<!DOCTYPE svg PUBLIC "-//W3C//DTD SVG 1.0//EN" "http://www.w3.org/TR/2001/REC-SVG-20010904/DTD/svg10.dtd">
<!-- Creator: CorelDRAW -->
<svg xmlns="http://www.w3.org/2000/svg" xml:space="preserve" width="1300px" height="1300px" version="1.0" style="shape-rendering:geometricPrecision; text-rendering:geometricPrecision; image-rendering:optimizeQuality; fill-rule:evenodd; clip-rule:evenodd"
viewBox="0 0 1300 1056"
 xmlns:xlink="http://www.w3.org/1999/xlink">
 <defs>
  <style type="text/css">
   <![CDATA[
    .fil0 {fill:#660066;fill-opacity:0.549020}
   ]]>
  </style>
 </defs>
 <g id="_100:master">
  <metadata id="CorelCorpID_0Corel-Layer"/>
  <path class="fil0" d="M607 625c1,14 0,24 0,29 -1,283 -582,321 -401,-119 6,-14 37,-3 32,11 -112,298 227,278 323,169 5,-11 5,-85 -50,-188l39 -80c6,12 12,23 17,34 26,46 72,88 127,88 52,-1 63,-33 73,-74l11 -45 33 7 -19 89 123 47c2,-36 -6,-79 -26,-120l48 -74c45,91 49,162 11,222 -21,36 -48,53 -72,43l-109 -46c-19,21 -48,32 -74,32 -26,0 -61,-9 -86,-25z"/>
 </g>
</svg>
