<?xml version="1.0" encoding="UTF-8"?>
<!DOCTYPE svg PUBLIC "-//W3C//DTD SVG 1.0//EN" "http://www.w3.org/TR/2001/REC-SVG-20010904/DTD/svg10.dtd">
<!-- Creator: CorelDRAW -->
<svg xmlns="http://www.w3.org/2000/svg" xml:space="preserve" width="1300px" height="1300px" version="1.0" style="shape-rendering:geometricPrecision; text-rendering:geometricPrecision; image-rendering:optimizeQuality; fill-rule:evenodd; clip-rule:evenodd"
viewBox="0 0 1300 1056"
 xmlns:xlink="http://www.w3.org/1999/xlink">
 <defs>
  <style type="text/css">
   <![CDATA[
    .fil0 {fill:black;fill-opacity:0.501961}
   ]]>
  </style>
 </defs>
 <g id="_100:master">
  <metadata id="CorelCorpID_0Corel-Layer"/>
  <path class="fil0" d="M1038 346l0 23c-55,2 -63,26 -63,81l0 143c0,101 -42,101 -146,101l0 -40c61,-1 79,-3 79,-56l0 -146c0,-55 12,-94 60,-105 -48,-12 -60,-51 -60,-105l0 -146c0,-53 -18,-56 -79,-56l0 -40c104,0 146,0 146,101l0 143c0,55 8,79 63,80l0 22z"/>
 </g>
</svg>
