<?xml version="1.0" encoding="UTF-8"?>
<!DOCTYPE svg PUBLIC "-//W3C//DTD SVG 1.0//EN" "http://www.w3.org/TR/2001/REC-SVG-20010904/DTD/svg10.dtd">
<!-- Creator: CorelDRAW -->
<svg xmlns="http://www.w3.org/2000/svg" xml:space="preserve" width="1300px" height="1300px" version="1.0" style="shape-rendering:geometricPrecision; text-rendering:geometricPrecision; image-rendering:optimizeQuality; fill-rule:evenodd; clip-rule:evenodd"
viewBox="0 0 1300 1056"
 xmlns:xlink="http://www.w3.org/1999/xlink">
 <defs>
  <style type="text/css">
   <![CDATA[
    .fil0 {fill:black;fill-opacity:0.501961}
   ]]>
  </style>
 </defs>
 <g id="_100:master">
  <metadata id="CorelCorpID_0Corel-Layer"/>
  <path class="fil0" d="M829 387l0 23c54,1 62,25 62,80l0 143c0,101 42,101 147,101l0 -40c-61,0 -79,-3 -79,-56l0 -146c0,-54 -13,-93 -61,-105 48,-11 61,-50 61,-104l0 -147c0,-52 18,-55 79,-55l0 -41c-105,0 -147,0 -147,101l0 143c0,56 -8,79 -62,81l0 22z"/>
 </g>
</svg>
