<?xml version="1.0" encoding="UTF-8"?>
<!DOCTYPE svg PUBLIC "-//W3C//DTD SVG 1.0//EN" "http://www.w3.org/TR/2001/REC-SVG-20010904/DTD/svg10.dtd">
<!-- Creator: CorelDRAW -->
<svg xmlns="http://www.w3.org/2000/svg" xml:space="preserve" width="1300px" height="1300px" version="1.0" style="shape-rendering:geometricPrecision; text-rendering:geometricPrecision; image-rendering:optimizeQuality; fill-rule:evenodd; clip-rule:evenodd"
viewBox="0 0 1300 1056"
 xmlns:xlink="http://www.w3.org/1999/xlink">
 <defs>
  <style type="text/css">
   <![CDATA[
    .fil0 {fill:black;fill-opacity:0.501961}
   ]]>
  </style>
 </defs>
 <g id="Layer_x0020_1">
  <metadata id="CorelCorpID_0Corel-Layer"/>
  <path class="fil0" d="M742 466c-29,2 -36,14 -53,36 -3,14 160,55 65,129 -21,16 -56,19 -86,19 -20,0 -40,-3 -58,-9 -13,-10 -19,-17 -19,-20 0,-3 3,-5 10,-5 29,0 131,-1 152,-22 -23,-25 -63,-33 -84,-49 -43,-32 22,-129 73,-129 18,0 28,6 30,20 2,14 1,28 -6,42 -6,4 -10,3 -13,-2 -1,-2 -5,-10 -11,-10z"/>
 </g>
</svg>
