<?xml version="1.0" encoding="UTF-8"?>
<!DOCTYPE svg PUBLIC "-//W3C//DTD SVG 1.0//EN" "http://www.w3.org/TR/2001/REC-SVG-20010904/DTD/svg10.dtd">
<!-- Creator: CorelDRAW -->
<svg xmlns="http://www.w3.org/2000/svg" xml:space="preserve" width="1300px" height="1300px" version="1.0" style="shape-rendering:geometricPrecision; text-rendering:geometricPrecision; image-rendering:optimizeQuality; fill-rule:evenodd; clip-rule:evenodd"
viewBox="0 0 1300 1056"
 xmlns:xlink="http://www.w3.org/1999/xlink">
 <defs>
  <style type="text/css">
   <![CDATA[
    .fil3 {fill:#999933;fill-opacity:0.501961}
    .fil1 {fill:#660066;fill-opacity:0.549020}
    .fil2 {fill:#663333;fill-opacity:0.549020}
    .fil0 {fill:#CC6633}
   ]]>
  </style>
 </defs>
 <g id="_100:master" visibility="hidden">
  <metadata id="CorelCorpID_0Corel-Layer"/>
  <path class="fil0" d="M423 650l25 0 0 -81 -25 0c-20,0 -40,19 -40,40 0,21 20,41 40,41z"/>
  <path class="fil1" d="M957 607l-14 -70c-17,19 -39,32 -88,32l-1 81c48,0 82,-20 103,-43z"/>
  <path class="fil1" d="M854 650l2 -81c-28,-1 -62,-19 -69,-25 -10,-7 6,-61 12,-87l-34 -7c-17,83 -31,119 -114,119l0 81c49,0 81,-20 102,-43 14,14 47,42 101,43z"/>
  <path class="fil1" d="M651 650l2 -81c-29,0 -62,-19 -69,-25 -11,-7 6,-61 11,-87l-33 -7c-17,83 -31,119 -114,119l0 81c48,0 80,-20 101,-43 14,14 48,42 102,43z"/>
  <path class="fil1" d="M1061 650l0 -81 -2 0c-65,0 -116,-32 -123,-154l-27 25c0,118 36,210 150,210l2 0z"/>
 </g>
 <g id="Layer_x0020_1" visibility="hidden">
  <metadata id="CorelCorpID_1Corel-Layer"/>
  <path class="fil0" d="M491 650l0 -81c-21,0 -40,19 -41,40 0,21 20,41 41,41z"/>
  <path class="fil1" d="M801 553l15 -70 -34 -7 -5 19c-27,100 -117,96 -150,21l-18 85c58,82 167,68 192,-48z"/>
  <path class="fil2" d="M491 569l-1 81 24 0c48,0 111,-34 118,-68l27 -125 -34 -7 -10 45c-20,80 -81,74 -124,74z"/>
 </g>
 <g id="Layer_x0020_2">
  <metadata id="CorelCorpID_2Corel-Layer"/>
  <path class="fil3" d="M790 541c37,41 104,32 149,0 -5,-21 -6,-46 -5,-74l31 -29c6,-5 10,-3 10,4 0,95 41,127 130,127l0 81c-65,0 -111,-15 -139,-49 -48,64 -158,67 -208,4 -21,26 -50,46 -87,45 -36,-1 -72,-15 -98,-49 -28,37 -65,49 -130,49l0 0c-20,0 -40,-20 -40,-41 1,-21 20,-40 41,-40 66,0 107,-12 138,-81l17 -37c4,-10 8,-11 22,-2 15,11 15,15 13,20l-25 62c-1,4 -3,8 -4,11 48,39 122,39 150,-26l16 -37c9,-21 36,10 36,18l-17 44z"/>
 </g>
</svg>
