<?xml version="1.0" encoding="UTF-8"?>
<!DOCTYPE svg PUBLIC "-//W3C//DTD SVG 1.0//EN" "http://www.w3.org/TR/2001/REC-SVG-20010904/DTD/svg10.dtd">
<!-- Creator: CorelDRAW -->
<svg xmlns="http://www.w3.org/2000/svg" xml:space="preserve" width="1300px" height="1300px" version="1.0" style="shape-rendering:geometricPrecision; text-rendering:geometricPrecision; image-rendering:optimizeQuality; fill-rule:evenodd; clip-rule:evenodd"
viewBox="0 0 1300 1056"
 xmlns:xlink="http://www.w3.org/1999/xlink">
 <defs>
  <style type="text/css">
   <![CDATA[
    .fil2 {fill:#FF6600;fill-opacity:0.501961}
    .fil0 {fill:#660066;fill-opacity:0.549020}
    .fil1 {fill:#FF9966}
   ]]>
  </style>
 </defs>
 <g id="_100:master" visibility="hidden">
  <metadata id="CorelCorpID_0Corel-Layer"/>
  <path class="fil0" d="M564 476l16 125c20,29 75,49 113,49 38,0 82,-23 92,-68l26 -125 -33 -7 -11 45c-10,41 -21,73 -73,74 -58,0 -105,-46 -130,-93z"/>
  <path class="fil1" d="M607 654c1,-18 8,-85 -57,-207l-39 80c55,103 55,177 50,188 -96,109 -435,129 -323,-169 5,-14 -26,-25 -32,-11 -181,440 400,402 401,119z"/>
  <path class="fil0" d="M959 600l-40 -5 -135 -52 -24 72 116 49c28,11 61,-14 83,-64z"/>
  <path class="fil0" d="M935 640l-24 -14c10,-41 4,-99 -22,-153l48 -74c50,101 49,177 -2,241z"/>
  <path class="fil0" d="M959 600l-40 -5 -135 -52 -24 72 116 49c28,11 61,-14 83,-64z"/>
  <path class="fil0" d="M935 640l-24 -14c10,-41 4,-99 -22,-153l48 -74c50,101 49,177 -2,241z"/>
 </g>
 <g id="Layer_x0020_1">
  <metadata id="CorelCorpID_1Corel-Layer"/>
  <path class="fil2" d="M551 470l0 0c3,4 5,9 7,14 10,17 21,34 35,48l0 -1c47,50 132,56 162,-15l16 -37c9,-21 36,10 36,18l-20 51c41,19 96,28 131,15 2,-26 -5,-62 -32,-115l52 -71c40,91 45,140 28,184l1 0c-8,23 -18,40 -30,53l-2 4 -1 0c-54,59 -136,22 -177,-12 -19,23 -44,41 -75,44l0 0c-2,0 -4,0 -6,0 -21,1 -44,-5 -63,-15 -4,-2 -9,-4 -13,-7 1,12 1,23 1,33 -2,314 -577,334 -398,-98l24 12c-108,346 325,247 338,112 -8,-40 -28,-102 -66,-161l39 -80c5,8 9,16 13,24l0 0z"/>
 </g>
</svg>
