<?xml version="1.0" encoding="UTF-8"?>
<!DOCTYPE svg PUBLIC "-//W3C//DTD SVG 1.0//EN" "http://www.w3.org/TR/2001/REC-SVG-20010904/DTD/svg10.dtd">
<!-- Creator: CorelDRAW -->
<svg xmlns="http://www.w3.org/2000/svg" xml:space="preserve" width="1300px" height="1300px" version="1.0" style="shape-rendering:geometricPrecision; text-rendering:geometricPrecision; image-rendering:optimizeQuality; fill-rule:evenodd; clip-rule:evenodd"
viewBox="0 0 1300 1056"
 xmlns:xlink="http://www.w3.org/1999/xlink">
 <defs>
  <style type="text/css">
   <![CDATA[
    .fil0 {fill:#660066;fill-opacity:0.549020}
   ]]>
  </style>
 </defs>
 <g id="_100:master">
  <metadata id="CorelCorpID_0Corel-Layer"/>
  <path class="fil0" d="M924 554c-15,9 -36,15 -68,15 -28,-1 -62,-19 -69,-25 -10,-7 6,-61 12,-87l-34 -7c-17,83 -31,119 -114,119l0 81c49,0 81,-20 102,-43 14,14 47,42 101,43l0 0c46,0 79,-18 100,-40 24,26 62,40 122,40l1 -81c-107,0 -128,-47 -130,-126l-32 18c0,35 2,66 9,93zm-274 96c-32,0 -57,-7 -75,-19 1,11 1,19 0,23 0,283 -565,321 -384,-119 6,-14 37,-3 32,11 -112,298 211,278 306,169 1,-16 3,-70 -49,-188l38 -80c4,6 7,13 10,19l0 0 3 6c21,46 45,96 119,97l0 81z"/>
 </g>
</svg>
