<?xml version="1.0" encoding="UTF-8"?>
<!DOCTYPE svg PUBLIC "-//W3C//DTD SVG 1.0//EN" "http://www.w3.org/TR/2001/REC-SVG-20010904/DTD/svg10.dtd">
<!-- Creator: CorelDRAW -->
<svg xmlns="http://www.w3.org/2000/svg" xml:space="preserve" width="1300px" height="1300px" version="1.0" style="shape-rendering:geometricPrecision; text-rendering:geometricPrecision; image-rendering:optimizeQuality; fill-rule:evenodd; clip-rule:evenodd"
viewBox="0 0 1300 1056"
 xmlns:xlink="http://www.w3.org/1999/xlink">
 <defs>
  <style type="text/css">
   <![CDATA[
    .fil2 {fill:#00CCFF;fill-opacity:0.501961}
    .fil6 {fill:red;fill-opacity:0.501961}
    .fil4 {fill:#FF6600;fill-opacity:0.501961}
    .fil0 {fill:#660066;fill-opacity:0.549020}
    .fil5 {fill:#663333;fill-opacity:0.549020}
    .fil3 {fill:#FF6600;fill-opacity:0.549020}
    .fil1 {fill:#FF9966}
   ]]>
  </style>
 </defs>
 <g id="_100:master" visibility="hidden">
  <metadata id="CorelCorpID_0Corel-Layer"/>
  <path class="fil0" d="M564 476l16 125c20,29 75,49 113,49 38,0 82,-23 92,-68l26 -125 -33 -7 -11 45c-10,41 -21,73 -73,74 -58,0 -105,-46 -130,-93z"/>
  <path class="fil1" d="M607 654c1,-18 8,-85 -57,-207l-39 80c55,103 55,177 50,188 -96,109 -435,129 -323,-169 5,-14 -26,-25 -32,-11 -181,440 400,402 401,119z"/>
  <path class="fil0" d="M959 600l-40 -5 -135 -52 -24 72 116 49c28,11 61,-14 83,-64z"/>
  <path class="fil0" d="M935 640l-24 -14c10,-41 4,-99 -22,-153l48 -74c50,101 49,177 -2,241z"/>
  <path class="fil0" d="M959 600l-40 -5 -135 -52 -24 72 116 49c28,11 61,-14 83,-64z"/>
  <path class="fil0" d="M935 640l-24 -14c10,-41 4,-99 -22,-153l48 -74c50,101 49,177 -2,241z"/>
 </g>
 <g id="Layer_x0020_1" visibility="hidden">
  <metadata id="CorelCorpID_1Corel-Layer"/>
  <path class="fil2" d="M715 569l0 81c43,0 70,-27 81,-49 7,15 32,49 82,49l0 -81c-39,0 -65,-27 -65,-65l0 -25c0,-10 -33,-10 -33,0l0 25c0,50 -40,65 -65,65z"/>
  <path class="fil3" d="M936 537c-2,-27 -26,-64 -46,-92l36 -73c33,48 49,99 49,132 0,34 1,61 -16,97 -11,23 -34,49 -82,49l0 -81c24,0 48,-8 59,-32z"/>
  <path class="fil4" d="M641 526l-36 24c10,67 44,100 117,100l10 0 0 -81 -10 0c-48,0 -71,-14 -81,-43z"/>
  <path class="fil5" d="M295 542l23 10c-70,169 19,228 119,228 79,0 164,-36 184,-85 5,-13 3,-63 -49,-152l38 -80c35,59 53,118 52,171 -3,150 -121,227 -229,227 -132,0 -236,-104 -138,-319z"/>
 </g>
 <g id="Layer_x0020_2" visibility="hidden">
  <metadata id="CorelCorpID_2Corel-Layer"/>
  <path class="fil6" d="M936 627l-11 -56c11,-8 -3,-41 -11,-68 -5,-16 -11,-34 -18,-54l49 -65c14,48 28,87 30,123 2,34 -7,85 -39,120z"/>
  <path class="fil3" d="M927 569l48 -48c0,58 -29,129 -66,129 -68,0 -121,-27 -145,-33l30 -64c67,16 101,16 133,16z"/>
  <path class="fil2" d="M623 505l-32 64c26,65 78,82 108,81 66,-2 93,-54 98,-78l20 -101 -31 6 -11 44c-7,27 -32,47 -70,48 -35,0 -64,-17 -82,-64z"/>
  <path class="fil5" d="M286 542l23 10c-70,169 19,228 119,228 79,0 164,-36 184,-85 5,-13 3,-63 -49,-152l38 -80c35,59 53,118 52,171 -3,150 -121,227 -229,227 -132,0 -236,-104 -138,-319z"/>
 </g>
 <g id="Layer_x0020_3">
  <metadata id="CorelCorpID_3Corel-Layer"/>
  <path class="fil6" d="M726 650c-18,0 -33,-4 -45,-10 0,303 -505,306 -356,-79l25 8c-91,259 231,260 289,98 -3,-55 -31,-101 -51,-139l36 -73c10,18 18,34 26,51l0 0 0 1c4,8 7,15 10,22 17,33 36,40 77,40 37,-1 48,-20 55,-53l10 -45 33 9 -6 32 0 0 -3 18c-3,22 8,39 57,39 17,-1 30,-3 41,-7 0,-14 -4,-29 -7,-43l-11 -54 54 -61 11 54c4,18 5,37 3,56 -1,65 -49,136 -102,136 -37,0 -66,-16 -80,-41 -18,24 -41,41 -66,41z"/>
 </g>
</svg>
