<?xml version="1.0" encoding="UTF-8"?>
<!DOCTYPE svg PUBLIC "-//W3C//DTD SVG 1.0//EN" "http://www.w3.org/TR/2001/REC-SVG-20010904/DTD/svg10.dtd">
<!-- Creator: CorelDRAW -->
<svg xmlns="http://www.w3.org/2000/svg" xml:space="preserve" width="1300px" height="1300px" version="1.0" style="shape-rendering:geometricPrecision; text-rendering:geometricPrecision; image-rendering:optimizeQuality; fill-rule:evenodd; clip-rule:evenodd"
viewBox="0 0 1300 1056"
 xmlns:xlink="http://www.w3.org/1999/xlink">
 <defs>
  <style type="text/css">
   <![CDATA[
    .fil0 {fill:#006633}
   ]]>
  </style>
 </defs>
 <g id="_100:master">
  <metadata id="CorelCorpID_0Corel-Layer"/>
  <path class="fil0" d="M640 561c23,0 41,18 41,40 0,23 -18,41 -41,41 -22,0 -40,-18 -40,-41 0,-22 18,-40 40,-40zm279 -23c29,0 52,23 52,52 0,28 -23,52 -52,52 -29,0 -52,-24 -52,-52 0,-29 23,-52 52,-52zm-141 11c26,0 47,21 47,47 0,25 -21,46 -47,46 -25,0 -46,-21 -46,-46 0,-26 21,-47 46,-47z"/>
 </g>
</svg>
