<?xml version="1.0" encoding="UTF-8"?>
<!DOCTYPE svg PUBLIC "-//W3C//DTD SVG 1.0//EN" "http://www.w3.org/TR/2001/REC-SVG-20010904/DTD/svg10.dtd">
<!-- Creator: CorelDRAW -->
<svg xmlns="http://www.w3.org/2000/svg" xml:space="preserve" width="1300px" height="1300px" version="1.0" style="shape-rendering:geometricPrecision; text-rendering:geometricPrecision; image-rendering:optimizeQuality; fill-rule:evenodd; clip-rule:evenodd"
viewBox="0 0 1300 1056"
 xmlns:xlink="http://www.w3.org/1999/xlink">
 <defs>
  <style type="text/css">
   <![CDATA[
    .fil0 {fill:black}
   ]]>
  </style>
 </defs>
 <g id="_100:master">
  <metadata id="CorelCorpID_0Corel-Layer"/>
  <path class="fil0" d="M856 233c17,0 32,4 46,13l-4 6c-16,0 -28,9 -36,26 -24,32 -55,47 -93,47l-3 -3c25,-31 35,-89 90,-89l0 0zm-59 103l29 0c45,0 76,31 76,76l0 2 -7 0c-3,-10 -18,-16 -44,-16 -26,0 -54,-19 -85,-59l3 -4c8,1 17,1 28,1zm-59 63c0,-15 5,-33 16,-56l5 0c10,20 19,37 28,50 8,13 12,27 12,42 0,28 -14,49 -42,64l-4 -6c3,-3 5,-7 5,-13 0,-7 -17,-49 -19,-54 0,-4 -1,-12 -1,-27l0 0zm-24 -173c0,-29 15,-50 43,-64l3 5c-4,4 -6,10 -6,17 0,9 16,47 18,52 1,4 1,12 1,26 0,13 -4,32 -14,56l-5 0c-1,-1 -7,-13 -20,-35 -13,-23 -20,-42 -20,-57l0 0zm-91 183c10,0 35,-37 40,-42 18,-18 45,-28 81,-31l3 3c-6,6 -11,15 -17,26 -24,43 -50,65 -78,65 -11,0 -25,-5 -41,-16l3 -5 9 0zm-14 -162l7 0c4,11 14,16 30,18 43,4 76,23 101,58l-3 2c-9,-2 -37,1 -57,1 -47,0 -78,-32 -78,-79z"/>
 </g>
</svg>
