<?xml version="1.0" encoding="UTF-8"?>
<!DOCTYPE svg PUBLIC "-//W3C//DTD SVG 1.0//EN" "http://www.w3.org/TR/2001/REC-SVG-20010904/DTD/svg10.dtd">
<!-- Creator: CorelDRAW -->
<svg xmlns="http://www.w3.org/2000/svg" xml:space="preserve" width="1300px" height="1300px" version="1.0" style="shape-rendering:geometricPrecision; text-rendering:geometricPrecision; image-rendering:optimizeQuality; fill-rule:evenodd; clip-rule:evenodd"
viewBox="0 0 1300 1056"
 xmlns:xlink="http://www.w3.org/1999/xlink">
 <defs>
  <style type="text/css">
   <![CDATA[
    .fil0 {fill:black}
   ]]>
  </style>
 </defs>
 <g id="_100:master">
  <metadata id="CorelCorpID_0Corel-Layer"/>
  <path class="fil0" d="M528 627c0,-12 3,-23 9,-30 124,-189 227,-380 309,-571 5,-12 13,-19 23,-19 17,0 26,9 26,28l0 3c-26,76 -71,172 -133,292 -62,119 -123,217 -184,292 -13,16 -24,24 -34,24 -11,0 -16,-7 -16,-19l0 0zm-14 -490c0,-34 26,-61 61,-61 75,0 79,122 2,122 -36,0 -63,-27 -63,-61l0 0zm268 390c0,-34 27,-61 61,-61 76,0 79,122 2,122 -35,0 -63,-27 -63,-61l0 0z"/>
 </g>
</svg>
