<?xml version="1.0" encoding="UTF-8"?>
<!DOCTYPE svg PUBLIC "-//W3C//DTD SVG 1.0//EN" "http://www.w3.org/TR/2001/REC-SVG-20010904/DTD/svg10.dtd">
<!-- Creator: CorelDRAW -->
<svg xmlns="http://www.w3.org/2000/svg" xml:space="preserve" width="1300px" height="1300px" version="1.0" style="shape-rendering:geometricPrecision; text-rendering:geometricPrecision; image-rendering:optimizeQuality; fill-rule:evenodd; clip-rule:evenodd"
viewBox="0 0 1300 1056"
 xmlns:xlink="http://www.w3.org/1999/xlink">
 <defs>
  <style type="text/css">
   <![CDATA[
    .fil0 {fill:#660066;fill-opacity:0.549020}
   ]]>
  </style>
 </defs>
 <g id="_100:master">
  <metadata id="CorelCorpID_0Corel-Layer"/>
  <path class="fil0" d="M650 650c-19,0 -35,-4 -48,-9 0,6 0,10 -1,13 0,283 -548,321 -368,-119 6,-14 37,-3 32,11 -111,298 195,278 290,169 1,-16 3,-70 -49,-188l38 -80c19,36 32,69 41,97 7,7 39,24 66,25 82,-1 96,-37 113,-119l34 7c-6,26 -22,80 -11,87 20,13 41,24 70,25 30,0 51,-12 71,-25 -2,-28 -12,-60 -37,-98l39 -79c31,46 43,86 45,120l0 0 0 1c1,19 -1,36 -6,51 -13,57 -61,111 -113,111 -55,0 -90,-29 -104,-43 -21,23 -53,43 -102,43l0 0z"/>
 </g>
</svg>
