<?xml version="1.0" encoding="UTF-8"?>
<!DOCTYPE svg PUBLIC "-//W3C//DTD SVG 1.0//EN" "http://www.w3.org/TR/2001/REC-SVG-20010904/DTD/svg10.dtd">
<!-- Creator: CorelDRAW -->
<svg xmlns="http://www.w3.org/2000/svg" xml:space="preserve" width="1300px" height="1300px" version="1.0" style="shape-rendering:geometricPrecision; text-rendering:geometricPrecision; image-rendering:optimizeQuality; fill-rule:evenodd; clip-rule:evenodd"
viewBox="0 0 1300 1056"
 xmlns:xlink="http://www.w3.org/1999/xlink">
 <defs>
  <style type="text/css">
   <![CDATA[
    .fil1 {fill:#660066;fill-opacity:0.549020}
    .fil2 {fill:#663333;fill-opacity:0.549020}
    .fil0 {fill:#CC6633}
   ]]>
  </style>
 </defs>
 <g id="_100:master" visibility="hidden">
  <metadata id="CorelCorpID_0Corel-Layer"/>
  <path class="fil0" d="M376 650l70 0 0 -81 -70 0c-20,0 -40,19 -40,40 -1,21 20,41 40,41z"/>
  <path class="fil1" d="M650 569l0 81c49,0 81,-20 102,-43 14,14 49,43 104,43 52,0 100,-54 113,-111 5,-15 7,-32 6,-51 0,0 0,0 0,-1l0 0c-2,-34 -14,-74 -45,-120l-39 79c25,38 35,70 37,98 -20,13 -41,25 -71,25 -29,-1 -50,-12 -70,-25 -11,-7 5,-61 11,-87l-34 -7c-17,83 -31,119 -114,119z"/>
  <path class="fil1" d="M651 650l1 -81c-30,-1 -51,-12 -71,-25 -11,-7 6,-61 11,-87l-33 -7c-18,83 -31,119 -115,119l0 81c49,0 81,-20 102,-43 14,14 49,43 105,43z"/>
 </g>
 <g id="Layer_x0020_1" visibility="hidden">
  <metadata id="CorelCorpID_1Corel-Layer"/>
  <path class="fil1" d="M786 582l27 -125 -33 -7 -11 45c-10,41 -21,73 -73,74 -31,0 -60,-15 -77,-53l-18 85c24,33 55,49 93,49 39,0 83,-23 92,-68z"/>
  <path class="fil1" d="M858 569l-1 81c52,0 99,-54 113,-111 4,-15 6,-32 5,-51 0,0 0,0 0,-1l0 0c-1,-34 -14,-74 -45,-120l-38 79c25,38 35,70 36,98 -19,13 -41,25 -70,25z"/>
  <path class="fil1" d="M857 650l1 -81c-30,0 -60,-15 -77,-53l-17 85c23,33 55,49 93,49z"/>
  <path class="fil0" d="M483 650l0 -81c-21,0 -40,19 -41,40 0,21 20,41 41,41z"/>
  <path class="fil2" d="M482 569l0 81 24 0c47,0 110,-34 118,-68l27 -125 -34 -7 -11 45c-19,80 -80,74 -124,74z"/>
 </g>
 <g id="Layer_x0020_2" visibility="hidden">
  <metadata id="CorelCorpID_2Corel-Layer"/>
  <path class="fil1" d="M786 582l27 -125 -33 -7 -11 45c-10,41 -21,73 -73,74 -31,0 -60,-15 -77,-53l-18 85c24,33 55,49 93,49 39,0 83,-23 92,-68z"/>
  <path class="fil1" d="M959 600l-40 -5 -135 -52 -24 72 116 49c28,11 61,-14 83,-64z"/>
  <path class="fil0" d="M483 650l0 -81c-21,0 -40,19 -41,40 0,21 20,41 41,41z"/>
  <path class="fil2" d="M482 569l0 81 24 0c47,0 110,-34 118,-68l27 -125 -34 -7 -11 45c-19,80 -80,74 -124,74z"/>
  <path class="fil1" d="M935 640l-24 -14c10,-41 4,-99 -22,-153l48 -74c50,101 49,177 -2,241z"/>
 </g>
 <g id="Layer_x0020_3" visibility="hidden">
  <metadata id="CorelCorpID_3Corel-Layer"/>
  <path class="fil0" d="M476 650l0 -81c-20,0 -40,19 -40,40 -1,21 20,41 40,41z"/>
  <path class="fil1" d="M965 561l-53 8c-14,16 -111,5 -135,-18l-31 56c35,34 147,69 188,16 12,-16 23,-37 31,-62z"/>
  <path class="fil1" d="M931 627l-23 -15c10,-41 4,-98 -22,-153l48 -74c49,101 49,177 -3,242z"/>
  <path class="fil2" d="M476 569l0 81 16 0c133,0 138,-88 158,-180l-32 -7c-17,87 -47,106 -142,106z"/>
  <path class="fil2" d="M725 638c66,-27 72,-97 87,-168l-32 -7c-11,57 -27,85 -64,97 -46,16 -83,10 -115,-29l-28 58c37,60 92,74 152,49z"/>
 </g>
 <g id="Layer_x0020_4" visibility="hidden">
  <metadata id="CorelCorpID_4Corel-Layer"/>
  <path class="fil1" d="M935 618l-35 -4c20,-34 34,-86 -6,-166l52 -71c44,103 40,166 -11,241z"/>
  <path class="fil0" d="M444 650l0 -81c-21,0 -40,19 -41,40 0,21 20,41 41,41z"/>
  <path class="fil1" d="M965 561l-47 -1c-45,21 -106,2 -139,-34l-28 54c74,95 175,99 214,-19z"/>
  <path class="fil2" d="M444 569l-1 81 17 0c133,0 138,-88 158,-180l-32 -7c-18,87 -47,106 -142,106z"/>
  <path class="fil2" d="M780 571c11,-30 17,-65 24,-101l-32 -7c-4,24 -10,42 -18,57 -31,60 -117,64 -161,11l-28 58c26,42 66,61 106,61 53,0 89,-29 109,-79z"/>
 </g>
 <g id="Layer_x0020_5">
  <metadata id="CorelCorpID_5Corel-Layer"/>
  <path class="fil2" d="M599 451c4,-10 8,-11 22,-2 15,11 15,15 13,20l-25 62c-1,4 -3,8 -4,11 48,39 122,39 150,-26l16 -37c9,-21 36,10 36,18l-20 51c41,19 96,28 131,15 2,-26 -5,-62 -32,-115l52 -71c40,91 45,140 28,184l1 0c-8,23 -18,40 -30,53l-2 4 -1 0c-54,59 -136,22 -177,-12 -21,26 -49,45 -86,44 -36,-1 -72,-15 -98,-49 -28,37 -65,49 -130,49l0 0c-20,0 -40,-20 -40,-41 1,-21 20,-40 41,-40 66,0 107,-12 138,-81l17 -37z"/>
 </g>
</svg>
