<?xml version="1.0" encoding="UTF-8"?>
<!DOCTYPE svg PUBLIC "-//W3C//DTD SVG 1.0//EN" "http://www.w3.org/TR/2001/REC-SVG-20010904/DTD/svg10.dtd">
<!-- Creator: CorelDRAW -->
<svg xmlns="http://www.w3.org/2000/svg" xml:space="preserve" width="1300px" height="1300px" version="1.0" style="shape-rendering:geometricPrecision; text-rendering:geometricPrecision; image-rendering:optimizeQuality; fill-rule:evenodd; clip-rule:evenodd"
viewBox="0 0 1300 1056"
 xmlns:xlink="http://www.w3.org/1999/xlink">
 <defs>
  <style type="text/css">
   <![CDATA[
    .fil1 {fill:#660066;fill-opacity:0.549020}
    .fil2 {fill:#663333;fill-opacity:0.549020}
    .fil0 {fill:#CC6633}
   ]]>
  </style>
 </defs>
 <g id="_100:master" visibility="hidden">
  <metadata id="CorelCorpID_0Corel-Layer"/>
  <path class="fil0" d="M376 650l70 0 0 -81 -70 0c-20,0 -40,19 -40,40 -1,21 20,41 40,41z"/>
  <path class="fil1" d="M650 569l0 81c49,0 81,-20 102,-43 14,14 49,43 104,43 52,0 100,-54 113,-111 5,-15 7,-32 6,-51 0,0 0,0 0,-1l0 0c-2,-34 -14,-74 -45,-120l-39 79c25,38 35,70 37,98 -20,13 -41,25 -71,25 -29,-1 -50,-12 -70,-25 -11,-7 5,-61 11,-87l-34 -7c-17,83 -31,119 -114,119z"/>
  <path class="fil1" d="M651 650l1 -81c-30,-1 -51,-12 -71,-25 -11,-7 6,-61 11,-87l-33 -7c-18,83 -31,119 -115,119l0 81c49,0 81,-20 102,-43 14,14 49,43 105,43z"/>
 </g>
 <g id="Layer_x0020_1" visibility="hidden">
  <metadata id="CorelCorpID_1Corel-Layer"/>
  <path class="fil1" d="M786 582l27 -125 -33 -7 -11 45c-10,41 -21,73 -73,74 -31,0 -60,-15 -77,-53l-18 85c24,33 55,49 93,49 39,0 83,-23 92,-68z"/>
  <path class="fil1" d="M858 569l-1 81c52,0 99,-54 113,-111 4,-15 6,-32 5,-51 0,0 0,0 0,-1l0 0c-1,-34 -14,-74 -45,-120l-38 79c25,38 35,70 36,98 -19,13 -41,25 -70,25z"/>
  <path class="fil1" d="M857 650l1 -81c-30,0 -60,-15 -77,-53l-17 85c23,33 55,49 93,49z"/>
  <path class="fil0" d="M483 650l0 -81c-21,0 -40,19 -41,40 0,21 20,41 41,41z"/>
  <path class="fil2" d="M482 569l0 81 24 0c47,0 110,-34 118,-68l27 -125 -34 -7 -11 45c-19,80 -80,74 -124,74z"/>
 </g>
 <g id="Layer_x0020_2">
  <metadata id="CorelCorpID_2Corel-Layer"/>
  <path class="fil1" d="M794 547l121 46c2,-36 -6,-79 -26,-120l48 -74c45,91 49,162 11,222 -21,36 -48,53 -72,43l-108 -46c-19,21 -48,32 -74,32 -35,0 -64,-13 -87,-41 -23,23 -66,41 -101,41l-24 0 0 0c-20,0 -40,-20 -40,-41 1,-21 20,-40 41,-40l0 0c43,0 104,6 123,-74l11 -45 34 7 -18 82c17,21 40,30 63,30 52,-1 63,-33 73,-74l11 -45 33 7 -19 90z"/>
 </g>
</svg>
