<?xml version="1.0" encoding="UTF-8"?>
<!DOCTYPE svg PUBLIC "-//W3C//DTD SVG 1.0//EN" "http://www.w3.org/TR/2001/REC-SVG-20010904/DTD/svg10.dtd">
<!-- Creator: CorelDRAW -->
<svg xmlns="http://www.w3.org/2000/svg" xml:space="preserve" width="1300px" height="1300px" version="1.0" style="shape-rendering:geometricPrecision; text-rendering:geometricPrecision; image-rendering:optimizeQuality; fill-rule:evenodd; clip-rule:evenodd"
viewBox="0 0 1300 1056"
 xmlns:xlink="http://www.w3.org/1999/xlink">
 <defs>
  <style type="text/css">
   <![CDATA[
    .fil4 {fill:#00CCFF;fill-opacity:0.501961}
    .fil5 {fill:red;fill-opacity:0.501961}
    .fil3 {fill:#FF6600;fill-opacity:0.501961}
    .fil1 {fill:#660066;fill-opacity:0.549020}
    .fil2 {fill:#663333;fill-opacity:0.549020}
    .fil0 {fill:#CC6633}
   ]]>
  </style>
 </defs>
 <g id="_100:master" visibility="hidden">
  <metadata id="CorelCorpID_0Corel-Layer"/>
  <path class="fil0" d="M423 650l25 0 0 -81 -25 0c-20,0 -40,19 -40,40 0,21 20,41 40,41z"/>
  <path class="fil1" d="M957 607l-14 -70c-17,19 -39,32 -88,32l-1 81c48,0 82,-20 103,-43z"/>
  <path class="fil1" d="M854 650l2 -81c-28,-1 -62,-19 -69,-25 -10,-7 6,-61 12,-87l-34 -7c-17,83 -31,119 -114,119l0 81c49,0 81,-20 102,-43 14,14 47,42 101,43z"/>
  <path class="fil1" d="M651 650l2 -81c-29,0 -62,-19 -69,-25 -11,-7 6,-61 11,-87l-33 -7c-17,83 -31,119 -114,119l0 81c48,0 80,-20 101,-43 14,14 48,42 102,43z"/>
  <path class="fil1" d="M1061 650l0 -81 -2 0c-65,0 -116,-32 -123,-154l-27 25c0,118 36,210 150,210l2 0z"/>
 </g>
 <g id="Layer_x0020_1" visibility="hidden">
  <metadata id="CorelCorpID_1Corel-Layer"/>
  <path class="fil0" d="M491 650l0 -81c-21,0 -40,19 -41,40 0,21 20,41 41,41z"/>
  <path class="fil1" d="M801 553l15 -70 -34 -7 -5 19c-27,100 -117,96 -150,21l-18 85c58,82 167,68 192,-48z"/>
  <path class="fil2" d="M491 569l-1 81 24 0c48,0 111,-34 118,-68l27 -125 -34 -7 -10 45c-20,80 -81,74 -124,74z"/>
 </g>
 <g id="Layer_x0020_2" visibility="hidden">
  <metadata id="CorelCorpID_2Corel-Layer"/>
  <path class="fil3" d="M975 434l-33 26 0 44c1,97 33,146 121,146l42 0 0 -81 -42 0c-74,0 -88,-32 -88,-99l0 -36z"/>
  <path class="fil0" d="M500 650l0 -81c-20,0 -40,19 -40,40 -1,21 20,41 40,41z"/>
  <path class="fil2" d="M780 479l0 38c0,52 -44,52 -71,52 -46,0 -62,-10 -75,-33l-17 49c10,35 33,65 92,65 81,0 103,-33 103,-133l0 -38c0,-10 -32,-10 -32,0z"/>
  <path class="fil2" d="M529 569l-29 0 0 81 22 0c82,0 128,-33 128,-133l0 -38c0,-10 -32,-10 -32,0l0 38c0,52 -62,52 -89,52z"/>
  <path class="fil2" d="M975 517l-32 0c0,52 -44,52 -72,52 -46,0 -62,-10 -75,-33l-16 49c10,35 33,65 91,65 82,0 104,-33 104,-133z"/>
 </g>
 <g id="Layer_x0020_3" visibility="hidden">
  <metadata id="CorelCorpID_3Corel-Layer"/>
  <path class="fil4" d="M731 569l0 81c44,0 70,-27 82,-49 7,15 31,49 81,49l0 -81c-39,0 -65,-27 -65,-65l0 -25c0,-10 -33,-10 -33,0l0 25c0,50 -40,65 -65,65z"/>
  <path class="fil4" d="M894 569l0 81c44,0 69,-27 81,-49 19,39 60,49 114,49l0 -81c-47,0 -98,-2 -98,-65l0 -41c0,-11 -32,-11 -32,0l0 41c0,59 -49,65 -65,65z"/>
  <path class="fil4" d="M635 601c7,15 31,49 81,49l0 -81c-38,0 -65,-27 -65,-65l0 -25c0,-10 -33,-10 -33,0l0 25c0,60 -48,65 -97,65l-32 0 0 81 32 0c46,0 90,-5 114,-49z"/>
  <path class="fil0" d="M489 650l0 -81c-20,0 -40,19 -40,40 -1,21 20,41 40,41z"/>
  <polygon class="fil0" points="716,569 716,650 731,650 731,569 "/>
 </g>
 <g id="Layer_x0020_4" visibility="hidden">
  <metadata id="CorelCorpID_4Corel-Layer"/>
  <path class="fil0" d="M471 650l0 -81c-20,0 -40,19 -40,40 0,21 20,41 40,41z"/>
  <path class="fil4" d="M622 552l-32 65c48,23 79,34 109,33 66,-2 93,-54 98,-78l20 -101 -31 6 -11 44c-7,27 -32,48 -70,48 -23,-1 -47,-4 -83,-17z"/>
  <path class="fil4" d="M471 569l0 81 81 0c67,0 94,-54 99,-78l20 -101 -31 6 -11 44c-7,27 -32,47 -71,48l-87 0z"/>
  <path class="fil4" d="M967 572l-21 -51c-7,27 -32,48 -71,48 -22,-1 -47,-4 -82,-17l-33 65c49,23 80,34 109,33 67,-2 94,-54 98,-78z"/>
  <path class="fil4" d="M961 432l-37 23c10,109 22,195 141,195l24 0 0 -81 -25 0c-83,0 -95,-73 -103,-137z"/>
 </g>
 <g id="Layer_x0020_5" visibility="hidden">
  <metadata id="CorelCorpID_5Corel-Layer"/>
  <path class="fil0" d="M471 650l0 -81c-20,0 -40,19 -40,40 0,21 20,41 40,41z"/>
  <path class="fil4" d="M688 569l1 81c88,0 108,-69 123,-145l-32 6c-12,49 -43,58 -92,58z"/>
  <path class="fil4" d="M518 569l-47 0 0 81 47 0c87,0 107,-69 123,-145l-32 6c-12,49 -43,58 -91,58z"/>
  <path class="fil5" d="M688 569l6 81c-103,0 -109,-81 -99,-115l20 -65 39 -7 -15 52c-11,34 6,54 49,54z"/>
  <path class="fil4" d="M942 439l-32 32c0,81 17,179 130,179l27 0 0 -81 -27 0c-74,0 -95,-55 -98,-130z"/>
  <path class="fil4" d="M964 573l-25 -34c-16,24 -43,30 -80,30l1 81c59,0 88,-32 104,-77z"/>
  <path class="fil5" d="M859 569l6 81c-104,0 -110,-81 -100,-115l20 -65 40 -7 -16 52c-10,34 7,54 50,54z"/>
 </g>
 <g id="Layer_x0020_6">
  <metadata id="CorelCorpID_6Corel-Layer"/>
  <path class="fil4" d="M967 439l0 32c0,73 20,98 107,98l0 81c-62,0 -98,-18 -118,-44 -20,26 -46,44 -84,44 -37,0 -66,-16 -80,-41 -18,24 -41,41 -66,41 -37,0 -66,-16 -80,-41 -24,27 -59,41 -110,41l-16 0c-20,0 -41,-20 -40,-41 0,-21 20,-40 40,-40 44,0 116,2 126,-55l1 0 9 -43 33 9 -8 43c-5,25 2,46 56,46 37,-1 48,-20 56,-54l9 -44 33 9 -9 50c-3,22 8,39 57,39 20,-1 39,-7 52,-17 -5,-27 -4,-54 -4,-81l36 -32z"/>
 </g>
</svg>
