<?xml version="1.0" encoding="UTF-8"?>
<!DOCTYPE svg PUBLIC "-//W3C//DTD SVG 1.0//EN" "http://www.w3.org/TR/2001/REC-SVG-20010904/DTD/svg10.dtd">
<!-- Creator: CorelDRAW -->
<svg xmlns="http://www.w3.org/2000/svg" xml:space="preserve" width="1300px" height="1300px" version="1.0" style="shape-rendering:geometricPrecision; text-rendering:geometricPrecision; image-rendering:optimizeQuality; fill-rule:evenodd; clip-rule:evenodd"
viewBox="0 0 1300 1056"
 xmlns:xlink="http://www.w3.org/1999/xlink">
 <defs>
  <style type="text/css">
   <![CDATA[
    .fil0 {fill:black}
   ]]>
  </style>
 </defs>
 <g id="_100:master">
  <metadata id="CorelCorpID_0Corel-Layer"/>
  <path class="fil0" d="M657 634c0,-10 3,-19 8,-25 106,-162 193,-324 263,-487 4,-10 11,-16 20,-16 14,0 22,8 22,24l0 3c-23,64 -61,146 -113,248 -53,102 -105,185 -157,249 -11,13 -21,20 -29,20 -9,0 -14,-6 -14,-16l0 0zm-12 -417c0,-29 23,-52 52,-52 64,0 68,104 2,104 -30,0 -54,-23 -54,-52l0 0zm229 332c0,-29 22,-52 51,-52 65,0 68,104 2,104 -30,0 -53,-23 -53,-52l0 0z"/>
 </g>
</svg>
