<?xml version="1.0" encoding="UTF-8"?>
<!DOCTYPE svg PUBLIC "-//W3C//DTD SVG 1.0//EN" "http://www.w3.org/TR/2001/REC-SVG-20010904/DTD/svg10.dtd">
<!-- Creator: CorelDRAW -->
<svg xmlns="http://www.w3.org/2000/svg" xml:space="preserve" width="1300px" height="1300px" version="1.0" style="shape-rendering:geometricPrecision; text-rendering:geometricPrecision; image-rendering:optimizeQuality; fill-rule:evenodd; clip-rule:evenodd"
viewBox="0 0 1300 1056"
 xmlns:xlink="http://www.w3.org/1999/xlink">
 <defs>
  <style type="text/css">
   <![CDATA[
    .fil5 {fill:#00CCFF;fill-opacity:0.501961}
    .fil6 {fill:red;fill-opacity:0.501961}
    .fil4 {fill:#FF99CC;fill-opacity:0.501961}
    .fil1 {fill:#660066;fill-opacity:0.549020}
    .fil2 {fill:#663333;fill-opacity:0.549020}
    .fil3 {fill:#FF6600;fill-opacity:0.549020}
    .fil0 {fill:#CC6633}
   ]]>
  </style>
 </defs>
 <g id="_100:master" visibility="hidden">
  <metadata id="CorelCorpID_0Corel-Layer"/>
  <path class="fil0" d="M376 650l70 0 0 -81 -70 0c-20,0 -40,19 -40,40 -1,21 20,41 40,41z"/>
  <path class="fil1" d="M650 569l0 81c49,0 81,-20 102,-43 14,14 49,43 104,43 52,0 100,-54 113,-111 5,-15 7,-32 6,-51 0,0 0,0 0,-1l0 0c-2,-34 -14,-74 -45,-120l-39 79c25,38 35,70 37,98 -20,13 -41,25 -71,25 -29,-1 -50,-12 -70,-25 -11,-7 5,-61 11,-87l-34 -7c-17,83 -31,119 -114,119z"/>
  <path class="fil1" d="M651 650l1 -81c-30,-1 -51,-12 -71,-25 -11,-7 6,-61 11,-87l-33 -7c-18,83 -31,119 -115,119l0 81c49,0 81,-20 102,-43 14,14 49,43 105,43z"/>
 </g>
 <g id="Layer_x0020_1" visibility="hidden">
  <metadata id="CorelCorpID_1Corel-Layer"/>
  <path class="fil1" d="M786 582l27 -125 -33 -7 -11 45c-10,41 -21,73 -73,74 -31,0 -60,-15 -77,-53l-18 85c24,33 55,49 93,49 39,0 83,-23 92,-68z"/>
  <path class="fil1" d="M858 569l-1 81c52,0 99,-54 113,-111 4,-15 6,-32 5,-51 0,0 0,0 0,-1l0 0c-1,-34 -14,-74 -45,-120l-38 79c25,38 35,70 36,98 -19,13 -41,25 -70,25z"/>
  <path class="fil1" d="M857 650l1 -81c-30,0 -60,-15 -77,-53l-17 85c23,33 55,49 93,49z"/>
  <path class="fil0" d="M483 650l0 -81c-21,0 -40,19 -41,40 0,21 20,41 41,41z"/>
  <path class="fil2" d="M482 569l0 81 24 0c47,0 110,-34 118,-68l27 -125 -34 -7 -11 45c-19,80 -80,74 -124,74z"/>
 </g>
 <g id="Layer_x0020_2" visibility="hidden">
  <metadata id="CorelCorpID_2Corel-Layer"/>
  <path class="fil1" d="M786 582l27 -125 -33 -7 -11 45c-10,41 -21,73 -73,74 -31,0 -60,-15 -77,-53l-18 85c24,33 55,49 93,49 39,0 83,-23 92,-68z"/>
  <path class="fil1" d="M959 600l-40 -5 -135 -52 -24 72 116 49c28,11 61,-14 83,-64z"/>
  <path class="fil0" d="M483 650l0 -81c-21,0 -40,19 -41,40 0,21 20,41 41,41z"/>
  <path class="fil2" d="M482 569l0 81 24 0c47,0 110,-34 118,-68l27 -125 -34 -7 -11 45c-19,80 -80,74 -124,74z"/>
  <path class="fil1" d="M935 640l-24 -14c10,-41 4,-99 -22,-153l48 -74c50,101 49,177 -2,241z"/>
 </g>
 <g id="Layer_x0020_5" visibility="hidden">
  <metadata id="CorelCorpID_3Corel-Layer"/>
  <path class="fil2" d="M666 472c-37,83 -55,96 -158,96l0 82c95,0 128,-26 166,-120l19 -44 -27 -14z"/>
  <path class="fil0" d="M509 650l0 -81c-21,0 -41,19 -41,40 0,21 20,41 41,41z"/>
  <path class="fil3" d="M815 486l-25 57c-27,61 -79,39 -139,-4l-32 63c91,55 152,99 202,-43l21 -59 -27 -14z"/>
  <polygon class="fil1" points="942,601 926,666 788,617 804,552 "/>
  <path class="fil3" d="M926 666l-19 -16c40,-76 18,-124 -9,-170l36 -73c57,72 42,194 -8,259z"/>
 </g>
 <g id="Layer_x0020_7" visibility="hidden">
  <metadata id="CorelCorpID_4Corel-Layer"/>
  <path class="fil0" d="M467 650l0 -81c-20,0 -40,19 -40,40 0,21 20,41 40,41z"/>
  <path class="fil3" d="M923 619l-4 -32c40,-18 2,-82 -29,-123l36 -73c33,48 49,80 49,131 0,39 -4,59 -52,97z"/>
  <path class="fil2" d="M764 479l0 38c0,52 -62,52 -89,52 -35,0 -58,-6 -90,-33l-33 49c17,16 56,65 116,65 82,0 128,-33 128,-133l0 -38c0,-10 -32,-10 -32,0z"/>
  <path class="fil3" d="M969 566l6 -55c-33,41 -48,58 -121,57 -37,0 -70,-14 -82,-48l-29 55c18,55 72,75 117,75 54,0 82,-16 109,-84z"/>
  <path class="fil2" d="M496 569l-29 0 0 81 23 0c81,0 128,-33 128,-133l0 -38c0,-10 -33,-10 -33,0l0 38c0,52 -61,52 -89,52z"/>
 </g>
 <g id="Layer_x0020_8" visibility="hidden">
  <metadata id="CorelCorpID_5Corel-Layer"/>
  <path class="fil4" d="M642 514l10 -43 -31 -11 -9 39c-15,63 -63,70 -108,70l-24 0 0 81 19 0c112,0 125,-57 143,-136z"/>
  <path class="fil0" d="M480 650l0 -81c-20,0 -40,19 -40,40 0,21 20,41 40,41z"/>
  <path class="fil3" d="M925 547c-1,-25 -11,-56 -21,-82l54 -60c19,55 18,108 12,140 -11,56 -29,159 -211,69l33 -65c85,36 134,32 133,-2z"/>
  <path class="fil5" d="M617 536l-32 65c181,119 196,-2 216,-93l8 -37 -30 -11 -10 42c-14,61 -47,95 -152,34z"/>
 </g>
 <g id="Layer_x0020_9" visibility="hidden">
  <metadata id="CorelCorpID_6Corel-Layer"/>
  <path class="fil0" d="M512 650l0 -81c-21,0 -40,19 -41,40 0,21 20,41 41,41z"/>
  <path class="fil6" d="M890 618c46,-35 34,-67 27,-99l-11 -54 54 -61 11 54c15,70 -12,159 -81,160z"/>
  <path class="fil6" d="M578 650c-44,0 -41,0 -68,0l0 -81 76 0c32,0 52,-9 65,-20 16,-12 23,-28 29,-38 0,25 -6,50 -17,72 -19,38 -51,67 -85,67z"/>
  <path class="fil6" d="M872 650c-61,0 -100,-43 -87,-101l19 -86 31 17 -8 43c-5,25 2,46 56,46 37,-1 57,-12 70,-26 10,-11 15,-23 21,-32 0,66 -49,139 -102,139z"/>
  <path class="fil6" d="M726 650c-61,0 -100,-43 -87,-101l19 -86 31 17 -8 43c-5,25 2,46 56,46 37,-1 57,-12 70,-26 10,-11 15,-23 21,-32 0,66 -49,139 -102,139z"/>
 </g>
 <g id="Layer_x0020_10">
  <metadata id="CorelCorpID_7Corel-Layer"/>
  <path class="fil6" d="M924 562c0,-14 -4,-29 -7,-43l-11 -54 54 -61 11 54c4,18 5,37 3,56 -1,65 -49,136 -102,136 -37,0 -66,-16 -80,-41 -18,24 -41,41 -66,41 -37,0 -66,-16 -80,-41 -24,27 -59,41 -110,41l-16 0c-20,0 -41,-20 -40,-41 0,-21 20,-40 40,-40 44,0 116,2 126,-55l1 0 9 -43 33 9 -8 43c-5,25 2,46 56,46 37,-1 48,-20 55,-53l10 -45 33 9 -6 32 0 0 -3 18c-3,22 8,39 57,39 17,-1 30,-3 41,-7z"/>
 </g>
</svg>
