<?xml version="1.0" encoding="UTF-8"?>
<!DOCTYPE svg PUBLIC "-//W3C//DTD SVG 1.0//EN" "http://www.w3.org/TR/2001/REC-SVG-20010904/DTD/svg10.dtd">
<!-- Creator: CorelDRAW -->
<svg xmlns="http://www.w3.org/2000/svg" xml:space="preserve" width="1300px" height="1300px" version="1.0" style="shape-rendering:geometricPrecision; text-rendering:geometricPrecision; image-rendering:optimizeQuality; fill-rule:evenodd; clip-rule:evenodd"
viewBox="0 0 1300 1056"
 xmlns:xlink="http://www.w3.org/1999/xlink">
 <defs>
  <style type="text/css">
   <![CDATA[
    .fil1 {fill:#660066;fill-opacity:0.549020}
    .fil0 {fill:#CC6633}
   ]]>
  </style>
 </defs>
 <g id="_100:master" visibility="hidden">
  <metadata id="CorelCorpID_0Corel-Layer"/>
  <path class="fil0" d="M423 650l25 0 0 -81 -25 0c-20,0 -40,19 -40,40 0,21 20,41 40,41z"/>
  <path class="fil1" d="M957 607l-14 -70c-17,19 -39,32 -88,32l-1 81c48,0 82,-20 103,-43z"/>
  <path class="fil1" d="M854 650l2 -81c-28,-1 -62,-19 -69,-25 -10,-7 6,-61 12,-87l-34 -7c-17,83 -31,119 -114,119l0 81c49,0 81,-20 102,-43 14,14 47,42 101,43z"/>
  <path class="fil1" d="M651 650l2 -81c-29,0 -62,-19 -69,-25 -11,-7 6,-61 11,-87l-33 -7c-17,83 -31,119 -114,119l0 81c48,0 80,-20 101,-43 14,14 48,42 102,43z"/>
  <path class="fil1" d="M1061 650l0 -81 -2 0c-65,0 -116,-32 -123,-154l-27 25c0,118 36,210 150,210l2 0z"/>
 </g>
 <g id="Layer_x0020_1">
  <metadata id="CorelCorpID_1Corel-Layer"/>
  <path class="fil0" d="M491 569c43,0 104,6 124,-74l10 -45 34 7 -18 82c17,21 40,30 63,30 52,-1 63,-33 73,-74l11 -45 33 7 -20 93 73 28c44,16 56,-9 64,-42l21 -86 33 7 -17 77c31,31 83,35 110,35l0 81c-36,0 -91,-7 -125,-45 -11,44 -40,77 -113,47l-73 -31c-19,19 -47,29 -72,29 -35,0 -64,-13 -87,-41 -23,23 -66,41 -101,41l-24 0 0 0c-20,0 -40,-20 -40,-41 1,-21 20,-40 41,-40l0 0z"/>
 </g>
</svg>
