<?xml version="1.0" encoding="UTF-8"?>
<!DOCTYPE svg PUBLIC "-//W3C//DTD SVG 1.0//EN" "http://www.w3.org/TR/2001/REC-SVG-20010904/DTD/svg10.dtd">
<!-- Creator: CorelDRAW -->
<svg xmlns="http://www.w3.org/2000/svg" xml:space="preserve" width="1300px" height="1300px" version="1.0" style="shape-rendering:geometricPrecision; text-rendering:geometricPrecision; image-rendering:optimizeQuality; fill-rule:evenodd; clip-rule:evenodd"
viewBox="0 0 1300 1056"
 xmlns:xlink="http://www.w3.org/1999/xlink">
 <defs>
  <style type="text/css">
   <![CDATA[
    .fil4 {fill:#00CCFF;fill-opacity:0.501961}
    .fil3 {fill:#999933;fill-opacity:0.501961}
    .fil0 {fill:#660066;fill-opacity:0.549020}
    .fil5 {fill:#663333;fill-opacity:0.549020}
    .fil2 {fill:red;fill-opacity:0.549020}
    .fil1 {fill:#FF9966}
   ]]>
  </style>
 </defs>
 <g id="_100:master" visibility="hidden">
  <metadata id="CorelCorpID_0Corel-Layer"/>
  <path class="fil0" d="M570 476l17 125c19,29 75,49 112,49 38,0 82,-23 92,-68l27 -125 -34 -7 -10 45c-10,41 -21,73 -74,74 -57,0 -104,-46 -130,-93z"/>
  <path class="fil1" d="M613 654c1,-18 8,-85 -57,-207l-39 80c55,103 56,177 50,188 -96,109 -434,129 -322,-169 5,-14 -26,-25 -32,-11 -181,440 400,402 400,119z"/>
  <path class="fil2" d="M874 578l-90 -35 -24 72 87 37c75,31 104,-5 113,-50l32 -145 -33 -7 -21 86c-8,33 -20,58 -64,42z"/>
  <path class="fil3" d="M965 522l-28 45c26,72 103,83 148,83l0 -81c-31,0 -92,-6 -120,-47z"/>
 </g>
 <g id="Layer_x0020_2" visibility="hidden">
  <metadata id="CorelCorpID_1Corel-Layer"/>
  <path class="fil4" d="M623 505l-32 64c26,65 78,82 108,81 66,-2 93,-54 98,-78l20 -101 -31 6 -11 44c-7,27 -32,47 -70,48 -35,0 -64,-17 -82,-64z"/>
  <path class="fil5" d="M286 542l23 10c-70,169 19,228 119,228 79,0 164,-36 184,-85 5,-13 3,-63 -49,-152l38 -80c35,59 53,118 52,171 -3,150 -121,227 -229,227 -132,0 -236,-104 -138,-319z"/>
  <path class="fil4" d="M967 572l-21 -51c-7,27 -32,48 -71,48 -22,-1 -47,-4 -82,-17l-33 65c49,23 80,34 109,33 67,-2 94,-54 98,-78z"/>
  <path class="fil4" d="M961 432l-37 23c10,109 22,195 141,195l24 0 0 -81 -25 0c-83,0 -95,-73 -103,-137z"/>
 </g>
 <g id="Layer_x0020_3">
  <metadata id="CorelCorpID_2Corel-Layer"/>
  <path class="fil4" d="M967 439l0 32c0,73 20,98 107,98l0 81c-62,0 -98,-18 -118,-44 -20,26 -46,44 -84,44 -37,0 -66,-16 -80,-41 -18,24 -41,41 -66,41 -18,0 -33,-4 -45,-10 0,303 -505,306 -356,-79l25 8c-91,259 231,260 289,98 -3,-55 -31,-101 -51,-139l36 -73c10,18 18,34 26,51l0 0 0 1c4,8 7,15 10,22 17,33 36,40 77,40 37,-1 48,-20 56,-54l9 -44 33 9 -9 50c-3,22 8,39 57,39 20,-1 39,-7 52,-17 -5,-27 -4,-54 -4,-81l36 -32z"/>
 </g>
</svg>
