<?xml version="1.0" encoding="UTF-8"?>
<!DOCTYPE svg PUBLIC "-//W3C//DTD SVG 1.0//EN" "http://www.w3.org/TR/2001/REC-SVG-20010904/DTD/svg10.dtd">
<!-- Creator: CorelDRAW -->
<svg xmlns="http://www.w3.org/2000/svg" xml:space="preserve" width="1300px" height="1300px" version="1.0" style="shape-rendering:geometricPrecision; text-rendering:geometricPrecision; image-rendering:optimizeQuality; fill-rule:evenodd; clip-rule:evenodd"
viewBox="0 0 1300 1056"
 xmlns:xlink="http://www.w3.org/1999/xlink">
 <defs>
  <style type="text/css">
   <![CDATA[
    .fil0 {fill:#660066;fill-opacity:0.549020}
   ]]>
  </style>
 </defs>
 <g id="_100:master">
  <metadata id="CorelCorpID_0Corel-Layer"/>
  <path class="fil0" d="M614 625c0,14 -1,24 -1,29 0,283 -581,321 -400,-119 6,-14 37,-3 32,11 -112,298 226,278 322,169 6,-11 5,-85 -50,-188l39 -80c6,12 12,23 17,34 26,46 72,88 127,88 53,-1 64,-33 74,-74l10 -45 34 7 -20 92 76 29c44,16 56,-9 64,-42l21 -86 33 7 -17 77c31,31 83,35 110,35l0 81c-36,0 -91,-7 -125,-45 -11,44 -40,77 -113,47l-76 -32c-18,20 -46,30 -72,30 -26,0 -60,-9 -85,-25z"/>
 </g>
</svg>
