<?xml version="1.0" encoding="UTF-8"?>
<!DOCTYPE svg PUBLIC "-//W3C//DTD SVG 1.0//EN" "http://www.w3.org/TR/2001/REC-SVG-20010904/DTD/svg10.dtd">
<!-- Creator: CorelDRAW -->
<svg xmlns="http://www.w3.org/2000/svg" xml:space="preserve" width="1300px" height="1300px" version="1.0" style="shape-rendering:geometricPrecision; text-rendering:geometricPrecision; image-rendering:optimizeQuality; fill-rule:evenodd; clip-rule:evenodd"
viewBox="0 0 1300 1056"
 xmlns:xlink="http://www.w3.org/1999/xlink">
 <defs>
  <style type="text/css">
   <![CDATA[
    .fil2 {fill:#999933;fill-opacity:0.501961}
    .fil3 {fill:red;fill-opacity:0.501961}
    .fil1 {fill:red;fill-opacity:0.549020}
    .fil0 {fill:#CC6633}
   ]]>
  </style>
 </defs>
 <g id="_100:master" visibility="hidden">
  <metadata id="CorelCorpID_0Corel-Layer"/>
  <path class="fil0" d="M543 650l0 -81c-20,0 -40,19 -40,40 -1,21 20,41 40,41z"/>
  <path class="fil1" d="M603 582l-27 -13c84,-83 190,-244 308,-188 56,27 91,89 91,127l-45 55c-1,-29 -44,-86 -83,-105 -88,-45 -186,71 -244,124z"/>
  <path class="fil2" d="M608 650l-67 0 0 -81 68 0c91,0 307,-3 366,-62 0,28 -5,62 -22,82 -62,63 -253,61 -345,61z"/>
  <path class="fil3" d="M674 95l0 345c0,101 -93,164 -116,165l-4 -36c54,4 68,-77 67,-142l-4 -244c-1,-25 25,-66 47,-98l10 10z"/>
  <path class="fil2" d="M941 522l-27 45c26,72 102,83 147,83l0 -81c-30,0 -91,-6 -120,-47z"/>
 </g>
 <g id="Layer_x0020_1">
  <metadata id="CorelCorpID_1Corel-Layer"/>
  <path class="fil0" d="M624 569c49,-50 135,-130 208,-129 48,1 87,42 95,92 -48,24 -118,37 -199,37l-104 0zm-103 0l0 0 63 0c5,-6 10,-11 16,-17 9,-15 17,-37 16,-80 -2,-122 -14,-269 -17,-324l48 -67 6 3c3,68 18,222 16,354 0,15 -1,27 -2,39 56,-62 118,-120 183,-118 70,2 125,68 125,132l0 0 0 1c0,26 -6,47 -17,65 21,12 48,12 75,12l41 0 -1 81 -41 0c-47,0 -95,-16 -115,-49 -55,39 -137,49 -189,49l-207 0 0 0c-20,-1 -40,-20 -39,-41 0,-20 19,-39 39,-40z"/>
 </g>
</svg>
