<?xml version="1.0" encoding="UTF-8"?>
<!DOCTYPE svg PUBLIC "-//W3C//DTD SVG 1.0//EN" "http://www.w3.org/TR/2001/REC-SVG-20010904/DTD/svg10.dtd">
<!-- Creator: CorelDRAW -->
<svg xmlns="http://www.w3.org/2000/svg" xml:space="preserve" width="1300px" height="1300px" version="1.0" style="shape-rendering:geometricPrecision; text-rendering:geometricPrecision; image-rendering:optimizeQuality; fill-rule:evenodd; clip-rule:evenodd"
viewBox="0 0 1300 1056"
 xmlns:xlink="http://www.w3.org/1999/xlink">
 <defs>
  <style type="text/css">
   <![CDATA[
    .fil0 {fill:red;fill-opacity:0.549020}
   ]]>
  </style>
 </defs>
 <g id="_100:master">
  <metadata id="CorelCorpID_0Corel-Layer"/>
  <path class="fil0" d="M672 465c64,-65 135,-120 212,-84 56,27 91,89 91,127 0,12 -1,27 -4,41 30,17 68,20 90,20l0 81c-36,0 -92,-7 -126,-47 -93,56 -369,80 -453,16 -30,-37 -22,-137 6,-93 12,18 37,31 69,39 53,2 65,-74 64,-138l-4 -244c-1,-25 25,-66 47,-98l10 10 0 345c0,9 0,17 -2,25zm249 71c-14,-29 -45,-64 -74,-78 -83,-42 -176,59 -234,115 100,8 232,-11 308,-37z"/>
 </g>
</svg>
