<?xml version="1.0" encoding="UTF-8"?>
<!DOCTYPE svg PUBLIC "-//W3C//DTD SVG 1.0//EN" "http://www.w3.org/TR/2001/REC-SVG-20010904/DTD/svg10.dtd">
<!-- Creator: CorelDRAW -->
<svg xmlns="http://www.w3.org/2000/svg" xml:space="preserve" width="1300px" height="1300px" version="1.0" style="shape-rendering:geometricPrecision; text-rendering:geometricPrecision; image-rendering:optimizeQuality; fill-rule:evenodd; clip-rule:evenodd"
viewBox="0 0 1300 1056"
 xmlns:xlink="http://www.w3.org/1999/xlink">
 <defs>
  <style type="text/css">
   <![CDATA[
    .fil2 {fill:red;fill-opacity:0.501961}
    .fil1 {fill:#660066;fill-opacity:0.549020}
    .fil0 {fill:red;fill-opacity:0.549020}
    .fil3 {fill:#CC9933}
   ]]>
  </style>
 </defs>
 <g id="_100:master" visibility="hidden">
  <metadata id="CorelCorpID_0Corel-Layer"/>
  <path class="fil0" d="M831 448c-73,0 -155,86 -197,134l-28 -13c98,-119 179,-195 244,-203 97,-10 142,97 119,173l-41 5c-3,-50 -37,-96 -97,-96z"/>
  <path class="fil1" d="M928 544l41 -5c-16,70 -67,111 -136,111l-20 0 0 -81 20 0c43,0 74,-11 95,-25z"/>
  <path class="fil2" d="M699 86l0 262c0,29 -1,56 -1,80 -4,136 -92,167 -124,202l-10 -61c8,0 78,-4 79,-82 1,-80 -2,-163 -2,-196l0 -104c0,-33 12,-52 47,-106l11 5z"/>
  <path class="fil3" d="M813 650l0 -81 -285 0 -29 81 314 0z"/>
 </g>
 <g id="Layer_x0020_1">
  <metadata id="CorelCorpID_1Corel-Layer"/>
  <path class="fil0" d="M672 465c64,-65 135,-120 212,-84 56,27 91,89 91,127 0,27 -5,61 -22,81 -64,65 -380,99 -471,30 -30,-37 -22,-137 6,-93 12,18 37,31 69,39 53,2 65,-74 64,-138l-4 -244c-1,-25 25,-66 47,-98l10 10 0 345c0,9 0,17 -2,25zm249 71c-14,-29 -45,-64 -74,-78 -83,-42 -176,59 -234,115 100,8 232,-11 308,-37z"/>
 </g>
</svg>
