<?xml version="1.0" encoding="UTF-8"?>
<!DOCTYPE svg PUBLIC "-//W3C//DTD SVG 1.0//EN" "http://www.w3.org/TR/2001/REC-SVG-20010904/DTD/svg10.dtd">
<!-- Creator: CorelDRAW -->
<svg xmlns="http://www.w3.org/2000/svg" xml:space="preserve" width="1300px" height="1300px" version="1.0" style="shape-rendering:geometricPrecision; text-rendering:geometricPrecision; image-rendering:optimizeQuality; fill-rule:evenodd; clip-rule:evenodd"
viewBox="0 0 1300 1056"
 xmlns:xlink="http://www.w3.org/1999/xlink">
 <defs>
  <style type="text/css">
   <![CDATA[
    .fil0 {fill:#CC6633}
   ]]>
  </style>
 </defs>
 <g id="_100:master">
  <metadata id="CorelCorpID_0Corel-Layer"/>
  <path class="fil0" d="M616 569c47,-49 136,-144 208,-142 44,0 90,51 105,96 -56,28 -141,46 -218,46l-95 0zm-105 0l54 0 0 0c6,0 14,-5 22,-12 5,-5 10,-11 15,-17 12,-15 20,-34 20,-51l-15 -309c0,-11 1,-24 7,-35l30 -54c9,-15 22,-10 22,1l0 372c53,-62 112,-121 176,-119 70,2 132,82 133,146l0 0c0,26 -4,61 -22,82 -55,56 -151,77 -243,77l-199 0c-21,0 -41,-20 -41,-41 1,-21 20,-40 41,-40z"/>
 </g>
</svg>
