<?xml version="1.0" encoding="UTF-8"?>
<!DOCTYPE svg PUBLIC "-//W3C//DTD SVG 1.0//EN" "http://www.w3.org/TR/2001/REC-SVG-20010904/DTD/svg10.dtd">
<!-- Creator: CorelDRAW -->
<svg xmlns="http://www.w3.org/2000/svg" xml:space="preserve" width="1300px" height="1300px" version="1.0" style="shape-rendering:geometricPrecision; text-rendering:geometricPrecision; image-rendering:optimizeQuality; fill-rule:evenodd; clip-rule:evenodd"
viewBox="0 0 1300 1056"
 xmlns:xlink="http://www.w3.org/1999/xlink">
 <defs>
  <style type="text/css">
   <![CDATA[
    .fil0 {fill:red;fill-opacity:0.549020}
   ]]>
  </style>
 </defs>
 <g id="_100:master">
  <metadata id="CorelCorpID_0Corel-Layer"/>
  <path class="fil0" d="M587 557l5 -5c23,-27 29,-80 29,-125l-4 -244c-1,-25 25,-66 47,-98l10 10 0 345c0,9 0,17 -2,25 64,-65 135,-120 212,-84 55,27 91,89 91,126l0 0c0,28 -5,62 -22,82 -62,63 -253,61 -345,61l-67 0 0 0c-20,-1 -39,-20 -38,-41 0,-20 19,-39 38,-40l0 0 20 0c10,-1 19,-5 26,-12zm335 -20c-14,-29 -46,-65 -75,-79 -81,-41 -172,54 -230,111 75,0 219,-3 305,-32z"/>
 </g>
</svg>
