<?xml version="1.0" encoding="UTF-8"?>
<!DOCTYPE svg PUBLIC "-//W3C//DTD SVG 1.0//EN" "http://www.w3.org/TR/2001/REC-SVG-20010904/DTD/svg10.dtd">
<!-- Creator: CorelDRAW -->
<svg xmlns="http://www.w3.org/2000/svg" xml:space="preserve" width="1300px" height="1300px" version="1.0" style="shape-rendering:geometricPrecision; text-rendering:geometricPrecision; image-rendering:optimizeQuality; fill-rule:evenodd; clip-rule:evenodd"
viewBox="0 0 1300 1056"
 xmlns:xlink="http://www.w3.org/1999/xlink">
 <defs>
  <style type="text/css">
   <![CDATA[
    .fil2 {fill:#999933;fill-opacity:0.501961}
    .fil3 {fill:#9999FF;fill-opacity:0.501961}
    .fil1 {fill:red;fill-opacity:0.501961}
    .fil0 {fill:red;fill-opacity:0.549020}
   ]]>
  </style>
 </defs>
 <g id="_100:master" visibility="hidden">
  <metadata id="CorelCorpID_0Corel-Layer"/>
  <path class="fil0" d="M603 582l-27 -13c84,-83 190,-244 308,-188 56,27 91,89 91,127l-45 55c-1,-29 -44,-86 -83,-105 -88,-45 -186,71 -244,124z"/>
  <path class="fil1" d="M674 95l0 345c0,101 -93,164 -116,165l-2 -40c54,4 66,-73 65,-138l-4 -244c-1,-25 25,-66 47,-98l10 10z"/>
  <path class="fil2" d="M941 522l-27 45c26,72 102,83 147,83l0 -81c-30,0 -91,-6 -120,-47z"/>
  <path class="fil2" d="M975 508c0,27 -5,61 -22,81 -64,65 -380,99 -471,30 -30,-37 -22,-137 6,-93 58,91 430,38 487,-18z"/>
 </g>
 <g id="Layer_x0020_1">
  <metadata id="CorelCorpID_1Corel-Layer"/>
  <path class="fil3" d="M644 650l-10 0 -123 0c-43,0 -83,-81 -62,-81l132 0 3 0c5,-6 10,-11 16,-17 9,-15 17,-37 16,-80 -2,-122 -14,-269 -17,-324l48 -67 6 3c3,68 18,222 16,354 0,15 -1,27 -2,39 56,-62 118,-120 183,-118 70,2 125,68 125,132l0 0 0 1c0,26 -6,47 -17,65 21,12 48,12 75,12l41 0 -1 81 -41 0c-47,0 -95,-16 -115,-49 -55,39 -137,49 -189,49l-84 0zm-20 -81c35,0 70,0 104,0 81,0 151,-13 199,-37 -8,-50 -47,-91 -95,-92 -73,-1 -159,79 -208,129z"/>
 </g>
</svg>
