<?xml version="1.0" encoding="UTF-8"?>
<!DOCTYPE svg PUBLIC "-//W3C//DTD SVG 1.0//EN" "http://www.w3.org/TR/2001/REC-SVG-20010904/DTD/svg10.dtd">
<!-- Creator: CorelDRAW -->
<svg xmlns="http://www.w3.org/2000/svg" xml:space="preserve" width="1300px" height="1300px" version="1.0" style="shape-rendering:geometricPrecision; text-rendering:geometricPrecision; image-rendering:optimizeQuality; fill-rule:evenodd; clip-rule:evenodd"
viewBox="0 0 1300 1056"
 xmlns:xlink="http://www.w3.org/1999/xlink">
 <defs>
  <style type="text/css">
   <![CDATA[
    .fil2 {fill:#999933;fill-opacity:0.501961}
    .fil3 {fill:red;fill-opacity:0.501961}
    .fil1 {fill:red;fill-opacity:0.549020}
    .fil0 {fill:#CC6633}
   ]]>
  </style>
 </defs>
 <g id="_100:master" visibility="hidden">
  <metadata id="CorelCorpID_0Corel-Layer"/>
  <path class="fil0" d="M543 650l0 -81c-20,0 -40,19 -40,40 -1,21 20,41 40,41z"/>
  <path class="fil1" d="M603 582l-27 -13c84,-83 190,-244 308,-188 56,27 91,89 91,127l-45 55c-1,-29 -44,-86 -83,-105 -88,-45 -186,71 -244,124z"/>
  <path class="fil2" d="M608 650l-67 0 0 -81 68 0c91,0 307,-3 366,-62 0,28 -5,62 -22,82 -62,63 -253,61 -345,61z"/>
  <path class="fil3" d="M674 95l0 345c0,101 -93,164 -116,165l-4 -36c54,4 68,-77 67,-142l-4 -244c-1,-25 25,-66 47,-98l10 10z"/>
  <path class="fil2" d="M941 522l-27 45c26,72 102,83 147,83l0 -81c-30,0 -91,-6 -120,-47z"/>
 </g>
 <g id="Layer_x0020_1">
  <metadata id="CorelCorpID_1Corel-Layer"/>
  <path class="fil0" d="M616 569c47,-49 136,-144 208,-142 44,0 90,51 105,96 -56,28 -141,46 -218,46l-95 0zm-105 0l54 0 0 0c6,0 14,-5 22,-12 5,-5 10,-11 15,-17 12,-15 20,-34 20,-51l-15 -309c0,-11 1,-24 7,-35l30 -54c9,-15 22,-10 22,1l0 372c53,-62 112,-121 176,-119 70,2 132,82 133,146l0 0c0,18 -2,37 -7,54 28,18 65,24 99,24l0 81c-63,0 -110,-17 -137,-57 -56,41 -140,57 -220,57l-199 0c-21,0 -41,-20 -41,-41 1,-21 20,-40 41,-40z"/>
 </g>
</svg>
