<?xml version="1.0" encoding="UTF-8"?>
<!DOCTYPE svg PUBLIC "-//W3C//DTD SVG 1.0//EN" "http://www.w3.org/TR/2001/REC-SVG-20010904/DTD/svg10.dtd">
<!-- Creator: CorelDRAW -->
<svg xmlns="http://www.w3.org/2000/svg" xml:space="preserve" width="1300px" height="1300px" version="1.0" style="shape-rendering:geometricPrecision; text-rendering:geometricPrecision; image-rendering:optimizeQuality; fill-rule:evenodd; clip-rule:evenodd"
viewBox="0 0 1300 1056"
 xmlns:xlink="http://www.w3.org/1999/xlink">
 <defs>
  <style type="text/css">
   <![CDATA[
    .fil0 {fill:#CC6633}
   ]]>
  </style>
 </defs>
 <g id="_100:master">
  <metadata id="CorelCorpID_0Corel-Layer"/>
  <path class="fil0" d="M624 569c49,-50 135,-130 208,-129 48,1 87,42 95,92 -48,24 -118,37 -199,37l-104 0zm-103 0l0 0 63 0c5,-6 10,-11 16,-17 9,-15 17,-37 16,-80 -2,-122 -14,-269 -17,-324l48 -67 6 3c3,68 18,222 16,354 0,15 -1,27 -2,39 56,-62 118,-120 183,-118 70,2 125,68 125,132l0 0 0 1c-1,132 -163,158 -247,158l-207 0 0 0c-20,-1 -40,-20 -39,-41 0,-20 19,-39 39,-40z"/>
 </g>
</svg>
