<?xml version="1.0" encoding="UTF-8"?>
<!DOCTYPE svg PUBLIC "-//W3C//DTD SVG 1.0//EN" "http://www.w3.org/TR/2001/REC-SVG-20010904/DTD/svg10.dtd">
<!-- Creator: CorelDRAW -->
<svg xmlns="http://www.w3.org/2000/svg" xml:space="preserve" width="1300px" height="1300px" version="1.0" style="shape-rendering:geometricPrecision; text-rendering:geometricPrecision; image-rendering:optimizeQuality; fill-rule:evenodd; clip-rule:evenodd"
viewBox="0 0 1300 1056"
 xmlns:xlink="http://www.w3.org/1999/xlink">
 <defs>
  <style type="text/css">
   <![CDATA[
    .fil2 {fill:red;fill-opacity:0.501961}
    .fil1 {fill:#660066;fill-opacity:0.549020}
    .fil0 {fill:red;fill-opacity:0.549020}
    .fil3 {fill:#CC9933}
   ]]>
  </style>
 </defs>
 <g id="_100:master" visibility="hidden">
  <metadata id="CorelCorpID_0Corel-Layer"/>
  <path class="fil0" d="M831 448c-73,0 -155,86 -197,134l-28 -13c98,-119 179,-195 244,-203 97,-10 142,97 119,173l-41 5c-3,-50 -37,-96 -97,-96z"/>
  <path class="fil1" d="M928 544l41 -5c-16,70 -67,111 -136,111l-20 0 0 -81 20 0c43,0 74,-11 95,-25z"/>
  <path class="fil2" d="M699 86l0 262c0,29 -1,56 -1,80 -4,136 -92,167 -124,202l-10 -61c8,0 78,-4 79,-82 1,-80 -2,-163 -2,-196l0 -104c0,-33 12,-52 47,-106l11 5z"/>
  <path class="fil3" d="M813 650l0 -81 -285 0 -29 81 314 0z"/>
 </g>
 <g id="Layer_x0020_1">
  <metadata id="CorelCorpID_1Corel-Layer"/>
  <path class="fil3" d="M539 569c9,0 79,-4 80,-82 0,-80 -2,-163 -2,-196l0 -104c0,-33 12,-52 47,-106l10 5 0 262c0,29 0,56 -1,80 0,14 -1,27 -3,40 55,-61 103,-113 183,-114 79,0 139,94 116,185l0 0c-4,17 -10,32 -17,45l0 1 0 0c-25,41 -67,65 -119,65l-367 0 29 -81 44 0zm274 0l20 0c41,0 71,-10 92,-23 9,-44 -21,-111 -96,-113 -75,-1 -140,70 -207,136l191 0z"/>
 </g>
</svg>
