<?xml version="1.0" encoding="UTF-8"?>
<!DOCTYPE svg PUBLIC "-//W3C//DTD SVG 1.0//EN" "http://www.w3.org/TR/2001/REC-SVG-20010904/DTD/svg10.dtd">
<!-- Creator: CorelDRAW -->
<svg xmlns="http://www.w3.org/2000/svg" xml:space="preserve" width="1300px" height="1300px" version="1.0" style="shape-rendering:geometricPrecision; text-rendering:geometricPrecision; image-rendering:optimizeQuality; fill-rule:evenodd; clip-rule:evenodd"
viewBox="0 0 1300 1056"
 xmlns:xlink="http://www.w3.org/1999/xlink">
 <defs>
  <style type="text/css">
   <![CDATA[
    .fil2 {fill:#999933;fill-opacity:0.501961}
    .fil1 {fill:red;fill-opacity:0.501961}
    .fil0 {fill:red;fill-opacity:0.549020}
   ]]>
  </style>
 </defs>
 <g id="_100:master" visibility="hidden">
  <metadata id="CorelCorpID_0Corel-Layer"/>
  <path class="fil0" d="M603 582l-27 -13c84,-83 190,-244 308,-188 56,27 91,89 91,127l-45 55c-1,-29 -44,-86 -83,-105 -88,-45 -186,71 -244,124z"/>
  <path class="fil1" d="M674 95l0 345c0,101 -93,164 -116,165l-2 -40c54,4 66,-73 65,-138l-4 -244c-1,-25 25,-66 47,-98l10 10z"/>
  <path class="fil2" d="M941 522l-27 45c26,72 102,83 147,83l0 -81c-30,0 -91,-6 -120,-47z"/>
  <path class="fil2" d="M975 508c0,27 -5,61 -22,81 -64,65 -380,99 -471,30 -30,-37 -22,-137 6,-93 58,91 430,38 487,-18z"/>
 </g>
 <g id="Layer_x0020_1">
  <metadata id="CorelCorpID_1Corel-Layer"/>
  <path class="fil0" d="M587 557c5,-5 10,-11 15,-17 12,-15 20,-34 20,-51l-15 -309c0,-11 1,-24 7,-35l30 -54c9,-15 22,-10 22,1l0 372c53,-62 112,-121 176,-119 70,2 132,82 133,146l0 0c0,16 -1,37 -7,54 29,19 66,24 99,24l0 81c-62,0 -109,-17 -136,-57 -56,44 -141,69 -221,69 -273,3 -250,-104 -234,-140 10,-21 21,-1 27,5 17,18 42,31 71,39 4,-2 9,-5 13,-9zm343 -33c-15,-45 -61,-97 -106,-97 -75,-2 -169,101 -214,148 35,6 72,8 102,7 77,-2 162,-26 218,-58z"/>
 </g>
</svg>
