<?xml version="1.0" encoding="UTF-8"?>
<!DOCTYPE svg PUBLIC "-//W3C//DTD SVG 1.0//EN" "http://www.w3.org/TR/2001/REC-SVG-20010904/DTD/svg10.dtd">
<!-- Creator: CorelDRAW -->
<svg xmlns="http://www.w3.org/2000/svg" xml:space="preserve" width="1300px" height="1300px" version="1.0" style="shape-rendering:geometricPrecision; text-rendering:geometricPrecision; image-rendering:optimizeQuality; fill-rule:evenodd; clip-rule:evenodd"
viewBox="0 0 1300 1056"
 xmlns:xlink="http://www.w3.org/1999/xlink">
 <defs>
  <style type="text/css">
   <![CDATA[
    .fil10 {fill:#000066;fill-opacity:0.549020}
    .fil1 {fill:#660066;fill-opacity:0.549020}
    .fil2 {fill:#663300;fill-opacity:0.549020}
    .fil9 {fill:fuchsia;fill-opacity:0.549020}
    .fil6 {fill:#663333}
    .fil3 {fill:#666633}
    .fil0 {fill:#666666}
    .fil7 {fill:#996633}
    .fil4 {fill:#FF6633}
    .fil5 {fill:#FF6666}
    .fil8 {fill:#FFCC00}
   ]]>
  </style>
 </defs>
 <g id="_100:master" visibility="hidden">
  <metadata id="CorelCorpID_0Corel-Layer"/>
  <path class="fil0" d="M933 650l48 -16c-9,153 -133,260 -200,260 -33,0 -88,-14 -124,-27 -7,-7 -4,-24 8,-27 50,-2 62,1 113,-22 79,-34 158,-114 155,-168z"/>
  <polygon class="fil1" points="861,650 859,569 1048,569 1048,650 "/>
  <path class="fil1" d="M931 668l48 -12c16,-189 -52,-270 -118,-270 -66,0 -105,77 -113,150 -5,59 22,114 117,114l-1 -81c-34,0 -78,-7 -77,-27 1,-24 23,-76 69,-76 58,1 81,131 75,202z"/>
 </g>
 <g id="Layer_x0020_1" visibility="hidden">
  <metadata id="CorelCorpID_1Corel-Layer"/>
  <polygon class="fil1" points="833,650 831,569 1027,569 1027,650 "/>
  <path class="fil1" d="M837 569l-4 81c-63,-1 -120,-33 -81,-137l33 33c-8,16 18,22 52,23z"/>
  <path class="fil2" d="M929 683l47 -33c-1,-139 -51,-244 -127,-244 -50,0 -90,57 -108,148l37 15c10,-50 38,-82 66,-80 44,2 80,80 85,194z"/>
  <path class="fil3" d="M926 646l48 -22c19,107 -93,245 -149,245 -33,0 -83,-5 -119,-18 -7,-7 -4,-25 7,-28 75,10 239,-100 213,-177z"/>
 </g>
 <g id="Layer_x0020_2" visibility="hidden">
  <metadata id="CorelCorpID_2Corel-Layer"/>
  <path class="fil4" d="M928 612l48 -22c13,109 -71,263 -146,263 -32,0 -83,-6 -118,-18 -7,-7 -4,-25 7,-28 136,-3 226,-118 209,-195z"/>
  <path class="fil1" d="M854 569l-11 81c-65,-1 -112,-38 -74,-137l29 19c-14,27 17,37 56,37z"/>
  <path class="fil2" d="M922 673l54 -23c16,-227 -164,-365 -218,-96l28 15c46,-190 176,0 136,104z"/>
  <polygon class="fil1" points="842,650 847,569 1027,569 1027,650 "/>
 </g>
 <g id="Layer_x0020_3" visibility="hidden">
  <metadata id="CorelCorpID_3Corel-Layer"/>
  <path class="fil5" d="M928 612l48 -22c13,109 -71,263 -146,263 -32,0 -83,-6 -118,-18 -7,-7 -4,-25 7,-28 136,-3 226,-118 209,-195z"/>
  <path class="fil2" d="M862 390l-11 82c38,0 78,52 78,145l0 24c0,11 -3,22 -7,32l52 -23c1,-8 2,-16 1,-23l0 -20c-1,-116 -45,-217 -113,-217z"/>
  <path class="fil2" d="M851 472l11 -82c-108,0 -111,159 -111,164 -2,69 39,97 94,97l191 -1 0 -81 -187 0c-33,0 -61,-7 -62,-24 8,-36 36,-73 64,-73z"/>
 </g>
 <g id="Layer_x0020_4" visibility="hidden">
  <metadata id="CorelCorpID_4Corel-Layer"/>
  <path class="fil6" d="M929 646c1,-10 1,-20 -2,-30l48 -22c3,23 2,47 -2,71 -18,101 -108,196 -164,196 -33,0 -72,-14 -108,-26 -7,-7 -4,-25 8,-28 86,11 204,-69 220,-161z"/>
  <path class="fil2" d="M861 406l-10 82c75,0 86,139 72,185l52 -23c1,-8 1,-16 1,-23l0 -20c-1,-116 -46,-201 -115,-201z"/>
  <path class="fil2" d="M851 488l10 -82c-107,0 -103,143 -103,148 -2,69 36,96 88,96l190 0 0 -81 -185 0c-30,0 -55,-7 -57,-24 9,-36 28,-57 57,-57z"/>
 </g>
 <g id="Layer_x0020_5" visibility="hidden">
  <metadata id="CorelCorpID_5Corel-Layer"/>
  <polygon class="fil2" points="833,569 833,650 1037,650 1037,569 "/>
  <path class="fil7" d="M968 689l-47 42c20,-157 -44,-259 -94,-259 -24,0 -48,31 -52,50l-38 25c3,-69 42,-160 105,-160 100,0 153,198 126,302z"/>
  <path class="fil8" d="M833 569l0 81c-56,-1 -108,-43 -94,-124l36 -4c-8,29 20,47 58,47z"/>
  <path class="fil6" d="M928 646c1,-10 1,-20 -2,-30l48 -22c3,23 2,47 -2,71 -18,101 -108,196 -164,196 -33,0 -72,-14 -108,-26 -7,-7 -4,-25 8,-28 86,11 204,-69 220,-161z"/>
 </g>
 <g id="Layer_x0020_6" visibility="hidden">
  <metadata id="CorelCorpID_6Corel-Layer"/>
  <path class="fil1" d="M938 649l37 -31c1,123 -89,252 -182,235l-110 -20c-3,-16 5,-19 17,-20 85,-3 230,-67 238,-164z"/>
  <path class="fil8" d="M739 526l36 -4c-3,42 190,47 281,47l2 81c-129,0 -342,15 -319,-124z"/>
  <path class="fil1" d="M975 618l-54 81c46,-69 -36,-242 -84,-242 -24,0 -58,46 -62,65l-38 25c3,-69 45,-180 108,-176 98,6 130,193 130,247z"/>
 </g>
 <g id="Layer_x0020_7" visibility="hidden">
  <metadata id="CorelCorpID_7Corel-Layer"/>
  <path class="fil8" d="M755 538l37 -4c-5,42 71,35 97,35l134 0 2 81 -151 0c-33,0 -138,8 -119,-112z"/>
  <path class="fil9" d="M925 626l44 -60c31,120 -51,287 -166,287l-88 0c-5,-13 1,-27 16,-29 86,-12 167,-93 194,-198z"/>
  <path class="fil1" d="M976 625l-56 29c5,-95 -33,-161 -73,-164 -19,-1 -44,12 -55,44l-37 4c24,-98 62,-134 106,-132 55,3 115,72 115,219z"/>
 </g>
 <g id="Layer_x0020_8" visibility="hidden">
  <metadata id="CorelCorpID_8Corel-Layer"/>
  <polygon class="fil1" points="854,650 845,569 1056,569 1058,650 "/>
  <path class="fil10" d="M937 666l38 -35 -1 35c-2,83 -72,198 -156,209 -34,5 -110,-9 -136,-14l3 -31c38,0 103,-4 138,-26 48,-29 113,-96 114,-138z"/>
  <path class="fil1" d="M851 395c101,-1 136,151 124,265l-38 6c8,-56 -19,-187 -91,-189 -26,-1 -60,38 -66,65l-30 -28c10,-50 41,-118 101,-119z"/>
  <path class="fil1" d="M845 569l9 81c-87,0 -124,-40 -104,-136l30 6c-3,39 30,49 65,49z"/>
 </g>
 <g id="Layer_x0020_9" visibility="hidden">
  <metadata id="CorelCorpID_9Corel-Layer"/>
  <polygon class="fil1" points="836,650 840,569 1056,569 1058,650 "/>
  <path class="fil10" d="M937 650l38 0c-2,83 -72,197 -156,209 -34,4 -110,-9 -137,-14l3 -32c39,1 104,-4 138,-25 49,-29 113,-97 114,-138z"/>
  <path class="fil1" d="M975 654l-33 61c-8,-254 -156,-310 -163,-163l-37 -14c5,-199 233,-235 233,116z"/>
  <path class="fil1" d="M841 569l-5 81c-68,0 -97,-46 -94,-112l38 -17c-1,27 6,48 61,48z"/>
 </g>
 <g id="Layer_x0020_10">
  <metadata id="CorelCorpID_10Corel-Layer"/>
  <path class="fil1" d="M846 569l74 0c-11,-55 -29,-94 -60,-98 -40,-5 -65,26 -75,68 5,17 31,29 61,30zm126 0l68 0 0 81 -66 0c-1,17 -4,34 -7,51 -23,84 -85,140 -155,158 -34,9 -117,-38 -130,-50l10 -26c79,32 104,13 120,6 51,-21 102,-68 121,-122 0,-6 -1,-11 -2,-17l-85 0c-67,0 -101,-41 -97,-111 -1,-46 34,-149 111,-149 68,0 102,86 112,179z"/>
 </g>
</svg>
