<?xml version="1.0" encoding="UTF-8"?>
<!DOCTYPE svg PUBLIC "-//W3C//DTD SVG 1.0//EN" "http://www.w3.org/TR/2001/REC-SVG-20010904/DTD/svg10.dtd">
<!-- Creator: CorelDRAW -->
<svg xmlns="http://www.w3.org/2000/svg" xml:space="preserve" width="1300px" height="1300px" version="1.0" style="shape-rendering:geometricPrecision; text-rendering:geometricPrecision; image-rendering:optimizeQuality; fill-rule:evenodd; clip-rule:evenodd"
viewBox="0 0 1300 1056"
 xmlns:xlink="http://www.w3.org/1999/xlink">
 <defs>
  <style type="text/css">
   <![CDATA[
    .fil1 {fill:#660066;fill-opacity:0.549020}
    .fil2 {fill:#663300;fill-opacity:0.549020}
    .fil6 {fill:#663333}
    .fil3 {fill:#666633}
    .fil0 {fill:#666666}
    .fil4 {fill:#FF6633}
    .fil5 {fill:#FF6666}
   ]]>
  </style>
 </defs>
 <g id="_100:master" visibility="hidden">
  <metadata id="CorelCorpID_0Corel-Layer"/>
  <path class="fil0" d="M933 650l48 -16c-9,153 -133,260 -200,260 -33,0 -88,-14 -124,-27 -7,-7 -4,-24 8,-27 50,-2 62,1 113,-22 79,-34 158,-114 155,-168z"/>
  <path class="fil1" d="M861 650l-2 -81 189 0 0 81 -187 0z"/>
  <path class="fil1" d="M931 668l48 -12c16,-189 -52,-270 -118,-270 -66,0 -105,77 -113,150 -5,59 22,114 117,114l-1 -81c-34,0 -78,-7 -77,-27 1,-24 23,-76 69,-76 58,1 81,131 75,202z"/>
 </g>
 <g id="Layer_x0020_1" visibility="hidden">
  <metadata id="CorelCorpID_1Corel-Layer"/>
  <path class="fil1" d="M833 650l-2 -81 196 0 0 81 -194 0z"/>
  <path class="fil1" d="M837 569l-4 81c-63,-1 -120,-33 -81,-137l33 33c-8,16 18,22 52,23z"/>
  <path class="fil2" d="M929 683l47 -33c-1,-139 -51,-244 -127,-244 -50,0 -90,57 -108,148l37 15c10,-50 38,-82 66,-80 44,2 80,80 85,194z"/>
  <path class="fil3" d="M926 646l48 -22c19,107 -93,245 -149,245 -33,0 -83,-5 -119,-18 -7,-7 -4,-25 7,-28 75,10 239,-100 213,-177z"/>
 </g>
 <g id="Layer_x0020_2" visibility="hidden">
  <metadata id="CorelCorpID_2Corel-Layer"/>
  <path class="fil4" d="M928 612l48 -22c13,109 -71,263 -146,263 -32,0 -83,-6 -118,-18 -7,-7 -4,-25 7,-28 136,-3 226,-118 209,-195z"/>
  <path class="fil1" d="M854 569l-11 81c-65,-1 -112,-38 -74,-137l29 19c-14,27 17,37 56,37z"/>
  <path class="fil2" d="M922 673l54 -23c16,-227 -164,-365 -218,-96l28 15c46,-190 176,0 136,104z"/>
  <path class="fil1" d="M842 650l5 -81 180 0 0 81 -185 0z"/>
 </g>
 <g id="Layer_x0020_3" visibility="hidden">
  <metadata id="CorelCorpID_3Corel-Layer"/>
  <path class="fil5" d="M928 612l48 -22c13,109 -71,263 -146,263 -32,0 -83,-6 -118,-18 -7,-7 -4,-25 7,-28 136,-3 226,-118 209,-195z"/>
  <path class="fil2" d="M862 390l-11 82c38,0 78,52 78,145l0 24c0,11 -3,22 -7,32l52 -23c1,-8 2,-16 1,-23l0 -20c-1,-116 -45,-217 -113,-217z"/>
  <path class="fil2" d="M851 472l11 -82c-108,0 -111,159 -111,164 -2,69 39,97 94,97l191 -1 0 -81 -187 0c-33,0 -61,-7 -62,-24 8,-36 36,-73 64,-73z"/>
 </g>
 <g id="Layer_x0020_4" visibility="hidden">
  <metadata id="CorelCorpID_4Corel-Layer"/>
  <path class="fil6" d="M929 646c1,-10 1,-20 -2,-30l48 -22c3,23 2,47 -2,71 -18,101 -108,196 -164,196 -33,0 -72,-14 -108,-26 -7,-7 -4,-25 8,-28 86,11 204,-69 220,-161z"/>
  <path class="fil2" d="M861 406l-10 82c75,0 86,139 72,185l52 -23c1,-8 1,-16 1,-23l0 -20c-1,-116 -46,-201 -115,-201z"/>
  <path class="fil2" d="M851 488l10 -82c-107,0 -103,143 -103,148 -2,69 36,96 88,96l190 0 0 -81 -185 0c-30,0 -55,-7 -57,-24 9,-36 28,-57 57,-57z"/>
 </g>
 <g id="Layer_x0020_5">
  <metadata id="CorelCorpID_5Corel-Layer"/>
  <path class="fil2" d="M911 569c-19,-65 -54,-105 -84,-105 -24,0 -56,39 -60,58l0 0c-8,30 24,48 67,47l0 0 77 0zm-76 81l0 0c-55,1 -109,-34 -106,-103l0 0c0,-6 0,-12 1,-18 10,-67 55,-151 112,-151 68,0 115,97 129,191l67 0 0 81 -63 0c-1,12 -3,23 -6,34 0,1 -1,5 -2,5 -26,92 -107,172 -158,172 -33,0 -72,-14 -108,-26 -7,-7 -4,-25 8,-28 80,10 188,-58 215,-141 0,-6 0,-11 0,-16l-89 0z"/>
 </g>
</svg>
