<?xml version="1.0" encoding="UTF-8"?>
<!DOCTYPE svg PUBLIC "-//W3C//DTD SVG 1.0//EN" "http://www.w3.org/TR/2001/REC-SVG-20010904/DTD/svg10.dtd">
<!-- Creator: CorelDRAW -->
<svg xmlns="http://www.w3.org/2000/svg" xml:space="preserve" width="1300px" height="1300px" version="1.0" style="shape-rendering:geometricPrecision; text-rendering:geometricPrecision; image-rendering:optimizeQuality; fill-rule:evenodd; clip-rule:evenodd"
viewBox="0 0 1300 1056"
 xmlns:xlink="http://www.w3.org/1999/xlink">
 <defs>
  <style type="text/css">
   <![CDATA[
    .fil0 {fill:#660066;fill-opacity:0.549020}
    .fil1 {fill:#663300;fill-opacity:0.549020}
    .fil4 {fill:#663333}
    .fil2 {fill:#666633}
    .fil5 {fill:#996633}
    .fil7 {fill:#99FFFF}
    .fil3 {fill:#FF6633}
    .fil6 {fill:#FFCC00}
   ]]>
  </style>
 </defs>
 <g id="_100:master" visibility="hidden">
  <metadata id="CorelCorpID_0Corel-Layer"/>
  <path class="fil0" d="M958 550l-21 80c-29,11 -68,20 -104,20 -63,-2 -120,-33 -81,-137l33 33c-19,36 136,23 173,4z"/>
  <path class="fil1" d="M929 683l47 -33c-1,-139 -51,-244 -127,-244 -50,0 -90,57 -108,148l37 15c10,-50 38,-82 66,-80 44,2 80,80 85,194z"/>
  <path class="fil2" d="M926 646l48 -22c19,107 -93,245 -149,245 -33,0 -83,-5 -119,-18 -7,-7 -4,-25 7,-28 75,10 239,-100 213,-177z"/>
 </g>
 <g id="Layer_x0020_1" visibility="hidden">
  <metadata id="CorelCorpID_1Corel-Layer"/>
  <path class="fil3" d="M928 612l48 -22c13,109 -71,263 -146,263 -32,0 -83,-6 -118,-18 -7,-7 -4,-25 7,-28 136,-3 226,-118 209,-195z"/>
  <path class="fil1" d="M862 390l-11 82c38,0 78,52 78,145l0 24c0,11 -3,22 -7,32l52 -23c1,-8 2,-16 1,-23l0 -20c-1,-116 -45,-217 -113,-217z"/>
  <path class="fil1" d="M851 472l11 -82c-108,0 -111,159 -111,164 -3,104 93,115 186,76l21 -80c-34,18 -168,34 -171,-5 8,-36 36,-73 64,-73z"/>
 </g>
 <g id="Layer_x0020_2" visibility="hidden">
  <metadata id="CorelCorpID_2Corel-Layer"/>
  <path class="fil4" d="M929 646c1,-10 1,-20 -2,-30l48 -22c3,23 2,47 -2,71 -18,101 -108,196 -164,196 -33,0 -72,-14 -108,-26 -7,-7 -4,-25 8,-28 86,11 204,-69 220,-161z"/>
  <path class="fil1" d="M861 406l-10 82c75,0 86,139 72,185l52 -23c1,-8 1,-16 1,-23l0 -20c-1,-116 -46,-201 -115,-201z"/>
  <path class="fil1" d="M851 488l10 -82c-107,0 -103,143 -103,148 -3,104 85,115 178,76l21 -80c-34,18 -160,34 -163,-5 9,-36 28,-57 57,-57z"/>
 </g>
 <g id="Layer_x0020_3" visibility="hidden">
  <metadata id="CorelCorpID_3Corel-Layer"/>
  <path class="fil5" d="M968 689l-47 42c20,-157 -44,-259 -94,-259 -24,0 -48,31 -52,50l-38 25c3,-69 42,-160 105,-160 100,0 153,198 126,302z"/>
  <path class="fil6" d="M739 526l36 -4c-15,54 90,67 164,8l-16 80c-61,72 -207,45 -184,-84z"/>
  <path class="fil4" d="M929 646c1,-10 1,-20 -2,-30l48 -22c3,23 2,47 -2,71 -18,101 -108,196 -164,196 -33,0 -72,-14 -108,-26 -7,-7 -4,-25 8,-28 86,11 204,-69 220,-161z"/>
 </g>
 <g id="Layer_x0020_4" visibility="hidden">
  <metadata id="CorelCorpID_4Corel-Layer"/>
  <path class="fil0" d="M938 649l37 -31c1,123 -89,252 -182,235l-110 -20c-3,-16 5,-19 17,-20 85,-3 230,-67 238,-164z"/>
  <path class="fil6" d="M739 526l36 -4c-3,42 86,66 171,25l9 83c-103,36 -239,35 -216,-104z"/>
  <path class="fil0" d="M975 618l-54 81c46,-69 -36,-242 -84,-242 -24,0 -58,46 -62,65l-38 25c3,-69 45,-180 108,-176 98,6 130,193 130,247z"/>
 </g>
 <g id="Layer_x0020_5">
  <metadata id="CorelCorpID_5Corel-Layer"/>
  <path class="fil7" d="M792 534l0 0c-3,35 49,46 116,23 -14,-40 -37,-65 -61,-67 -19,-1 -44,12 -55,44zm129 104c-79,25 -185,20 -166,-100 24,-98 62,-134 106,-132 55,3 115,72 115,219l0 1c-3,109 -76,227 -173,227l-88 0c-5,-13 1,-27 16,-29 81,-11 159,-85 190,-183l0 -3z"/>
 </g>
</svg>
