<?xml version="1.0" encoding="UTF-8"?>
<!DOCTYPE svg PUBLIC "-//W3C//DTD SVG 1.0//EN" "http://www.w3.org/TR/2001/REC-SVG-20010904/DTD/svg10.dtd">
<!-- Creator: CorelDRAW -->
<svg xmlns="http://www.w3.org/2000/svg" xml:space="preserve" width="1300px" height="1300px" version="1.0" style="shape-rendering:geometricPrecision; text-rendering:geometricPrecision; image-rendering:optimizeQuality; fill-rule:evenodd; clip-rule:evenodd"
viewBox="0 0 1300 1056"
 xmlns:xlink="http://www.w3.org/1999/xlink">
 <defs>
  <style type="text/css">
   <![CDATA[
    .fil0 {fill:#660066;fill-opacity:0.549020}
    .fil1 {fill:#663300;fill-opacity:0.549020}
    .fil4 {fill:#663333}
    .fil2 {fill:#666633}
    .fil5 {fill:#996633}
    .fil3 {fill:#FF6633}
   ]]>
  </style>
 </defs>
 <g id="_100:master" visibility="hidden">
  <metadata id="CorelCorpID_0Corel-Layer"/>
  <path class="fil0" d="M958 550l-21 80c-29,11 -68,20 -104,20 -63,-2 -120,-33 -81,-137l33 33c-19,36 136,23 173,4z"/>
  <path class="fil1" d="M929 683l47 -33c-1,-139 -51,-244 -127,-244 -50,0 -90,57 -108,148l37 15c10,-50 38,-82 66,-80 44,2 80,80 85,194z"/>
  <path class="fil2" d="M926 646l48 -22c19,107 -93,245 -149,245 -33,0 -83,-5 -119,-18 -7,-7 -4,-25 7,-28 75,10 239,-100 213,-177z"/>
 </g>
 <g id="Layer_x0020_1" visibility="hidden">
  <metadata id="CorelCorpID_1Corel-Layer"/>
  <path class="fil3" d="M928 612l48 -22c13,109 -71,263 -146,263 -32,0 -83,-6 -118,-18 -7,-7 -4,-25 7,-28 136,-3 226,-118 209,-195z"/>
  <path class="fil1" d="M862 390l-11 82c38,0 78,52 78,145l0 24c0,11 -3,22 -7,32l52 -23c1,-8 2,-16 1,-23l0 -20c-1,-116 -45,-217 -113,-217z"/>
  <path class="fil1" d="M851 472l11 -82c-108,0 -111,159 -111,164 -3,104 93,115 186,76l21 -80c-34,18 -168,34 -171,-5 8,-36 36,-73 64,-73z"/>
 </g>
 <g id="Layer_x0020_2" visibility="hidden">
  <metadata id="CorelCorpID_2Corel-Layer"/>
  <path class="fil4" d="M929 646c1,-10 1,-20 -2,-30l48 -22c3,23 2,47 -2,71 -18,101 -108,196 -164,196 -33,0 -72,-14 -108,-26 -7,-7 -4,-25 8,-28 86,11 204,-69 220,-161z"/>
  <path class="fil1" d="M861 406l-10 82c75,0 86,139 72,185l52 -23c1,-8 1,-16 1,-23l0 -20c-1,-116 -46,-201 -115,-201z"/>
  <path class="fil1" d="M851 488l10 -82c-107,0 -103,143 -103,148 -3,104 85,115 178,76l21 -80c-34,18 -160,34 -163,-5 9,-36 28,-57 57,-57z"/>
 </g>
 <g id="Layer_x0020_3">
  <metadata id="CorelCorpID_3Corel-Layer"/>
  <path class="fil5" d="M968 689l-1 0c-26,92 -107,172 -158,172 -33,0 -72,-14 -108,-26 -7,-7 -4,-25 8,-28 75,10 175,-50 209,-126 1,-22 -1,-43 -3,-62 -62,57 -190,33 -186,-72l0 0 1 -16c9,-68 54,-153 112,-153 74,0 123,115 131,216l2 0c3,23 2,47 -2,71 -1,8 -3,16 -5,24zm-68 -136c-18,-55 -47,-89 -73,-89 -24,0 -56,39 -60,58l0 0c-13,45 64,62 133,31z"/>
 </g>
</svg>
