<?xml version="1.0" encoding="UTF-8"?>
<!DOCTYPE svg PUBLIC "-//W3C//DTD SVG 1.0//EN" "http://www.w3.org/TR/2001/REC-SVG-20010904/DTD/svg10.dtd">
<!-- Creator: CorelDRAW -->
<svg xmlns="http://www.w3.org/2000/svg" xml:space="preserve" width="1300px" height="1300px" version="1.0" style="shape-rendering:geometricPrecision; text-rendering:geometricPrecision; image-rendering:optimizeQuality; fill-rule:evenodd; clip-rule:evenodd"
viewBox="0 0 1300 1056"
 xmlns:xlink="http://www.w3.org/1999/xlink">
 <defs>
  <style type="text/css">
   <![CDATA[
    .fil0 {fill:#660066;fill-opacity:0.549020}
    .fil1 {fill:#663300;fill-opacity:0.549020}
    .fil2 {fill:#666633}
    .fil3 {fill:#FF6633}
   ]]>
  </style>
 </defs>
 <g id="_100:master" visibility="hidden">
  <metadata id="CorelCorpID_0Corel-Layer"/>
  <path class="fil0" d="M958 550l-21 80c-29,11 -68,20 -104,20 -63,-2 -120,-33 -81,-137l33 33c-19,36 136,23 173,4z"/>
  <path class="fil1" d="M929 683l47 -33c-1,-139 -51,-244 -127,-244 -50,0 -90,57 -108,148l37 15c10,-50 38,-82 66,-80 44,2 80,80 85,194z"/>
  <path class="fil2" d="M926 646l48 -22c19,107 -93,245 -149,245 -33,0 -83,-5 -119,-18 -7,-7 -4,-25 7,-28 75,10 239,-100 213,-177z"/>
 </g>
 <g id="Layer_x0020_1">
  <metadata id="CorelCorpID_1Corel-Layer"/>
  <path class="fil3" d="M976 590l0 0c1,12 2,24 1,36 0,8 -1,16 -1,24l-2 1c-14,97 -82,202 -144,202 -32,0 -83,-6 -118,-18 -7,-7 -4,-25 7,-28 110,-3 190,-78 207,-147 2,-9 3,-18 3,-27 -25,10 -47,17 -79,17 -59,-2 -114,-29 -88,-118 54,-221 199,-125 214,58zm-184 -45l1 1c-14,27 66,26 122,16 -29,-70 -93,-114 -123,-17z"/>
 </g>
</svg>
