<?xml version="1.0" encoding="UTF-8"?>
<!DOCTYPE svg PUBLIC "-//W3C//DTD SVG 1.0//EN" "http://www.w3.org/TR/2001/REC-SVG-20010904/DTD/svg10.dtd">
<!-- Creator: CorelDRAW -->
<svg xmlns="http://www.w3.org/2000/svg" xml:space="preserve" width="1300px" height="1300px" version="1.0" style="shape-rendering:geometricPrecision; text-rendering:geometricPrecision; image-rendering:optimizeQuality; fill-rule:evenodd; clip-rule:evenodd"
viewBox="0 0 1300 1056"
 xmlns:xlink="http://www.w3.org/1999/xlink">
 <defs>
  <style type="text/css">
   <![CDATA[
    .fil1 {fill:#660066;fill-opacity:0.549020}
    .fil2 {fill:#663300;fill-opacity:0.549020}
    .fil3 {fill:#666633}
    .fil0 {fill:#666666}
    .fil4 {fill:#FF6633}
   ]]>
  </style>
 </defs>
 <g id="_100:master" visibility="hidden">
  <metadata id="CorelCorpID_0Corel-Layer"/>
  <path class="fil0" d="M933 650l48 -16c-9,153 -133,260 -200,260 -33,0 -88,-14 -124,-27 -7,-7 -4,-24 8,-27 50,-2 62,1 113,-22 79,-34 158,-114 155,-168z"/>
  <path class="fil1" d="M861 650l-2 -81 189 0 0 81 -187 0z"/>
  <path class="fil1" d="M931 668l48 -12c16,-189 -52,-270 -118,-270 -66,0 -105,77 -113,150 -5,59 22,114 117,114l-1 -81c-34,0 -78,-7 -77,-27 1,-24 23,-76 69,-76 58,1 81,131 75,202z"/>
 </g>
 <g id="Layer_x0020_1" visibility="hidden">
  <metadata id="CorelCorpID_1Corel-Layer"/>
  <path class="fil1" d="M833 650l-2 -81 196 0 0 81 -194 0z"/>
  <path class="fil1" d="M837 569l-4 81c-63,-1 -120,-33 -81,-137l33 33c-8,16 18,22 52,23z"/>
  <path class="fil2" d="M929 683l47 -33c-1,-139 -51,-244 -127,-244 -50,0 -90,57 -108,148l37 15c10,-50 38,-82 66,-80 44,2 80,80 85,194z"/>
  <path class="fil3" d="M926 646l48 -22c19,107 -93,245 -149,245 -33,0 -83,-5 -119,-18 -7,-7 -4,-25 7,-28 75,10 239,-100 213,-177z"/>
 </g>
 <g id="Layer_x0020_2">
  <metadata id="CorelCorpID_2Corel-Layer"/>
  <path class="fil4" d="M974 651c-14,97 -82,202 -144,202 -32,0 -83,-6 -118,-18 -7,-7 -4,-25 7,-28 111,-3 190,-78 207,-148 1,-3 2,-6 2,-9l-85 0 0 0c-61,-1 -106,-34 -80,-120 52,-205 186,-129 210,39l54 0 0 81 -53 1zm-178 -114c-7,24 22,32 58,32l65 0c-25,-73 -88,-123 -123,-32z"/>
 </g>
</svg>
