<?xml version="1.0" encoding="UTF-8"?>
<!DOCTYPE svg PUBLIC "-//W3C//DTD SVG 1.0//EN" "http://www.w3.org/TR/2001/REC-SVG-20010904/DTD/svg10.dtd">
<!-- Creator: CorelDRAW -->
<svg xmlns="http://www.w3.org/2000/svg" xml:space="preserve" width="1300px" height="1300px" version="1.0" style="shape-rendering:geometricPrecision; text-rendering:geometricPrecision; image-rendering:optimizeQuality; fill-rule:evenodd; clip-rule:evenodd"
viewBox="0 0 1300 1056"
 xmlns:xlink="http://www.w3.org/1999/xlink">
 <defs>
  <style type="text/css">
   <![CDATA[
    .fil1 {fill:#336699;fill-opacity:0.549020}
    .fil0 {fill:#336699}
    .fil2 {fill:#999933}
   ]]>
  </style>
 </defs>
 <g id="_100:master" visibility="hidden">
  <metadata id="CorelCorpID_0Corel-Layer"/>
  <path class="fil0" d="M808 569l194 0 -1 81 -210 0 -17 0c-29,-13 12,-81 34,-81z"/>
  <path class="fil1" d="M775 650l29 -75c31,4 63,11 85,23 68,37 68,112 -32,198 -144,116 -460,57 -323,-277 6,-15 37,-3 32,11 -89,238 119,273 244,222 61,-31 94,-71 43,-88 -23,-7 -52,-12 -78,-14z"/>
 </g>
 <g id="Layer_x0020_1" visibility="hidden">
  <metadata id="CorelCorpID_1Corel-Layer"/>
  <polygon class="fil0" points="809,650 880,569 1011,569 1011,650 "/>
  <path class="fil0" d="M880 569c-21,26 -42,78 -17,83l64 37c53,30 43,77 12,110l-43 -37c12,-13 -19,-18 -74,-51 -41,-24 -41,-37 -25,-68 20,-39 36,-74 83,-74z"/>
  <path class="fil2" d="M908 753c-110,88 -388,106 -294,-178l-25 -12c-147,361 214,402 350,236 6,-26 -25,-47 -31,-46z"/>
 </g>
 <g id="Layer_x0020_2">
  <metadata id="CorelCorpID_2Corel-Layer"/>
  <path class="fil0" d="M807 622c-16,-7 -7,-28 1,-42 13,-24 23,-35 39,-32 42,11 115,21 172,21l0 81c-18,0 -63,-6 -81,-18 52,60 28,117 -9,149l0 0c-48,49 -133,82 -200,82 -177,-2 -229,-142 -120,-362l25 9c-93,201 -33,270 106,270 59,0 127,-16 161,-46 32,-36 -63,-99 -94,-112z"/>
 </g>
</svg>
