<?xml version="1.0" encoding="UTF-8"?>
<!DOCTYPE svg PUBLIC "-//W3C//DTD SVG 1.0//EN" "http://www.w3.org/TR/2001/REC-SVG-20010904/DTD/svg10.dtd">
<!-- Creator: CorelDRAW -->
<svg xmlns="http://www.w3.org/2000/svg" xml:space="preserve" width="1300px" height="1300px" version="1.0" style="shape-rendering:geometricPrecision; text-rendering:geometricPrecision; image-rendering:optimizeQuality; fill-rule:evenodd; clip-rule:evenodd"
viewBox="0 0 1300 1056"
 xmlns:xlink="http://www.w3.org/1999/xlink">
 <defs>
  <style type="text/css">
   <![CDATA[
    .fil0 {fill:#336699;fill-opacity:0.549020}
    .fil1 {fill:#999933}
   ]]>
  </style>
 </defs>
 <g id="_100:master" visibility="hidden">
  <metadata id="CorelCorpID_0Corel-Layer"/>
  <path class="fil0" d="M898 796l-47 -44c60,-30 94,-71 43,-88 -28,-9 -66,-11 -95,-14 -111,-12 -20,-257 136,-261 50,-1 53,53 31,98 -16,-18 -31,-24 -50,-21 -64,11 -103,54 -118,103 40,4 98,10 132,29 68,37 68,112 -32,198z"/>
  <path class="fil1" d="M898 796l-39 -47c-124,56 -343,24 -252,-219 5,-14 -26,-26 -32,-11 -138,334 178,393 323,277z"/>
 </g>
 <g id="Layer_x0020_1" visibility="hidden">
  <metadata id="CorelCorpID_1Corel-Layer"/>
  <path class="fil1" d="M975 654l-46 61c-95,109 -434,129 -322,-169 5,-14 -26,-25 -32,-11 -181,440 400,402 400,119z"/>
  <path class="fil0" d="M864 761c146,-90 -20,-97 -74,-111 -31,-8 -77,-19 -40,-111 103,-255 283,-197 281,-71 -1,44 -113,-92 -227,60 -16,21 -20,35 16,39 85,8 164,31 163,103 0,25 -23,66 -42,93l-77 -2z"/>
 </g>
 <g id="Layer_x0020_2" visibility="hidden">
  <metadata id="CorelCorpID_2Corel-Layer"/>
  <path class="fil0" d="M802 471l28 39c-7,12 -24,35 3,38 90,13 170,26 129,140l-53 -1c44,-47 -55,-44 -97,-57 -50,-17 -47,-94 -10,-159z"/>
  <path class="fil1" d="M918 677c-33,41 -109,74 -177,75 -91,0 -168,-57 -108,-224l-25 -13c-101,223 1,318 127,318 91,0 199,-61 227,-145l-44 -11z"/>
  <path class="fil0" d="M812 540l-32 8c6,-92 82,-191 152,-190 37,1 62,26 76,94l-13 15c-19,-22 -42,-32 -65,-29 -57,9 -95,54 -118,102z"/>
 </g>
 <g id="Layer_x0020_3">
  <metadata id="CorelCorpID_3Corel-Layer"/>
  <path class="fil0" d="M800 498c33,-78 97,-121 143,-120 38,2 74,33 89,104l-13 15c-24,-26 -50,-38 -76,-39 -34,0 -84,30 -115,70 -15,22 -5,36 11,42 110,29 199,72 120,176l0 0c-2,2 -4,5 -6,7 -165,204 -528,120 -344,-252l25 9c-163,351 223,290 290,205l0 0c28,-42 -77,-48 -112,-66 -41,-21 -52,-74 -12,-151z"/>
 </g>
</svg>
