<?xml version="1.0" encoding="UTF-8"?>
<!DOCTYPE svg PUBLIC "-//W3C//DTD SVG 1.0//EN" "http://www.w3.org/TR/2001/REC-SVG-20010904/DTD/svg10.dtd">
<!-- Creator: CorelDRAW -->
<svg xmlns="http://www.w3.org/2000/svg" xml:space="preserve" width="1300px" height="1300px" version="1.0" style="shape-rendering:geometricPrecision; text-rendering:geometricPrecision; image-rendering:optimizeQuality; fill-rule:evenodd; clip-rule:evenodd"
viewBox="0 0 1300 1056"
 xmlns:xlink="http://www.w3.org/1999/xlink">
 <defs>
  <style type="text/css">
   <![CDATA[
    .fil0 {fill:#336699;fill-opacity:0.549020}
    .fil1 {fill:#999933}
   ]]>
  </style>
 </defs>
 <g id="_100:master" visibility="hidden">
  <metadata id="CorelCorpID_0Corel-Layer"/>
  <path class="fil0" d="M898 796l-47 -44c60,-30 94,-71 43,-88 -28,-9 -66,-11 -95,-14 -111,-12 -20,-257 136,-261 50,-1 53,53 31,98 -16,-18 -31,-24 -50,-21 -64,11 -103,54 -118,103 40,4 98,10 132,29 68,37 68,112 -32,198z"/>
  <path class="fil1" d="M898 796l-39 -47c-124,56 -343,24 -252,-219 5,-14 -26,-26 -32,-11 -138,334 178,393 323,277z"/>
 </g>
 <g id="Layer_x0020_1">
  <metadata id="CorelCorpID_1Corel-Layer"/>
  <path class="fil1" d="M864 761c146,-90 -20,-97 -74,-111 -31,-8 -77,-19 -40,-111 103,-255 283,-197 281,-71 -1,44 -113,-92 -227,60 -16,21 -20,35 16,39 85,8 164,31 163,103 0,25 -23,66 -42,93l0 0c-122,175 -520,147 -366,-228 6,-14 37,-3 32,11 -93,248 126,276 257,215z"/>
 </g>
</svg>
