<?xml version="1.0" encoding="UTF-8"?>
<!DOCTYPE svg PUBLIC "-//W3C//DTD SVG 1.0//EN" "http://www.w3.org/TR/2001/REC-SVG-20010904/DTD/svg10.dtd">
<!-- Creator: CorelDRAW -->
<svg xmlns="http://www.w3.org/2000/svg" xml:space="preserve" width="1300px" height="1300px" version="1.0" style="shape-rendering:geometricPrecision; text-rendering:geometricPrecision; image-rendering:optimizeQuality; fill-rule:evenodd; clip-rule:evenodd"
viewBox="0 0 1300 1056"
 xmlns:xlink="http://www.w3.org/1999/xlink">
 <defs>
  <style type="text/css">
   <![CDATA[
    .fil1 {fill:#336699;fill-opacity:0.549020}
    .fil0 {fill:#336699}
    .fil2 {fill:#999933}
   ]]>
  </style>
 </defs>
 <g id="_100:master" visibility="hidden">
  <metadata id="CorelCorpID_0Corel-Layer"/>
  <path class="fil0" d="M808 569l194 0 -1 81 -210 0 -17 0c-29,-13 12,-81 34,-81z"/>
  <path class="fil1" d="M775 650l29 -75c31,4 63,11 85,23 68,37 68,112 -32,198 -144,116 -460,57 -323,-277 6,-15 37,-3 32,11 -89,238 119,273 244,222 61,-31 94,-71 43,-88 -23,-7 -52,-12 -78,-14z"/>
 </g>
 <g id="Layer_x0020_1">
  <metadata id="CorelCorpID_1Corel-Layer"/>
  <path class="fil2" d="M908 754l-104 -44c-7,-3 -32,-10 -22,-47 11,-42 43,-94 86,-94l0 0 168 0 -1 81 -157 0 62 26c50,21 42,81 11,111 -4,4 -8,8 -13,12l0 1 0 0c-147,132 -476,81 -334,-265 6,-14 37,-3 32,11 -97,258 143,278 272,208z"/>
 </g>
</svg>
