<?xml version="1.0" encoding="UTF-8"?>
<!DOCTYPE svg PUBLIC "-//W3C//DTD SVG 1.0//EN" "http://www.w3.org/TR/2001/REC-SVG-20010904/DTD/svg10.dtd">
<!-- Creator: CorelDRAW -->
<svg xmlns="http://www.w3.org/2000/svg" xml:space="preserve" width="1300px" height="1300px" version="1.0" style="shape-rendering:geometricPrecision; text-rendering:geometricPrecision; image-rendering:optimizeQuality; fill-rule:evenodd; clip-rule:evenodd"
viewBox="0 0 1300 1056"
 xmlns:xlink="http://www.w3.org/1999/xlink">
 <defs>
  <style type="text/css">
   <![CDATA[
    .fil0 {fill:red;fill-opacity:0.501961}
   ]]>
  </style>
 </defs>
 <g id="_500:master">
  <metadata id="CorelCorpID_0Corel-Layer"/>
  <path class="fil0" d="M995 0c-20,81 -20,163 -20,244l0 163c0,102 -8,132 29,153 17,6 37,9 61,9l12 0 0 81 -12 0c-45,0 -71,-10 -88,-22l-1 1c-4,-4 -7,-8 -10,-12 -9,-8 -14,-18 -19,-26l0 0c-28,-50 -37,-116 -37,-185l0 -161c0,-85 24,-164 65,-245l20 0z"/>
 </g>
</svg>
