<?xml version="1.0" encoding="UTF-8"?>
<!DOCTYPE svg PUBLIC "-//W3C//DTD SVG 1.0//EN" "http://www.w3.org/TR/2001/REC-SVG-20010904/DTD/svg10.dtd">
<!-- Creator: CorelDRAW -->
<svg xmlns="http://www.w3.org/2000/svg" xml:space="preserve" width="1300px" height="1300px" version="1.0" style="shape-rendering:geometricPrecision; text-rendering:geometricPrecision; image-rendering:optimizeQuality; fill-rule:evenodd; clip-rule:evenodd"
viewBox="0 0 1300 1056"
 xmlns:xlink="http://www.w3.org/1999/xlink">
 <defs>
  <style type="text/css">
   <![CDATA[
    .fil0 {fill:#660066;fill-opacity:0.549020}
   ]]>
  </style>
 </defs>
 <g id="_500:master">
  <metadata id="CorelCorpID_0Corel-Layer"/>
  <path class="fil0" d="M963 615l0 0c-35,-37 -49,-86 -49,-128l0 -367c0,-34 24,-69 51,-120l10 5 0 505c0,14 -3,33 10,43 3,2 7,3 11,4 4,1 7,2 9,4 16,5 36,8 60,8l12 0 0 81 -12 0c-59,0 -86,-17 -102,-35z"/>
 </g>
</svg>
