<?xml version="1.0" encoding="UTF-8"?>
<!DOCTYPE svg PUBLIC "-//W3C//DTD SVG 1.0//EN" "http://www.w3.org/TR/2001/REC-SVG-20010904/DTD/svg10.dtd">
<!-- Creator: CorelDRAW -->
<svg xmlns="http://www.w3.org/2000/svg" xml:space="preserve" width="1300px" height="1300px" version="1.0" style="shape-rendering:geometricPrecision; text-rendering:geometricPrecision; image-rendering:optimizeQuality; fill-rule:evenodd; clip-rule:evenodd"
viewBox="0 0 1300 1056"
 xmlns:xlink="http://www.w3.org/1999/xlink">
 <defs>
  <style type="text/css">
   <![CDATA[
    .fil0 {fill:#660066;fill-opacity:0.549020}
   ]]>
  </style>
 </defs>
 <g id="_100:master">
  <metadata id="CorelCorpID_0Corel-Layer"/>
  <path class="fil0" d="M921 549c5,-16 9,-34 13,-55l0 -6 1 1c4,-20 7,-42 9,-67l47 -16c-4,58 -11,100 -20,131 33,27 75,32 125,32l-1 81c-67,0 -115,-23 -140,-69 -10,18 -20,29 -31,36 -27,22 -64,33 -110,33l-34 0 0 0c-20,-1 -40,-20 -39,-41 0,-21 20,-40 40,-40l0 0 32 0c42,0 78,-3 108,-20z"/>
 </g>
</svg>
