<?xml version="1.0" encoding="UTF-8"?>
<!DOCTYPE svg PUBLIC "-//W3C//DTD SVG 1.0//EN" "http://www.w3.org/TR/2001/REC-SVG-20010904/DTD/svg10.dtd">
<!-- Creator: CorelDRAW -->
<svg xmlns="http://www.w3.org/2000/svg" xml:space="preserve" width="1300px" height="1300px" version="1.0" style="shape-rendering:geometricPrecision; text-rendering:geometricPrecision; image-rendering:optimizeQuality; fill-rule:evenodd; clip-rule:evenodd"
viewBox="0 0 1300 1056"
 xmlns:xlink="http://www.w3.org/1999/xlink">
 <defs>
  <style type="text/css">
   <![CDATA[
    .fil0 {fill:#660066;fill-opacity:0.549020}
   ]]>
  </style>
 </defs>
 <g id="_100:master">
  <metadata id="CorelCorpID_0Corel-Layer"/>
  <path class="fil0" d="M980 457c-6,29 -10,59 -17,87 24,26 61,25 99,25l0 81 -21 0c-53,0 -84,-18 -104,-46 -20,28 -51,46 -104,46l-60 0 0 0c-20,0 -40,-20 -40,-41 1,-21 20,-40 41,-40l0 0 59 0c83,0 97,-36 114,-119l33 7z"/>
 </g>
</svg>
