<?xml version="1.0" encoding="UTF-8"?>
<!DOCTYPE svg PUBLIC "-//W3C//DTD SVG 1.0//EN" "http://www.w3.org/TR/2001/REC-SVG-20010904/DTD/svg10.dtd">
<!-- Creator: CorelDRAW -->
<svg xmlns="http://www.w3.org/2000/svg" xml:space="preserve" width="1300px" height="1300px" version="1.0" style="shape-rendering:geometricPrecision; text-rendering:geometricPrecision; image-rendering:optimizeQuality; fill-rule:evenodd; clip-rule:evenodd"
viewBox="0 0 1300 1056"
 xmlns:xlink="http://www.w3.org/1999/xlink">
 <defs>
  <style type="text/css">
   <![CDATA[
    .fil0 {fill:#660066;fill-opacity:0.549020}
   ]]>
  </style>
 </defs>
 <g id="_100:master">
  <metadata id="CorelCorpID_0Corel-Layer"/>
  <path class="fil0" d="M926 633c0,0 0,-1 1,-1 -16,11 -37,18 -65,18l-82 0 0 0c-20,-1 -40,-20 -39,-41 0,-21 20,-40 40,-40l0 0 80 0c37,0 62,-14 80,-30 -6,-31 -19,-70 -47,-117l38 -80c38,60 47,113 43,158 -1,53 -12,105 -48,132 -1,0 -1,1 -1,1z"/>
 </g>
</svg>
