<?xml version="1.0" encoding="UTF-8"?>
<!DOCTYPE svg PUBLIC "-//W3C//DTD SVG 1.0//EN" "http://www.w3.org/TR/2001/REC-SVG-20010904/DTD/svg10.dtd">
<!-- Creator: CorelDRAW -->
<svg xmlns="http://www.w3.org/2000/svg" xml:space="preserve" width="1300px" height="1300px" version="1.0" style="shape-rendering:geometricPrecision; text-rendering:geometricPrecision; image-rendering:optimizeQuality; fill-rule:evenodd; clip-rule:evenodd"
viewBox="0 0 1300 1056"
 xmlns:xlink="http://www.w3.org/1999/xlink">
 <defs>
  <style type="text/css">
   <![CDATA[
    .fil1 {fill:#660066;fill-opacity:0.549020}
    .fil0 {fill:#CC6633}
   ]]>
  </style>
 </defs>
 <g id="_100:master" visibility="hidden">
  <metadata id="CorelCorpID_0Corel-Layer"/>
  <path class="fil0" d="M774 650l39 0 0 -81 -39 0c-21,0 -40,19 -41,40 0,21 20,41 41,41z"/>
  <path class="fil1" d="M1065 650l12 0 0 -81 -12 0c-44,0 -74,-11 -96,-25 -10,-7 6,-61 11,-87l-33 -7c-17,83 -31,119 -114,119l-20 0 0 81 20 0c60,0 95,-31 114,-59 15,25 35,59 118,59z"/>
 </g>
 <g id="Layer_x0020_1">
  <metadata id="CorelCorpID_1Corel-Layer"/>
  <path class="fil0" d="M774 569l59 0c83,0 121,-47 125,-109l22 -3c-1,29 -5,61 -13,91 24,22 59,21 95,21l0 81 -21 0c-52,0 -83,-18 -103,-45 -21,27 -54,45 -105,45l-60 0 0 0c-20,0 -40,-20 -40,-41 1,-21 20,-40 41,-40l0 0z"/>
 </g>
</svg>
