<?xml version="1.0" encoding="UTF-8"?>
<!DOCTYPE svg PUBLIC "-//W3C//DTD SVG 1.0//EN" "http://www.w3.org/TR/2001/REC-SVG-20010904/DTD/svg10.dtd">
<!-- Creator: CorelDRAW -->
<svg xmlns="http://www.w3.org/2000/svg" xml:space="preserve" width="1300px" height="1300px" version="1.0" style="shape-rendering:geometricPrecision; text-rendering:geometricPrecision; image-rendering:optimizeQuality; fill-rule:evenodd; clip-rule:evenodd"
viewBox="0 0 1300 1056"
 xmlns:xlink="http://www.w3.org/1999/xlink">
 <defs>
  <style type="text/css">
   <![CDATA[
    .fil0 {fill:#660066;fill-opacity:0.549020}
   ]]>
  </style>
 </defs>
 <g id="_100:master">
  <metadata id="CorelCorpID_0Corel-Layer"/>
  <path class="fil0" d="M914 630l0 -1c-21,13 -49,21 -85,21l-49 0 0 0c-20,-1 -40,-20 -39,-41 0,-21 20,-40 40,-40l0 0 48 0c49,0 82,-14 104,-30 -1,-32 -11,-70 -39,-112l40 -82c31,46 47,95 40,145l1 -3c0,58 -15,113 -61,142l0 1z"/>
 </g>
</svg>
