<?xml version="1.0" encoding="UTF-8"?>
<!DOCTYPE svg PUBLIC "-//W3C//DTD SVG 1.0//EN" "http://www.w3.org/TR/2001/REC-SVG-20010904/DTD/svg10.dtd">
<!-- Creator: CorelDRAW -->
<svg xmlns="http://www.w3.org/2000/svg" xml:space="preserve" width="1300px" height="1300px" version="1.0" style="shape-rendering:geometricPrecision; text-rendering:geometricPrecision; image-rendering:optimizeQuality; fill-rule:evenodd; clip-rule:evenodd"
viewBox="0 0 1300 1056"
 xmlns:xlink="http://www.w3.org/1999/xlink">
 <defs>
  <style type="text/css">
   <![CDATA[
    .fil0 {fill:#660066;fill-opacity:0.549020}
   ]]>
  </style>
 </defs>
 <g id="_100:master">
  <metadata id="CorelCorpID_0Corel-Layer"/>
  <path class="fil0" d="M946 529c9,-21 13,-45 13,-74l32 -16c0,51 -6,88 -17,115 28,12 61,15 98,15l-1 81c-57,0 -100,-17 -128,-50 -2,2 -4,3 -6,4 -27,31 -69,46 -123,46l-34 0 0 0c-20,-1 -40,-20 -39,-41 0,-21 20,-40 40,-40l0 0 32 0c55,0 99,-5 133,-40z"/>
 </g>
</svg>
