<?xml version="1.0" encoding="UTF-8"?>
<!DOCTYPE svg PUBLIC "-//W3C//DTD SVG 1.0//EN" "http://www.w3.org/TR/2001/REC-SVG-20010904/DTD/svg10.dtd">
<!-- Creator: CorelDRAW -->
<svg xmlns="http://www.w3.org/2000/svg" xml:space="preserve" width="1300px" height="1300px" version="1.0" style="shape-rendering:geometricPrecision; text-rendering:geometricPrecision; image-rendering:optimizeQuality; fill-rule:evenodd; clip-rule:evenodd"
viewBox="0 0 1300 1056"
 xmlns:xlink="http://www.w3.org/1999/xlink">
 <defs>
  <style type="text/css">
   <![CDATA[
    .fil0 {fill:#CCCC33;fill-opacity:0.549020}
   ]]>
  </style>
 </defs>
 <g id="_100:master">
  <metadata id="CorelCorpID_0Corel-Layer"/>
  <path class="fil0" d="M1076 569l-1 81c-54,0 -95,-24 -127,-60 -26,39 -72,61 -135,60 -118,0 -117,-51 -117,-123 0,-17 24,-18 24,0 0,15 7,42 103,42 38,0 70,-8 95,-20 -44,-72 -61,-163 -69,-204l36 -78c22,75 43,175 86,239l1 0 0 0c25,38 58,63 104,63z"/>
 </g>
</svg>
