<?xml version="1.0" encoding="UTF-8"?>
<!DOCTYPE svg PUBLIC "-//W3C//DTD SVG 1.0//EN" "http://www.w3.org/TR/2001/REC-SVG-20010904/DTD/svg10.dtd">
<!-- Creator: CorelDRAW -->
<svg xmlns="http://www.w3.org/2000/svg" xml:space="preserve" width="1300px" height="1300px" version="1.0" style="shape-rendering:geometricPrecision; text-rendering:geometricPrecision; image-rendering:optimizeQuality; fill-rule:evenodd; clip-rule:evenodd"
viewBox="0 0 1300 1056"
 xmlns:xlink="http://www.w3.org/1999/xlink">
 <defs>
  <style type="text/css">
   <![CDATA[
    .fil0 {fill:#CCCC33;fill-opacity:0.549020}
   ]]>
  </style>
 </defs>
 <g id="_100:master">
  <metadata id="CorelCorpID_0Corel-Layer"/>
  <path class="fil0" d="M1076 569l-1 81c-61,0 -102,-20 -128,-58 -26,37 -72,59 -134,58 -118,0 -117,-51 -117,-123 0,-17 24,-18 24,0 0,15 7,42 103,42 42,0 76,-9 102,-23 -2,-5 -3,-11 -5,-16l-47 -185 36 -78 62 238c0,1 0,1 0,1l1 0 0 2c12,45 48,61 104,61z"/>
 </g>
</svg>
