<?xml version="1.0" encoding="UTF-8"?>
<!DOCTYPE svg PUBLIC "-//W3C//DTD SVG 1.0//EN" "http://www.w3.org/TR/2001/REC-SVG-20010904/DTD/svg10.dtd">
<!-- Creator: CorelDRAW -->
<svg xmlns="http://www.w3.org/2000/svg" xml:space="preserve" width="1300px" height="1300px" version="1.0" style="shape-rendering:geometricPrecision; text-rendering:geometricPrecision; image-rendering:optimizeQuality; fill-rule:evenodd; clip-rule:evenodd"
viewBox="0 0 1300 1056"
 xmlns:xlink="http://www.w3.org/1999/xlink">
 <defs>
  <style type="text/css">
   <![CDATA[
    .fil1 {fill:#660066;fill-opacity:0.549020}
    .fil0 {fill:#666666}
    .fil2 {fill:#FF9966}
   ]]>
  </style>
 </defs>
 <g id="Layer_x0020_1" visibility="hidden">
  <metadata id="CorelCorpID_0Corel-Layer"/>
  <path class="fil0" d="M933 650l43 -88c25,169 -107,332 -195,332 -33,0 -88,-14 -124,-27 -7,-7 -4,-24 8,-27 50,-2 62,1 113,-22 79,-34 158,-114 155,-168z"/>
  <path class="fil1" d="M936 708l-13 -1c11,-33 22,-90 -28,-163l39 -80c81,122 34,202 2,244z"/>
 </g>
 <g id="Layer_x0020_2">
  <metadata id="CorelCorpID_1Corel-Layer"/>
  <path class="fil2" d="M819 281c91,64 160,131 155,225l0 0c2,175 -286,244 -265,61 2,-16 27,-17 28,1 0,52 149,23 190,-23 -2,-78 -72,-144 -143,-191l35 -73z"/>
 </g>
</svg>
