<?xml version="1.0" encoding="UTF-8"?>
<!DOCTYPE svg PUBLIC "-//W3C//DTD SVG 1.0//EN" "http://www.w3.org/TR/2001/REC-SVG-20010904/DTD/svg10.dtd">
<!-- Creator: CorelDRAW -->
<svg xmlns="http://www.w3.org/2000/svg" xml:space="preserve" width="1300px" height="1300px" version="1.0" style="shape-rendering:geometricPrecision; text-rendering:geometricPrecision; image-rendering:optimizeQuality; fill-rule:evenodd; clip-rule:evenodd"
viewBox="0 0 1300 1056"
 xmlns:xlink="http://www.w3.org/1999/xlink">
 <defs>
  <style type="text/css">
   <![CDATA[
    .fil0 {fill:#666666}
   ]]>
  </style>
 </defs>
 <g id="_100:master">
  <metadata id="CorelCorpID_0Corel-Layer"/>
  <path class="fil0" d="M978 629c-11,142 -121,265 -197,265 -33,0 -88,-14 -124,-27 -7,-7 -4,-24 8,-27 50,-2 62,1 113,-22 74,-32 149,-105 154,-158 2,-31 -6,-70 -37,-116l39 -80c20,30 32,57 39,82 21,13 50,23 92,23l12 0 0 81 -12 0c-44,0 -70,-9 -87,-21z"/>
 </g>
</svg>
