<?xml version="1.0" encoding="UTF-8"?>
<!DOCTYPE svg PUBLIC "-//W3C//DTD SVG 1.0//EN" "http://www.w3.org/TR/2001/REC-SVG-20010904/DTD/svg10.dtd">
<!-- Creator: CorelDRAW -->
<svg xmlns="http://www.w3.org/2000/svg" xml:space="preserve" width="1300px" height="1300px" version="1.0" style="shape-rendering:geometricPrecision; text-rendering:geometricPrecision; image-rendering:optimizeQuality; fill-rule:evenodd; clip-rule:evenodd"
viewBox="0 0 1300 1056"
 xmlns:xlink="http://www.w3.org/1999/xlink">
 <defs>
  <style type="text/css">
   <![CDATA[
    .fil0 {fill:#CCCC33;fill-opacity:0.549020}
   ]]>
  </style>
 </defs>
 <g id="_100:master">
  <metadata id="CorelCorpID_0Corel-Layer"/>
  <path class="fil0" d="M1077 569l-1 81c-56,0 -96,-21 -126,-56 -24,36 -65,56 -117,56l-12 0 0 0c-110,0 -120,-47 -112,-115 2,-16 27,-18 28,0 0,14 3,31 76,34l0 0 20 0c39,0 68,-9 89,-21 -5,-9 -8,-18 -12,-28l-60 -175 44 -78 60 175c16,46 32,127 123,127z"/>
 </g>
</svg>
