<?xml version="1.0" encoding="UTF-8"?>
<!DOCTYPE svg PUBLIC "-//W3C//DTD SVG 1.0//EN" "http://www.w3.org/TR/2001/REC-SVG-20010904/DTD/svg10.dtd">
<!-- Creator: CorelDRAW -->
<svg xmlns="http://www.w3.org/2000/svg" xml:space="preserve" width="1300px" height="1300px" version="1.0" style="shape-rendering:geometricPrecision; text-rendering:geometricPrecision; image-rendering:optimizeQuality; fill-rule:evenodd; clip-rule:evenodd"
viewBox="0 0 1300 1056"
 xmlns:xlink="http://www.w3.org/1999/xlink">
 <defs>
  <style type="text/css">
   <![CDATA[
    .fil0 {fill:#336666}
   ]]>
  </style>
 </defs>
 <g id="_100:master">
  <metadata id="CorelCorpID_0Corel-Layer"/>
  <path class="fil0" d="M603 650l0 0c-20,-1 -40,-20 -40,-41 0,-20 20,-39 39,-40l0 0 2 0 46 0c39,0 74,-4 106,-11 -42,-43 -70,-85 -115,-89l22 -98c149,-52 334,-30 311,88 -7,34 -41,71 -87,103 21,4 44,7 72,7l75 0 0 81 -68 0c-68,0 -116,-19 -154,-44 -55,27 -113,44 -156,44l-52 0 -1 0zm219 -113c54,-22 89,-51 100,-74 15,-33 -105,-49 -223,-25 50,28 74,71 123,99z"/>
 </g>
</svg>
