<?xml version="1.0" encoding="UTF-8"?>
<!DOCTYPE svg PUBLIC "-//W3C//DTD SVG 1.0//EN" "http://www.w3.org/TR/2001/REC-SVG-20010904/DTD/svg10.dtd">
<!-- Creator: CorelDRAW -->
<svg xmlns="http://www.w3.org/2000/svg" xml:space="preserve" width="1300px" height="1300px" version="1.0" style="shape-rendering:geometricPrecision; text-rendering:geometricPrecision; image-rendering:optimizeQuality; fill-rule:evenodd; clip-rule:evenodd"
viewBox="0 0 1300 1056"
 xmlns:xlink="http://www.w3.org/1999/xlink">
 <defs>
  <style type="text/css">
   <![CDATA[
    .fil0 {fill:#336666}
   ]]>
  </style>
 </defs>
 <g id="_100:master">
  <metadata id="CorelCorpID_0Corel-Layer"/>
  <path class="fil0" d="M553 650l0 0c-20,-1 -40,-20 -40,-41 1,-20 20,-39 40,-40l0 0 1 0 80 0c36,0 73,-7 106,-18 -53,-48 -88,-95 -148,-97l1 -5 0 0 10 -46 0 0 8 -34c191,-67 360,-64 345,57 -6,49 -38,92 -82,128 36,9 82,15 142,15l0 81c-97,0 -163,-22 -212,-52 -64,33 -139,52 -204,52l-46 0 -1 0zm250 -125c63,-31 107,-70 110,-81 10,-42 -129,-47 -243,-20 54,27 78,69 133,101z"/>
 </g>
</svg>
