<?xml version="1.0" encoding="UTF-8"?>
<!DOCTYPE svg PUBLIC "-//W3C//DTD SVG 1.0//EN" "http://www.w3.org/TR/2001/REC-SVG-20010904/DTD/svg10.dtd">
<!-- Creator: CorelDRAW -->
<svg xmlns="http://www.w3.org/2000/svg" xml:space="preserve" width="1300px" height="1300px" version="1.0" style="shape-rendering:geometricPrecision; text-rendering:geometricPrecision; image-rendering:optimizeQuality; fill-rule:evenodd; clip-rule:evenodd"
viewBox="0 0 1300 1056"
 xmlns:xlink="http://www.w3.org/1999/xlink">
 <defs>
  <style type="text/css">
   <![CDATA[
    .fil0 {fill:#666666;fill-opacity:0.850980}
   ]]>
  </style>
 </defs>
 <g id="_100:master">
  <metadata id="CorelCorpID_0Corel-Layer"/>
  <path class="fil0" d="M825 489c87,-41 123,-95 22,-101 -26,-1 -76,2 -125,9 38,25 69,60 103,92zm2 83c-81,40 -134,90 -158,139 -45,90 46,183 184,183 54,0 145,-6 201,-20l5 22c-46,51 -141,79 -214,79 -118,0 -258,-52 -232,-247 11,-78 59,-159 153,-215 -46,-47 -86,-91 -138,-98 -2,0 -5,1 -7,2l0 -3 -1 0 11 -51 1 0 6 -27c47,-18 169,-32 224,-30 135,5 118,134 19,226 34,20 74,34 127,34l59 0 -1 82 -51 0c-81,0 -139,-34 -188,-76z"/>
 </g>
</svg>
