<?xml version="1.0" encoding="UTF-8"?>
<!DOCTYPE svg PUBLIC "-//W3C//DTD SVG 1.0//EN" "http://www.w3.org/TR/2001/REC-SVG-20010904/DTD/svg10.dtd">
<!-- Creator: CorelDRAW -->
<svg xmlns="http://www.w3.org/2000/svg" xml:space="preserve" width="1300px" height="1300px" version="1.0" style="shape-rendering:geometricPrecision; text-rendering:geometricPrecision; image-rendering:optimizeQuality; fill-rule:evenodd; clip-rule:evenodd"
viewBox="0 0 1300 1056"
 xmlns:xlink="http://www.w3.org/1999/xlink">
 <defs>
  <style type="text/css">
   <![CDATA[
    .fil0 {fill:#336666}
   ]]>
  </style>
 </defs>
 <g id="_100:master">
  <metadata id="CorelCorpID_0Corel-Layer"/>
  <path class="fil0" d="M793 516c66,-32 113,-73 116,-85 10,-42 -129,-46 -244,-19 52,27 78,70 128,104zm-204 -79l0 0 10 -46 0 0 8 -35c191,-66 360,-63 345,58 -7,52 -42,98 -91,135 38,12 87,20 154,20l0 81c-103,0 -171,-27 -222,-61 -39,24 -71,54 -93,85 -66,110 -11,220 316,220l-41 81c-196,0 -302,-56 -329,-153l0 0 0 0c-7,-24 -9,-52 -6,-81l1 -2c8,-69 43,-136 104,-188 -58,-53 -94,-107 -157,-109l1 -5z"/>
 </g>
</svg>
