<?xml version="1.0" encoding="UTF-8"?>
<!DOCTYPE svg PUBLIC "-//W3C//DTD SVG 1.0//EN" "http://www.w3.org/TR/2001/REC-SVG-20010904/DTD/svg10.dtd">
<!-- Creator: CorelDRAW -->
<svg xmlns="http://www.w3.org/2000/svg" xml:space="preserve" width="1300px" height="1300px" version="1.0" style="shape-rendering:geometricPrecision; text-rendering:geometricPrecision; image-rendering:optimizeQuality; fill-rule:evenodd; clip-rule:evenodd"
viewBox="0 0 1300 1056"
 xmlns:xlink="http://www.w3.org/1999/xlink">
 <defs>
  <style type="text/css">
   <![CDATA[
    .fil0 {fill:#336666}
   ]]>
  </style>
 </defs>
 <g id="_100:master">
  <metadata id="CorelCorpID_0Corel-Layer"/>
  <path class="fil0" d="M603 650l0 0c-20,-1 -40,-20 -40,-41 0,-20 20,-39 39,-40l0 0 2 0 46 0c41,0 83,-7 121,-17 -39,-40 -72,-79 -130,-83l22 -98c46,-18 168,-32 223,-30 137,5 111,128 7,217 22,7 49,11 82,11l59 0 0 81 -52 0c-70,0 -118,-20 -155,-46 -51,28 -112,46 -177,46l-46 0 -1 0zm233 -120c96,-41 141,-101 35,-107 -31,-2 -96,4 -152,13 51,23 75,64 117,94z"/>
 </g>
</svg>
