<?xml version="1.0" encoding="UTF-8"?>
<!DOCTYPE svg PUBLIC "-//W3C//DTD SVG 1.0//EN" "http://www.w3.org/TR/2001/REC-SVG-20010904/DTD/svg10.dtd">
<!-- Creator: CorelDRAW -->
<svg xmlns="http://www.w3.org/2000/svg" xml:space="preserve" width="1300px" height="1300px" version="1.0" style="shape-rendering:geometricPrecision; text-rendering:geometricPrecision; image-rendering:optimizeQuality; fill-rule:evenodd; clip-rule:evenodd"
viewBox="0 0 1300 1056"
 xmlns:xlink="http://www.w3.org/1999/xlink">
 <defs>
  <style type="text/css">
   <![CDATA[
    .fil0 {fill:#336666}
   ]]>
  </style>
 </defs>
 <g id="_100:master">
  <metadata id="CorelCorpID_0Corel-Layer"/>
  <path class="fil0" d="M603 650l0 0c-20,-1 -40,-20 -40,-41 0,-20 20,-39 39,-40l0 0 2 0 46 0c44,0 85,-6 122,-15 -39,-42 -72,-81 -131,-85l22 -98c101,-24 169,-38 223,-38 64,0 97,23 97,94 0,48 -33,95 -79,134 20,5 43,8 71,8l59 0 0 81 -52 0c-66,0 -112,-18 -148,-42 -49,26 -101,42 -142,42l-88 0 -1 0zm235 -119c53,-23 88,-53 92,-77 6,-29 -20,-40 -59,-39 -37,1 -79,3 -155,19 53,24 78,66 122,97z"/>
 </g>
</svg>
