<?xml version="1.0" encoding="UTF-8"?>
<!DOCTYPE svg PUBLIC "-//W3C//DTD SVG 1.0//EN" "http://www.w3.org/TR/2001/REC-SVG-20010904/DTD/svg10.dtd">
<!-- Creator: CorelDRAW -->
<svg xmlns="http://www.w3.org/2000/svg" xml:space="preserve" width="1300px" height="1300px" version="1.0" style="shape-rendering:geometricPrecision; text-rendering:geometricPrecision; image-rendering:optimizeQuality; fill-rule:evenodd; clip-rule:evenodd"
viewBox="0 0 1300 1056"
 xmlns:xlink="http://www.w3.org/1999/xlink">
 <defs>
  <style type="text/css">
   <![CDATA[
    .fil0 {fill:#336666}
   ]]>
  </style>
 </defs>
 <g id="_100:master">
  <metadata id="CorelCorpID_0Corel-Layer"/>
  <path class="fil0" d="M553 650l0 0c-20,-1 -40,-20 -40,-41 1,-20 20,-39 40,-40l0 0 1 0 80 0c30,0 67,-8 104,-20 -52,-47 -86,-93 -146,-95l1 -5 0 0 10 -46 0 0 8 -34c191,-67 360,-64 345,57 -6,48 -39,92 -84,127 37,10 83,16 144,16l0 81c-98,0 -164,-23 -213,-52 -64,33 -135,52 -186,52l-63 0 -1 0zm248 -126c57,-26 104,-58 112,-80 16,-41 -127,-46 -243,-19 53,26 78,67 131,99z"/>
 </g>
</svg>
