<?xml version="1.0" encoding="UTF-8"?>
<!DOCTYPE svg PUBLIC "-//W3C//DTD SVG 1.0//EN" "http://www.w3.org/TR/2001/REC-SVG-20010904/DTD/svg10.dtd">
<!-- Creator: CorelDRAW -->
<svg xmlns="http://www.w3.org/2000/svg" xml:space="preserve" width="1300px" height="1300px" version="1.0" style="shape-rendering:geometricPrecision; text-rendering:geometricPrecision; image-rendering:optimizeQuality; fill-rule:evenodd; clip-rule:evenodd"
viewBox="0 0 1300 1056"
 xmlns:xlink="http://www.w3.org/1999/xlink">
 <defs>
  <style type="text/css">
   <![CDATA[
    .fil0 {fill:#336666}
   ]]>
  </style>
 </defs>
 <g id="_100:master">
  <metadata id="CorelCorpID_0Corel-Layer"/>
  <path class="fil0" d="M553 650l0 0c-20,-1 -40,-20 -40,-41 1,-20 20,-39 40,-40l0 0 1 0 15 0c58,0 113,-8 160,-21 -47,-42 -84,-83 -141,-84l5 -23 0 0 18 -81c120,-68 381,-84 337,79 -11,42 -39,83 -80,118 24,7 51,12 82,12l66 0 0 81 -39 0c-79,0 -135,-20 -179,-48 -60,30 -135,48 -222,48l-22 0 -1 0zm247 -126c49,-21 83,-46 95,-68 39,-70 -130,-70 -241,-39 53,18 90,69 146,107z"/>
 </g>
</svg>
