<?xml version="1.0" encoding="UTF-8"?>
<!DOCTYPE svg PUBLIC "-//W3C//DTD SVG 1.0//EN" "http://www.w3.org/TR/2001/REC-SVG-20010904/DTD/svg10.dtd">
<!-- Creator: CorelDRAW -->
<svg xmlns="http://www.w3.org/2000/svg" xml:space="preserve" width="1300px" height="1300px" version="1.0" style="shape-rendering:geometricPrecision; text-rendering:geometricPrecision; image-rendering:optimizeQuality; fill-rule:evenodd; clip-rule:evenodd"
viewBox="0 0 1300 1056"
 xmlns:xlink="http://www.w3.org/1999/xlink">
 <defs>
  <style type="text/css">
   <![CDATA[
    .fil0 {fill:#FF9933;fill-opacity:0.850980}
   ]]>
  </style>
 </defs>
 <g id="_100:master">
  <metadata id="CorelCorpID_0Corel-Layer"/>
  <path class="fil0" d="M835 504l1 6 -1 -6 0 0zm10 57c-62,28 -114,69 -145,113 -66,110 -11,220 316,220l-41 81c-196,0 -302,-56 -329,-153l0 0 0 0c-7,-24 -9,-52 -6,-81l1 -2c9,-80 56,-159 136,-212 -40,-26 -65,-109 -54,-164l0 0 0 0c0,-2 1,-4 1,-6l0 0c31,-102 167,-135 266,-59l-11 32c-67,-18 -159,-6 -209,46 8,50 47,114 82,117 55,-14 105,-28 163,-28l-16 46c-57,5 -101,29 -154,51l0 -1z"/>
 </g>
</svg>
