<?xml version="1.0" encoding="UTF-8"?>
<!DOCTYPE svg PUBLIC "-//W3C//DTD SVG 1.0//EN" "http://www.w3.org/TR/2001/REC-SVG-20010904/DTD/svg10.dtd">
<!-- Creator: CorelDRAW -->
<svg xmlns="http://www.w3.org/2000/svg" xml:space="preserve" width="1300px" height="1300px" version="1.0" style="shape-rendering:geometricPrecision; text-rendering:geometricPrecision; image-rendering:optimizeQuality; fill-rule:evenodd; clip-rule:evenodd"
viewBox="0 0 1300 1056"
 xmlns:xlink="http://www.w3.org/1999/xlink">
 <defs>
  <style type="text/css">
   <![CDATA[
    .fil0 {fill:#336666}
   ]]>
  </style>
 </defs>
 <g id="_100:master">
  <metadata id="CorelCorpID_0Corel-Layer"/>
  <path class="fil0" d="M603 650l0 0c-20,-1 -40,-20 -40,-41 0,-20 20,-39 39,-40l0 0 2 0 72 0c31,0 61,-4 88,-11 -46,-43 -78,-85 -123,-89l16 -72 0 0 6 -26c218,-69 318,-31 311,63 -4,49 -34,92 -75,126 21,6 46,9 76,9l43 0 0 81 -36 0c-67,0 -117,-18 -156,-43 -55,28 -113,43 -151,43l-71 0 -1 0zm232 -118c63,-31 100,-74 95,-94 -8,-32 -102,-31 -207,-7 40,30 67,71 112,101z"/>
 </g>
</svg>
