<?xml version="1.0" encoding="UTF-8"?>
<!DOCTYPE svg PUBLIC "-//W3C//DTD SVG 1.0//EN" "http://www.w3.org/TR/2001/REC-SVG-20010904/DTD/svg10.dtd">
<!-- Creator: CorelDRAW -->
<svg xmlns="http://www.w3.org/2000/svg" xml:space="preserve" width="1300px" height="1300px" version="1.0" style="shape-rendering:geometricPrecision; text-rendering:geometricPrecision; image-rendering:optimizeQuality; fill-rule:evenodd; clip-rule:evenodd"
viewBox="0 0 1300 1056"
 xmlns:xlink="http://www.w3.org/1999/xlink">
 <defs>
  <style type="text/css">
   <![CDATA[
    .fil0 {fill:#336666}
   ]]>
  </style>
 </defs>
 <g id="_100:master">
  <metadata id="CorelCorpID_0Corel-Layer"/>
  <path class="fil0" d="M603 650l0 0c-20,-1 -40,-20 -40,-41 0,-20 20,-39 39,-40l0 0 2 0 72 0c33,0 63,-4 91,-10 -46,-40 -78,-78 -123,-82l2 -9 -1 0 9 -42 0 0 9 -39c218,-69 318,-31 311,64 -4,43 -28,80 -63,110 29,5 64,8 107,8l0 81c-80,0 -137,-18 -181,-42 -58,28 -121,42 -162,42l-71 0 -1 0zm231 -112c64,-27 101,-64 96,-83 -8,-34 -110,-31 -220,-5 45,27 70,63 124,88z"/>
 </g>
</svg>
