<?xml version="1.0" encoding="UTF-8"?>
<!DOCTYPE svg PUBLIC "-//W3C//DTD SVG 1.0//EN" "http://www.w3.org/TR/2001/REC-SVG-20010904/DTD/svg10.dtd">
<!-- Creator: CorelDRAW -->
<svg xmlns="http://www.w3.org/2000/svg" xml:space="preserve" width="1300px" height="1300px" version="1.0" style="shape-rendering:geometricPrecision; text-rendering:geometricPrecision; image-rendering:optimizeQuality; fill-rule:evenodd; clip-rule:evenodd"
viewBox="0 0 1300 1056"
 xmlns:xlink="http://www.w3.org/1999/xlink">
 <defs>
  <style type="text/css">
   <![CDATA[
    .fil0 {fill:#336666}
   ]]>
  </style>
 </defs>
 <g id="_100:master">
  <metadata id="CorelCorpID_0Corel-Layer"/>
  <path class="fil0" d="M603 650l0 0c-20,-1 -40,-20 -40,-41 0,-20 20,-39 39,-40l0 0 2 0 46 0c41,0 79,-7 113,-17 -35,-41 -64,-79 -122,-83l22 -98c149,-52 341,-61 336,34 -2,43 -51,103 -117,153 20,7 45,11 77,11l75 0 0 81 -68 0c-72,0 -118,-20 -152,-48 -52,29 -108,48 -158,48l-52 0 -1 0zm223 -122c60,-30 101,-68 112,-91 14,-30 -97,-29 -208,-7 41,26 60,67 96,98z"/>
 </g>
</svg>
