<?xml version="1.0" encoding="UTF-8"?>
<!DOCTYPE svg PUBLIC "-//W3C//DTD SVG 1.0//EN" "http://www.w3.org/TR/2001/REC-SVG-20010904/DTD/svg10.dtd">
<!-- Creator: CorelDRAW -->
<svg xmlns="http://www.w3.org/2000/svg" xml:space="preserve" width="1300px" height="1300px" version="1.0" style="shape-rendering:geometricPrecision; text-rendering:geometricPrecision; image-rendering:optimizeQuality; fill-rule:evenodd; clip-rule:evenodd"
viewBox="0 0 1300 1056"
 xmlns:xlink="http://www.w3.org/1999/xlink">
 <defs>
  <style type="text/css">
   <![CDATA[
    .fil0 {fill:#336666}
   ]]>
  </style>
 </defs>
 <g id="_100:master">
  <metadata id="CorelCorpID_0Corel-Layer"/>
  <path class="fil0" d="M799 513c63,-31 107,-70 110,-82 10,-42 -129,-46 -244,-19 54,27 79,69 134,101zm-210 -76l0 0 10 -46 0 0 8 -35c191,-66 360,-63 345,58 -6,49 -38,92 -82,128 36,9 82,15 142,15l0 81c-98,0 -164,-23 -213,-53 -42,26 -76,57 -99,89 -66,110 -11,220 316,220l-41 81c-196,0 -302,-56 -329,-153l0 0 0 0c-7,-24 -9,-52 -6,-81l1 -2c8,-70 44,-139 107,-190 -60,-51 -95,-105 -160,-107l1 -5z"/>
 </g>
</svg>
