<?xml version="1.0" encoding="UTF-8"?>
<!DOCTYPE svg PUBLIC "-//W3C//DTD SVG 1.0//EN" "http://www.w3.org/TR/2001/REC-SVG-20010904/DTD/svg10.dtd">
<!-- Creator: CorelDRAW -->
<svg xmlns="http://www.w3.org/2000/svg" xml:space="preserve" width="1300px" height="1300px" version="1.0" style="shape-rendering:geometricPrecision; text-rendering:geometricPrecision; image-rendering:optimizeQuality; fill-rule:evenodd; clip-rule:evenodd"
viewBox="0 0 1300 1056"
 xmlns:xlink="http://www.w3.org/1999/xlink">
 <defs>
  <style type="text/css">
   <![CDATA[
    .fil0 {fill:#336666}
   ]]>
  </style>
 </defs>
 <g id="_100:master">
  <metadata id="CorelCorpID_0Corel-Layer"/>
  <path class="fil0" d="M796 499c63,-25 115,-51 110,-70 -8,-32 -96,-35 -187,-12 36,22 52,54 77,82zm-140 -105l7 -33c206,-71 292,-31 286,64 -3,51 -36,94 -81,126 30,11 71,18 127,18l62 0 -1 81 -73 0c-91,0 -145,-28 -183,-64 -66,38 -110,82 -131,125 -45,90 46,183 184,183 54,0 145,-6 201,-20l5 22c-46,51 -141,79 -214,79 -118,0 -258,-52 -232,-247 10,-73 53,-148 135,-203 -30,-42 -54,-79 -104,-80l11 -51 1 0z"/>
 </g>
</svg>
