<?xml version="1.0" encoding="UTF-8"?>
<!DOCTYPE svg PUBLIC "-//W3C//DTD SVG 1.0//EN" "http://www.w3.org/TR/2001/REC-SVG-20010904/DTD/svg10.dtd">
<!-- Creator: CorelDRAW -->
<svg xmlns="http://www.w3.org/2000/svg" xml:space="preserve" width="1300px" height="1300px" version="1.0" style="shape-rendering:geometricPrecision; text-rendering:geometricPrecision; image-rendering:optimizeQuality; fill-rule:evenodd; clip-rule:evenodd"
viewBox="0 0 1300 1056"
 xmlns:xlink="http://www.w3.org/1999/xlink">
 <defs>
  <style type="text/css">
   <![CDATA[
    .fil0 {fill:#CC6633}
   ]]>
  </style>
 </defs>
 <g id="_100:master">
  <metadata id="CorelCorpID_0Corel-Layer"/>
  <path class="fil0" d="M617 650l0 0c-20,0 -40,-20 -40,-41 0,-20 20,-40 41,-40 38,0 71,-4 102,-9 -30,-37 -46,-107 -35,-154 46,-122 187,-136 282,-51l-11 32c-37,-19 -196,-19 -219,19 -2,49 36,102 85,129 52,-15 99,-29 154,-29l-8 62c-155,21 -185,82 -351,82l0 0 0 0z"/>
 </g>
</svg>
