<?xml version="1.0" encoding="UTF-8"?>
<!DOCTYPE svg PUBLIC "-//W3C//DTD SVG 1.0//EN" "http://www.w3.org/TR/2001/REC-SVG-20010904/DTD/svg10.dtd">
<!-- Creator: CorelDRAW -->
<svg xmlns="http://www.w3.org/2000/svg" xml:space="preserve" width="1300px" height="1300px" version="1.0" style="shape-rendering:geometricPrecision; text-rendering:geometricPrecision; image-rendering:optimizeQuality; fill-rule:evenodd; clip-rule:evenodd"
viewBox="0 0 1300 1056"
 xmlns:xlink="http://www.w3.org/1999/xlink">
 <defs>
  <style type="text/css">
   <![CDATA[
    .fil0 {fill:#CC6633}
   ]]>
  </style>
 </defs>
 <g id="_100:master">
  <metadata id="CorelCorpID_0Corel-Layer"/>
  <path class="fil0" d="M852 509c55,-14 105,-28 163,-28l-16 46c-57,5 -101,29 -154,51l0 1c-81,48 -139,120 -147,172 -24,139 181,167 354,123l5 22c-114,128 -412,111 -404,-123 3,-79 41,-169 119,-233 -37,-29 -59,-107 -49,-161l0 0 1 -5 0 0c31,-103 167,-136 266,-60l-11 32c-67,-17 -159,-6 -209,46 8,50 47,114 82,117z"/>
 </g>
</svg>
