<?xml version="1.0" encoding="UTF-8"?>
<!DOCTYPE svg PUBLIC "-//W3C//DTD SVG 1.0//EN" "http://www.w3.org/TR/2001/REC-SVG-20010904/DTD/svg10.dtd">
<!-- Creator: CorelDRAW -->
<svg xmlns="http://www.w3.org/2000/svg" xml:space="preserve" width="1300px" height="1300px" version="1.0" style="shape-rendering:geometricPrecision; text-rendering:geometricPrecision; image-rendering:optimizeQuality; fill-rule:evenodd; clip-rule:evenodd"
viewBox="0 0 1300 1056"
 xmlns:xlink="http://www.w3.org/1999/xlink">
 <defs>
  <style type="text/css">
   <![CDATA[
    .fil0 {fill:#336666}
   ]]>
  </style>
 </defs>
 <g id="_100:master">
  <metadata id="CorelCorpID_0Corel-Layer"/>
  <path class="fil0" d="M603 650l0 0c-20,-1 -40,-20 -40,-41 0,-20 20,-39 39,-40l0 0 2 0 46 0c39,0 75,-4 107,-10 -42,-43 -71,-86 -116,-90l22 -98c149,-52 317,-29 312,67 -2,38 -37,84 -88,124 20,4 44,7 72,7l75 0 0 81 -68 0c-67,0 -114,-18 -152,-42 -50,25 -106,42 -158,42l-52 0 -1 0zm223 -110c55,-21 92,-48 102,-71 16,-32 -109,-53 -228,-31 50,29 75,73 126,102z"/>
 </g>
</svg>
