<?xml version="1.0" encoding="UTF-8"?>
<!DOCTYPE svg PUBLIC "-//W3C//DTD SVG 1.0//EN" "http://www.w3.org/TR/2001/REC-SVG-20010904/DTD/svg10.dtd">
<!-- Creator: CorelDRAW -->
<svg xmlns="http://www.w3.org/2000/svg" xml:space="preserve" width="1300px" height="1300px" version="1.0" style="shape-rendering:geometricPrecision; text-rendering:geometricPrecision; image-rendering:optimizeQuality; fill-rule:evenodd; clip-rule:evenodd"
viewBox="0 0 1300 1056"
 xmlns:xlink="http://www.w3.org/1999/xlink">
 <defs>
  <style type="text/css">
   <![CDATA[
    .fil0 {fill:#336666}
   ]]>
  </style>
 </defs>
 <g id="_100:master">
  <metadata id="CorelCorpID_0Corel-Layer"/>
  <path class="fil0" d="M604 650l0 0c-21,0 -41,-20 -41,-41 0,-21 20,-40 40,-40l0 0 1 0 48 0c33,0 67,-6 99,-15 -32,-42 -49,-82 -107,-83l11 -51 1 0 7 -33c206,-71 294,-31 286,64 -3,44 -28,81 -63,110 27,5 62,8 105,8l0 81c-88,0 -143,-17 -181,-41 -57,27 -119,41 -159,41l-47 0 0 0zm204 -116c60,-26 103,-61 98,-79 -8,-32 -95,-35 -185,-13 42,26 45,64 87,92z"/>
 </g>
</svg>
