<?xml version="1.0" encoding="UTF-8"?>
<!DOCTYPE svg PUBLIC "-//W3C//DTD SVG 1.0//EN" "http://www.w3.org/TR/2001/REC-SVG-20010904/DTD/svg10.dtd">
<!-- Creator: CorelDRAW -->
<svg xmlns="http://www.w3.org/2000/svg" xml:space="preserve" width="1300px" height="1300px" version="1.0" style="shape-rendering:geometricPrecision; text-rendering:geometricPrecision; image-rendering:optimizeQuality; fill-rule:evenodd; clip-rule:evenodd"
viewBox="0 0 1300 1056"
 xmlns:xlink="http://www.w3.org/1999/xlink">
 <defs>
  <style type="text/css">
   <![CDATA[
    .fil0 {fill:#666666;fill-opacity:0.850980}
   ]]>
  </style>
 </defs>
 <g id="_100:master">
  <metadata id="CorelCorpID_0Corel-Layer"/>
  <path class="fil0" d="M823 506l6 -3 1 0c51,-25 80,-57 76,-74 -8,-32 -96,-35 -187,-12 42,25 56,64 89,96 5,-2 10,-5 15,-7zm-9 93c-65,47 -109,107 -116,152 -24,139 181,167 354,123l5 22c-114,128 -412,111 -404,-123 3,-76 38,-163 111,-226 -39,-51 -62,-101 -120,-102l11 -51 1 0 7 -33c206,-71 292,-31 286,64 -3,51 -36,94 -81,126 30,11 71,18 127,18l62 0 -1 81 -73 0c-80,0 -132,-22 -169,-51z"/>
 </g>
</svg>
