<?xml version="1.0" encoding="UTF-8"?>
<!DOCTYPE svg PUBLIC "-//W3C//DTD SVG 1.0//EN" "http://www.w3.org/TR/2001/REC-SVG-20010904/DTD/svg10.dtd">
<!-- Creator: CorelDRAW -->
<svg xmlns="http://www.w3.org/2000/svg" xml:space="preserve" width="1300px" height="1300px" version="1.0" style="shape-rendering:geometricPrecision; text-rendering:geometricPrecision; image-rendering:optimizeQuality; fill-rule:evenodd; clip-rule:evenodd"
viewBox="0 0 1300 1056"
 xmlns:xlink="http://www.w3.org/1999/xlink">
 <defs>
  <style type="text/css">
   <![CDATA[
    .fil0 {fill:#336666}
   ]]>
  </style>
 </defs>
 <g id="_100:master">
  <metadata id="CorelCorpID_0Corel-Layer"/>
  <path class="fil0" d="M553 650l0 0c-20,-1 -40,-20 -40,-41 1,-20 20,-39 40,-40l0 0 1 0 15 0c57,0 111,-10 159,-24 -47,-42 -82,-81 -137,-83l3 -13 -1 0 18 -80c201,-70 364,-64 337,78 -5,26 -35,67 -85,105 38,10 86,17 153,17l0 81c-103,0 -171,-24 -222,-55 -60,32 -135,55 -218,55l-22 0 -1 0zm240 -128c56,-23 94,-48 102,-58 53,-64 -109,-71 -238,-37 59,24 84,64 136,95z"/>
 </g>
</svg>
