<?xml version="1.0" encoding="UTF-8"?>
<!DOCTYPE svg PUBLIC "-//W3C//DTD SVG 1.0//EN" "http://www.w3.org/TR/2001/REC-SVG-20010904/DTD/svg10.dtd">
<!-- Creator: CorelDRAW -->
<svg xmlns="http://www.w3.org/2000/svg" xml:space="preserve" width="1300px" height="1300px" version="1.0" style="shape-rendering:geometricPrecision; text-rendering:geometricPrecision; image-rendering:optimizeQuality; fill-rule:evenodd; clip-rule:evenodd"
viewBox="0 0 1300 1056"
 xmlns:xlink="http://www.w3.org/1999/xlink">
 <defs>
  <style type="text/css">
   <![CDATA[
    .fil0 {fill:#336666}
   ]]>
  </style>
 </defs>
 <g id="_100:master">
  <metadata id="CorelCorpID_0Corel-Layer"/>
  <path class="fil0" d="M553 650l0 0c-20,-1 -40,-20 -40,-41 1,-20 20,-39 40,-40l0 0 1 0 15 0c55,0 106,-7 151,-19 -42,-43 -74,-85 -132,-86l5 -23 0 0 18 -81c120,-68 381,-84 337,79 -12,44 -41,87 -86,123 19,4 40,7 64,7l90 0 0 81 -63 0c-75,0 -126,-18 -166,-43 -58,27 -129,43 -211,43l-22 0 -1 0zm236 -121c55,-22 93,-50 106,-73 39,-70 -131,-70 -241,-38 50,18 80,72 135,111z"/>
 </g>
</svg>
