<?xml version="1.0" encoding="UTF-8"?>
<!DOCTYPE svg PUBLIC "-//W3C//DTD SVG 1.0//EN" "http://www.w3.org/TR/2001/REC-SVG-20010904/DTD/svg10.dtd">
<!-- Creator: CorelDRAW -->
<svg xmlns="http://www.w3.org/2000/svg" xml:space="preserve" width="1300px" height="1300px" version="1.0" style="shape-rendering:geometricPrecision; text-rendering:geometricPrecision; image-rendering:optimizeQuality; fill-rule:evenodd; clip-rule:evenodd"
viewBox="0 0 1300 1056"
 xmlns:xlink="http://www.w3.org/1999/xlink">
 <defs>
  <style type="text/css">
   <![CDATA[
    .fil0 {fill:#336666}
   ]]>
  </style>
 </defs>
 <g id="_100:master">
  <metadata id="CorelCorpID_0Corel-Layer"/>
  <path class="fil0" d="M805 516l8 -4 16 -9 1 0c53,-29 89,-61 91,-72 10,-42 -129,-46 -244,-19 52,27 78,70 128,104zm-203 -79l-1 0 10 -46 0 0 8 -35c191,-66 361,-63 345,58 -7,52 -42,98 -91,135 38,12 87,20 154,20l51 0 1 81 -52 0c-95,0 -160,-23 -210,-53 -66,47 -112,108 -119,154 -24,139 181,167 354,123l5 22c-114,128 -412,111 -404,-123 3,-74 36,-158 105,-221 -59,-53 -94,-108 -157,-110l1 -5z"/>
 </g>
</svg>
