<?xml version="1.0" encoding="UTF-8"?>
<!DOCTYPE svg PUBLIC "-//W3C//DTD SVG 1.0//EN" "http://www.w3.org/TR/2001/REC-SVG-20010904/DTD/svg10.dtd">
<!-- Creator: CorelDRAW -->
<svg xmlns="http://www.w3.org/2000/svg" xml:space="preserve" width="1300px" height="1300px" version="1.0" style="shape-rendering:geometricPrecision; text-rendering:geometricPrecision; image-rendering:optimizeQuality; fill-rule:evenodd; clip-rule:evenodd"
viewBox="0 0 1300 1056"
 xmlns:xlink="http://www.w3.org/1999/xlink">
 <defs>
  <style type="text/css">
   <![CDATA[
    .fil0 {fill:#336666}
   ]]>
  </style>
 </defs>
 <g id="_100:master">
  <metadata id="CorelCorpID_0Corel-Layer"/>
  <path class="fil0" d="M570 569c56,0 107,-7 151,-17 -43,-44 -74,-87 -133,-88l5 -23 0 0 18 -81c120,-68 381,-84 337,79 -11,43 -38,84 -78,119 23,7 50,11 80,11l66 0 0 81 -63 0c-74,0 -125,-18 -164,-42 -59,26 -132,42 -220,42l-31 0c-21,0 -41,-20 -41,-41 0,-21 20,-40 41,-40l32 0zm232 -44c48,-21 80,-46 93,-69 39,-70 -130,-70 -241,-39 53,18 90,70 148,108z"/>
 </g>
</svg>
