<?xml version="1.0" encoding="UTF-8"?>
<!DOCTYPE svg PUBLIC "-//W3C//DTD SVG 1.0//EN" "http://www.w3.org/TR/2001/REC-SVG-20010904/DTD/svg10.dtd">
<!-- Creator: CorelDRAW -->
<svg xmlns="http://www.w3.org/2000/svg" xml:space="preserve" width="1300px" height="1300px" version="1.0" style="shape-rendering:geometricPrecision; text-rendering:geometricPrecision; image-rendering:optimizeQuality; fill-rule:evenodd; clip-rule:evenodd"
viewBox="0 0 1300 1056"
 xmlns:xlink="http://www.w3.org/1999/xlink">
 <defs>
  <style type="text/css">
   <![CDATA[
    .fil0 {fill:#CC6633}
   ]]>
  </style>
 </defs>
 <g id="_100:master">
  <metadata id="CorelCorpID_0Corel-Layer"/>
  <path class="fil0" d="M617 650l0 0c-20,0 -40,-20 -40,-41 0,-20 20,-40 41,-40 38,0 72,-3 103,-8 -30,-35 -46,-102 -37,-149l0 0 0 0c0,-2 1,-4 1,-6l0 0c31,-103 167,-135 266,-59l-11 32c-67,-18 -159,-6 -209,46 7,48 44,109 94,113 51,-12 97,-24 151,-24l-16 46c-109,9 -174,90 -343,90l0 0 0 0z"/>
 </g>
</svg>
