<?xml version="1.0" encoding="UTF-8"?>
<!DOCTYPE svg PUBLIC "-//W3C//DTD SVG 1.0//EN" "http://www.w3.org/TR/2001/REC-SVG-20010904/DTD/svg10.dtd">
<!-- Creator: CorelDRAW -->
<svg xmlns="http://www.w3.org/2000/svg" xml:space="preserve" width="1300px" height="1300px" version="1.0" style="shape-rendering:geometricPrecision; text-rendering:geometricPrecision; image-rendering:optimizeQuality; fill-rule:evenodd; clip-rule:evenodd"
viewBox="0 0 1300 1056"
 xmlns:xlink="http://www.w3.org/1999/xlink">
 <defs>
  <style type="text/css">
   <![CDATA[
    .fil0 {fill:#336666}
   ]]>
  </style>
 </defs>
 <g id="_100:master">
  <metadata id="CorelCorpID_0Corel-Layer"/>
  <path class="fil0" d="M553 650l0 0c-20,-1 -40,-20 -40,-41 1,-20 20,-39 40,-40l0 0 1 0 15 0c56,0 110,-10 157,-24 -46,-41 -82,-80 -138,-81l12 -52 1 -1 10 -42c120,-68 375,-86 337,78 -6,26 -38,68 -89,107 26,9 56,15 91,15l66 0 0 81 -39 0c-84,0 -142,-23 -187,-53 -60,31 -133,53 -214,53l-22 0 -1 0zm243 -129c54,-23 91,-47 99,-57 49,-59 -112,-66 -226,-41 43,21 78,64 127,98z"/>
 </g>
</svg>
