<?xml version="1.0" encoding="UTF-8"?>
<!DOCTYPE svg PUBLIC "-//W3C//DTD SVG 1.0//EN" "http://www.w3.org/TR/2001/REC-SVG-20010904/DTD/svg10.dtd">
<!-- Creator: CorelDRAW -->
<svg xmlns="http://www.w3.org/2000/svg" xml:space="preserve" width="1300px" height="1300px" version="1.0" style="shape-rendering:geometricPrecision; text-rendering:geometricPrecision; image-rendering:optimizeQuality; fill-rule:evenodd; clip-rule:evenodd"
viewBox="0 0 1300 1056"
 xmlns:xlink="http://www.w3.org/1999/xlink">
 <defs>
  <style type="text/css">
   <![CDATA[
    .fil0 {fill:#336666}
   ]]>
  </style>
 </defs>
 <g id="_100:master">
  <metadata id="CorelCorpID_0Corel-Layer"/>
  <path class="fil0" d="M603 650l0 0c-20,-1 -40,-20 -40,-41 0,-20 20,-39 39,-40l0 0 2 0 46 0c39,0 74,-5 104,-13 -40,-42 -69,-84 -113,-87l22 -98c149,-52 317,-45 312,50 -2,41 -41,94 -97,139 22,6 49,9 81,9l75 0 0 81 -68 0c-69,0 -118,-19 -156,-45 -49,27 -103,45 -154,45l-52 0 -1 0zm213 -116c53,-25 86,-58 97,-81 15,-32 -99,-41 -214,-16 48,28 72,68 117,97z"/>
 </g>
</svg>
