<?xml version="1.0" encoding="UTF-8"?>
<!DOCTYPE svg PUBLIC "-//W3C//DTD SVG 1.0//EN" "http://www.w3.org/TR/2001/REC-SVG-20010904/DTD/svg10.dtd">
<!-- Creator: CorelDRAW -->
<svg xmlns="http://www.w3.org/2000/svg" xml:space="preserve" width="1300px" height="1300px" version="1.0" style="shape-rendering:geometricPrecision; text-rendering:geometricPrecision; image-rendering:optimizeQuality; fill-rule:evenodd; clip-rule:evenodd"
viewBox="0 0 1300 1056"
 xmlns:xlink="http://www.w3.org/1999/xlink">
 <defs>
  <style type="text/css">
   <![CDATA[
    .fil0 {fill:#336666}
   ]]>
  </style>
 </defs>
 <g id="_100:master">
  <metadata id="CorelCorpID_0Corel-Layer"/>
  <path class="fil0" d="M553 650l0 0c-20,-1 -40,-20 -40,-41 1,-20 20,-39 40,-40l0 0 1 0 15 0c23,0 86,-16 152,-36 -43,-41 -76,-77 -129,-79l1 -5 0 0 10 -46 0 0 8 -34c201,-70 364,-64 337,78 -4,26 -35,66 -84,104 37,11 86,18 152,18l0 81c-102,0 -169,-24 -219,-56 -61,32 -137,56 -221,56l-22 0 -1 0zm229 -139c63,-23 116,-49 123,-67 16,-41 -121,-46 -235,-19 46,23 71,57 112,86z"/>
 </g>
</svg>
