<?xml version="1.0" encoding="UTF-8"?>
<!DOCTYPE svg PUBLIC "-//W3C//DTD SVG 1.0//EN" "http://www.w3.org/TR/2001/REC-SVG-20010904/DTD/svg10.dtd">
<!-- Creator: CorelDRAW -->
<svg xmlns="http://www.w3.org/2000/svg" xml:space="preserve" width="1300px" height="1300px" version="1.0" style="shape-rendering:geometricPrecision; text-rendering:geometricPrecision; image-rendering:optimizeQuality; fill-rule:evenodd; clip-rule:evenodd"
viewBox="0 0 1300 1056"
 xmlns:xlink="http://www.w3.org/1999/xlink">
 <defs>
  <style type="text/css">
   <![CDATA[
    .fil0 {fill:#336666}
   ]]>
  </style>
 </defs>
 <g id="_100:master">
  <metadata id="CorelCorpID_0Corel-Layer"/>
  <path class="fil0" d="M603 650l0 0c-20,-1 -40,-20 -40,-41 0,-20 20,-39 39,-40l0 0 2 0 46 0c40,0 76,-6 108,-16 -42,-41 -74,-81 -117,-84l16 -72 0 0 6 -26c218,-69 310,-32 311,63 0,38 -38,83 -90,122 25,8 54,13 91,13l43 0 0 81 -36 0c-74,0 -126,-22 -168,-50 -56,30 -116,50 -158,50l-52 0 -1 0zm222 -125c53,-28 87,-64 97,-87 14,-30 -89,-30 -198,-7 36,28 62,66 101,94z"/>
 </g>
</svg>
