<?xml version="1.0" encoding="UTF-8"?>
<!DOCTYPE svg PUBLIC "-//W3C//DTD SVG 1.0//EN" "http://www.w3.org/TR/2001/REC-SVG-20010904/DTD/svg10.dtd">
<!-- Creator: CorelDRAW -->
<svg xmlns="http://www.w3.org/2000/svg" xml:space="preserve" width="1300px" height="1300px" version="1.0" style="shape-rendering:geometricPrecision; text-rendering:geometricPrecision; image-rendering:optimizeQuality; fill-rule:evenodd; clip-rule:evenodd"
viewBox="0 0 1300 1056"
 xmlns:xlink="http://www.w3.org/1999/xlink">
 <defs>
  <style type="text/css">
   <![CDATA[
    .fil0 {fill:#336666}
   ]]>
  </style>
 </defs>
 <g id="_100:master">
  <metadata id="CorelCorpID_0Corel-Layer"/>
  <path class="fil0" d="M603 650l0 0c-20,-1 -40,-20 -40,-41 0,-20 20,-39 39,-40l0 0 2 0 46 0c41,0 79,-5 112,-13 -45,-42 -77,-84 -121,-87l22 -98c149,-52 334,-30 311,88 -7,33 -39,69 -83,101 23,5 51,9 84,9l43 0 0 81 -36 0c-71,0 -122,-20 -163,-47 -57,28 -118,47 -163,47l-52 0 -1 0zm226 -115c50,-22 83,-50 93,-72 15,-33 -105,-48 -222,-25 50,27 79,68 129,97z"/>
 </g>
</svg>
