<?xml version="1.0" encoding="UTF-8"?>
<!DOCTYPE svg PUBLIC "-//W3C//DTD SVG 1.0//EN" "http://www.w3.org/TR/2001/REC-SVG-20010904/DTD/svg10.dtd">
<!-- Creator: CorelDRAW -->
<svg xmlns="http://www.w3.org/2000/svg" xml:space="preserve" width="1300px" height="1300px" version="1.0" style="shape-rendering:geometricPrecision; text-rendering:geometricPrecision; image-rendering:optimizeQuality; fill-rule:evenodd; clip-rule:evenodd"
viewBox="0 0 1300 1056"
 xmlns:xlink="http://www.w3.org/1999/xlink">
 <defs>
  <style type="text/css">
   <![CDATA[
    .fil0 {fill:#336666}
   ]]>
  </style>
 </defs>
 <g id="_100:master">
  <metadata id="CorelCorpID_0Corel-Layer"/>
  <path class="fil0" d="M603 650l0 0c-20,-1 -40,-20 -40,-41 0,-20 20,-39 39,-40l0 0 2 0 46 0c43,0 85,-6 123,-15 -40,-41 -73,-81 -132,-85l22 -98c149,-52 336,-69 336,56 0,49 -37,97 -88,136 19,4 39,6 64,6l59 0 0 81 -52 0c-65,0 -111,-17 -146,-41 -51,26 -104,41 -144,41l-88 0 -1 0zm238 -116c61,-24 102,-55 106,-80 7,-56 -117,-49 -235,-21 58,24 82,69 129,101z"/>
 </g>
</svg>
