<?xml version="1.0" encoding="UTF-8"?>
<!DOCTYPE svg PUBLIC "-//W3C//DTD SVG 1.0//EN" "http://www.w3.org/TR/2001/REC-SVG-20010904/DTD/svg10.dtd">
<!-- Creator: CorelDRAW -->
<svg xmlns="http://www.w3.org/2000/svg" xml:space="preserve" width="1300px" height="1300px" version="1.0" style="shape-rendering:geometricPrecision; text-rendering:geometricPrecision; image-rendering:optimizeQuality; fill-rule:evenodd; clip-rule:evenodd"
viewBox="0 0 1300 1056"
 xmlns:xlink="http://www.w3.org/1999/xlink">
 <defs>
  <style type="text/css">
   <![CDATA[
    .fil0 {fill:#336666;fill-opacity:0.600000}
   ]]>
  </style>
 </defs>
 <g id="_100:master">
  <metadata id="CorelCorpID_0Corel-Layer"/>
  <path class="fil0" d="M868 533c43,-20 72,-45 76,-62l0 0c2,-20 -54,-66 -87,-65 -18,1 -54,34 -69,75 9,20 41,38 80,52zm-113 -30c0,-81 66,-178 114,-178 49,8 91,65 106,121 13,38 -1,76 -30,109 42,9 83,14 111,14l0 81c-62,0 -134,-12 -192,-36 -45,22 -100,36 -153,36l-28 0 -1 0 0 0c-20,-1 -40,-20 -39,-41 0,-21 20,-40 40,-40l0 0 0 0 28 0c26,0 51,-3 74,-8 -15,-17 -26,-36 -30,-58z"/>
 </g>
</svg>
