<?xml version="1.0" encoding="UTF-8"?>
<!DOCTYPE svg PUBLIC "-//W3C//DTD SVG 1.0//EN" "http://www.w3.org/TR/2001/REC-SVG-20010904/DTD/svg10.dtd">
<!-- Creator: CorelDRAW -->
<svg xmlns="http://www.w3.org/2000/svg" xml:space="preserve" width="1300px" height="1300px" version="1.0" style="shape-rendering:geometricPrecision; text-rendering:geometricPrecision; image-rendering:optimizeQuality; fill-rule:evenodd; clip-rule:evenodd"
viewBox="0 0 1300 1056"
 xmlns:xlink="http://www.w3.org/1999/xlink">
 <defs>
  <style type="text/css">
   <![CDATA[
    .fil0 {fill:#336666;fill-opacity:0.600000}
   ]]>
  </style>
 </defs>
 <g id="_100:master">
  <metadata id="CorelCorpID_0Corel-Layer"/>
  <path class="fil0" d="M858 525c48,-22 82,-47 78,-54l0 0c1,-20 -38,-65 -63,-65 -25,0 -67,53 -69,66 -1,7 16,31 54,53zm-87 -30c-2,-48 41,-170 106,-170 64,0 90,98 90,121 9,27 -8,69 -45,107 31,10 68,16 112,16l22 0 0 81 -13 0c-72,0 -137,-17 -186,-46 -47,27 -107,46 -176,46l-22 0 -1 0 0 0c-20,-1 -40,-20 -40,-41 1,-21 20,-40 40,-40l0 0 1 0 33 0c32,0 69,-8 103,-19 -12,-17 -20,-36 -24,-55z"/>
 </g>
</svg>
