<?xml version="1.0" encoding="UTF-8"?>
<!DOCTYPE svg PUBLIC "-//W3C//DTD SVG 1.0//EN" "http://www.w3.org/TR/2001/REC-SVG-20010904/DTD/svg10.dtd">
<!-- Creator: CorelDRAW -->
<svg xmlns="http://www.w3.org/2000/svg" xml:space="preserve" width="1300px" height="1300px" version="1.0" style="shape-rendering:geometricPrecision; text-rendering:geometricPrecision; image-rendering:optimizeQuality; fill-rule:evenodd; clip-rule:evenodd"
viewBox="0 0 1300 1056"
 xmlns:xlink="http://www.w3.org/1999/xlink">
 <defs>
  <style type="text/css">
   <![CDATA[
    .fil0 {fill:#996633}
   ]]>
  </style>
 </defs>
 <g id="_100:master">
  <metadata id="CorelCorpID_0Corel-Layer"/>
  <path class="fil0" d="M960 569l0 0c-23,52 -68,81 -127,81l-98 0c-20,0 -41,-20 -40,-41 0,-21 20,-40 40,-40 33,0 65,0 98,0 38,0 67,-9 87,-20 3,-15 5,-32 6,-48 -112,-7 -192,-5 -172,-125 9,-67 52,-144 113,-144 115,0 137,262 93,337zm-37 -150c-8,-55 -31,-99 -72,-101 -38,-2 -60,44 -62,62 -3,36 46,34 134,39z"/>
 </g>
</svg>
