<?xml version="1.0" encoding="UTF-8"?>
<!DOCTYPE svg PUBLIC "-//W3C//DTD SVG 1.0//EN" "http://www.w3.org/TR/2001/REC-SVG-20010904/DTD/svg10.dtd">
<!-- Creator: CorelDRAW -->
<svg xmlns="http://www.w3.org/2000/svg" xml:space="preserve" width="1300px" height="1300px" version="1.0" style="shape-rendering:geometricPrecision; text-rendering:geometricPrecision; image-rendering:optimizeQuality; fill-rule:evenodd; clip-rule:evenodd"
viewBox="0 0 1300 1056"
 xmlns:xlink="http://www.w3.org/1999/xlink">
 <defs>
  <style type="text/css">
   <![CDATA[
    .fil0 {fill:#996633}
   ]]>
  </style>
 </defs>
 <g id="_100:master">
  <metadata id="CorelCorpID_0Corel-Layer"/>
  <path class="fil0" d="M924 509c0,-6 1,-12 0,-18 -74,19 -194,23 -182,-97 10,-69 47,-150 110,-150 78,0 137,113 125,242 -1,14 -4,32 -9,47 -5,19 -14,38 -30,45 -172,81 -749,178 -584,-221l20 9c-90,269 344,217 550,143l0 0zm-9 -93c-12,-51 -38,-91 -78,-91 -38,0 -61,50 -58,65 -6,30 70,38 136,26z"/>
 </g>
</svg>
