<?xml version="1.0" encoding="UTF-8"?>
<!DOCTYPE svg PUBLIC "-//W3C//DTD SVG 1.0//EN" "http://www.w3.org/TR/2001/REC-SVG-20010904/DTD/svg10.dtd">
<!-- Creator: CorelDRAW -->
<svg xmlns="http://www.w3.org/2000/svg" xml:space="preserve" width="1300px" height="1300px" version="1.0" style="shape-rendering:geometricPrecision; text-rendering:geometricPrecision; image-rendering:optimizeQuality; fill-rule:evenodd; clip-rule:evenodd"
viewBox="0 0 1300 1056"
 xmlns:xlink="http://www.w3.org/1999/xlink">
 <defs>
  <style type="text/css">
   <![CDATA[
    .fil0 {fill:#996633}
   ]]>
  </style>
 </defs>
 <g id="_100:master">
  <metadata id="CorelCorpID_0Corel-Layer"/>
  <path class="fil0" d="M960 569l0 0c-23,52 -68,81 -127,81l-98 0c-20,0 -41,-20 -40,-41 0,-21 20,-40 40,-40 33,0 65,0 98,0 38,0 67,-9 87,-20 4,-18 6,-37 7,-55 -72,-1 -186,-1 -174,-110l0 0 0 0c0,-4 1,-8 1,-12l1 0c13,-66 53,-140 112,-140 115,0 137,262 93,337zm-38 -157c-9,-52 -32,-92 -71,-94 -37,-2 -58,41 -62,60 1,35 71,34 133,34z"/>
 </g>
</svg>
