<?xml version="1.0" encoding="UTF-8"?>
<!DOCTYPE svg PUBLIC "-//W3C//DTD SVG 1.0//EN" "http://www.w3.org/TR/2001/REC-SVG-20010904/DTD/svg10.dtd">
<!-- Creator: CorelDRAW -->
<svg xmlns="http://www.w3.org/2000/svg" xml:space="preserve" width="1300px" height="1300px" version="1.0" style="shape-rendering:geometricPrecision; text-rendering:geometricPrecision; image-rendering:optimizeQuality; fill-rule:evenodd; clip-rule:evenodd"
viewBox="0 0 1300 1056"
 xmlns:xlink="http://www.w3.org/1999/xlink">
 <defs>
  <style type="text/css">
   <![CDATA[
    .fil0 {fill:#996633}
   ]]>
  </style>
 </defs>
 <g id="_100:master">
  <metadata id="CorelCorpID_0Corel-Layer"/>
  <path class="fil0" d="M948 591l0 0c-25,38 -65,59 -115,59l-130 0c-21,0 -41,-20 -41,-41 0,-21 21,-40 41,-40 43,0 86,0 130,0 43,0 74,-11 95,-25l1 0c4,-18 5,-36 3,-55 -76,21 -230,31 -198,-95 93,-371 339,43 214,197zm-37 -173c-40,-87 -124,-140 -140,-28 -6,40 72,42 140,28z"/>
 </g>
</svg>
