<?xml version="1.0" encoding="UTF-8"?>
<!DOCTYPE svg PUBLIC "-//W3C//DTD SVG 1.0//EN" "http://www.w3.org/TR/2001/REC-SVG-20010904/DTD/svg10.dtd">
<!-- Creator: CorelDRAW -->
<svg xmlns="http://www.w3.org/2000/svg" xml:space="preserve" width="1300px" height="1300px" version="1.0" style="shape-rendering:geometricPrecision; text-rendering:geometricPrecision; image-rendering:optimizeQuality; fill-rule:evenodd; clip-rule:evenodd"
viewBox="0 0 1300 1056"
 xmlns:xlink="http://www.w3.org/1999/xlink">
 <defs>
  <style type="text/css">
   <![CDATA[
    .fil0 {fill:#336666;fill-opacity:0.600000}
   ]]>
  </style>
 </defs>
 <g id="_100:master">
  <metadata id="CorelCorpID_0Corel-Layer"/>
  <path class="fil0" d="M879 533c46,-24 66,-53 62,-62l0 0c1,-20 -38,-66 -71,-65 -18,1 -46,18 -61,58 -1,7 20,41 70,69zm-103 -46c0,-82 58,-162 106,-162 49,8 90,64 90,121 7,22 -5,67 -39,109 29,8 62,14 101,14l22 0 0 81 -13 0c-65,0 -124,-16 -170,-42 -40,25 -92,42 -159,42l-23 0 0 0 0 0c-20,-1 -40,-20 -40,-41 0,-21 20,-40 40,-40l0 0 0 0 24 0c36,0 68,-4 96,-11 -19,-22 -31,-46 -35,-71z"/>
 </g>
</svg>
