<?xml version="1.0" encoding="UTF-8"?>
<!DOCTYPE svg PUBLIC "-//W3C//DTD SVG 1.0//EN" "http://www.w3.org/TR/2001/REC-SVG-20010904/DTD/svg10.dtd">
<!-- Creator: CorelDRAW -->
<svg xmlns="http://www.w3.org/2000/svg" xml:space="preserve" width="1300px" height="1300px" version="1.0" style="shape-rendering:geometricPrecision; text-rendering:geometricPrecision; image-rendering:optimizeQuality; fill-rule:evenodd; clip-rule:evenodd"
viewBox="0 0 1300 1056"
 xmlns:xlink="http://www.w3.org/1999/xlink">
 <defs>
  <style type="text/css">
   <![CDATA[
    .fil0 {fill:#336666;fill-opacity:0.600000}
   ]]>
  </style>
 </defs>
 <g id="_100:master">
  <metadata id="CorelCorpID_0Corel-Layer"/>
  <path class="fil0" d="M875 543c53,-21 78,-47 74,-56l0 0c1,-19 -46,-82 -79,-81 -18,1 -62,42 -77,83 -1,7 26,33 82,54zm-115 -32c0,-81 74,-186 122,-186 49,8 98,80 98,138 7,21 -5,60 -39,98 27,5 58,8 93,8l22 0 0 81 -13 0c-66,0 -129,-11 -179,-32 -40,19 -90,32 -150,32l-23 0 0 0 0 0c-20,-1 -40,-20 -40,-41 0,-21 20,-40 40,-40l0 0 0 0 24 0c25,0 49,-2 70,-5 -13,-15 -22,-33 -25,-53z"/>
 </g>
</svg>
