<?xml version="1.0" encoding="UTF-8"?>
<!DOCTYPE svg PUBLIC "-//W3C//DTD SVG 1.0//EN" "http://www.w3.org/TR/2001/REC-SVG-20010904/DTD/svg10.dtd">
<!-- Creator: CorelDRAW -->
<svg xmlns="http://www.w3.org/2000/svg" xml:space="preserve" width="1300px" height="1300px" version="1.0" style="shape-rendering:geometricPrecision; text-rendering:geometricPrecision; image-rendering:optimizeQuality; fill-rule:evenodd; clip-rule:evenodd"
viewBox="0 0 1300 1056"
 xmlns:xlink="http://www.w3.org/1999/xlink">
 <defs>
  <style type="text/css">
   <![CDATA[
    .fil0 {fill:#336666;fill-opacity:0.600000}
   ]]>
  </style>
 </defs>
 <g id="_100:master">
  <metadata id="CorelCorpID_0Corel-Layer"/>
  <path class="fil0" d="M874 533c51,-27 74,-61 70,-71l0 0c2,-5 -39,-56 -71,-56 -31,0 -75,45 -77,58 -1,7 25,41 78,69zm-111 -46c-2,-48 65,-162 118,-162 53,0 94,90 94,113 7,23 -6,72 -43,117 29,8 63,14 102,14l22 0 0 81 -13 0c-64,0 -125,-16 -174,-41 -40,24 -91,41 -155,41l-23 0 0 0 0 0c-20,-1 -40,-20 -40,-41 0,-21 20,-40 40,-40l0 0 0 0 24 0c32,0 61,-4 87,-10 -21,-22 -35,-46 -39,-72z"/>
 </g>
</svg>
