<?xml version="1.0" encoding="UTF-8"?>
<!DOCTYPE svg PUBLIC "-//W3C//DTD SVG 1.0//EN" "http://www.w3.org/TR/2001/REC-SVG-20010904/DTD/svg10.dtd">
<!-- Creator: CorelDRAW -->
<svg xmlns="http://www.w3.org/2000/svg" xml:space="preserve" width="1300px" height="1300px" version="1.0" style="shape-rendering:geometricPrecision; text-rendering:geometricPrecision; image-rendering:optimizeQuality; fill-rule:evenodd; clip-rule:evenodd"
viewBox="0 0 1300 1056"
 xmlns:xlink="http://www.w3.org/1999/xlink">
 <defs>
  <style type="text/css">
   <![CDATA[
    .fil0 {fill:#999966}
   ]]>
  </style>
 </defs>
 <g id="_100:master">
  <metadata id="CorelCorpID_0Corel-Layer"/>
  <path class="fil0" d="M354 357l20 9c-90,269 344,217 550,143l2 0 0 -8c-112,-7 -192,-5 -172,-125 9,-67 52,-144 113,-144 115,0 137,262 93,337l-11 1c-3,3 -7,6 -11,8 -172,81 -749,178 -584,-221zm569 62c-8,-55 -31,-99 -72,-101 -38,-2 -60,44 -62,62 -3,36 46,34 134,39z"/>
 </g>
</svg>
