<?xml version="1.0" encoding="UTF-8"?>
<!DOCTYPE svg PUBLIC "-//W3C//DTD SVG 1.0//EN" "http://www.w3.org/TR/2001/REC-SVG-20010904/DTD/svg10.dtd">
<!-- Creator: CorelDRAW -->
<svg xmlns="http://www.w3.org/2000/svg" xml:space="preserve" width="1300px" height="1300px" version="1.0" style="shape-rendering:geometricPrecision; text-rendering:geometricPrecision; image-rendering:optimizeQuality; fill-rule:evenodd; clip-rule:evenodd"
viewBox="0 0 1300 1056"
 xmlns:xlink="http://www.w3.org/1999/xlink">
 <defs>
  <style type="text/css">
   <![CDATA[
    .fil0 {fill:#336666;fill-opacity:0.600000}
   ]]>
  </style>
 </defs>
 <g id="_100:master">
  <metadata id="CorelCorpID_0Corel-Layer"/>
  <path class="fil0" d="M862 533c47,-24 78,-54 74,-62l0 0c1,-20 -39,-48 -71,-48 -18,0 -59,28 -61,41 -1,19 21,47 58,69zm-91 -46c-2,-48 50,-146 98,-146 50,0 89,74 98,105 10,29 -5,73 -41,114 21,5 45,9 69,9l61 0 0 81 -29 0c-64,0 -119,-15 -163,-40 -41,24 -94,40 -158,40l-23 0 -1 0 0 0c-20,-1 -40,-20 -39,-41 0,-21 20,-40 40,-40l0 0 0 0 45 0c26,0 51,-5 75,-12 -17,-21 -28,-45 -32,-70z"/>
 </g>
</svg>
