<?xml version="1.0" encoding="UTF-8"?>
<!DOCTYPE svg PUBLIC "-//W3C//DTD SVG 1.0//EN" "http://www.w3.org/TR/2001/REC-SVG-20010904/DTD/svg10.dtd">
<!-- Creator: CorelDRAW -->
<svg xmlns="http://www.w3.org/2000/svg" xml:space="preserve" width="1300px" height="1300px" version="1.0" style="shape-rendering:geometricPrecision; text-rendering:geometricPrecision; image-rendering:optimizeQuality; fill-rule:evenodd; clip-rule:evenodd"
viewBox="0 0 1300 1056"
 xmlns:xlink="http://www.w3.org/1999/xlink">
 <defs>
  <style type="text/css">
   <![CDATA[
    .fil0 {fill:#996633}
   ]]>
  </style>
 </defs>
 <g id="_100:master">
  <metadata id="CorelCorpID_0Corel-Layer"/>
  <path class="fil0" d="M960 569l0 0c-23,52 -68,81 -127,81l-130 0c-21,0 -41,-20 -41,-41 0,-21 21,-40 41,-40 43,0 86,0 130,0 38,0 66,-8 87,-20 3,-18 5,-38 4,-58 -74,19 -194,23 -182,-97 10,-69 47,-150 110,-150 89,0 152,146 116,296l1 -1c-2,11 -5,21 -9,30l0 0zm-45 -153c-12,-51 -38,-91 -78,-91 -38,0 -61,50 -58,65 -6,30 70,38 136,26z"/>
 </g>
</svg>
