<?xml version="1.0" encoding="UTF-8"?>
<!DOCTYPE svg PUBLIC "-//W3C//DTD SVG 1.0//EN" "http://www.w3.org/TR/2001/REC-SVG-20010904/DTD/svg10.dtd">
<!-- Creator: CorelDRAW -->
<svg xmlns="http://www.w3.org/2000/svg" xml:space="preserve" width="1300px" height="1300px" version="1.0" style="shape-rendering:geometricPrecision; text-rendering:geometricPrecision; image-rendering:optimizeQuality; fill-rule:evenodd; clip-rule:evenodd"
viewBox="0 0 1300 1056"
 xmlns:xlink="http://www.w3.org/1999/xlink">
 <defs>
  <style type="text/css">
   <![CDATA[
    .fil0 {fill:#336666;fill-opacity:0.600000}
   ]]>
  </style>
 </defs>
 <g id="_100:master">
  <metadata id="CorelCorpID_0Corel-Layer"/>
  <path class="fil0" d="M870 530c43,-21 67,-44 74,-51l0 0c2,-20 -46,-73 -71,-73 -25,0 -75,45 -77,58 -1,7 23,39 74,66zm-107 -43c-2,-48 73,-162 126,-162 53,0 86,106 86,129 0,30 -16,66 -47,100 30,9 65,15 106,15l22 0 0 81 -13 0c-67,0 -131,-17 -181,-45 -47,27 -108,45 -181,45l-22 0 -1 0 0 0c-20,-1 -40,-20 -40,-41 1,-21 20,-40 40,-40l0 0 1 0 33 0c41,0 76,-5 107,-13 -19,-21 -32,-45 -36,-69z"/>
 </g>
</svg>
