<?xml version="1.0" encoding="UTF-8"?>
<!DOCTYPE svg PUBLIC "-//W3C//DTD SVG 1.0//EN" "http://www.w3.org/TR/2001/REC-SVG-20010904/DTD/svg10.dtd">
<!-- Creator: CorelDRAW -->
<svg xmlns="http://www.w3.org/2000/svg" xml:space="preserve" width="1300px" height="1300px" version="1.0" style="shape-rendering:geometricPrecision; text-rendering:geometricPrecision; image-rendering:optimizeQuality; fill-rule:evenodd; clip-rule:evenodd"
viewBox="0 0 1300 1056"
 xmlns:xlink="http://www.w3.org/1999/xlink">
 <defs>
  <style type="text/css">
   <![CDATA[
    .fil2 {fill:#666666;fill-opacity:0.850980}
    .fil0 {fill:#FF9933;fill-opacity:0.850980}
    .fil1 {fill:#999966}
   ]]>
  </style>
 </defs>
 <g id="_100:master" visibility="hidden">
  <metadata id="CorelCorpID_0Corel-Layer"/>
  <path class="fil0" d="M670 746l-24 76c-38,-172 106,-365 387,-366l-37 72c-162,0 -317,121 -326,218z"/>
  <path class="fil1" d="M1033 456l-37 72c-102,0 -319,-141 -360,-50l-12 -13c31,-69 67,-92 110,-91 80,1 204,82 299,82z"/>
  <path class="fil2" d="M640 741l89 -107c-105,122 -79,260 287,260l-41 81c-246,0 -351,-87 -335,-234z"/>
 </g>
 <g id="Layer_x0020_1" visibility="hidden">
  <metadata id="CorelCorpID_1Corel-Layer"/>
  <path class="fil2" d="M692 756l-43 25c2,-149 134,-327 384,-325l-37 72c-146,0 -299,150 -304,228z"/>
  <path class="fil2" d="M649 781l43 -26c-10,96 88,123 191,123 51,0 140,-9 169,-20l5 22c-37,28 -113,79 -189,79 -120,0 -220,-59 -219,-178z"/>
  <path class="fil1" d="M1033 456l-37 72c-102,0 -295,-108 -336,-18l-11 -13c30,-69 67,-91 110,-91 80,1 179,50 274,50z"/>
 </g>
 <g id="Layer_x0020_2">
  <metadata id="CorelCorpID_2Corel-Layer"/>
  <path class="fil1" d="M976 358l-1 1 0 0 -37 72c-207,16 -331,153 -344,241 -12,77 128,220 373,75l11 19c-116,199 -468,170 -430,-119 12,-92 76,-193 206,-248 -56,-14 -108,-27 -141,-26 -21,1 -33,9 -52,36l-20 -12c30,-69 53,-105 96,-105 62,0 215,66 339,66z"/>
 </g>
</svg>
