<?xml version="1.0" encoding="UTF-8"?>
<!DOCTYPE svg PUBLIC "-//W3C//DTD SVG 1.0//EN" "http://www.w3.org/TR/2001/REC-SVG-20010904/DTD/svg10.dtd">
<!-- Creator: CorelDRAW -->
<svg xmlns="http://www.w3.org/2000/svg" xml:space="preserve" width="1300px" height="1300px" version="1.0" style="shape-rendering:geometricPrecision; text-rendering:geometricPrecision; image-rendering:optimizeQuality; fill-rule:evenodd; clip-rule:evenodd"
viewBox="0 0 1300 1056"
 xmlns:xlink="http://www.w3.org/1999/xlink">
 <defs>
  <style type="text/css">
   <![CDATA[
    .fil0 {fill:#336666;fill-opacity:0.600000}
    .fil1 {fill:#FF9933;fill-opacity:0.600000}
    .fil3 {fill:#FF9966;fill-opacity:0.600000}
    .fil2 {fill:#CC3300}
   ]]>
  </style>
 </defs>
 <g id="Layer_x0020_1" visibility="hidden">
  <metadata id="CorelCorpID_0Corel-Layer"/>
  <path class="fil0" d="M691 447l-32 -26c-31,55 -18,103 20,136 50,42 141,83 238,117l34 -76c-48,-9 -268,-101 -260,-151z"/>
  <path class="fil1" d="M854 476l-39 14c-14,23 -137,79 -202,79l-24 0 0 81 23 0c95,0 215,-64 242,-174z"/>
  <path class="fil2" d="M590 569c-20,0 -41,19 -41,40 0,21 20,41 41,41l0 -81z"/>
  <path class="fil3" d="M815 490l39 -14c6,-22 22,-128 -23,-154 -65,-38 -149,53 -172,99l32 26c13,-34 65,-74 101,-50 27,18 29,70 23,93z"/>
  <path class="fil2" d="M980 595c-11,21 -37,79 -63,79 -12,0 17,-63 18,-65 25,-40 4,-125 -231,-271l38 -79c274,178 268,273 238,336z"/>
 </g>
 <g id="Layer_x0020_2">
  <metadata id="CorelCorpID_1Corel-Layer"/>
  <path class="fil0" d="M917 568c-9,-38 -40,-75 -81,-110 -1,10 -3,18 -6,25l0 0c-7,23 -16,45 -27,64 42,12 84,18 114,21zm-289 -129c15,-33 36,-64 62,-84l-5 -3 39 -80c140,92 287,189 214,377l0 1c-45,0 -128,-9 -197,-36 -36,23 -82,36 -145,36l-22 0 -1 0 0 0c-20,-1 -40,-20 -40,-41 0,-21 20,-40 40,-40l0 0 1 0 23 0c24,0 44,-1 62,-3 -33,-31 -49,-72 -31,-127l0 0zm39 -7c-8,45 36,77 91,100 17,-14 25,-29 34,-39 9,-17 -9,-75 -40,-87 -17,-6 -70,-3 -85,26l0 0z"/>
 </g>
</svg>
