<?xml version="1.0" encoding="UTF-8"?>
<!DOCTYPE svg PUBLIC "-//W3C//DTD SVG 1.0//EN" "http://www.w3.org/TR/2001/REC-SVG-20010904/DTD/svg10.dtd">
<!-- Creator: CorelDRAW -->
<svg xmlns="http://www.w3.org/2000/svg" xml:space="preserve" width="1300px" height="1300px" version="1.0" style="shape-rendering:geometricPrecision; text-rendering:geometricPrecision; image-rendering:optimizeQuality; fill-rule:evenodd; clip-rule:evenodd"
viewBox="0 0 1300 1056"
 xmlns:xlink="http://www.w3.org/1999/xlink">
 <defs>
  <style type="text/css">
   <![CDATA[
    .fil1 {fill:#336666;fill-opacity:0.600000}
    .fil0 {fill:#CC3300}
   ]]>
  </style>
 </defs>
 <g id="_100:master" visibility="hidden">
  <metadata id="CorelCorpID_0Corel-Layer"/>
  <path class="fil0" d="M537 569c-20,0 -40,19 -41,40 0,21 21,41 41,41l16 0 0 -81 -16 0z"/>
  <path class="fil0" d="M960 597c-9,0 -46,-1 -43,-4 58,-61 -6,-71 -229,-263l41 -74c236,196 317,236 231,341z"/>
  <path class="fil1" d="M991 525l-36 -4c-40,129 -181,52 -243,7 -63,-45 -62,-56 -53,-86l-43 -3c-27,65 -34,101 44,158 133,97 295,114 331,-72z"/>
  <path class="fil1" d="M792 318c-69,-35 -158,72 -176,121l43 3c46,-59 87,-58 111,-34 22,21 31,62 16,92 -12,23 -106,69 -233,69l-1 81c163,0 257,-104 270,-148 12,-43 39,-148 -30,-184z"/>
 </g>
 <g id="Layer_x0020_1">
  <metadata id="CorelCorpID_1Corel-Layer"/>
  <path class="fil1" d="M751 531c36,-20 60,-46 64,-62 -1,-20 -39,-64 -71,-63 -18,1 -52,25 -69,58 0,20 31,46 76,67zm179 41c8,-37 -29,-71 -85,-109 -3,32 -19,62 -42,89 34,10 70,17 105,17l22 0 0 3zm-288 -85c0,-49 23,-97 52,-127l0 0 40 -74c141,110 268,160 236,283 -7,22 -31,81 -40,81 -70,0 -138,-17 -189,-44 -42,27 -90,44 -129,44l-22 0 -1 0 0 0c-20,-1 -40,-20 -40,-41 0,-21 20,-40 40,-40l0 0 1 0 23 0c22,0 43,-3 63,-8 -23,-23 -36,-49 -34,-74z"/>
 </g>
</svg>
