<?xml version="1.0" encoding="UTF-8"?>
<!DOCTYPE svg PUBLIC "-//W3C//DTD SVG 1.0//EN" "http://www.w3.org/TR/2001/REC-SVG-20010904/DTD/svg10.dtd">
<!-- Creator: CorelDRAW -->
<svg xmlns="http://www.w3.org/2000/svg" xml:space="preserve" width="1300px" height="1300px" version="1.0" style="shape-rendering:geometricPrecision; text-rendering:geometricPrecision; image-rendering:optimizeQuality; fill-rule:evenodd; clip-rule:evenodd"
viewBox="0 0 1300 1056"
 xmlns:xlink="http://www.w3.org/1999/xlink">
 <defs>
  <style type="text/css">
   <![CDATA[
    .fil0 {fill:#666633}
   ]]>
  </style>
 </defs>
 <g id="_100:master">
  <metadata id="CorelCorpID_0Corel-Layer"/>
  <path class="fil0" d="M1077 650l-17 0c-67,0 -129,-24 -155,-108 -108,32 -215,113 -222,189 -8,84 83,222 372,143l-61 82c-202,60 -365,-47 -359,-166 0,-156 93,-254 215,-301 -93,-34 -188,-68 -214,-11l-12 -13c31,-69 67,-92 110,-91 80,1 204,82 299,82l-1 0 1 0 -37 72c-14,0 -29,1 -45,4 25,30 63,37 110,37l16 0 0 81z"/>
 </g>
</svg>
