<?xml version="1.0" encoding="UTF-8"?>
<!DOCTYPE svg PUBLIC "-//W3C//DTD SVG 1.0//EN" "http://www.w3.org/TR/2001/REC-SVG-20010904/DTD/svg10.dtd">
<!-- Creator: CorelDRAW -->
<svg xmlns="http://www.w3.org/2000/svg" xml:space="preserve" width="1300px" height="1300px" version="1.0" style="shape-rendering:geometricPrecision; text-rendering:geometricPrecision; image-rendering:optimizeQuality; fill-rule:evenodd; clip-rule:evenodd"
viewBox="0 0 1300 1056"
 xmlns:xlink="http://www.w3.org/1999/xlink">
 <defs>
  <style type="text/css">
   <![CDATA[
    .fil2 {fill:#666666;fill-opacity:0.850980}
    .fil1 {fill:#FF9933;fill-opacity:0.850980}
    .fil0 {fill:#666633}
    .fil3 {fill:#999966}
   ]]>
  </style>
 </defs>
 <g id="_100:master" visibility="hidden">
  <metadata id="CorelCorpID_0Corel-Layer"/>
  <path class="fil0" d="M1077 650l0 -81 -16 0c-66,0 -116,-13 -132,-90 -4,-18 -35,3 -34,12 14,125 86,159 165,159l17 0z"/>
  <path class="fil1" d="M670 746l-24 76c-38,-172 106,-365 387,-366l-37 72c-162,0 -317,121 -326,218z"/>
  <path class="fil2" d="M640 741l89 -107c-105,122 -79,260 287,260l-41 81c-246,0 -351,-87 -335,-234z"/>
  <path class="fil3" d="M1033 456l-37 72c-102,0 -295,-108 -336,-18l-11 -13c30,-69 67,-91 110,-91 80,1 179,50 274,50z"/>
 </g>
 <g id="Layer_x0020_1">
  <metadata id="CorelCorpID_1Corel-Layer"/>
  <path class="fil2" d="M1052 874l5 22c-114,128 -412,111 -404,-123 4,-100 64,-218 191,-278 -81,-22 -159,-38 -184,15l-11 -13c30,-69 67,-91 110,-91 80,1 179,50 274,50l-1 0 1 0 -37 72c-14,1 -28,3 -42,7 24,28 62,34 107,34l16 0 0 81 -17 0c-65,0 -126,-23 -153,-101 -113,42 -199,137 -209,202 -24,139 181,167 354,123z"/>
 </g>
</svg>
