<?xml version="1.0" encoding="UTF-8"?>
<!DOCTYPE svg PUBLIC "-//W3C//DTD SVG 1.0//EN" "http://www.w3.org/TR/2001/REC-SVG-20010904/DTD/svg10.dtd">
<!-- Creator: CorelDRAW -->
<svg xmlns="http://www.w3.org/2000/svg" xml:space="preserve" width="1300px" height="1300px" version="1.0" style="shape-rendering:geometricPrecision; text-rendering:geometricPrecision; image-rendering:optimizeQuality; fill-rule:evenodd; clip-rule:evenodd"
viewBox="0 0 1300 1056"
 xmlns:xlink="http://www.w3.org/1999/xlink">
 <defs>
  <style type="text/css">
   <![CDATA[
    .fil0 {fill:#666666;fill-opacity:0.850980}
   ]]>
  </style>
 </defs>
 <g id="_100:master">
  <metadata id="CorelCorpID_0Corel-Layer"/>
  <path class="fil0" d="M984 552l0 0c-11,1 -22,2 -32,3 14,10 33,14 61,14l36 0 0 81 -38 0c-57,0 -94,-22 -115,-83 -126,35 -222,121 -230,204 -7,85 126,143 371,104l-92 81c-266,45 -357,-115 -303,-266 27,-74 85,-137 176,-174 -37,-11 -74,-21 -106,-26 -39,-6 -70,0 -83,28l-12 -13c30,-69 67,-91 110,-90 80,0 199,65 294,65l-36 72 -1 0z"/>
 </g>
</svg>
