<?xml version="1.0" encoding="UTF-8"?>
<!DOCTYPE svg PUBLIC "-//W3C//DTD SVG 1.0//EN" "http://www.w3.org/TR/2001/REC-SVG-20010904/DTD/svg10.dtd">
<!-- Creator: CorelDRAW -->
<svg xmlns="http://www.w3.org/2000/svg" xml:space="preserve" width="1300px" height="1300px" version="1.0" style="shape-rendering:geometricPrecision; text-rendering:geometricPrecision; image-rendering:optimizeQuality; fill-rule:evenodd; clip-rule:evenodd"
viewBox="0 0 1300 1056"
 xmlns:xlink="http://www.w3.org/1999/xlink">
 <defs>
  <style type="text/css">
   <![CDATA[
    .fil0 {fill:#CC3300}
   ]]>
  </style>
 </defs>
 <g id="_100:master">
  <metadata id="CorelCorpID_0Corel-Layer"/>
  <path class="fil0" d="M794 561c40,-7 76,-18 102,-37 -5,-42 -26,-85 -36,-85 -16,6 -43,46 -66,122zm1 96c15,62 58,113 141,79 -18,-29 -59,-58 -141,-79zm-111 -88c26,0 53,-1 78,-4 12,-83 60,-190 114,-207 29,21 49,108 49,136l0 0c0,28 -11,53 -30,75l128 0 0 81 -71 0c26,34 27,72 20,103 -25,140 -199,80 -215,-111 -24,5 -49,8 -73,8 -21,0 -41,-20 -41,-41 0,-21 20,-40 41,-40z"/>
 </g>
</svg>
