<?xml version="1.0" encoding="UTF-8"?>
<!DOCTYPE svg PUBLIC "-//W3C//DTD SVG 1.0//EN" "http://www.w3.org/TR/2001/REC-SVG-20010904/DTD/svg10.dtd">
<!-- Creator: CorelDRAW -->
<svg xmlns="http://www.w3.org/2000/svg" xml:space="preserve" width="1300px" height="1300px" version="1.0" style="shape-rendering:geometricPrecision; text-rendering:geometricPrecision; image-rendering:optimizeQuality; fill-rule:evenodd; clip-rule:evenodd"
viewBox="0 0 1300 1056"
 xmlns:xlink="http://www.w3.org/1999/xlink">
 <defs>
  <style type="text/css">
   <![CDATA[
    .fil0 {fill:#4D4D4D}
   ]]>
  </style>
 </defs>
 <g id="_100:master">
  <metadata id="CorelCorpID_0Corel-Layer"/>
  <path class="fil0" d="M593 569c162,0 236,-30 289,-59 -1,-4 -2,-7 -3,-11 -101,-35 -214,-84 -243,-21l-12 -13c31,-69 67,-92 110,-91 80,1 204,82 299,82l-37 72 0 0 -1 1c-14,-1 -26,1 -38,3 31,25 72,37 124,37l1 81c-94,0 -152,-32 -184,-96 -65,36 -122,96 -305,96l0 0 0 0 0 0c-20,0 -41,-20 -40,-41 0,-21 20,-40 40,-40l0 0z"/>
 </g>
</svg>
