<?xml version="1.0" encoding="UTF-8"?>
<!DOCTYPE svg PUBLIC "-//W3C//DTD SVG 1.0//EN" "http://www.w3.org/TR/2001/REC-SVG-20010904/DTD/svg10.dtd">
<!-- Creator: CorelDRAW -->
<svg xmlns="http://www.w3.org/2000/svg" xml:space="preserve" width="1300px" height="1300px" version="1.0" style="shape-rendering:geometricPrecision; text-rendering:geometricPrecision; image-rendering:optimizeQuality; fill-rule:evenodd; clip-rule:evenodd"
viewBox="0 0 1300 1056"
 xmlns:xlink="http://www.w3.org/1999/xlink">
 <defs>
  <style type="text/css">
   <![CDATA[
    .fil0 {fill:#4D4D4D}
   ]]>
  </style>
 </defs>
 <g id="_100:master">
  <metadata id="CorelCorpID_0Corel-Layer"/>
  <path class="fil0" d="M569 569l0 0 62 0c137,0 208,-34 262,-65 -79,-23 -158,-59 -207,-58 -21,1 -43,1 -63,28l-15 -9c30,-69 59,-100 102,-100 62,0 199,82 323,82l0 0 0 0 -38 73c-89,0 -162,130 -392,130l-34 0 0 0 0 0c-21,0 -41,-20 -41,-41 0,-21 20,-40 41,-40l0 0z"/>
 </g>
</svg>
