<?xml version="1.0" encoding="UTF-8"?>
<!DOCTYPE svg PUBLIC "-//W3C//DTD SVG 1.0//EN" "http://www.w3.org/TR/2001/REC-SVG-20010904/DTD/svg10.dtd">
<!-- Creator: CorelDRAW -->
<svg xmlns="http://www.w3.org/2000/svg" xml:space="preserve" width="1300px" height="1300px" version="1.0" style="shape-rendering:geometricPrecision; text-rendering:geometricPrecision; image-rendering:optimizeQuality; fill-rule:evenodd; clip-rule:evenodd"
viewBox="0 0 1300 1056"
 xmlns:xlink="http://www.w3.org/1999/xlink">
 <defs>
  <style type="text/css">
   <![CDATA[
    .fil0 {fill:#CC3300}
   ]]>
  </style>
 </defs>
 <g id="_100:master">
  <metadata id="CorelCorpID_0Corel-Layer"/>
  <path class="fil0" d="M726 538c33,-13 54,-28 60,-38 15,-30 6,-71 -16,-92 -24,-24 -65,-25 -111,34 -9,30 -10,41 53,86 4,3 8,6 14,10zm-189 31l16 0c24,0 48,-2 70,-5 -37,-40 -28,-73 -7,-125 10,-27 42,-73 81,-102 -3,-2 -6,-5 -9,-7l41 -74c220,182 290,234 244,321 -51,119 -164,114 -278,43 -39,18 -87,30 -142,30l0 0 -16 0c-20,0 -41,-20 -41,-41 1,-21 21,-40 41,-40zm380 24c-42,25 -105,-3 -143,-25 27,-24 43,-49 48,-66 3,-11 7,-26 10,-44 105,87 128,90 85,135 0,0 0,0 0,0z"/>
 </g>
</svg>
