<?xml version="1.0" encoding="UTF-8"?>
<!DOCTYPE svg PUBLIC "-//W3C//DTD SVG 1.0//EN" "http://www.w3.org/TR/2001/REC-SVG-20010904/DTD/svg10.dtd">
<!-- Creator: CorelDRAW -->
<svg xmlns="http://www.w3.org/2000/svg" xml:space="preserve" width="1300px" height="1300px" version="1.0" style="shape-rendering:geometricPrecision; text-rendering:geometricPrecision; image-rendering:optimizeQuality; fill-rule:evenodd; clip-rule:evenodd"
viewBox="0 0 1300 1056"
 xmlns:xlink="http://www.w3.org/1999/xlink">
 <defs>
  <style type="text/css">
   <![CDATA[
    .fil0 {fill:#666633}
   ]]>
  </style>
 </defs>
 <g id="_100:master">
  <metadata id="CorelCorpID_0Corel-Layer"/>
  <path class="fil0" d="M1077 650l-17 0c-68,0 -131,-25 -156,-112 -124,29 -214,114 -221,193 -8,84 59,186 372,143 -20,34 -25,75 -61,82 -324,60 -365,-104 -359,-223 5,-99 77,-203 195,-252 -86,-30 -170,-56 -194,-3l-12 -13c31,-69 67,-92 110,-91 73,1 180,67 270,79 9,1 17,2 26,3l3 0 -1 0 1 0 -37 72c-15,0 -31,1 -46,2 25,32 64,39 111,39l16 0 0 81z"/>
 </g>
</svg>
