<?xml version="1.0" encoding="UTF-8"?>
<!DOCTYPE svg PUBLIC "-//W3C//DTD SVG 1.0//EN" "http://www.w3.org/TR/2001/REC-SVG-20010904/DTD/svg10.dtd">
<!-- Creator: CorelDRAW -->
<svg xmlns="http://www.w3.org/2000/svg" xml:space="preserve" width="1300px" height="1300px" version="1.0" style="shape-rendering:geometricPrecision; text-rendering:geometricPrecision; image-rendering:optimizeQuality; fill-rule:evenodd; clip-rule:evenodd"
viewBox="0 0 1300 1056"
 xmlns:xlink="http://www.w3.org/1999/xlink">
 <defs>
  <style type="text/css">
   <![CDATA[
    .fil0 {fill:#666666;fill-opacity:0.850980}
   ]]>
  </style>
 </defs>
 <g id="_100:master">
  <metadata id="CorelCorpID_0Corel-Layer"/>
  <path class="fil0" d="M1033 456l-37 72c-21,1 -41,4 -61,9 15,24 37,32 78,32l36 0 0 81 -38 0c-62,0 -100,-26 -120,-100 -121,44 -218,142 -225,221 -7,85 126,143 371,104l-92 81c-266,45 -357,-115 -303,-266 28,-75 91,-149 188,-193 -42,-10 -84,-20 -119,-24 -35,-4 -63,2 -75,29l-12 -13c31,-69 67,-91 110,-91 80,1 204,58 299,58l-1 0 1 0z"/>
 </g>
</svg>
