<?xml version="1.0" encoding="UTF-8"?>
<!DOCTYPE svg PUBLIC "-//W3C//DTD SVG 1.0//EN" "http://www.w3.org/TR/2001/REC-SVG-20010904/DTD/svg10.dtd">
<!-- Creator: CorelDRAW -->
<svg xmlns="http://www.w3.org/2000/svg" xml:space="preserve" width="1300px" height="1300px" version="1.0" style="shape-rendering:geometricPrecision; text-rendering:geometricPrecision; image-rendering:optimizeQuality; fill-rule:evenodd; clip-rule:evenodd"
viewBox="0 0 1300 1056"
 xmlns:xlink="http://www.w3.org/1999/xlink">
 <defs>
  <style type="text/css">
   <![CDATA[
    .fil0 {fill:#336666;fill-opacity:0.600000}
   ]]>
  </style>
 </defs>
 <g id="Layer_x0020_1">
  <metadata id="CorelCorpID_0Corel-Layer"/>
  <path class="fil0" d="M757 527c33,-20 54,-43 58,-58 -1,-20 -39,-64 -71,-63 -16,1 -44,20 -62,47 0,20 31,50 75,74zm173 42c8,-52 -13,-71 -84,-115 -1,34 -17,67 -40,95 32,12 67,20 102,20l22 0zm-288 -82c0,-48 23,-96 52,-127 -10,-6 -20,-12 -30,-19l41 -74c252,160 311,160 265,302 -7,22 -31,81 -40,81 -69,0 -136,-18 -189,-44 -42,27 -89,44 -129,44l-22 0 -1 0 0 0c-20,-1 -40,-20 -40,-41 0,-21 20,-40 40,-40l0 0 1 0 23 0c22,0 44,-3 63,-8 -24,-24 -38,-50 -34,-74z"/>
 </g>
</svg>
