<?xml version="1.0" encoding="UTF-8"?>
<!DOCTYPE svg PUBLIC "-//W3C//DTD SVG 1.0//EN" "http://www.w3.org/TR/2001/REC-SVG-20010904/DTD/svg10.dtd">
<!-- Creator: CorelDRAW -->
<svg xmlns="http://www.w3.org/2000/svg" xml:space="preserve" width="1300px" height="1300px" version="1.0" style="shape-rendering:geometricPrecision; text-rendering:geometricPrecision; image-rendering:optimizeQuality; fill-rule:evenodd; clip-rule:evenodd"
viewBox="0 0 1300 1056"
 xmlns:xlink="http://www.w3.org/1999/xlink">
 <defs>
  <style type="text/css">
   <![CDATA[
    .fil0 {fill:#666633}
   ]]>
  </style>
 </defs>
 <g id="_100:master">
  <metadata id="CorelCorpID_0Corel-Layer"/>
  <path class="fil0" d="M1077 650l-17 0c-67,0 -130,-25 -155,-110 -88,23 -164,77 -205,134 -66,110 -11,220 316,220l-41 81c-196,0 -302,-56 -329,-153l0 0 0 0c-7,-24 -9,-52 -6,-81l1 -2c11,-99 80,-195 197,-245 -79,-22 -154,-36 -178,16l-11 -13c30,-69 67,-91 110,-91 80,1 179,50 274,50l-1 0 1 0 -37 72c-15,0 -30,1 -45,3 24,31 63,38 110,38l16 0 0 81z"/>
 </g>
</svg>
