<?xml version="1.0" encoding="UTF-8"?>
<!DOCTYPE svg PUBLIC "-//W3C//DTD SVG 1.0//EN" "http://www.w3.org/TR/2001/REC-SVG-20010904/DTD/svg10.dtd">
<!-- Creator: CorelDRAW -->
<svg xmlns="http://www.w3.org/2000/svg" xml:space="preserve" width="1300px" height="1300px" version="1.0" style="shape-rendering:geometricPrecision; text-rendering:geometricPrecision; image-rendering:optimizeQuality; fill-rule:evenodd; clip-rule:evenodd"
viewBox="0 0 1300 1056"
 xmlns:xlink="http://www.w3.org/1999/xlink">
 <defs>
  <style type="text/css">
   <![CDATA[
    .fil0 {fill:#999966}
   ]]>
  </style>
 </defs>
 <g id="_100:master">
  <metadata id="CorelCorpID_0Corel-Layer"/>
  <path class="fil0" d="M1036 461l0 0 0 0 -39 81c-15,0 -30,1 -45,3 28,16 63,24 105,24l0 81c-89,0 -146,-29 -179,-87 -247,85 -396,399 159,312l-92 81c-399,101 -429,-314 -124,-452 -47,-16 -94,-32 -145,-32 -23,0 -38,24 -44,41l-9 -10c11,-72 41,-112 92,-112 108,-1 176,70 321,70z"/>
 </g>
</svg>
