<?xml version="1.0" encoding="UTF-8"?>
<!DOCTYPE svg PUBLIC "-//W3C//DTD SVG 1.0//EN" "http://www.w3.org/TR/2001/REC-SVG-20010904/DTD/svg10.dtd">
<!-- Creator: CorelDRAW -->
<svg xmlns="http://www.w3.org/2000/svg" xml:space="preserve" width="1300px" height="1300px" version="1.0" style="shape-rendering:geometricPrecision; text-rendering:geometricPrecision; image-rendering:optimizeQuality; fill-rule:evenodd; clip-rule:evenodd"
viewBox="0 0 1300 1056"
 xmlns:xlink="http://www.w3.org/1999/xlink">
 <defs>
  <style type="text/css">
   <![CDATA[
    .fil0 {fill:#336666;fill-opacity:0.600000}
   ]]>
  </style>
 </defs>
 <g id="Layer_x0020_1">
  <metadata id="CorelCorpID_0Corel-Layer"/>
  <path class="fil0" d="M751 531c36,-20 60,-46 64,-62 -1,-20 -39,-64 -71,-63 -18,1 -52,25 -69,58 0,20 31,46 76,67zm179 41c8,-37 -29,-71 -85,-109 -3,32 -19,62 -42,89 34,10 70,17 105,17l22 0 0 3zm-288 -85c0,-49 23,-97 52,-127l0 0 40 -74c141,110 268,160 236,283 -7,22 -31,81 -40,81 -70,0 -138,-17 -189,-44 -42,27 -90,44 -129,44l-22 0 -1 0 0 0c-20,-1 -40,-20 -40,-41 0,-21 20,-40 40,-40l0 0 1 0 23 0c22,0 43,-3 63,-8 -23,-23 -36,-49 -34,-74z"/>
 </g>
</svg>
