<?xml version="1.0" encoding="UTF-8"?>
<!DOCTYPE svg PUBLIC "-//W3C//DTD SVG 1.0//EN" "http://www.w3.org/TR/2001/REC-SVG-20010904/DTD/svg10.dtd">
<!-- Creator: CorelDRAW -->
<svg xmlns="http://www.w3.org/2000/svg" xml:space="preserve" width="1300px" height="1300px" version="1.0" style="shape-rendering:geometricPrecision; text-rendering:geometricPrecision; image-rendering:optimizeQuality; fill-rule:evenodd; clip-rule:evenodd"
viewBox="0 0 1300 1056"
 xmlns:xlink="http://www.w3.org/1999/xlink">
 <defs>
  <style type="text/css">
   <![CDATA[
    .fil0 {fill:#4D4D4D}
   ]]>
  </style>
 </defs>
 <g id="_100:master">
  <metadata id="CorelCorpID_0Corel-Layer"/>
  <path class="fil0" d="M609 569l0 0 39 0c146,0 201,-36 248,-67 -53,-20 -109,-46 -154,-54 -37,-7 -53,3 -72,30l-21 -13c30,-69 67,-92 110,-91 80,1 179,82 274,82l-37 72 0 0 -1 1c-89,-1 -174,121 -329,121l-57 0 0 0 0 0c-20,0 -40,-20 -40,-41 0,-21 20,-40 40,-40l0 0z"/>
 </g>
</svg>
