<?xml version="1.0" encoding="UTF-8"?>
<!DOCTYPE svg PUBLIC "-//W3C//DTD SVG 1.0//EN" "http://www.w3.org/TR/2001/REC-SVG-20010904/DTD/svg10.dtd">
<!-- Creator: CorelDRAW -->
<svg xmlns="http://www.w3.org/2000/svg" xml:space="preserve" width="1300px" height="1300px" version="1.0" style="shape-rendering:geometricPrecision; text-rendering:geometricPrecision; image-rendering:optimizeQuality; fill-rule:evenodd; clip-rule:evenodd"
viewBox="0 0 1300 1056"
 xmlns:xlink="http://www.w3.org/1999/xlink">
 <defs>
  <style type="text/css">
   <![CDATA[
    .fil0 {fill:#336666;fill-opacity:0.600000}
   ]]>
  </style>
 </defs>
 <g id="Layer_x0020_1">
  <metadata id="CorelCorpID_0Corel-Layer"/>
  <path class="fil0" d="M944 569c-6,-36 -34,-63 -107,-112 5,34 -4,66 -24,95 30,10 63,17 95,17l36 0zm-302 -82c0,-48 22,-95 50,-125l40 -72c225,150 263,197 252,279 -7,22 -27,81 -54,81l-9 0c-64,-1 -124,-17 -171,-40 -43,25 -95,40 -138,40l-22 0 -1 0 0 0c-20,-1 -40,-20 -40,-41 0,-21 20,-40 40,-40l0 0 1 0 23 0c23,0 45,-3 67,-8 -24,-24 -38,-50 -38,-74zm40 -34c0,21 34,53 82,78 21,-11 36,-23 43,-33 1,-19 -30,-98 -63,-96 -16,1 -44,23 -62,51l0 0z"/>
 </g>
</svg>
