<?xml version="1.0" encoding="UTF-8"?>
<!DOCTYPE svg PUBLIC "-//W3C//DTD SVG 1.0//EN" "http://www.w3.org/TR/2001/REC-SVG-20010904/DTD/svg10.dtd">
<!-- Creator: CorelDRAW -->
<svg xmlns="http://www.w3.org/2000/svg" xml:space="preserve" width="1300px" height="1300px" version="1.0" style="shape-rendering:geometricPrecision; text-rendering:geometricPrecision; image-rendering:optimizeQuality; fill-rule:evenodd; clip-rule:evenodd"
viewBox="0 0 1300 1056"
 xmlns:xlink="http://www.w3.org/1999/xlink">
 <defs>
  <style type="text/css">
   <![CDATA[
    .fil0 {fill:#336666;fill-opacity:0.600000}
   ]]>
  </style>
 </defs>
 <g id="Layer_x0020_1">
  <metadata id="CorelCorpID_0Corel-Layer"/>
  <path class="fil0" d="M941 595c8,-30 -7,-77 -83,-145 -1,11 -3,21 -4,26 -7,27 -19,51 -35,73 48,22 97,39 122,46zm-282 -174c11,-18 37,-46 66,-69 -7,-5 -14,-9 -21,-14l38 -79c32,20 59,40 83,58 4,2 7,5 10,8 175,136 167,213 140,268 -10,21 -32,81 -58,81 -1,0 -1,0 -2,-1 -44,-11 -112,-30 -171,-60 -42,24 -89,37 -132,37l-22 0 -1 0 0 0c-20,-1 -40,-20 -40,-41 0,-20 20,-40 40,-40l0 0 1 0 23 0c16,0 35,-4 56,-9 -36,-37 -49,-83 -10,-139zm32 26c-10,21 27,49 76,76 24,-13 43,-25 48,-33 5,-19 -1,-69 -22,-92l-13 -9c-18,-5 -85,42 -89,58l0 0z"/>
 </g>
</svg>
