<?xml version="1.0" encoding="UTF-8"?>
<!DOCTYPE svg PUBLIC "-//W3C//DTD SVG 1.0//EN" "http://www.w3.org/TR/2001/REC-SVG-20010904/DTD/svg10.dtd">
<!-- Creator: CorelDRAW -->
<svg xmlns="http://www.w3.org/2000/svg" xml:space="preserve" width="1300px" height="1300px" version="1.0" style="shape-rendering:geometricPrecision; text-rendering:geometricPrecision; image-rendering:optimizeQuality; fill-rule:evenodd; clip-rule:evenodd"
viewBox="0 0 1300 1056"
 xmlns:xlink="http://www.w3.org/1999/xlink">
 <defs>
  <style type="text/css">
   <![CDATA[
    .fil0 {fill:#666666;fill-opacity:0.850980}
   ]]>
  </style>
 </defs>
 <g id="_100:master">
  <metadata id="CorelCorpID_0Corel-Layer"/>
  <path class="fil0" d="M979 486l-1 2c-25,0 -50,3 -75,9 30,49 82,72 154,72l0 81c-112,0 -174,-46 -199,-139 -254,91 -455,417 167,382l-92 81c-495,56 -439,-390 -116,-528 -61,-20 -120,-39 -174,-39 -23,0 -38,24 -44,41l-9 -10c11,-72 42,-112 93,-112 107,-1 224,81 369,81l-40 81c-11,0 -22,-1 -33,-2z"/>
 </g>
</svg>
