<?xml version="1.0" encoding="UTF-8"?>
<!DOCTYPE svg PUBLIC "-//W3C//DTD SVG 1.0//EN" "http://www.w3.org/TR/2001/REC-SVG-20010904/DTD/svg10.dtd">
<!-- Creator: CorelDRAW -->
<svg xmlns="http://www.w3.org/2000/svg" xml:space="preserve" width="1300px" height="1300px" version="1.0" style="shape-rendering:geometricPrecision; text-rendering:geometricPrecision; image-rendering:optimizeQuality; fill-rule:evenodd; clip-rule:evenodd"
viewBox="0 0 1300 1056"
 xmlns:xlink="http://www.w3.org/1999/xlink">
 <defs>
  <style type="text/css">
   <![CDATA[
    .fil0 {fill:#666633}
   ]]>
  </style>
 </defs>
 <g id="_100:master">
  <metadata id="CorelCorpID_0Corel-Layer"/>
  <path class="fil0" d="M995 650l-16 0c-65,0 -126,-23 -153,-102 -87,41 -195,102 -298,102l-57 0 0 0 0 0c-20,0 -41,-20 -40,-41 0,-21 20,-40 40,-40l0 0 0 0 39 0c152,0 233,-44 304,-81 -78,-25 -156,-59 -201,-58 -21,1 -43,1 -63,28l-15 -10c30,-69 59,-99 102,-99 62,0 215,90 339,90l-38 73c-19,0 -43,7 -70,17 25,33 64,40 112,40l15 0 0 81z"/>
 </g>
</svg>
