<?xml version="1.0" encoding="UTF-8"?>
<!DOCTYPE svg PUBLIC "-//W3C//DTD SVG 1.0//EN" "http://www.w3.org/TR/2001/REC-SVG-20010904/DTD/svg10.dtd">
<!-- Creator: CorelDRAW -->
<svg xmlns="http://www.w3.org/2000/svg" xml:space="preserve" width="1300px" height="1300px" version="1.0" style="shape-rendering:geometricPrecision; text-rendering:geometricPrecision; image-rendering:optimizeQuality; fill-rule:evenodd; clip-rule:evenodd"
viewBox="0 0 1300 1056"
 xmlns:xlink="http://www.w3.org/1999/xlink">
 <defs>
  <style type="text/css">
   <![CDATA[
    .fil2 {fill:#666666;fill-opacity:0.850980}
    .fil0 {fill:#FF9933;fill-opacity:0.850980}
    .fil1 {fill:#999966}
   ]]>
  </style>
 </defs>
 <g id="_100:master" visibility="hidden">
  <metadata id="CorelCorpID_0Corel-Layer"/>
  <path class="fil0" d="M670 746l-24 76c-38,-172 106,-365 387,-366l-37 72c-162,0 -317,121 -326,218z"/>
  <path class="fil1" d="M1033 456l-37 72c-102,0 -319,-141 -360,-50l-12 -13c31,-69 67,-92 110,-91 80,1 204,82 299,82z"/>
  <path class="fil2" d="M640 741l89 -107c-105,122 -79,260 287,260l-41 81c-246,0 -351,-87 -335,-234z"/>
 </g>
 <g id="Layer_x0020_1">
  <metadata id="CorelCorpID_1Corel-Layer"/>
  <path class="fil1" d="M1033 456l-1 0 1 0 -37 72c-289,0 -488,325 -128,325 50,0 113,-9 184,-32l5 22c-77,64 -150,87 -213,91 -267,18 -290,-340 -1,-448 -90,-32 -182,-64 -207,-8l-12 -13c31,-69 67,-92 110,-91 80,1 204,82 299,82z"/>
 </g>
</svg>
