<?xml version="1.0" encoding="UTF-8"?>
<!DOCTYPE svg PUBLIC "-//W3C//DTD SVG 1.0//EN" "http://www.w3.org/TR/2001/REC-SVG-20010904/DTD/svg10.dtd">
<!-- Creator: CorelDRAW -->
<svg xmlns="http://www.w3.org/2000/svg" xml:space="preserve" width="1300px" height="1300px" version="1.0" style="shape-rendering:geometricPrecision; text-rendering:geometricPrecision; image-rendering:optimizeQuality; fill-rule:evenodd; clip-rule:evenodd"
viewBox="0 0 1300 1056"
 xmlns:xlink="http://www.w3.org/1999/xlink">
 <defs>
  <style type="text/css">
   <![CDATA[
    .fil0 {fill:#666633}
   ]]>
  </style>
 </defs>
 <g id="_100:master">
  <metadata id="CorelCorpID_0Corel-Layer"/>
  <path class="fil0" d="M1057 650c-81,0 -136,-24 -169,-72 -76,35 -152,72 -279,72 -20,0 -40,-20 -40,-41 0,-21 20,-40 40,-40 128,0 191,-22 252,-47l-2 -5c-61,-20 -118,-45 -183,-45 -23,0 -38,24 -44,41l-9 -10c11,-72 41,-112 92,-112 108,-1 176,70 321,70l0 0 0 0 0 0 -41 81c-6,0 -12,-1 -19,-1 -6,2 -13,4 -19,7 27,14 61,21 100,21l0 81z"/>
 </g>
</svg>
