<?xml version="1.0" encoding="UTF-8"?>
<!DOCTYPE svg PUBLIC "-//W3C//DTD SVG 1.0//EN" "http://www.w3.org/TR/2001/REC-SVG-20010904/DTD/svg10.dtd">
<!-- Creator: CorelDRAW -->
<svg xmlns="http://www.w3.org/2000/svg" xml:space="preserve" width="1300px" height="1300px" version="1.0" style="shape-rendering:geometricPrecision; text-rendering:geometricPrecision; image-rendering:optimizeQuality; fill-rule:evenodd; clip-rule:evenodd"
viewBox="0 0 1300 1056"
 xmlns:xlink="http://www.w3.org/1999/xlink">
 <defs>
  <style type="text/css">
   <![CDATA[
    .fil0 {fill:#666666;fill-opacity:0.850980}
   ]]>
  </style>
 </defs>
 <g id="_100:master">
  <metadata id="CorelCorpID_0Corel-Layer"/>
  <path class="fil0" d="M1033 456l-37 72c-15,1 -29,2 -44,5 25,30 63,36 109,36l16 0 0 81 -17 0c-67,0 -129,-24 -155,-107 -137,36 -229,128 -238,208 -9,92 93,168 370,124l-92 81c-259,36 -332,-79 -322,-204 11,-131 99,-212 204,-256 -41,-10 -82,-19 -116,-23 -35,-4 -63,2 -75,29l-12 -13c31,-69 67,-91 110,-91 80,1 204,58 299,58l-1 0 1 0z"/>
 </g>
</svg>
