<?xml version="1.0" encoding="UTF-8"?>
<!DOCTYPE svg PUBLIC "-//W3C//DTD SVG 1.0//EN" "http://www.w3.org/TR/2001/REC-SVG-20010904/DTD/svg10.dtd">
<!-- Creator: CorelDRAW -->
<svg xmlns="http://www.w3.org/2000/svg" xml:space="preserve" width="1300px" height="1300px" version="1.0" style="shape-rendering:geometricPrecision; text-rendering:geometricPrecision; image-rendering:optimizeQuality; fill-rule:evenodd; clip-rule:evenodd"
viewBox="0 0 1300 1056"
 xmlns:xlink="http://www.w3.org/1999/xlink">
 <defs>
  <style type="text/css">
   <![CDATA[
    .fil0 {fill:#666666;fill-opacity:0.850980}
   ]]>
  </style>
 </defs>
 <g id="_100:master">
  <metadata id="CorelCorpID_0Corel-Layer"/>
  <path class="fil0" d="M979 527l-1 1c-122,1 -344,82 -356,203 -13,122 89,180 403,162l-92 81c-268,31 -364,-81 -364,-202 0,-133 93,-238 235,-290 -57,-18 -111,-34 -161,-34 -23,0 -38,24 -44,40l-9 -9c11,-72 42,-112 93,-113 107,0 224,82 369,82l-40 81c-11,0 -22,-1 -33,-2z"/>
 </g>
</svg>
