<?xml version="1.0" encoding="UTF-8"?>
<!DOCTYPE svg PUBLIC "-//W3C//DTD SVG 1.0//EN" "http://www.w3.org/TR/2001/REC-SVG-20010904/DTD/svg10.dtd">
<!-- Creator: CorelDRAW -->
<svg xmlns="http://www.w3.org/2000/svg" xml:space="preserve" width="1300px" height="1300px" version="1.0" style="shape-rendering:geometricPrecision; text-rendering:geometricPrecision; image-rendering:optimizeQuality; fill-rule:evenodd; clip-rule:evenodd"
viewBox="0 0 1300 1056"
 xmlns:xlink="http://www.w3.org/1999/xlink">
 <defs>
  <style type="text/css">
   <![CDATA[
    .fil0 {fill:#336666;fill-opacity:0.600000}
   ]]>
  </style>
 </defs>
 <g id="Layer_x0020_1">
  <metadata id="CorelCorpID_0Corel-Layer"/>
  <path class="fil0" d="M764 531c21,-11 36,-23 43,-33 5,-20 -5,-59 -27,-79l-12 -7c-17,-7 -73,13 -86,41 0,21 34,53 82,78zm188 38c-4,-30 -37,-59 -112,-110 0,11 -1,20 -2,25 -4,25 -13,48 -26,68 31,10 64,17 96,17l44 0zm-310 -82c6,-55 30,-93 59,-118l0 0 39 -79c225,150 280,194 244,279 -7,22 -27,81 -54,81l-38 0c-38,0 -91,-17 -138,-42 -42,28 -94,42 -142,42l-22 0 -1 0 0 0c-20,-1 -40,-20 -40,-41 0,-21 20,-40 40,-40l0 0 1 0 23 0c24,0 49,-4 72,-9 -26,-23 -43,-49 -43,-73z"/>
 </g>
</svg>
