<?xml version="1.0" encoding="UTF-8"?>
<!DOCTYPE svg PUBLIC "-//W3C//DTD SVG 1.0//EN" "http://www.w3.org/TR/2001/REC-SVG-20010904/DTD/svg10.dtd">
<!-- Creator: CorelDRAW -->
<svg xmlns="http://www.w3.org/2000/svg" xml:space="preserve" width="1300px" height="1300px" version="1.0" style="shape-rendering:geometricPrecision; text-rendering:geometricPrecision; image-rendering:optimizeQuality; fill-rule:evenodd; clip-rule:evenodd"
viewBox="0 0 1300 1056"
 xmlns:xlink="http://www.w3.org/1999/xlink">
 <defs>
  <style type="text/css">
   <![CDATA[
    .fil0 {fill:#4D4D4D}
   ]]>
  </style>
 </defs>
 <g id="_100:master">
  <metadata id="CorelCorpID_0Corel-Layer"/>
  <path class="fil0" d="M593 650c-20,0 -41,-20 -40,-41 0,-21 20,-40 40,-40 144,0 242,-18 309,-40 -79,-20 -146,-57 -226,-57 -23,0 -38,24 -44,41l-9 -10c11,-72 41,-112 92,-112 108,-1 176,70 321,70l0 0 0 0 0 0 -41 81 0 0 0 0c-49,21 -148,108 -402,108l0 0z"/>
 </g>
</svg>
