<?xml version="1.0" encoding="UTF-8"?>
<!DOCTYPE svg PUBLIC "-//W3C//DTD SVG 1.0//EN" "http://www.w3.org/TR/2001/REC-SVG-20010904/DTD/svg10.dtd">
<!-- Creator: CorelDRAW -->
<svg xmlns="http://www.w3.org/2000/svg" xml:space="preserve" width="1300px" height="1300px" version="1.0" style="shape-rendering:geometricPrecision; text-rendering:geometricPrecision; image-rendering:optimizeQuality; fill-rule:evenodd; clip-rule:evenodd"
viewBox="0 0 1300 1056"
 xmlns:xlink="http://www.w3.org/1999/xlink">
 <defs>
  <style type="text/css">
   <![CDATA[
    .fil0 {fill:#666633}
   ]]>
  </style>
 </defs>
 <g id="_100:master">
  <metadata id="CorelCorpID_0Corel-Layer"/>
  <path class="fil0" d="M1077 650l-17 0c-68,0 -130,-25 -156,-111 -113,27 -209,100 -231,171 -25,84 70,184 332,165 -10,19 -76,80 -93,81 -262,-12 -317,-140 -288,-264 20,-84 94,-165 217,-207 -90,-32 -180,-62 -205,-7l-12 -13c31,-69 67,-92 110,-91 80,1 204,82 299,82l-1 0 1 0 -37 72c-15,0 -30,1 -45,3 24,31 63,38 110,38l16 0 0 81z"/>
 </g>
</svg>
