<?xml version="1.0" encoding="UTF-8"?>
<!DOCTYPE svg PUBLIC "-//W3C//DTD SVG 1.0//EN" "http://www.w3.org/TR/2001/REC-SVG-20010904/DTD/svg10.dtd">
<!-- Creator: CorelDRAW -->
<svg xmlns="http://www.w3.org/2000/svg" xml:space="preserve" width="1300px" height="1300px" version="1.0" style="shape-rendering:geometricPrecision; text-rendering:geometricPrecision; image-rendering:optimizeQuality; fill-rule:evenodd; clip-rule:evenodd"
viewBox="0 0 1300 1056"
 xmlns:xlink="http://www.w3.org/1999/xlink">
 <defs>
  <style type="text/css">
   <![CDATA[
    .fil0 {fill:#336666;fill-opacity:0.600000}
   ]]>
  </style>
 </defs>
 <g id="Layer_x0020_1">
  <metadata id="CorelCorpID_0Corel-Layer"/>
  <path class="fil0" d="M945 569c-5,-35 -30,-60 -105,-110 0,11 -1,20 -2,25 -4,25 -13,48 -26,68 31,10 64,17 96,17l37 0zm-303 -82c6,-55 30,-93 59,-118l0 0 39 -79c225,150 280,194 244,279 -7,22 -27,81 -54,81l-9 0c-63,-1 -123,-16 -170,-40 -42,27 -93,40 -139,40l-22 0 -1 0 0 0c-20,-1 -40,-20 -40,-41 0,-21 20,-40 40,-40l0 0 1 0 23 0c23,0 45,-3 67,-8 -24,-24 -38,-50 -38,-74zm40 -34c0,21 34,53 82,78 21,-11 36,-23 43,-33 5,-20 -5,-60 -28,-79l-11 -7c-16,-7 -74,-5 -91,45l5 -4z"/>
 </g>
</svg>
