<?xml version="1.0" encoding="UTF-8"?>
<!DOCTYPE svg PUBLIC "-//W3C//DTD SVG 1.0//EN" "http://www.w3.org/TR/2001/REC-SVG-20010904/DTD/svg10.dtd">
<!-- Creator: CorelDRAW -->
<svg xmlns="http://www.w3.org/2000/svg" xml:space="preserve" width="1300px" height="1300px" version="1.0" style="shape-rendering:geometricPrecision; text-rendering:geometricPrecision; image-rendering:optimizeQuality; fill-rule:evenodd; clip-rule:evenodd"
viewBox="0 0 1300 1056"
 xmlns:xlink="http://www.w3.org/1999/xlink">
 <defs>
  <style type="text/css">
   <![CDATA[
    .fil0 {fill:#336666;fill-opacity:0.600000}
   ]]>
  </style>
 </defs>
 <g id="Layer_x0020_1">
  <metadata id="CorelCorpID_0Corel-Layer"/>
  <path class="fil0" d="M779 523c13,-9 23,-17 28,-25 5,-23 -9,-73 -39,-86 -15,-7 -64,10 -82,34 -8,19 6,25 24,36 22,13 45,27 69,41zm166 73c6,-56 -9,-101 -108,-179 4,29 4,57 1,67 -3,22 -11,42 -21,59 38,20 80,39 128,53zm-303 -138l0 0c20,-58 58,-95 95,-112 -9,-5 -18,-11 -28,-18l39 -79c225,150 272,235 236,320 -7,22 -41,105 -67,105 -1,0 -1,0 -2,-1 -64,-16 -117,-39 -162,-64 -42,27 -94,41 -141,41l-22 0 -1 0 0 0c-20,-1 -40,-20 -40,-41 0,-21 20,-40 40,-40l0 0 1 0 23 0c22,0 44,-3 65,-7 -7,-6 -14,-11 -20,-15 -32,-24 -27,-64 -16,-89z"/>
 </g>
</svg>
