<?xml version="1.0" encoding="UTF-8"?>
<!DOCTYPE svg PUBLIC "-//W3C//DTD SVG 1.0//EN" "http://www.w3.org/TR/2001/REC-SVG-20010904/DTD/svg10.dtd">
<!-- Creator: CorelDRAW -->
<svg xmlns="http://www.w3.org/2000/svg" xml:space="preserve" width="1300px" height="1300px" version="1.0" style="shape-rendering:geometricPrecision; text-rendering:geometricPrecision; image-rendering:optimizeQuality; fill-rule:evenodd; clip-rule:evenodd"
viewBox="0 0 1300 1056"
 xmlns:xlink="http://www.w3.org/1999/xlink">
 <defs>
  <style type="text/css">
   <![CDATA[
    .fil0 {fill:#FF9933;fill-opacity:0.850980}
   ]]>
  </style>
 </defs>
 <g id="_100:master">
  <metadata id="CorelCorpID_0Corel-Layer"/>
  <path class="fil0" d="M646 822l0 0 0 0c-7,-24 -9,-52 -6,-81l1 -2c11,-103 84,-201 209,-250 -93,-34 -188,-68 -214,-11l-12 -13c31,-69 67,-92 110,-91 80,1 204,82 299,82l-1 0 1 0 -37 72c-123,0 -242,69 -296,146 -66,110 -11,220 316,220l-41 81c-196,0 -302,-56 -329,-153z"/>
 </g>
</svg>
