<?xml version="1.0" encoding="UTF-8"?>
<!DOCTYPE svg PUBLIC "-//W3C//DTD SVG 1.0//EN" "http://www.w3.org/TR/2001/REC-SVG-20010904/DTD/svg10.dtd">
<!-- Creator: CorelDRAW -->
<svg xmlns="http://www.w3.org/2000/svg" xml:space="preserve" width="1300px" height="1300px" version="1.0" style="shape-rendering:geometricPrecision; text-rendering:geometricPrecision; image-rendering:optimizeQuality; fill-rule:evenodd; clip-rule:evenodd"
viewBox="0 0 1300 1056"
 xmlns:xlink="http://www.w3.org/1999/xlink">
 <defs>
  <style type="text/css">
   <![CDATA[
    .fil0 {fill:#336666;fill-opacity:0.600000}
   ]]>
  </style>
 </defs>
 <g id="Layer_x0020_1">
  <metadata id="CorelCorpID_0Corel-Layer"/>
  <path class="fil0" d="M773 526c16,-9 28,-19 34,-28 5,-20 5,-81 -17,-103l-9 -6c-18,-6 -77,31 -90,58l0 0c-10,22 30,52 82,79zm172 70c5,-52 -9,-90 -92,-155 -2,20 -6,36 -7,43 -4,24 -13,46 -26,65 50,23 101,41 125,47zm-286 -175c10,-21 35,-49 63,-71l-18 -12 38 -79c226,150 278,225 242,310 -7,22 -41,105 -67,105 -1,0 -1,0 -2,-1 -43,-10 -110,-30 -168,-59 -42,24 -91,36 -135,36l-22 0 -1 0 0 0c-20,-1 -40,-20 -40,-41 0,-20 20,-40 40,-40l0 0 1 0 23 0c20,0 39,-2 59,-6 -39,-37 -53,-84 -13,-142z"/>
 </g>
</svg>
