<?xml version="1.0" encoding="UTF-8"?>
<!DOCTYPE svg PUBLIC "-//W3C//DTD SVG 1.0//EN" "http://www.w3.org/TR/2001/REC-SVG-20010904/DTD/svg10.dtd">
<!-- Creator: CorelDRAW -->
<svg xmlns="http://www.w3.org/2000/svg" xml:space="preserve" width="1300px" height="1300px" version="1.0" style="shape-rendering:geometricPrecision; text-rendering:geometricPrecision; image-rendering:optimizeQuality; fill-rule:evenodd; clip-rule:evenodd"
viewBox="0 0 1300 1056"
 xmlns:xlink="http://www.w3.org/1999/xlink">
 <defs>
  <style type="text/css">
   <![CDATA[
    .fil0 {fill:#666633}
   ]]>
  </style>
 </defs>
 <g id="_100:master">
  <metadata id="CorelCorpID_0Corel-Layer"/>
  <path class="fil0" d="M1057 650c-110,0 -171,-44 -198,-134 -96,46 -169,134 -331,134l0 -81c162,0 241,-58 317,-105 -82,-24 -163,-58 -234,-58 -23,0 -38,24 -44,41l-9 -10c11,-71 41,-112 92,-112 108,-1 225,81 370,81l-41 81c-28,0 -53,4 -76,11 30,48 83,71 154,71l0 81zm-529 -81l0 81c-20,0 -41,-20 -40,-41 0,-21 20,-40 40,-40z"/>
 </g>
</svg>
