<?xml version="1.0" encoding="UTF-8"?>
<!DOCTYPE svg PUBLIC "-//W3C//DTD SVG 1.0//EN" "http://www.w3.org/TR/2001/REC-SVG-20010904/DTD/svg10.dtd">
<!-- Creator: CorelDRAW -->
<svg xmlns="http://www.w3.org/2000/svg" xml:space="preserve" width="1300px" height="1300px" version="1.0" style="shape-rendering:geometricPrecision; text-rendering:geometricPrecision; image-rendering:optimizeQuality; fill-rule:evenodd; clip-rule:evenodd"
viewBox="0 0 1300 1056"
 xmlns:xlink="http://www.w3.org/1999/xlink">
 <defs>
  <style type="text/css">
   <![CDATA[
    .fil0 {fill:#666666}
   ]]>
  </style>
 </defs>
 <g id="_100:master">
  <metadata id="CorelCorpID_0Corel-Layer"/>
  <path class="fil0" d="M1034 86l-17 81 -268 78c111,82 235,129 220,294 -16,70 -67,111 -136,111l-150 0 0 0c-20,-1 -40,-20 -40,-41 0,-20 20,-40 40,-40l0 0c50,0 100,0 150,0 41,0 70,-10 91,-22 3,-112 -163,-197 -228,-237 -7,-5 -14,-8 -15,-17 -2,-35 20,-88 52,-119l0 0 301 -88zm-310 138l0 0 0 0z"/>
 </g>
</svg>
