<?xml version="1.0" encoding="UTF-8"?>
<!DOCTYPE svg PUBLIC "-//W3C//DTD SVG 1.0//EN" "http://www.w3.org/TR/2001/REC-SVG-20010904/DTD/svg10.dtd">
<!-- Creator: CorelDRAW -->
<svg xmlns="http://www.w3.org/2000/svg" xml:space="preserve" width="1300px" height="1300px" version="1.0" style="shape-rendering:geometricPrecision; text-rendering:geometricPrecision; image-rendering:optimizeQuality; fill-rule:evenodd; clip-rule:evenodd"
viewBox="0 0 1300 1056"
 xmlns:xlink="http://www.w3.org/1999/xlink">
 <defs>
  <style type="text/css">
   <![CDATA[
    .fil0 {fill:#666666}
   ]]>
  </style>
 </defs>
 <g id="_100:master">
  <metadata id="CorelCorpID_0Corel-Layer"/>
  <path class="fil0" d="M1083 70l-17 81 -268 77c109,83 177,139 177,260l0 0c-24,117 -87,162 -211,162l-81 0 0 0 0 0c-21,0 -41,-20 -41,-41 0,-21 20,-40 41,-40l0 0 0 0 80 0c92,0 123,-18 161,-59 -10,-103 -118,-178 -179,-216 -7,-5 -14,-8 -15,-18 -3,-34 20,-87 52,-119l0 1 301 -88zm-310 138l0 0 0 0z"/>
 </g>
</svg>
