<?xml version="1.0" encoding="UTF-8"?>
<!DOCTYPE svg PUBLIC "-//W3C//DTD SVG 1.0//EN" "http://www.w3.org/TR/2001/REC-SVG-20010904/DTD/svg10.dtd">
<!-- Creator: CorelDRAW -->
<svg xmlns="http://www.w3.org/2000/svg" xml:space="preserve" width="1300px" height="1300px" version="1.0" style="shape-rendering:geometricPrecision; text-rendering:geometricPrecision; image-rendering:optimizeQuality; fill-rule:evenodd; clip-rule:evenodd"
viewBox="0 0 1300 1056"
 xmlns:xlink="http://www.w3.org/1999/xlink">
 <defs>
  <style type="text/css">
   <![CDATA[
    .fil0 {fill:#666666}
   ]]>
  </style>
 </defs>
 <g id="_100:master">
  <metadata id="CorelCorpID_0Corel-Layer"/>
  <path class="fil0" d="M1085 46l-17 82 -304 99c115,83 211,140 211,261l0 0c-24,117 -119,162 -244,162l-81 0 0 0 0 0c-20,0 -41,-20 -40,-41 0,-21 20,-40 40,-40l0 0 0 0 81 0c92,0 155,-19 193,-60 0,0 1,-1 1,-1 -14,-102 -152,-176 -213,-214 -7,-5 -14,-8 -14,-18 -2,-17 -1,-39 4,-59 1,-17 11,-38 26,-50l3 -3 0 1c4,-3 7,-4 11,-6l343 -113z"/>
 </g>
</svg>
