<?xml version="1.0" encoding="UTF-8"?>
<!DOCTYPE svg PUBLIC "-//W3C//DTD SVG 1.0//EN" "http://www.w3.org/TR/2001/REC-SVG-20010904/DTD/svg10.dtd">
<!-- Creator: CorelDRAW -->
<svg xmlns="http://www.w3.org/2000/svg" xml:space="preserve" width="1300px" height="1300px" version="1.0" style="shape-rendering:geometricPrecision; text-rendering:geometricPrecision; image-rendering:optimizeQuality; fill-rule:evenodd; clip-rule:evenodd"
viewBox="0 0 1300 1056"
 xmlns:xlink="http://www.w3.org/1999/xlink">
 <defs>
  <style type="text/css">
   <![CDATA[
    .fil0 {fill:#FF9933}
   ]]>
  </style>
 </defs>
 <g id="_100:master">
  <metadata id="CorelCorpID_0Corel-Layer"/>
  <path class="fil0" d="M804 569l46 0c51,0 70,-16 69,-42 0,-9 -6,-22 -16,-38 -29,32 -65,58 -99,80zm-133 0c29,-20 134,-56 198,-132 -46,-63 -114,-143 -154,-199 -20,-28 -16,-81 -19,-108l11 -3 56 79c20,28 87,103 140,178 8,-18 13,-38 15,-59l0 -145c-1,-34 34,-74 47,-99l10 5 0 228 1 0c-1,49 -14,91 -36,127 20,35 34,67 34,91 -1,64 -35,118 -135,118l-148 0 -4 -17 0 0 -16 -64z"/>
 </g>
</svg>
