<?xml version="1.0" encoding="UTF-8"?>
<!DOCTYPE svg PUBLIC "-//W3C//DTD SVG 1.0//EN" "http://www.w3.org/TR/2001/REC-SVG-20010904/DTD/svg10.dtd">
<!-- Creator: CorelDRAW -->
<svg xmlns="http://www.w3.org/2000/svg" xml:space="preserve" width="1300px" height="1300px" version="1.0" style="shape-rendering:geometricPrecision; text-rendering:geometricPrecision; image-rendering:optimizeQuality; fill-rule:evenodd; clip-rule:evenodd"
viewBox="0 0 1300 1056"
 xmlns:xlink="http://www.w3.org/1999/xlink">
 <defs>
  <style type="text/css">
   <![CDATA[
    .fil0 {fill:#FF9933}
   ]]>
  </style>
 </defs>
 <g id="_100:master">
  <metadata id="CorelCorpID_0Corel-Layer"/>
  <path class="fil0" d="M763 569l76 0c40,0 70,-10 91,-22 -10,-18 -25,-33 -43,-49 -47,25 -100,38 -124,71zm-51 0c-1,-72 63,-90 120,-119 -3,-3 -7,-7 -11,-10 -52,-51 -103,-133 -110,-195 -4,-34 1,-82 3,-110l11 -16c3,98 72,200 136,264 10,10 20,19 29,27 17,-18 28,-42 28,-76l0 0 0 -154c-1,-34 34,-74 47,-99l10 5 0 268 0 0c0,3 0,7 0,10l0 6 -1 0c-2,39 -16,67 -35,88 35,38 51,73 20,124 -6,11 -13,20 -21,29l0 0 0 0c-25,25 -59,39 -99,39l-126 0 0 -81 -1 0z"/>
 </g>
</svg>
