<?xml version="1.0" encoding="UTF-8"?>
<!DOCTYPE svg PUBLIC "-//W3C//DTD SVG 1.0//EN" "http://www.w3.org/TR/2001/REC-SVG-20010904/DTD/svg10.dtd">
<!-- Creator: CorelDRAW -->
<svg xmlns="http://www.w3.org/2000/svg" xml:space="preserve" width="1300px" height="1300px" version="1.0" style="shape-rendering:geometricPrecision; text-rendering:geometricPrecision; image-rendering:optimizeQuality; fill-rule:evenodd; clip-rule:evenodd"
viewBox="0 0 1300 1056"
 xmlns:xlink="http://www.w3.org/1999/xlink">
 <defs>
  <style type="text/css">
   <![CDATA[
    .fil0 {fill:red;fill-opacity:0.501961}
   ]]>
  </style>
 </defs>
 <g id="_100:master">
  <metadata id="CorelCorpID_0Corel-Layer"/>
  <path class="fil0" d="M975 86l0 284c0,30 -17,62 -43,92 17,25 27,48 27,72 0,47 -34,116 -130,116l-97 0 -19 -81c32,-11 99,-56 147,-102 -39,-44 -94,-106 -145,-188 -18,-29 -16,-81 -19,-109l11 -2 56 79c44,72 98,126 138,174 11,-15 17,-30 17,-42l0 -199c-1,-34 34,-74 47,-99l10 5zm-172 483l25 0c39,0 79,-10 87,-23 5,-7 -4,-21 -23,-43 -27,25 -58,47 -89,66z"/>
 </g>
</svg>
