<?xml version="1.0" encoding="UTF-8"?>
<!DOCTYPE svg PUBLIC "-//W3C//DTD SVG 1.0//EN" "http://www.w3.org/TR/2001/REC-SVG-20010904/DTD/svg10.dtd">
<!-- Creator: CorelDRAW -->
<svg xmlns="http://www.w3.org/2000/svg" xml:space="preserve" width="1300px" height="1300px" version="1.0" style="shape-rendering:geometricPrecision; text-rendering:geometricPrecision; image-rendering:optimizeQuality; fill-rule:evenodd; clip-rule:evenodd"
viewBox="0 0 1300 1056"
 xmlns:xlink="http://www.w3.org/1999/xlink">
 <defs>
  <style type="text/css">
   <![CDATA[
    .fil0 {fill:#FF9933}
   ]]>
  </style>
 </defs>
 <g id="_100:master">
  <metadata id="CorelCorpID_0Corel-Layer"/>
  <path class="fil0" d="M763 569l76 0c42,0 72,-10 93,-24 -7,-19 -18,-37 -32,-54 -50,30 -111,42 -137,78zm-51 0c-2,-80 80,-94 140,-130 -60,-60 -132,-119 -141,-194 -4,-34 1,-82 3,-110l11 -16c3,98 72,169 136,234 14,14 28,27 41,41 10,-16 16,-36 16,-60l0 0 0 -154c-1,-34 34,-74 47,-99l10 5 0 268 0 0c0,3 0,7 0,10l0 6 -1 0c-2,33 -12,58 -26,78 20,29 32,59 26,91l1 0c-2,9 -5,19 -8,27l-29 45 0 0c-25,25 -59,39 -99,39l-126 0 0 -81 -1 0z"/>
 </g>
</svg>
