<?xml version="1.0" encoding="UTF-8"?>
<!DOCTYPE svg PUBLIC "-//W3C//DTD SVG 1.0//EN" "http://www.w3.org/TR/2001/REC-SVG-20010904/DTD/svg10.dtd">
<!-- Creator: CorelDRAW -->
<svg xmlns="http://www.w3.org/2000/svg" xml:space="preserve" width="1300px" height="1300px" version="1.0" style="shape-rendering:geometricPrecision; text-rendering:geometricPrecision; image-rendering:optimizeQuality; fill-rule:evenodd; clip-rule:evenodd"
viewBox="0 0 1300 1056"
 xmlns:xlink="http://www.w3.org/1999/xlink">
 <defs>
  <style type="text/css">
   <![CDATA[
    .fil0 {fill:#999933;fill-opacity:0.501961}
   ]]>
  </style>
 </defs>
 <g id="_100:master">
  <metadata id="CorelCorpID_0Corel-Layer"/>
  <path class="fil0" d="M804 650l0 0c-20,-1 -39,-20 -39,-41 0,-21 20,-40 40,-40l0 0 28 0c37,0 65,-8 86,-19 0,-95 -8,-216 -10,-258l-4 -111c-1,-34 32,-76 44,-100l11 4 14 405 1 -3c0,13 -1,25 -3,36 -3,26 -11,51 -22,65 -25,40 -66,62 -117,62l-29 0z"/>
 </g>
</svg>
