<?xml version="1.0" encoding="UTF-8"?>
<!DOCTYPE svg PUBLIC "-//W3C//DTD SVG 1.0//EN" "http://www.w3.org/TR/2001/REC-SVG-20010904/DTD/svg10.dtd">
<!-- Creator: CorelDRAW -->
<svg xmlns="http://www.w3.org/2000/svg" xml:space="preserve" width="1300px" height="1300px" version="1.0" style="shape-rendering:geometricPrecision; text-rendering:geometricPrecision; image-rendering:optimizeQuality; fill-rule:evenodd; clip-rule:evenodd"
viewBox="0 0 1300 1056"
 xmlns:xlink="http://www.w3.org/1999/xlink">
 <defs>
  <style type="text/css">
   <![CDATA[
    .fil0 {fill:#FF9933}
   ]]>
  </style>
 </defs>
 <g id="_100:master">
  <metadata id="CorelCorpID_0Corel-Layer"/>
  <path class="fil0" d="M832 569l13 0c38,0 78,-10 86,-23 5,-6 -3,-21 -19,-43 -24,24 -52,47 -80,66zm-120 0c28,-20 108,-64 159,-118 -44,-55 -104,-129 -156,-213 -18,-29 -16,-81 -19,-108l11 -3 56 79c43,71 101,137 145,195 5,-11 9,-22 10,-33l0 -188c-1,-34 34,-74 47,-99l10 5 0 293 1 0c0,5 -1,10 -1,14l0 2 0 0c-3,22 -13,44 -26,64 16,28 26,53 26,75 0,47 -34,116 -130,116l-113 0 -4 -17 -1 0 -15 -64z"/>
 </g>
</svg>
