<?xml version="1.0" encoding="UTF-8"?>
<!DOCTYPE svg PUBLIC "-//W3C//DTD SVG 1.0//EN" "http://www.w3.org/TR/2001/REC-SVG-20010904/DTD/svg10.dtd">
<!-- Creator: CorelDRAW -->
<svg xmlns="http://www.w3.org/2000/svg" xml:space="preserve" width="1300px" height="1300px" version="1.0" style="shape-rendering:geometricPrecision; text-rendering:geometricPrecision; image-rendering:optimizeQuality; fill-rule:evenodd; clip-rule:evenodd"
viewBox="0 0 1300 1056"
 xmlns:xlink="http://www.w3.org/1999/xlink">
 <defs>
  <style type="text/css">
   <![CDATA[
    .fil0 {fill:#CC6633}
   ]]>
  </style>
 </defs>
 <g id="_100:master">
  <metadata id="CorelCorpID_0Corel-Layer"/>
  <path class="fil0" d="M813 569l20 0c50,0 74,-13 90,-41 -4,-98 -9,-203 -9,-237l0 -86c0,-34 28,-77 51,-124l10 5 0 462c21,12 50,21 90,21l12 0 0 81 -12 0c-83,0 -103,-34 -118,-59 -19,28 -54,59 -114,59l-20 0 0 0c-21,-1 -40,-20 -40,-41 0,-21 20,-40 40,-40l0 0z"/>
 </g>
</svg>
