<?xml version="1.0" encoding="UTF-8"?>
<!DOCTYPE svg PUBLIC "-//W3C//DTD SVG 1.0//EN" "http://www.w3.org/TR/2001/REC-SVG-20010904/DTD/svg10.dtd">
<!-- Creator: CorelDRAW -->
<svg xmlns="http://www.w3.org/2000/svg" xml:space="preserve" width="1300px" height="1300px" version="1.0" style="shape-rendering:geometricPrecision; text-rendering:geometricPrecision; image-rendering:optimizeQuality; fill-rule:evenodd; clip-rule:evenodd"
viewBox="0 0 1300 1056"
 xmlns:xlink="http://www.w3.org/1999/xlink">
 <defs>
  <style type="text/css">
   <![CDATA[
    .fil0 {fill:#FF9933}
   ]]>
  </style>
 </defs>
 <g id="_100:master">
  <metadata id="CorelCorpID_0Corel-Layer"/>
  <path class="fil0" d="M832 569l18 0c51,0 70,-16 69,-42 0,-7 -4,-17 -10,-29 -23,28 -50,51 -77,71zm-120 0c28,-19 110,-54 162,-124 -46,-65 -118,-149 -159,-207 -20,-28 -16,-81 -19,-108l11 -3 56 79c20,29 89,105 142,182 7,-18 11,-37 13,-58l0 -150c-1,-34 34,-74 47,-99l10 5 0 228 1 0c-1,51 -13,95 -33,132 19,33 31,64 31,86 -1,64 -35,118 -135,118l-107 0 -4 -17 -1 0 -15 -64z"/>
 </g>
</svg>
