<?xml version="1.0" encoding="UTF-8"?>
<!DOCTYPE svg PUBLIC "-//W3C//DTD SVG 1.0//EN" "http://www.w3.org/TR/2001/REC-SVG-20010904/DTD/svg10.dtd">
<!-- Creator: CorelDRAW -->
<svg xmlns="http://www.w3.org/2000/svg" xml:space="preserve" width="1300px" height="1300px" version="1.0" style="shape-rendering:geometricPrecision; text-rendering:geometricPrecision; image-rendering:optimizeQuality; fill-rule:evenodd; clip-rule:evenodd"
viewBox="0 0 1300 1056"
 xmlns:xlink="http://www.w3.org/1999/xlink">
 <defs>
  <style type="text/css">
   <![CDATA[
    .fil0 {fill:#FF9933}
   ]]>
  </style>
 </defs>
 <g id="_100:master">
  <metadata id="CorelCorpID_0Corel-Layer"/>
  <path class="fil0" d="M832 569l13 0c38,0 78,-10 86,-23 5,-7 -4,-23 -22,-48 -24,26 -50,50 -77,71zm-120 0c23,-8 104,-59 157,-121 -43,-54 -103,-127 -154,-210 -18,-29 -16,-81 -19,-108l11 -3 56 79c42,70 98,134 142,191 7,-13 11,-27 13,-40l0 -177c-1,-34 34,-74 47,-99l10 5 0 269c2,32 -10,65 -31,97 19,30 31,58 31,82 0,47 -34,116 -130,116l-113 0 -4 -17 -1 0 -15 -64z"/>
 </g>
</svg>
