<?xml version="1.0" encoding="UTF-8"?>
<!DOCTYPE svg PUBLIC "-//W3C//DTD SVG 1.0//EN" "http://www.w3.org/TR/2001/REC-SVG-20010904/DTD/svg10.dtd">
<!-- Creator: CorelDRAW -->
<svg xmlns="http://www.w3.org/2000/svg" xml:space="preserve" width="1300px" height="1300px" version="1.0" style="shape-rendering:geometricPrecision; text-rendering:geometricPrecision; image-rendering:optimizeQuality; fill-rule:evenodd; clip-rule:evenodd"
viewBox="0 0 1300 1056"
 xmlns:xlink="http://www.w3.org/1999/xlink">
 <defs>
  <style type="text/css">
   <![CDATA[
    .fil0 {fill:red;fill-opacity:0.501961}
   ]]>
  </style>
 </defs>
 <g id="_100:master">
  <metadata id="CorelCorpID_0Corel-Layer"/>
  <path class="fil0" d="M975 86l0 284c0,26 -13,53 -32,80 19,31 32,59 32,84 0,47 -34,116 -130,116l-113 0 -19 -81c36,-12 112,-65 161,-116 -44,-54 -106,-129 -159,-215 -18,-29 -16,-81 -19,-108l11 -3 56 79c44,73 103,140 148,199 5,-10 7,-18 7,-26l0 -199c-1,-34 34,-74 47,-99l10 5zm-172 483l42 0c38,0 78,-10 86,-23 5,-7 -6,-26 -27,-54 -30,29 -66,56 -101,77z"/>
 </g>
</svg>
