<?xml version="1.0" encoding="UTF-8"?>
<!DOCTYPE svg PUBLIC "-//W3C//DTD SVG 1.0//EN" "http://www.w3.org/TR/2001/REC-SVG-20010904/DTD/svg10.dtd">
<!-- Creator: CorelDRAW -->
<svg xmlns="http://www.w3.org/2000/svg" xml:space="preserve" width="1300px" height="1300px" version="1.0" style="shape-rendering:geometricPrecision; text-rendering:geometricPrecision; image-rendering:optimizeQuality; fill-rule:evenodd; clip-rule:evenodd"
viewBox="0 0 1300 1056"
 xmlns:xlink="http://www.w3.org/1999/xlink">
 <defs>
  <style type="text/css">
   <![CDATA[
    .fil0 {fill:#FF9933}
   ]]>
  </style>
 </defs>
 <g id="_100:master">
  <metadata id="CorelCorpID_0Corel-Layer"/>
  <path class="fil0" d="M769 569l70 0c43,0 73,-11 95,-25 -9,-23 -23,-44 -39,-65 -46,29 -99,60 -126,90zm-57 0c14,-62 77,-87 142,-137 -52,-57 -109,-116 -119,-203 -3,-34 1,-82 3,-110l11 -16c13,140 92,217 153,288 6,-6 12,-13 18,-20 1,-45 -2,-47 -2,-80l0 -111c0,-34 34,-74 48,-99l10 5 0 325c-4,10 -15,22 -31,35 18,28 30,58 30,93 -16,70 -67,111 -136,111l-126 0 0 -81 -1 0z"/>
 </g>
</svg>
