<?xml version="1.0" encoding="UTF-8"?>
<!DOCTYPE svg PUBLIC "-//W3C//DTD SVG 1.0//EN" "http://www.w3.org/TR/2001/REC-SVG-20010904/DTD/svg10.dtd">
<!-- Creator: CorelDRAW -->
<svg xmlns="http://www.w3.org/2000/svg" xml:space="preserve" width="1300px" height="1300px" version="1.0" style="shape-rendering:geometricPrecision; text-rendering:geometricPrecision; image-rendering:optimizeQuality; fill-rule:evenodd; clip-rule:evenodd"
viewBox="0 0 1300 1056"
 xmlns:xlink="http://www.w3.org/1999/xlink">
 <defs>
  <style type="text/css">
   <![CDATA[
    .fil0 {fill:#FF9933}
   ]]>
  </style>
 </defs>
 <g id="_100:master">
  <metadata id="CorelCorpID_0Corel-Layer"/>
  <path class="fil0" d="M832 569l7 0c40,0 70,-10 91,-22 -8,-14 -18,-26 -31,-38 -21,23 -44,43 -67,60zm-120 0c24,-17 91,-46 142,-100 -11,-9 -22,-19 -33,-29 -101,-98 -118,-174 -107,-305l11 -16c3,98 72,200 136,264 11,11 22,21 33,31 12,-24 21,-52 24,-84l0 -150c-1,-34 34,-74 47,-99l10 5 0 228 1 0c-1,56 -16,103 -38,142 36,39 53,74 21,126 -6,11 -13,20 -21,29l0 0 0 0c-25,25 -59,39 -99,39l-107 0 -4 -17 -1 0 -15 -64z"/>
 </g>
</svg>
