<?xml version="1.0" encoding="UTF-8"?>
<!DOCTYPE svg PUBLIC "-//W3C//DTD SVG 1.0//EN" "http://www.w3.org/TR/2001/REC-SVG-20010904/DTD/svg10.dtd">
<!-- Creator: CorelDRAW -->
<svg xmlns="http://www.w3.org/2000/svg" xml:space="preserve" width="1300px" height="1300px" version="1.0" style="shape-rendering:geometricPrecision; text-rendering:geometricPrecision; image-rendering:optimizeQuality; fill-rule:evenodd; clip-rule:evenodd"
viewBox="0 0 1300 1056"
 xmlns:xlink="http://www.w3.org/1999/xlink">
 <defs>
  <style type="text/css">
   <![CDATA[
    .fil0 {fill:#666633}
   ]]>
  </style>
 </defs>
 <g id="_100:master">
  <metadata id="CorelCorpID_0Corel-Layer"/>
  <path class="fil0" d="M713 152l-11 -1c-3,28 -19,79 -5,110 25,59 50,105 74,158 18,41 26,85 10,131 54,-31 69,-89 38,-159l-106 -239zm387 498c-101,0 -144,-31 -160,-85 -56,71 -164,113 -219,124l-12 -5c9,-43 14,-45 19,-64 1,-4 1,-7 10,-12 75,-21 150,-68 181,-128 -2,-81 -9,-151 -10,-188l-4 -111c-1,-34 32,-76 44,-100l11 4 14 380c2,7 3,11 3,13 6,50 29,91 123,91l0 81z"/>
 </g>
</svg>
