<?xml version="1.0" encoding="UTF-8"?>
<!DOCTYPE svg PUBLIC "-//W3C//DTD SVG 1.0//EN" "http://www.w3.org/TR/2001/REC-SVG-20010904/DTD/svg10.dtd">
<!-- Creator: CorelDRAW -->
<svg xmlns="http://www.w3.org/2000/svg" xml:space="preserve" width="1300px" height="1300px" version="1.0" style="shape-rendering:geometricPrecision; text-rendering:geometricPrecision; image-rendering:optimizeQuality; fill-rule:evenodd; clip-rule:evenodd"
viewBox="0 0 1300 1056"
 xmlns:xlink="http://www.w3.org/1999/xlink">
 <defs>
  <style type="text/css">
   <![CDATA[
    .fil0 {fill:red;fill-opacity:0.501961}
   ]]>
  </style>
 </defs>
 <g id="_100:master">
  <metadata id="CorelCorpID_0Corel-Layer"/>
  <path class="fil0" d="M975 86l0 284c0,32 -19,65 -46,97 18,23 30,46 30,67 0,47 -34,116 -130,116l-97 0 -19 -81c31,-11 92,-52 140,-95 -51,-52 -117,-129 -138,-236 -7,-33 -16,-81 -19,-108l11 -3 56 79c17,95 83,164 133,221 14,-17 22,-34 22,-48l0 -199c-1,-34 34,-74 47,-99l10 5zm-172 483l25 0c39,0 79,-10 87,-23 4,-6 -7,-19 -27,-39 -27,23 -56,44 -85,62z"/>
 </g>
</svg>
