<?xml version="1.0" encoding="UTF-8"?>
<!DOCTYPE svg PUBLIC "-//W3C//DTD SVG 1.0//EN" "http://www.w3.org/TR/2001/REC-SVG-20010904/DTD/svg10.dtd">
<!-- Creator: CorelDRAW -->
<svg xmlns="http://www.w3.org/2000/svg" xml:space="preserve" width="1300px" height="1300px" version="1.0" style="shape-rendering:geometricPrecision; text-rendering:geometricPrecision; image-rendering:optimizeQuality; fill-rule:evenodd; clip-rule:evenodd"
viewBox="0 0 1300 1056"
 xmlns:xlink="http://www.w3.org/1999/xlink">
 <defs>
  <style type="text/css">
   <![CDATA[
    .fil0 {fill:#FF9933}
   ]]>
  </style>
 </defs>
 <g id="_100:master">
  <metadata id="CorelCorpID_0Corel-Layer"/>
  <path class="fil0" d="M834 569l11 0c38,0 78,-10 86,-23 4,-6 -3,-20 -17,-41 -24,24 -52,45 -80,64zm-122 0c28,-19 112,-60 164,-113 -45,-55 -107,-131 -161,-218 -18,-29 -16,-81 -19,-108l11 -3 56 79c44,73 104,140 148,199 4,-7 6,-15 7,-23l0 -23 0 -179c-1,-34 34,-74 47,-99l10 5 0 293c2,29 -8,57 -25,83 15,26 25,50 25,72 0,47 -34,116 -130,116l-113 0 -4 -17 -1 0 -15 -64z"/>
 </g>
</svg>
