<?xml version="1.0" encoding="UTF-8"?>
<!DOCTYPE svg PUBLIC "-//W3C//DTD SVG 1.0//EN" "http://www.w3.org/TR/2001/REC-SVG-20010904/DTD/svg10.dtd">
<!-- Creator: CorelDRAW -->
<svg xmlns="http://www.w3.org/2000/svg" xml:space="preserve" width="1300px" height="1300px" version="1.0" style="shape-rendering:geometricPrecision; text-rendering:geometricPrecision; image-rendering:optimizeQuality; fill-rule:evenodd; clip-rule:evenodd"
viewBox="0 0 1300 1056"
 xmlns:xlink="http://www.w3.org/1999/xlink">
 <defs>
  <style type="text/css">
   <![CDATA[
    .fil0 {fill:#FF9933}
   ]]>
  </style>
 </defs>
 <g id="_100:master">
  <metadata id="CorelCorpID_0Corel-Layer"/>
  <path class="fil0" d="M832 569l43 0c38,0 48,-10 56,-23 5,-7 -4,-23 -23,-48 -23,28 -49,51 -76,71zm-120 0c27,-19 106,-52 158,-119 -43,-55 -103,-128 -155,-212 -18,-29 -16,-81 -19,-108l11 -3 56 79c54,76 103,133 141,184 7,-18 12,-38 14,-60l0 -150c-1,-34 34,-74 47,-99l10 5 0 228 1 0c-1,52 -13,95 -33,133 20,34 32,67 32,102 0,46 -28,101 -112,101l-131 0 -4 -17 -1 0 -15 -64z"/>
 </g>
</svg>
