<?xml version="1.0" encoding="UTF-8"?>
<!DOCTYPE svg PUBLIC "-//W3C//DTD SVG 1.0//EN" "http://www.w3.org/TR/2001/REC-SVG-20010904/DTD/svg10.dtd">
<!-- Creator: CorelDRAW -->
<svg xmlns="http://www.w3.org/2000/svg" xml:space="preserve" width="1300px" height="1300px" version="1.0" style="shape-rendering:geometricPrecision; text-rendering:geometricPrecision; image-rendering:optimizeQuality; fill-rule:evenodd; clip-rule:evenodd"
viewBox="0 0 1300 1056"
 xmlns:xlink="http://www.w3.org/1999/xlink">
 <defs>
  <style type="text/css">
   <![CDATA[
    .fil0 {fill:#FF9933}
   ]]>
  </style>
 </defs>
 <g id="_100:master">
  <metadata id="CorelCorpID_0Corel-Layer"/>
  <path class="fil0" d="M805 569l34 0c40,0 70,-10 91,-22 -10,-18 -25,-34 -44,-50 -25,25 -54,49 -81,72zm-93 0c50,-42 97,-73 133,-107 -8,-7 -16,-15 -24,-22 -101,-98 -118,-174 -107,-305l11 -16c3,98 72,200 136,264 10,10 19,18 28,27 16,-26 27,-57 29,-95l0 -135c-1,-34 34,-74 47,-99l10 5 0 228 1 0c-1,51 -19,94 -47,133 42,42 64,79 30,135 -6,11 -13,20 -21,29l0 0 0 0c-25,25 -59,39 -99,39l-126 0 -1 -81z"/>
 </g>
</svg>
