<?xml version="1.0" encoding="UTF-8"?>
<!DOCTYPE svg PUBLIC "-//W3C//DTD SVG 1.0//EN" "http://www.w3.org/TR/2001/REC-SVG-20010904/DTD/svg10.dtd">
<!-- Creator: CorelDRAW -->
<svg xmlns="http://www.w3.org/2000/svg" xml:space="preserve" width="1300px" height="1300px" version="1.0" style="shape-rendering:geometricPrecision; text-rendering:geometricPrecision; image-rendering:optimizeQuality; fill-rule:evenodd; clip-rule:evenodd"
viewBox="0 0 1300 1056"
 xmlns:xlink="http://www.w3.org/1999/xlink">
 <defs>
  <style type="text/css">
   <![CDATA[
    .fil0 {fill:#FF9933}
   ]]>
  </style>
 </defs>
 <g id="_100:master">
  <metadata id="CorelCorpID_0Corel-Layer"/>
  <path class="fil0" d="M804 569l71 0c72,0 68,-27 28,-80 -29,32 -65,58 -99,80zm-133 0c28,-20 131,-55 195,-128 -43,-52 -100,-120 -151,-203 -18,-29 -16,-81 -19,-108l11 -3 56 79c50,70 96,135 133,192 12,-22 20,-46 22,-73l0 -145c-1,-34 34,-74 47,-99l10 5 0 228 1 0c-1,55 -18,101 -45,140 69,121 73,196 -68,196l-172 0 -4 -17 0 0 -16 -64z"/>
 </g>
</svg>
