<?xml version="1.0" encoding="UTF-8"?>
<!DOCTYPE svg PUBLIC "-//W3C//DTD SVG 1.0//EN" "http://www.w3.org/TR/2001/REC-SVG-20010904/DTD/svg10.dtd">
<!-- Creator: CorelDRAW -->
<svg xmlns="http://www.w3.org/2000/svg" xml:space="preserve" width="1300px" height="1300px" version="1.0" style="shape-rendering:geometricPrecision; text-rendering:geometricPrecision; image-rendering:optimizeQuality; fill-rule:evenodd; clip-rule:evenodd"
viewBox="0 0 1300 1056"
 xmlns:xlink="http://www.w3.org/1999/xlink">
 <defs>
  <style type="text/css">
   <![CDATA[
    .fil0 {fill:#CC6633}
   ]]>
  </style>
 </defs>
 <g id="_100:master">
  <metadata id="CorelCorpID_0Corel-Layer"/>
  <path class="fil0" d="M820 569l19 0c44,0 74,-11 95,-25 -3,-120 -17,-266 -17,-364 0,-34 34,-74 48,-99l10 5 0 453 1 0 -1 2c16,19 41,28 82,28l20 0 0 81 -20 0c-57,0 -88,-21 -108,-52 -25,34 -63,52 -110,52l-20 0 0 0c-20,-1 -40,-20 -39,-41 0,-21 20,-40 40,-40l0 0z"/>
 </g>
</svg>
