<?xml version="1.0" encoding="UTF-8"?>
<!DOCTYPE svg PUBLIC "-//W3C//DTD SVG 1.0//EN" "http://www.w3.org/TR/2001/REC-SVG-20010904/DTD/svg10.dtd">
<!-- Creator: CorelDRAW -->
<svg xmlns="http://www.w3.org/2000/svg" xml:space="preserve" width="1300px" height="1300px" version="1.0" style="shape-rendering:geometricPrecision; text-rendering:geometricPrecision; image-rendering:optimizeQuality; fill-rule:evenodd; clip-rule:evenodd"
viewBox="0 0 1300 1056"
 xmlns:xlink="http://www.w3.org/1999/xlink">
 <defs>
  <style type="text/css">
   <![CDATA[
    .fil0 {fill:#333300}
   ]]>
  </style>
 </defs>
 <g id="_100:master">
  <metadata id="CorelCorpID_0Corel-Layer"/>
  <path class="fil0" d="M723 547c88,74 110,83 144,36 -30,-24 -55,-49 -73,-64 -25,-20 -48,0 -71,28zm181 63c-59,106 -123,94 -225,-6l-1 -2c-31,31 -74,48 -118,48l0 0 -2 0 0 0c-20,-1 -39,-20 -39,-41 1,-20 19,-39 39,-40l0 0c38,-1 103,0 141,-45l22 -27c0,3 0,6 0,9 34,-41 59,-82 105,-43 42,37 90,106 205,106l0 81c-49,0 -91,-17 -127,-40z"/>
 </g>
</svg>
