<?xml version="1.0" encoding="UTF-8"?>
<!DOCTYPE svg PUBLIC "-//W3C//DTD SVG 1.0//EN" "http://www.w3.org/TR/2001/REC-SVG-20010904/DTD/svg10.dtd">
<!-- Creator: CorelDRAW -->
<svg xmlns="http://www.w3.org/2000/svg" xml:space="preserve" width="1300px" height="1300px" version="1.0" style="shape-rendering:geometricPrecision; text-rendering:geometricPrecision; image-rendering:optimizeQuality; fill-rule:evenodd; clip-rule:evenodd"
viewBox="0 0 1300 1056"
 xmlns:xlink="http://www.w3.org/1999/xlink">
 <defs>
  <style type="text/css">
   <![CDATA[
    .fil1 {fill:red;fill-opacity:0.501961}
    .fil0 {fill:#996633}
   ]]>
  </style>
 </defs>
 <g id="_100:master" visibility="hidden">
  <metadata id="CorelCorpID_0Corel-Layer"/>
  <path class="fil0" d="M939 495l39 -49c19,72 111,123 162,123l1 81c-64,0 -144,-26 -202,-155z"/>
  <path class="fil1" d="M1061 595l-22 0c-33,117 -167,40 -180,-92l-38 35c-22,150 195,315 240,57z"/>
  <path class="fil0" d="M978 446l19 65c-205,92 -223,106 -234,187 -3,-146 -32,-150 215,-252z"/>
  <path class="fil1" d="M761 603l51 -2c3,123 7,183 7,285 0,34 -34,75 -48,99l-10 -4 0 -378z"/>
 </g>
 <g id="Layer_x0020_2">
  <metadata id="CorelCorpID_1Corel-Layer"/>
  <path class="fil1" d="M808 571c69,66 98,75 129,38 -56,-39 -85,-89 -116,-54 -4,5 -8,10 -13,16zm161 58c-63,145 -134,66 -203,2 -5,8 -10,15 -15,22 3,97 6,174 6,261 0,20 -34,54 -40,63l-10 -5 0 -262 0 0c0,-5 0,-9 0,-13l1 -22c9,-77 55,-116 99,-185 76,-118 140,79 250,79l20 0 0 81 -20 0c-35,0 -64,-9 -88,-21z"/>
 </g>
</svg>
