<?xml version="1.0" encoding="UTF-8"?>
<!DOCTYPE svg PUBLIC "-//W3C//DTD SVG 1.0//EN" "http://www.w3.org/TR/2001/REC-SVG-20010904/DTD/svg10.dtd">
<!-- Creator: CorelDRAW -->
<svg xmlns="http://www.w3.org/2000/svg" xml:space="preserve" width="1300px" height="1300px" version="1.0" style="shape-rendering:geometricPrecision; text-rendering:geometricPrecision; image-rendering:optimizeQuality; fill-rule:evenodd; clip-rule:evenodd"
viewBox="0 0 1300 1056"
 xmlns:xlink="http://www.w3.org/1999/xlink">
 <defs>
  <style type="text/css">
   <![CDATA[
    .fil0 {fill:#CC9933}
   ]]>
  </style>
 </defs>
 <g id="_100:master">
  <metadata id="CorelCorpID_0Corel-Layer"/>
  <path class="fil0" d="M1040 598c-42,81 -120,64 -152,-16l47 -62c6,1 13,5 20,11 27,23 55,47 85,67zm-212 63l11 247c0,26 -15,40 -40,59 -3,-27 -10,-155 -13,-297 -3,-39 -6,-32 14,-57l6 -9 -1 0c5,-7 11,-14 17,-21l99 -133 0 2c16,-18 33,-15 51,-1 77,62 120,118 213,118l0 81c-40,0 -78,-13 -114,-33 -52,172 -189,125 -226,22l-17 22z"/>
 </g>
</svg>
