<?xml version="1.0" encoding="UTF-8"?>
<!DOCTYPE svg PUBLIC "-//W3C//DTD SVG 1.0//EN" "http://www.w3.org/TR/2001/REC-SVG-20010904/DTD/svg10.dtd">
<!-- Creator: CorelDRAW -->
<svg xmlns="http://www.w3.org/2000/svg" xml:space="preserve" width="1300px" height="1300px" version="1.0" style="shape-rendering:geometricPrecision; text-rendering:geometricPrecision; image-rendering:optimizeQuality; fill-rule:evenodd; clip-rule:evenodd"
viewBox="0 0 1300 1056"
 xmlns:xlink="http://www.w3.org/1999/xlink">
 <defs>
  <style type="text/css">
   <![CDATA[
    .fil0 {fill:#CC9933}
   ]]>
  </style>
 </defs>
 <g id="_100:master">
  <metadata id="CorelCorpID_0Corel-Layer"/>
  <path class="fil0" d="M738 639l0 -2c5,-127 80,-138 240,-191 19,60 45,123 180,123l0 81c-43,0 -80,-6 -110,-18 -38,197 -241,126 -236,-47 -12,7 -23,15 -33,22l12 301c0,26 -14,40 -39,59 -3,-28 -11,-175 -14,-328zm279 -23c-32,-21 -52,-52 -60,-93 -31,10 -63,22 -94,36 20,93 96,175 154,57z"/>
 </g>
</svg>
