<?xml version="1.0" encoding="UTF-8"?>
<!DOCTYPE svg PUBLIC "-//W3C//DTD SVG 1.0//EN" "http://www.w3.org/TR/2001/REC-SVG-20010904/DTD/svg10.dtd">
<!-- Creator: CorelDRAW -->
<svg xmlns="http://www.w3.org/2000/svg" xml:space="preserve" width="1300px" height="1300px" version="1.0" style="shape-rendering:geometricPrecision; text-rendering:geometricPrecision; image-rendering:optimizeQuality; fill-rule:evenodd; clip-rule:evenodd"
viewBox="0 0 1300 1056"
 xmlns:xlink="http://www.w3.org/1999/xlink">
 <defs>
  <style type="text/css">
   <![CDATA[
    .fil0 {fill:#FF6633}
   ]]>
  </style>
 </defs>
 <g id="_100:master">
  <metadata id="CorelCorpID_0Corel-Layer"/>
  <path class="fil0" d="M937 551c-122,22 -195,38 -236,66 3,118 7,169 7,269 0,34 -34,75 -47,99l-10 -4 -1 -290c0,0 0,0 0,0 -8,-104 36,-155 107,-183l-16 -9c42,-129 53,-171 92,-169 62,3 130,76 150,139l0 0 0 0 -46 82zm-162 -49c37,-12 79,-19 126,-25 -27,-37 -61,-66 -87,-66 -18,0 -22,37 -39,91z"/>
 </g>
</svg>
