<?xml version="1.0" encoding="UTF-8"?>
<!DOCTYPE svg PUBLIC "-//W3C//DTD SVG 1.0//EN" "http://www.w3.org/TR/2001/REC-SVG-20010904/DTD/svg10.dtd">
<!-- Creator: CorelDRAW -->
<svg xmlns="http://www.w3.org/2000/svg" xml:space="preserve" width="1300px" height="1300px" version="1.0" style="shape-rendering:geometricPrecision; text-rendering:geometricPrecision; image-rendering:optimizeQuality; fill-rule:evenodd; clip-rule:evenodd"
viewBox="0 0 1300 1056"
 xmlns:xlink="http://www.w3.org/1999/xlink">
 <defs>
  <style type="text/css">
   <![CDATA[
    .fil0 {fill:#CC9933}
   ]]>
  </style>
 </defs>
 <g id="_100:master">
  <metadata id="CorelCorpID_0Corel-Layer"/>
  <path class="fil0" d="M738 639l0 -1c3,-90 32,-107 240,-192 19,60 45,123 180,123l0 81c-43,0 -80,-6 -110,-18 -38,151 -215,112 -195,-56 -33,17 -57,30 -74,44l12 288c0,26 -14,40 -39,59 -3,-25 -9,-142 -13,-274l-1 5c0,-20 0,-38 0,-54l0 -5zm280 -22c-31,-20 -52,-50 -60,-89 -23,11 -45,20 -63,29 10,91 86,127 123,60z"/>
 </g>
</svg>
