<?xml version="1.0" encoding="UTF-8"?>
<!DOCTYPE svg PUBLIC "-//W3C//DTD SVG 1.0//EN" "http://www.w3.org/TR/2001/REC-SVG-20010904/DTD/svg10.dtd">
<!-- Creator: CorelDRAW -->
<svg xmlns="http://www.w3.org/2000/svg" xml:space="preserve" width="1300px" height="1300px" version="1.0" style="shape-rendering:geometricPrecision; text-rendering:geometricPrecision; image-rendering:optimizeQuality; fill-rule:evenodd; clip-rule:evenodd"
viewBox="0 0 1300 1056"
 xmlns:xlink="http://www.w3.org/1999/xlink">
 <defs>
  <style type="text/css">
   <![CDATA[
    .fil0 {fill:#FF6633}
   ]]>
  </style>
 </defs>
 <g id="_100:master">
  <metadata id="CorelCorpID_0Corel-Layer"/>
  <path class="fil0" d="M907 503l-139 25c-24,5 -48,7 -66,15 3,107 6,158 6,254 0,34 -34,74 -47,99l-10 -5 -1 -291c0,0 0,0 0,0 -1,-13 -1,-25 0,-36l0 -3 0 -1c7,-69 44,-94 95,-106l-30 -16c53,-124 75,-159 115,-157 61,3 100,76 121,139l-1 1 4 -1 -47 83zm-162 -49c12,-3 25,-5 38,-7l89 -14c-30,-49 -69,-87 -82,-63l-45 84z"/>
 </g>
</svg>
