<?xml version="1.0" encoding="UTF-8"?>
<!DOCTYPE svg PUBLIC "-//W3C//DTD SVG 1.0//EN" "http://www.w3.org/TR/2001/REC-SVG-20010904/DTD/svg10.dtd">
<!-- Creator: CorelDRAW -->
<svg xmlns="http://www.w3.org/2000/svg" xml:space="preserve" width="1300px" height="1300px" version="1.0" style="shape-rendering:geometricPrecision; text-rendering:geometricPrecision; image-rendering:optimizeQuality; fill-rule:evenodd; clip-rule:evenodd"
viewBox="0 0 1300 1056"
 xmlns:xlink="http://www.w3.org/1999/xlink">
 <defs>
  <style type="text/css">
   <![CDATA[
    .fil0 {fill:#333300}
   ]]>
  </style>
 </defs>
 <g id="_100:master">
  <metadata id="CorelCorpID_0Corel-Layer"/>
  <path class="fil0" d="M733 555c92,78 118,84 156,28 -48,-39 -81,-79 -100,-76 -17,4 -38,24 -56,47l0 1zm192 54c-59,113 -129,106 -229,10l0 0 -6 -5c-27,23 -61,36 -98,36l0 0 -1 0 0 0c-20,-1 -39,-20 -39,-41 0,-20 19,-39 39,-40l0 0c16,-1 39,-4 61,-10 62,-24 114,-128 154,-128 45,0 103,138 249,138l0 81c-51,0 -94,-18 -130,-41z"/>
 </g>
</svg>
