<?xml version="1.0" encoding="UTF-8"?>
<!DOCTYPE svg PUBLIC "-//W3C//DTD SVG 1.0//EN" "http://www.w3.org/TR/2001/REC-SVG-20010904/DTD/svg10.dtd">
<!-- Creator: CorelDRAW -->
<svg xmlns="http://www.w3.org/2000/svg" xml:space="preserve" width="1300px" height="1300px" version="1.0" style="shape-rendering:geometricPrecision; text-rendering:geometricPrecision; image-rendering:optimizeQuality; fill-rule:evenodd; clip-rule:evenodd"
viewBox="0 0 1300 1056"
 xmlns:xlink="http://www.w3.org/1999/xlink">
 <defs>
  <style type="text/css">
   <![CDATA[
    .fil0 {fill:#FF6633}
   ]]>
  </style>
 </defs>
 <g id="_100:master">
  <metadata id="CorelCorpID_0Corel-Layer"/>
  <path class="fil0" d="M969 592c-136,0 -221,12 -267,45 3,104 6,155 6,249 0,34 -34,75 -47,99l-10 -4 -1 -273c0,0 0,0 0,0 -12,-169 69,-197 280,-199 -29,-44 -65,-82 -91,-82 -20,0 -41,23 -61,84l-31 -16c42,-129 87,-151 127,-149 61,3 121,101 142,163l-1 1 1 0 -47 82z"/>
 </g>
</svg>
