<?xml version="1.0" encoding="UTF-8"?>
<!DOCTYPE svg PUBLIC "-//W3C//DTD SVG 1.0//EN" "http://www.w3.org/TR/2001/REC-SVG-20010904/DTD/svg10.dtd">
<!-- Creator: CorelDRAW -->
<svg xmlns="http://www.w3.org/2000/svg" xml:space="preserve" width="1300px" height="1300px" version="1.0" style="shape-rendering:geometricPrecision; text-rendering:geometricPrecision; image-rendering:optimizeQuality; fill-rule:evenodd; clip-rule:evenodd"
viewBox="0 0 1300 1056"
 xmlns:xlink="http://www.w3.org/1999/xlink">
 <defs>
  <style type="text/css">
   <![CDATA[
    .fil0 {fill:#333300}
    .fil4 {fill:#333300;fill-opacity:0.501961}
    .fil1 {fill:#FF6699;fill-opacity:0.501961}
    .fil2 {fill:#CC6633}
    .fil3 {fill:#CC9933}
   ]]>
  </style>
 </defs>
 <g id="_100:master" visibility="hidden">
  <metadata id="CorelCorpID_0Corel-Layer"/>
  <path class="fil0" d="M720 551c69,65 76,86 150,8l28 34c-100,149 -142,108 -219,11l41 -53z"/>
  <path class="fil1" d="M631 562c55,-5 105,-70 133,-106 17,-22 34,-20 53,-5 78,62 112,118 206,118l0 81c-87,0 -155,-62 -222,-119 -17,-14 -30,-15 -41,-4l-81 77 -48 -42z"/>
  <path class="fil2" d="M560 650l0 -81c-21,0 -40,19 -41,40 0,21 20,41 41,41z"/>
  <path class="fil3" d="M725 560l-23 -34c-35,36 -94,43 -133,43l-9 0 0 81 9 0c62,0 108,-25 156,-90z"/>
 </g>
 <g id="Layer_x0020_1">
  <metadata id="CorelCorpID_1Corel-Layer"/>
  <path class="fil4" d="M735 562c33,36 71,107 143,40 -52,-43 -74,-94 -119,-59l-24 19zm175 62c-80,145 -151,82 -222,-6 -21,22 -41,32 -79,32l-9 0 0 0c-20,-1 -40,-20 -40,-41 0,-21 20,-40 40,-40l0 0 9 0c39,0 55,-2 68,-11l25 -24c2,-3 5,-5 8,-8l0 0 47 -45c102,-100 117,88 257,88l0 81c-44,0 -77,-11 -104,-26z"/>
 </g>
</svg>
