<?xml version="1.0" encoding="UTF-8"?>
<!DOCTYPE svg PUBLIC "-//W3C//DTD SVG 1.0//EN" "http://www.w3.org/TR/2001/REC-SVG-20010904/DTD/svg10.dtd">
<!-- Creator: CorelDRAW -->
<svg xmlns="http://www.w3.org/2000/svg" xml:space="preserve" width="1300px" height="1300px" version="1.0" style="shape-rendering:geometricPrecision; text-rendering:geometricPrecision; image-rendering:optimizeQuality; fill-rule:evenodd; clip-rule:evenodd"
viewBox="0 0 1300 1056"
 xmlns:xlink="http://www.w3.org/1999/xlink">
 <defs>
  <style type="text/css">
   <![CDATA[
    .fil0 {fill:#FF6633}
   ]]>
  </style>
 </defs>
 <g id="_100:master">
  <metadata id="CorelCorpID_0Corel-Layer"/>
  <path class="fil0" d="M969 486c-136,0 -221,12 -267,46 2,114 6,166 6,265 0,34 -34,74 -47,99l-10 -5 -1 -289c0,0 0,0 0,0 -12,-169 69,-196 280,-198 -29,-45 -65,-82 -91,-82 -20,-1 -41,23 -61,83l-31 -16c42,-129 87,-151 127,-149 61,4 121,101 142,164l-1 0 1 0 -47 82z"/>
 </g>
</svg>
