<?xml version="1.0" encoding="UTF-8"?>
<!DOCTYPE svg PUBLIC "-//W3C//DTD SVG 1.0//EN" "http://www.w3.org/TR/2001/REC-SVG-20010904/DTD/svg10.dtd">
<!-- Creator: CorelDRAW -->
<svg xmlns="http://www.w3.org/2000/svg" xml:space="preserve" width="1300px" height="1300px" version="1.0" style="shape-rendering:geometricPrecision; text-rendering:geometricPrecision; image-rendering:optimizeQuality; fill-rule:evenodd; clip-rule:evenodd"
viewBox="0 0 1300 1056"
 xmlns:xlink="http://www.w3.org/1999/xlink">
 <defs>
  <style type="text/css">
   <![CDATA[
    .fil0 {fill:#CC9933}
   ]]>
  </style>
 </defs>
 <g id="_100:master">
  <metadata id="CorelCorpID_0Corel-Layer"/>
  <path class="fil0" d="M738 639l0 -1c3,-90 32,-107 240,-192 19,60 45,123 180,123l0 81c-33,0 -73,-9 -109,-27l0 0c-32,162 -216,124 -196,-47 -33,17 -57,30 -74,44l12 288c0,26 -14,40 -39,59 -3,-25 -9,-142 -13,-274l-1 5c0,-20 0,-38 0,-54l0 -5zm285 -32c-29,-19 -52,-46 -63,-80 -24,11 -46,21 -65,30 11,95 93,130 128,50z"/>
 </g>
</svg>
