<?xml version="1.0" encoding="UTF-8"?>
<!DOCTYPE svg PUBLIC "-//W3C//DTD SVG 1.0//EN" "http://www.w3.org/TR/2001/REC-SVG-20010904/DTD/svg10.dtd">
<!-- Creator: CorelDRAW -->
<svg xmlns="http://www.w3.org/2000/svg" xml:space="preserve" width="1300px" height="1300px" version="1.0" style="shape-rendering:geometricPrecision; text-rendering:geometricPrecision; image-rendering:optimizeQuality; fill-rule:evenodd; clip-rule:evenodd"
viewBox="0 0 1300 1056"
 xmlns:xlink="http://www.w3.org/1999/xlink">
 <defs>
  <style type="text/css">
   <![CDATA[
    .fil0 {fill:red;fill-opacity:0.501961}
   ]]>
  </style>
 </defs>
 <g id="_100:master">
  <metadata id="CorelCorpID_0Corel-Layer"/>
  <path class="fil0" d="M970 524c0,81 -27,126 -77,126 -41,0 -130,-75 -143,-48 -12,24 -55,48 -133,48 -20,0 -40,-20 -40,-41 0,-21 20,-40 40,-40 84,0 110,-26 130,-45l56 -78c76,-107 164,-21 166,78l1 0zm-189 5c32,16 82,47 113,54 12,2 25,-4 35,-16 -16,-66 -89,-114 -108,-89l-40 51z"/>
 </g>
</svg>
