<?xml version="1.0" encoding="UTF-8"?>
<!DOCTYPE svg PUBLIC "-//W3C//DTD SVG 1.0//EN" "http://www.w3.org/TR/2001/REC-SVG-20010904/DTD/svg10.dtd">
<!-- Creator: CorelDRAW -->
<svg xmlns="http://www.w3.org/2000/svg" xml:space="preserve" width="1300px" height="1300px" version="1.0" style="shape-rendering:geometricPrecision; text-rendering:geometricPrecision; image-rendering:optimizeQuality; fill-rule:evenodd; clip-rule:evenodd"
viewBox="0 0 1300 1056"
 xmlns:xlink="http://www.w3.org/1999/xlink">
 <defs>
  <style type="text/css">
   <![CDATA[
    .fil0 {fill:#CC9933}
   ]]>
  </style>
 </defs>
 <g id="_100:master">
  <metadata id="CorelCorpID_0Corel-Layer"/>
  <path class="fil0" d="M738 671l0 -1c2,-135 76,-146 238,-200l0 0 0 0 2 0 6 22c20,48 56,77 174,77l0 81c-44,0 -81,-3 -111,-12 -39,179 -217,126 -234,-24 -13,6 -24,13 -34,20l12 274c0,26 -14,40 -39,59 -3,-28 -11,-142 -14,-296zm275 -47c-27,-15 -45,-39 -53,-73 -31,13 -61,25 -89,37 27,77 90,131 142,36z"/>
 </g>
</svg>
