<?xml version="1.0" encoding="UTF-8"?>
<!DOCTYPE svg PUBLIC "-//W3C//DTD SVG 1.0//EN" "http://www.w3.org/TR/2001/REC-SVG-20010904/DTD/svg10.dtd">
<!-- Creator: CorelDRAW -->
<svg xmlns="http://www.w3.org/2000/svg" xml:space="preserve" width="1300px" height="1300px" version="1.0" style="shape-rendering:geometricPrecision; text-rendering:geometricPrecision; image-rendering:optimizeQuality; fill-rule:evenodd; clip-rule:evenodd"
viewBox="0 0 1300 1056"
 xmlns:xlink="http://www.w3.org/1999/xlink">
 <defs>
  <style type="text/css">
   <![CDATA[
    .fil0 {fill:red;fill-opacity:0.501961}
   ]]>
  </style>
 </defs>
 <g id="_100:master">
  <metadata id="CorelCorpID_0Corel-Layer"/>
  <path class="fil0" d="M946 524c0,11 -1,22 -2,32 -1,15 -4,30 -10,45l0 0c-13,32 -35,49 -65,49 -41,0 -106,-75 -119,-48 -12,24 -55,48 -133,48 -20,0 -40,-20 -40,-41 0,-21 20,-40 40,-40 84,0 110,-26 130,-45l64 -89c32,-45 116,10 131,90l4 -1zm-167 8c25,16 61,44 91,51 14,3 29,-6 38,-22 -19,-67 -78,-94 -96,-72l-33 43z"/>
 </g>
</svg>
