<?xml version="1.0" encoding="UTF-8"?>
<!DOCTYPE svg PUBLIC "-//W3C//DTD SVG 1.0//EN" "http://www.w3.org/TR/2001/REC-SVG-20010904/DTD/svg10.dtd">
<!-- Creator: CorelDRAW -->
<svg xmlns="http://www.w3.org/2000/svg" xml:space="preserve" width="1300px" height="1300px" version="1.0" style="shape-rendering:geometricPrecision; text-rendering:geometricPrecision; image-rendering:optimizeQuality; fill-rule:evenodd; clip-rule:evenodd"
viewBox="0 0 1300 1056"
 xmlns:xlink="http://www.w3.org/1999/xlink">
 <defs>
  <style type="text/css">
   <![CDATA[
    .fil0 {fill:#CC9933}
   ]]>
  </style>
 </defs>
 <g id="_100:master">
  <metadata id="CorelCorpID_0Corel-Layer"/>
  <path class="fil0" d="M760 639l1 -1c-3,-90 9,-107 217,-192l1 5c23,70 112,118 161,118l1 81c-28,0 -58,-5 -88,-20 -50,178 -202,87 -230,-33 -8,5 -15,11 -21,16l12 295c0,26 -14,40 -39,59 -3,-28 -11,-175 -15,-328zm271 -22c-26,-19 -52,-47 -75,-88 -32,15 -58,27 -80,38 37,82 120,118 155,50z"/>
 </g>
</svg>
