<?xml version="1.0" encoding="UTF-8"?>
<!DOCTYPE svg PUBLIC "-//W3C//DTD SVG 1.0//EN" "http://www.w3.org/TR/2001/REC-SVG-20010904/DTD/svg10.dtd">
<!-- Creator: CorelDRAW -->
<svg xmlns="http://www.w3.org/2000/svg" xml:space="preserve" width="1300px" height="1300px" version="1.0" style="shape-rendering:geometricPrecision; text-rendering:geometricPrecision; image-rendering:optimizeQuality; fill-rule:evenodd; clip-rule:evenodd"
viewBox="0 0 1300 1056"
 xmlns:xlink="http://www.w3.org/1999/xlink">
 <defs>
  <style type="text/css">
   <![CDATA[
    .fil0 {fill:#CC9933}
   ]]>
  </style>
 </defs>
 <g id="_100:master">
  <metadata id="CorelCorpID_0Corel-Layer"/>
  <path class="fil0" d="M1038 602c-43,77 -119,58 -150,-20l47 -62c6,1 13,5 20,11 26,22 54,48 83,71zm-210 59l11 247c0,26 -15,40 -40,59 -3,-27 -10,-155 -13,-297 -3,-39 -6,-32 14,-57l6 -9 -1 0c5,-7 11,-14 17,-21l99 -133 0 2c16,-18 33,-15 51,-1 77,62 120,134 213,134l0 81c-41,0 -80,-17 -116,-42 -54,163 -188,116 -224,15l-17 22z"/>
 </g>
</svg>
