<?xml version="1.0" encoding="UTF-8"?>
<!DOCTYPE svg PUBLIC "-//W3C//DTD SVG 1.0//EN" "http://www.w3.org/TR/2001/REC-SVG-20010904/DTD/svg10.dtd">
<!-- Creator: CorelDRAW -->
<svg xmlns="http://www.w3.org/2000/svg" xml:space="preserve" width="1300px" height="1300px" version="1.0" style="shape-rendering:geometricPrecision; text-rendering:geometricPrecision; image-rendering:optimizeQuality; fill-rule:evenodd; clip-rule:evenodd"
viewBox="0 0 1300 1056"
 xmlns:xlink="http://www.w3.org/1999/xlink">
 <defs>
  <style type="text/css">
   <![CDATA[
    .fil0 {fill:#333300}
   ]]>
  </style>
 </defs>
 <g id="_100:master">
  <metadata id="CorelCorpID_0Corel-Layer"/>
  <path class="fil0" d="M723 551c70,71 119,79 148,29 -28,-21 -54,-44 -79,-65 -16,-14 -31,-16 -40,-5l-25 32c-1,3 -2,6 -4,9zm173 47c-40,117 -119,109 -212,10 -30,29 -67,42 -115,42l-9 0 0 0c-21,0 -41,-20 -41,-41 1,-21 20,-40 41,-40l0 0 9 0c18,0 41,-1 63,-6l-1 -1c7,0 14,-3 20,-5 46,-20 81,-86 105,-118 17,-21 34,-19 53,-4 78,62 128,134 222,134l0 81c-47,0 -93,-22 -135,-52z"/>
 </g>
</svg>
