<?xml version="1.0" encoding="UTF-8"?>
<!DOCTYPE svg PUBLIC "-//W3C//DTD SVG 1.0//EN" "http://www.w3.org/TR/2001/REC-SVG-20010904/DTD/svg10.dtd">
<!-- Creator: CorelDRAW -->
<svg xmlns="http://www.w3.org/2000/svg" xml:space="preserve" width="1300px" height="1300px" version="1.0" style="shape-rendering:geometricPrecision; text-rendering:geometricPrecision; image-rendering:optimizeQuality; fill-rule:evenodd; clip-rule:evenodd"
viewBox="0 0 1300 1056"
 xmlns:xlink="http://www.w3.org/1999/xlink">
 <defs>
  <style type="text/css">
   <![CDATA[
    .fil0 {fill:#333300}
   ]]>
  </style>
 </defs>
 <g id="_100:master">
  <metadata id="CorelCorpID_0Corel-Layer"/>
  <path class="fil0" d="M728 558c56,54 69,73 126,18 -18,-15 -36,-30 -53,-45 -17,-14 -30,-15 -41,-4l-32 31zm163 45c-93,135 -136,96 -209,5 -34,29 -69,42 -113,42l-9 0 0 0c-21,0 -41,-20 -41,-41 1,-21 20,-40 41,-40l0 0 9 0c30,0 73,-4 108,-24 36,-23 67,-64 87,-89 17,-22 34,-20 53,-5 78,62 112,118 206,118l0 81c-49,0 -92,-20 -132,-47z"/>
 </g>
</svg>
