<?xml version="1.0" encoding="UTF-8"?>
<!DOCTYPE svg PUBLIC "-//W3C//DTD SVG 1.0//EN" "http://www.w3.org/TR/2001/REC-SVG-20010904/DTD/svg10.dtd">
<!-- Creator: CorelDRAW -->
<svg xmlns="http://www.w3.org/2000/svg" xml:space="preserve" width="1300px" height="1300px" version="1.0" style="shape-rendering:geometricPrecision; text-rendering:geometricPrecision; image-rendering:optimizeQuality; fill-rule:evenodd; clip-rule:evenodd"
viewBox="0 0 1300 1056"
 xmlns:xlink="http://www.w3.org/1999/xlink">
 <defs>
  <style type="text/css">
   <![CDATA[
    .fil2 {fill:#999933;fill-opacity:0.501961}
    .fil1 {fill:red;fill-opacity:0.501961}
    .fil0 {fill:#996633}
   ]]>
  </style>
 </defs>
 <g id="_100:master" visibility="hidden">
  <metadata id="CorelCorpID_0Corel-Layer"/>
  <path class="fil0" d="M939 495l39 -49c19,72 111,123 162,123l1 81c-64,0 -144,-26 -202,-155z"/>
  <path class="fil1" d="M1061 595l-22 0c-33,117 -167,40 -180,-92l-38 35c-22,150 195,315 240,57z"/>
  <path class="fil0" d="M978 446l19 65c-205,92 -223,106 -234,187 -3,-146 -32,-150 215,-252z"/>
  <path class="fil1" d="M761 603l51 -2c3,123 7,183 7,285 0,34 -34,75 -48,99l-10 -4 0 -378z"/>
 </g>
 <g id="Layer_x0020_2">
  <metadata id="CorelCorpID_1Corel-Layer"/>
  <path class="fil2" d="M821 531l-24 30c29,28 89,116 135,37 -54,-47 -83,-103 -111,-67zm-73 91l-5 6c3,105 7,164 7,258 0,34 -34,75 -48,99l-10 -4 0 -288c-6,-51 1,-72 22,-104 63,-96 114,-161 156,-151 60,15 101,131 187,131l20 0 0 81 -20 0c-37,0 -67,-11 -92,-27 -71,174 -167,43 -217,-1z"/>
 </g>
</svg>
