<?xml version="1.0" encoding="UTF-8"?>
<!DOCTYPE svg PUBLIC "-//W3C//DTD SVG 1.0//EN" "http://www.w3.org/TR/2001/REC-SVG-20010904/DTD/svg10.dtd">
<!-- Creator: CorelDRAW -->
<svg xmlns="http://www.w3.org/2000/svg" xml:space="preserve" width="1300px" height="1300px" version="1.0" style="shape-rendering:geometricPrecision; text-rendering:geometricPrecision; image-rendering:optimizeQuality; fill-rule:evenodd; clip-rule:evenodd"
viewBox="0 0 1300 1056"
 xmlns:xlink="http://www.w3.org/1999/xlink">
 <defs>
  <style type="text/css">
   <![CDATA[
    .fil0 {fill:#333300}
   ]]>
  </style>
 </defs>
 <g id="_100:master">
  <metadata id="CorelCorpID_0Corel-Layer"/>
  <path class="fil0" d="M727 550c87,73 108,80 143,29 -49,-43 -80,-88 -97,-80 -6,6 -25,28 -46,51zm178 57c-59,110 -124,98 -226,-3l-1 -2c-31,31 -74,48 -118,48l0 0 -2 0 0 0c-20,-1 -39,-20 -39,-41 1,-20 19,-39 39,-40l0 0c36,-1 97,0 135,-39 6,-6 11,-12 16,-19 31,-40 54,-88 81,-88 44,0 95,146 241,146l0 81c-49,0 -91,-19 -126,-43z"/>
 </g>
</svg>
