<?xml version="1.0" encoding="UTF-8"?>
<!DOCTYPE svg PUBLIC "-//W3C//DTD SVG 1.0//EN" "http://www.w3.org/TR/2001/REC-SVG-20010904/DTD/svg10.dtd">
<!-- Creator: CorelDRAW -->
<svg xmlns="http://www.w3.org/2000/svg" xml:space="preserve" width="1300px" height="1300px" version="1.0" style="shape-rendering:geometricPrecision; text-rendering:geometricPrecision; image-rendering:optimizeQuality; fill-rule:evenodd; clip-rule:evenodd"
viewBox="0 0 1300 1056"
 xmlns:xlink="http://www.w3.org/1999/xlink">
 <defs>
  <style type="text/css">
   <![CDATA[
    .fil0 {fill:#333300}
   ]]>
  </style>
 </defs>
 <g id="_100:master">
  <metadata id="CorelCorpID_0Corel-Layer"/>
  <path class="fil0" d="M722 549c69,74 78,80 136,21 -51,-43 -87,-83 -106,-60l-30 39zm171 49c-69,118 -119,109 -214,6l-1 -2c-31,31 -74,48 -118,48l0 0 -2 0 0 0c-20,-1 -39,-20 -39,-41 1,-20 19,-39 39,-40l0 0c35,-1 92,0 131,-35 28,-28 49,-71 67,-95 56,-72 115,130 275,130l0 81c-53,0 -99,-24 -138,-52z"/>
 </g>
</svg>
