<?xml version="1.0" encoding="UTF-8"?>
<!DOCTYPE svg PUBLIC "-//W3C//DTD SVG 1.0//EN" "http://www.w3.org/TR/2001/REC-SVG-20010904/DTD/svg10.dtd">
<!-- Creator: CorelDRAW -->
<svg xmlns="http://www.w3.org/2000/svg" xml:space="preserve" width="1300px" height="1300px" version="1.0" style="shape-rendering:geometricPrecision; text-rendering:geometricPrecision; image-rendering:optimizeQuality; fill-rule:evenodd; clip-rule:evenodd"
viewBox="0 0 1300 1056"
 xmlns:xlink="http://www.w3.org/1999/xlink">
 <defs>
  <style type="text/css">
   <![CDATA[
    .fil0 {fill:#CC9933}
   ]]>
  </style>
 </defs>
 <g id="_100:master">
  <metadata id="CorelCorpID_0Corel-Layer"/>
  <path class="fil0" d="M793 625l6 293c0,27 -21,57 -47,49 -3,-28 -11,-138 -14,-288 -15,-139 70,-151 225,-202l13 -56c59,95 106,148 235,148l0 81c-72,0 -125,-11 -164,-32 0,28 -6,50 -16,68l0 0 0 0c-6,11 -13,20 -20,27 -19,23 -45,45 -68,42l-1 0 0 0 0 0c-56,-9 -101,-64 -89,-164 -22,10 -42,21 -60,34zm196 46c-59,11 -90,-35 -86,-99 22,-8 44,-13 64,-16 19,52 24,88 22,115z"/>
 </g>
</svg>
