<?xml version="1.0" encoding="UTF-8"?>
<!DOCTYPE svg PUBLIC "-//W3C//DTD SVG 1.0//EN" "http://www.w3.org/TR/2001/REC-SVG-20010904/DTD/svg10.dtd">
<!-- Creator: CorelDRAW -->
<svg xmlns="http://www.w3.org/2000/svg" xml:space="preserve" width="1300px" height="1300px" version="1.0" style="shape-rendering:geometricPrecision; text-rendering:geometricPrecision; image-rendering:optimizeQuality; fill-rule:evenodd; clip-rule:evenodd"
viewBox="0 0 1300 1056"
 xmlns:xlink="http://www.w3.org/1999/xlink">
 <defs>
  <style type="text/css">
   <![CDATA[
    .fil0 {fill:red;fill-opacity:0.501961}
   ]]>
  </style>
 </defs>
 <g id="_100:master">
  <metadata id="CorelCorpID_0Corel-Layer"/>
  <path class="fil0" d="M972 561c-26,121 -131,102 -235,39 -24,19 -34,50 -120,50 -20,0 -40,-20 -40,-41 0,-21 20,-40 40,-40 90,0 99,-38 124,-52 3,-1 8,0 16,3l43 -76c76,-131 224,-26 172,117zm-196 -33c36,16 89,42 121,41 15,0 30,-5 44,-15 -22,-73 -95,-118 -133,-67l-32 41z"/>
 </g>
</svg>
