<?xml version="1.0" encoding="UTF-8"?>
<!DOCTYPE svg PUBLIC "-//W3C//DTD SVG 1.0//EN" "http://www.w3.org/TR/2001/REC-SVG-20010904/DTD/svg10.dtd">
<!-- Creator: CorelDRAW -->
<svg xmlns="http://www.w3.org/2000/svg" xml:space="preserve" width="1300px" height="1300px" version="1.0" style="shape-rendering:geometricPrecision; text-rendering:geometricPrecision; image-rendering:optimizeQuality; fill-rule:evenodd; clip-rule:evenodd"
viewBox="0 0 1300 1056"
 xmlns:xlink="http://www.w3.org/1999/xlink">
 <defs>
  <style type="text/css">
   <![CDATA[
    .fil0 {fill:#CC9933}
   ]]>
  </style>
 </defs>
 <g id="_100:master">
  <metadata id="CorelCorpID_0Corel-Layer"/>
  <path class="fil0" d="M924 519l-39 58c48,56 125,75 169,30 -35,-22 -68,-50 -99,-76 -12,-10 -23,-14 -31,-12zm-131 128l1 -1c0,-13 3,-26 12,-41l-1 -1c10,-12 20,-25 30,-37l72 -96c4,-6 8,-11 11,-15 17,-22 35,-20 54,-5 77,62 120,118 213,118l0 81c-39,0 -76,-13 -111,-32l6 8c-42,126 -182,90 -234,9l-8 12 25 269c0,26 -15,40 -39,59l-28 -299c-1,-8 -2,-15 -2,-23l-1 -6z"/>
 </g>
</svg>
