<?xml version="1.0" encoding="UTF-8"?>
<!DOCTYPE svg PUBLIC "-//W3C//DTD SVG 1.0//EN" "http://www.w3.org/TR/2001/REC-SVG-20010904/DTD/svg10.dtd">
<!-- Creator: CorelDRAW -->
<svg xmlns="http://www.w3.org/2000/svg" xml:space="preserve" width="1300px" height="1300px" version="1.0" style="shape-rendering:geometricPrecision; text-rendering:geometricPrecision; image-rendering:optimizeQuality; fill-rule:evenodd; clip-rule:evenodd"
viewBox="0 0 1300 1056"
 xmlns:xlink="http://www.w3.org/1999/xlink">
 <defs>
  <style type="text/css">
   <![CDATA[
    .fil0 {fill:red;fill-opacity:0.501961}
   ]]>
  </style>
 </defs>
 <g id="_100:master">
  <metadata id="CorelCorpID_0Corel-Layer"/>
  <path class="fil0" d="M970 524c0,81 -3,126 -52,126 -42,0 -155,-75 -168,-48 -12,24 -55,48 -133,48 -20,0 -40,-20 -40,-41 0,-21 20,-40 40,-40 84,0 110,-26 130,-45l56 -78c56,-79 156,-20 165,78l2 0zm-188 3c39,16 104,49 136,56 8,1 13,-1 16,-5 -20,-79 -95,-123 -113,-100l-39 49z"/>
 </g>
</svg>
