<?xml version="1.0" encoding="UTF-8"?>
<!DOCTYPE svg PUBLIC "-//W3C//DTD SVG 1.0//EN" "http://www.w3.org/TR/2001/REC-SVG-20010904/DTD/svg10.dtd">
<!-- Creator: CorelDRAW -->
<svg xmlns="http://www.w3.org/2000/svg" xml:space="preserve" width="1300px" height="1300px" version="1.0" style="shape-rendering:geometricPrecision; text-rendering:geometricPrecision; image-rendering:optimizeQuality; fill-rule:evenodd; clip-rule:evenodd"
viewBox="0 0 1300 1056"
 xmlns:xlink="http://www.w3.org/1999/xlink">
 <defs>
  <style type="text/css">
   <![CDATA[
    .fil0 {fill:#333300}
   ]]>
  </style>
 </defs>
 <g id="_100:master">
  <metadata id="CorelCorpID_0Corel-Layer"/>
  <path class="fil0" d="M734 551c48,57 99,74 149,45 -55,-46 -69,-104 -88,-105 -21,-1 -43,18 -54,36 -2,9 -4,17 -7,24zm197 75c-85,104 -161,72 -240,-13 -27,23 -62,37 -99,37l0 0 -1 0 0 0c-20,-1 -39,-20 -39,-41 0,-20 19,-39 39,-40l0 0c28,-1 75,-10 107,-30 23,-83 86,-124 118,-129 40,-5 43,157 239,159l0 81c-52,0 -92,-10 -124,-24z"/>
 </g>
</svg>
