<?xml version="1.0" encoding="UTF-8"?>
<!DOCTYPE svg PUBLIC "-//W3C//DTD SVG 1.0//EN" "http://www.w3.org/TR/2001/REC-SVG-20010904/DTD/svg10.dtd">
<!-- Creator: CorelDRAW -->
<svg xmlns="http://www.w3.org/2000/svg" xml:space="preserve" width="1300px" height="1300px" version="1.0" style="shape-rendering:geometricPrecision; text-rendering:geometricPrecision; image-rendering:optimizeQuality; fill-rule:evenodd; clip-rule:evenodd"
viewBox="0 0 1300 1056"
 xmlns:xlink="http://www.w3.org/1999/xlink">
 <defs>
  <style type="text/css">
   <![CDATA[
    .fil0 {fill:#FF6633}
   ]]>
  </style>
 </defs>
 <g id="_100:master">
  <metadata id="CorelCorpID_0Corel-Layer"/>
  <path class="fil0" d="M907 503l-109 -1c-32,0 -69,10 -96,32 3,113 6,165 6,263 0,34 -34,74 -47,99l-10 -5 -1 -291c0,0 0,0 0,0 -1,-9 -1,-18 0,-27l0 -12 1 -1c9,-63 46,-104 91,-124l-27 -14c53,-125 75,-159 115,-157 61,3 100,92 121,155l-1 0 4 0 -47 83zm-160 -70c22,-8 44,-13 65,-13l55 0c-29,-49 -64,-89 -77,-66l-43 79z"/>
 </g>
</svg>
