<?xml version="1.0" encoding="UTF-8"?>
<!DOCTYPE svg PUBLIC "-//W3C//DTD SVG 1.0//EN" "http://www.w3.org/TR/2001/REC-SVG-20010904/DTD/svg10.dtd">
<!-- Creator: CorelDRAW -->
<svg xmlns="http://www.w3.org/2000/svg" xml:space="preserve" width="1300px" height="1300px" version="1.0" style="shape-rendering:geometricPrecision; text-rendering:geometricPrecision; image-rendering:optimizeQuality; fill-rule:evenodd; clip-rule:evenodd"
viewBox="0 0 1300 1056"
 xmlns:xlink="http://www.w3.org/1999/xlink">
 <defs>
  <style type="text/css">
   <![CDATA[
    .fil0 {fill:#FF6633}
   ]]>
  </style>
 </defs>
 <g id="_100:master">
  <metadata id="CorelCorpID_0Corel-Layer"/>
  <path class="fil0" d="M929 502c-94,1 -178,6 -227,38 3,109 6,161 6,257 0,34 -34,74 -47,99l-10 -5 -1 -291c0,0 0,0 0,0 -1,-12 -1,-24 0,-34l0 -5 0 -1c10,-97 85,-125 237,-135 -36,-52 -84,-95 -97,-71l-45 84 -30 -16c53,-125 75,-159 115,-157 61,3 125,92 145,155l0 0 0 0 -46 82z"/>
 </g>
</svg>
