<?xml version="1.0" encoding="UTF-8"?>
<!DOCTYPE svg PUBLIC "-//W3C//DTD SVG 1.0//EN" "http://www.w3.org/TR/2001/REC-SVG-20010904/DTD/svg10.dtd">
<!-- Creator: CorelDRAW -->
<svg xmlns="http://www.w3.org/2000/svg" xml:space="preserve" width="1300px" height="1300px" version="1.0" style="shape-rendering:geometricPrecision; text-rendering:geometricPrecision; image-rendering:optimizeQuality; fill-rule:evenodd; clip-rule:evenodd"
viewBox="0 0 1300 1056"
 xmlns:xlink="http://www.w3.org/1999/xlink">
 <defs>
  <style type="text/css">
   <![CDATA[
    .fil0 {fill:#333300}
    .fil1 {fill:#FF6699;fill-opacity:0.501961}
    .fil2 {fill:#CC6633}
    .fil3 {fill:#CC9933}
   ]]>
  </style>
 </defs>
 <g id="_100:master" visibility="hidden">
  <metadata id="CorelCorpID_0Corel-Layer"/>
  <path class="fil0" d="M720 551c69,65 76,86 150,8l28 34c-100,149 -142,108 -219,11l41 -53z"/>
  <path class="fil1" d="M631 562c55,-5 105,-70 133,-106 17,-22 34,-20 53,-5 78,62 112,118 206,118l0 81c-87,0 -155,-62 -222,-119 -17,-14 -30,-15 -41,-4l-81 77 -48 -42z"/>
  <path class="fil2" d="M560 650l0 -81c-21,0 -40,19 -41,40 0,21 20,41 41,41z"/>
  <path class="fil3" d="M725 560l-23 -34c-35,36 -94,43 -133,43l-9 0 0 81 9 0c62,0 108,-25 156,-90z"/>
 </g>
 <g id="Layer_x0020_1">
  <metadata id="CorelCorpID_1Corel-Layer"/>
  <path class="fil0" d="M731 565c55,54 86,90 144,39 -51,-44 -70,-97 -116,-61l-28 22zm178 62c-60,138 -152,77 -226,-14 -32,26 -66,37 -107,37l-9 0 0 0c-20,-1 -40,-20 -39,-41 0,-21 20,-40 40,-40l0 0 8 0c69,0 98,-7 134,-43l0 0 47 -45c113,-110 89,88 249,88l0 81c-41,0 -72,-9 -97,-23z"/>
 </g>
</svg>
