<?xml version="1.0" encoding="UTF-8"?>
<!DOCTYPE svg PUBLIC "-//W3C//DTD SVG 1.0//EN" "http://www.w3.org/TR/2001/REC-SVG-20010904/DTD/svg10.dtd">
<!-- Creator: CorelDRAW -->
<svg xmlns="http://www.w3.org/2000/svg" xml:space="preserve" width="1300px" height="1300px" version="1.0" style="shape-rendering:geometricPrecision; text-rendering:geometricPrecision; image-rendering:optimizeQuality; fill-rule:evenodd; clip-rule:evenodd"
viewBox="0 0 1300 1056"
 xmlns:xlink="http://www.w3.org/1999/xlink">
 <defs>
  <style type="text/css">
   <![CDATA[
    .fil0 {fill:#333300}
   ]]>
  </style>
 </defs>
 <g id="_100:master">
  <metadata id="CorelCorpID_0Corel-Layer"/>
  <path class="fil0" d="M728 558c57,54 85,75 129,20 -19,-15 -38,-31 -56,-47 -17,-14 -30,-15 -41,-4l-32 31zm164 46c-69,132 -118,98 -208,4 -30,29 -67,42 -115,42l-9 0 0 0c-21,0 -41,-20 -41,-41 1,-21 20,-40 41,-40l0 0 9 0c18,0 41,-1 63,-6l-1 -1c2,0 4,0 6,-1 23,-6 45,-17 62,-37l3 2c26,-23 47,-51 62,-70 17,-22 34,-20 53,-5 78,62 112,118 206,118l0 81c-49,0 -91,-19 -131,-46z"/>
 </g>
</svg>
