<?xml version="1.0" encoding="UTF-8"?>
<!DOCTYPE svg PUBLIC "-//W3C//DTD SVG 1.0//EN" "http://www.w3.org/TR/2001/REC-SVG-20010904/DTD/svg10.dtd">
<!-- Creator: CorelDRAW -->
<svg xmlns="http://www.w3.org/2000/svg" xml:space="preserve" width="1300px" height="1300px" version="1.0" style="shape-rendering:geometricPrecision; text-rendering:geometricPrecision; image-rendering:optimizeQuality; fill-rule:evenodd; clip-rule:evenodd"
viewBox="0 0 1300 1056"
 xmlns:xlink="http://www.w3.org/1999/xlink">
 <defs>
  <style type="text/css">
   <![CDATA[
    .fil1 {fill:red;fill-opacity:0.501961}
    .fil0 {fill:#FF6633}
   ]]>
  </style>
 </defs>
 <g id="_100:master" visibility="hidden">
  <metadata id="CorelCorpID_0Corel-Layer"/>
  <path class="fil0" d="M907 503l-139 25c-59,11 -108,10 -111,92 0,1 -7,-21 -7,-20 -7,-122 55,-141 133,-153l171 -27 -47 83z"/>
  <path class="fil1" d="M747 455l-30 -16c53,-125 76,-165 115,-157 60,13 133,103 121,139l-47 82c15,-50 -94,-168 -113,-132l-46 84z"/>
  <path class="fil1" d="M650 561l51 -41c3,123 7,175 7,277 0,34 -34,74 -47,99l-10 -5 -1 -330z"/>
 </g>
 <g id="Layer_x0020_1">
  <metadata id="CorelCorpID_1Corel-Layer"/>
  <path class="fil0" d="M893 569c-54,1 -138,-3 -190,18 3,79 5,128 5,210 0,34 -34,74 -47,99l-10 -5c-1,-80 -1,-267 -1,-267 -8,-131 75,-139 204,-138 -27,-41 -64,-71 -99,-12l-30 -16c80,-237 210,29 210,29l-42 82z"/>
 </g>
</svg>
