<?xml version="1.0" encoding="UTF-8"?>
<!DOCTYPE svg PUBLIC "-//W3C//DTD SVG 1.0//EN" "http://www.w3.org/TR/2001/REC-SVG-20010904/DTD/svg10.dtd">
<!-- Creator: CorelDRAW -->
<svg xmlns="http://www.w3.org/2000/svg" xml:space="preserve" width="1300px" height="1300px" version="1.0" style="shape-rendering:geometricPrecision; text-rendering:geometricPrecision; image-rendering:optimizeQuality; fill-rule:evenodd; clip-rule:evenodd"
viewBox="0 0 1300 1056"
 xmlns:xlink="http://www.w3.org/1999/xlink">
 <defs>
  <style type="text/css">
   <![CDATA[
    .fil2 {fill:#999933;fill-opacity:0.501961}
    .fil0 {fill:red;fill-opacity:0.501961}
    .fil1 {fill:#CC3300}
   ]]>
  </style>
 </defs>
 <g id="_100:master" visibility="hidden">
  <metadata id="CorelCorpID_0Corel-Layer"/>
  <path class="fil0" d="M981 544c-26,208 -205,33 -233,64 -18,21 -45,42 -98,42l0 -81c60,0 74,-19 98,-41 38,-36 171,112 204,-10l29 26z"/>
  <path class="fil1" d="M650 650l0 -81c-20,0 -40,19 -41,40 0,21 21,41 41,41z"/>
  <path class="fil2" d="M975 569l-20 40c-19,-115 -110,-186 -147,-124l-40 66 -32 -7 64 -117c67,-123 216,40 175,142z"/>
 </g>
 <g id="Layer_x0020_1">
  <metadata id="CorelCorpID_1Corel-Layer"/>
  <path class="fil0" d="M763 587c-27,33 -79,63 -129,63 -21,0 -41,-20 -41,-41 0,-21 20,-40 41,-40 55,0 94,-23 111,-42l78 -93c74,-89 181,19 152,143 -58,139 -159,54 -212,10zm161 -22c1,-28 -61,-113 -95,-75l-25 29c25,21 71,63 120,46z"/>
 </g>
</svg>
