<?xml version="1.0" encoding="UTF-8"?>
<!DOCTYPE svg PUBLIC "-//W3C//DTD SVG 1.0//EN" "http://www.w3.org/TR/2001/REC-SVG-20010904/DTD/svg10.dtd">
<!-- Creator: CorelDRAW -->
<svg xmlns="http://www.w3.org/2000/svg" xml:space="preserve" width="1300px" height="1300px" version="1.0" style="shape-rendering:geometricPrecision; text-rendering:geometricPrecision; image-rendering:optimizeQuality; fill-rule:evenodd; clip-rule:evenodd"
viewBox="0 0 1300 1056"
 xmlns:xlink="http://www.w3.org/1999/xlink">
 <defs>
  <style type="text/css">
   <![CDATA[
    .fil0 {fill:#FF6633}
   ]]>
  </style>
 </defs>
 <g id="_100:master">
  <metadata id="CorelCorpID_0Corel-Layer"/>
  <path class="fil0" d="M907 503l-139 25c-28,6 -50,13 -66,22 3,102 6,154 6,247 0,34 -34,74 -47,99l-10 -5 -1 -291c0,0 0,0 0,0 -1,-13 -1,-25 0,-36l0 -3 0 -1c6,-65 39,-90 84,-103l-19 -11 66 -135c37,-75 180,14 173,109l-47 83zm-157 -50c11,-3 22,-5 33,-6l107 -17c-29,-48 -85,-80 -101,-50l-39 73z"/>
 </g>
</svg>
