<?xml version="1.0" encoding="UTF-8"?>
<!DOCTYPE svg PUBLIC "-//W3C//DTD SVG 1.0//EN" "http://www.w3.org/TR/2001/REC-SVG-20010904/DTD/svg10.dtd">
<!-- Creator: CorelDRAW -->
<svg xmlns="http://www.w3.org/2000/svg" xml:space="preserve" width="1300px" height="1300px" version="1.0" style="shape-rendering:geometricPrecision; text-rendering:geometricPrecision; image-rendering:optimizeQuality; fill-rule:evenodd; clip-rule:evenodd"
viewBox="0 0 1300 1056"
 xmlns:xlink="http://www.w3.org/1999/xlink">
 <defs>
  <style type="text/css">
   <![CDATA[
    .fil0 {fill:#CC9933}
   ]]>
  </style>
 </defs>
 <g id="_100:master">
  <metadata id="CorelCorpID_0Corel-Layer"/>
  <path class="fil0" d="M989 656c-80,45 -104,-6 -91,-83 24,-8 48,-14 69,-17 16,42 22,75 22,100zm-196 -31l6 293c0,27 -21,57 -47,49 -3,-28 -11,-138 -14,-288 -15,-139 70,-151 225,-202l13 -56c59,95 106,148 235,148l0 81c-72,0 -125,-11 -164,-32 0,53 -23,86 -48,107 -84,75 -174,25 -147,-134 -22,10 -42,21 -59,34z"/>
 </g>
</svg>
