<?xml version="1.0" encoding="UTF-8"?>
<!DOCTYPE svg PUBLIC "-//W3C//DTD SVG 1.0//EN" "http://www.w3.org/TR/2001/REC-SVG-20010904/DTD/svg10.dtd">
<!-- Creator: CorelDRAW -->
<svg xmlns="http://www.w3.org/2000/svg" xml:space="preserve" width="1300px" height="1300px" version="1.0" style="shape-rendering:geometricPrecision; text-rendering:geometricPrecision; image-rendering:optimizeQuality; fill-rule:evenodd; clip-rule:evenodd"
viewBox="0 0 1300 1056"
 xmlns:xlink="http://www.w3.org/1999/xlink">
 <defs>
  <style type="text/css">
   <![CDATA[
    .fil0 {fill:#FF6633}
   ]]>
  </style>
 </defs>
 <g id="_100:master">
  <metadata id="CorelCorpID_0Corel-Layer"/>
  <path class="fil0" d="M929 592c-111,-4 -183,4 -227,27 2,116 6,168 6,267 0,34 -34,75 -47,99l-10 -4 -1 -307 0 0 0 -24 1 -1c8,-137 95,-143 237,-141 -28,-44 -64,-81 -90,-81 -20,0 -41,23 -61,84l-30 -16c42,-129 87,-172 126,-170 62,3 142,115 142,184l0 1 0 0 -46 82z"/>
 </g>
</svg>
