<?xml version="1.0" encoding="UTF-8"?>
<!DOCTYPE svg PUBLIC "-//W3C//DTD SVG 1.0//EN" "http://www.w3.org/TR/2001/REC-SVG-20010904/DTD/svg10.dtd">
<!-- Creator: CorelDRAW -->
<svg xmlns="http://www.w3.org/2000/svg" xml:space="preserve" width="1300px" height="1300px" version="1.0" style="shape-rendering:geometricPrecision; text-rendering:geometricPrecision; image-rendering:optimizeQuality; fill-rule:evenodd; clip-rule:evenodd"
viewBox="0 0 1300 1056"
 xmlns:xlink="http://www.w3.org/1999/xlink">
 <defs>
  <style type="text/css">
   <![CDATA[
    .fil0 {fill:#333300}
   ]]>
  </style>
 </defs>
 <g id="_100:master">
  <metadata id="CorelCorpID_0Corel-Layer"/>
  <path class="fil0" d="M725 548c91,77 124,90 163,36 -56,-42 -95,-89 -115,-85 -17,3 -34,25 -48,49zm200 61c-61,114 -140,98 -243,-3 -28,28 -66,44 -106,44l0 0 -2 0 0 0c-19,-1 -39,-20 -38,-41 0,-20 19,-39 38,-40l0 0c31,-1 83,-12 114,-34 43,-41 69,-113 102,-112 44,0 119,146 265,146l0 81c-49,0 -92,-18 -130,-41z"/>
 </g>
</svg>
