<?xml version="1.0" encoding="UTF-8"?>
<!DOCTYPE svg PUBLIC "-//W3C//DTD SVG 1.0//EN" "http://www.w3.org/TR/2001/REC-SVG-20010904/DTD/svg10.dtd">
<!-- Creator: CorelDRAW -->
<svg xmlns="http://www.w3.org/2000/svg" xml:space="preserve" width="1300px" height="1300px" version="1.0" style="shape-rendering:geometricPrecision; text-rendering:geometricPrecision; image-rendering:optimizeQuality; fill-rule:evenodd; clip-rule:evenodd"
viewBox="0 0 1300 1056"
 xmlns:xlink="http://www.w3.org/1999/xlink">
 <defs>
  <style type="text/css">
   <![CDATA[
    .fil0 {fill:red;fill-opacity:0.501961}
   ]]>
  </style>
 </defs>
 <g id="_100:master">
  <metadata id="CorelCorpID_0Corel-Layer"/>
  <path class="fil0" d="M934 599c-5,15 -12,26 -22,35l0 0 0 0c-11,10 -26,16 -43,16 -41,0 -106,-75 -119,-48 -12,24 -55,48 -133,48 -20,0 -40,-20 -40,-41 0,-21 20,-40 40,-40 84,0 110,-26 130,-45l50 -70c79,-110 189,32 137,145zm-155 -67c25,16 61,44 91,51 14,3 29,-6 38,-22 -6,-58 -78,-94 -96,-72l-33 43z"/>
 </g>
</svg>
