<?xml version="1.0" encoding="UTF-8"?>
<!DOCTYPE svg PUBLIC "-//W3C//DTD SVG 1.0//EN" "http://www.w3.org/TR/2001/REC-SVG-20010904/DTD/svg10.dtd">
<!-- Creator: CorelDRAW -->
<svg xmlns="http://www.w3.org/2000/svg" xml:space="preserve" width="1300px" height="1300px" version="1.0" style="shape-rendering:geometricPrecision; text-rendering:geometricPrecision; image-rendering:optimizeQuality; fill-rule:evenodd; clip-rule:evenodd"
viewBox="0 0 1300 1056"
 xmlns:xlink="http://www.w3.org/1999/xlink">
 <defs>
  <style type="text/css">
   <![CDATA[
    .fil0 {fill:red;fill-opacity:0.501961}
   ]]>
  </style>
 </defs>
 <g id="_100:master">
  <metadata id="CorelCorpID_0Corel-Layer"/>
  <path class="fil0" d="M966 587c-14,43 -40,61 -74,62 -39,2 -124,-64 -138,-49 -20,19 -59,50 -137,50 -20,0 -40,-20 -40,-41 0,-21 20,-40 40,-40 90,0 113,-29 135,-48 0,0 0,0 1,0l50 -75c87,-130 221,22 163,141zm-183 -57c33,15 82,40 114,39 17,0 33,-6 48,-19 -26,-59 -107,-96 -124,-72l-38 52z"/>
 </g>
</svg>
