<?xml version="1.0" encoding="UTF-8"?>
<!DOCTYPE svg PUBLIC "-//W3C//DTD SVG 1.0//EN" "http://www.w3.org/TR/2001/REC-SVG-20010904/DTD/svg10.dtd">
<!-- Creator: CorelDRAW -->
<svg xmlns="http://www.w3.org/2000/svg" xml:space="preserve" width="1300px" height="1300px" version="1.0" style="shape-rendering:geometricPrecision; text-rendering:geometricPrecision; image-rendering:optimizeQuality; fill-rule:evenodd; clip-rule:evenodd"
viewBox="0 0 1300 1056"
 xmlns:xlink="http://www.w3.org/1999/xlink">
 <defs>
  <style type="text/css">
   <![CDATA[
    .fil0 {fill:#996633}
   ]]>
  </style>
 </defs>
 <g id="_100:master">
  <metadata id="CorelCorpID_0Corel-Layer"/>
  <path class="fil0" d="M979 451c23,70 112,118 161,118l1 81c-28,0 -58,-5 -88,-20 -50,178 -202,87 -230,-33 -4,3 -8,5 -11,8 3,120 7,180 7,281 0,34 -34,75 -48,99l-10 -4 0 -329c-4,-102 -1,-116 217,-206l1 5zm52 166c-26,-19 -52,-47 -75,-88 -32,15 -58,27 -80,38 37,82 120,118 155,50z"/>
 </g>
</svg>
