<?xml version="1.0" encoding="UTF-8"?>
<!DOCTYPE svg PUBLIC "-//W3C//DTD SVG 1.0//EN" "http://www.w3.org/TR/2001/REC-SVG-20010904/DTD/svg10.dtd">
<!-- Creator: CorelDRAW -->
<svg xmlns="http://www.w3.org/2000/svg" xml:space="preserve" width="1300px" height="1300px" version="1.0" style="shape-rendering:geometricPrecision; text-rendering:geometricPrecision; image-rendering:optimizeQuality; fill-rule:evenodd; clip-rule:evenodd"
viewBox="0 0 1300 1056"
 xmlns:xlink="http://www.w3.org/1999/xlink">
 <defs>
  <style type="text/css">
   <![CDATA[
    .fil0 {fill:#CC9933}
   ]]>
  </style>
 </defs>
 <g id="_100:master">
  <metadata id="CorelCorpID_0Corel-Layer"/>
  <path class="fil0" d="M989 671c-59,11 -90,-35 -86,-99 22,-8 44,-13 64,-16 19,52 24,88 22,115zm-210 -36l12 273c0,26 -14,40 -39,59 -3,-28 -11,-138 -14,-288 -15,-139 70,-151 225,-202l13 -56c59,95 71,148 186,148l0 81c-51,0 -89,-8 -117,-24 0,35 -9,64 -32,89 -76,96 -170,11 -158,-125 -28,13 -55,28 -76,45z"/>
 </g>
</svg>
