<?xml version="1.0" encoding="UTF-8"?>
<!DOCTYPE svg PUBLIC "-//W3C//DTD SVG 1.0//EN" "http://www.w3.org/TR/2001/REC-SVG-20010904/DTD/svg10.dtd">
<!-- Creator: CorelDRAW -->
<svg xmlns="http://www.w3.org/2000/svg" xml:space="preserve" width="1300px" height="1300px" version="1.0" style="shape-rendering:geometricPrecision; text-rendering:geometricPrecision; image-rendering:optimizeQuality; fill-rule:evenodd; clip-rule:evenodd"
viewBox="0 0 1300 1056"
 xmlns:xlink="http://www.w3.org/1999/xlink">
 <defs>
  <style type="text/css">
   <![CDATA[
    .fil0 {fill:#333300}
   ]]>
  </style>
 </defs>
 <g id="_100:master">
  <metadata id="CorelCorpID_0Corel-Layer"/>
  <path class="fil0" d="M737 555c58,65 119,74 178,16 -41,-40 -71,-79 -103,-80 -34,-1 -56,27 -75,64zm202 36l3 10c-72,113 -162,107 -251,12 -27,23 -62,37 -99,37l0 0 -1 0 0 0c-20,-1 -39,-20 -39,-41 0,-20 19,-39 39,-40l0 0c38,-1 110,-18 133,-53 29,-49 57,-106 108,-106 64,0 118,159 264,159l0 81c-69,0 -118,-27 -157,-59z"/>
 </g>
</svg>
