<?xml version="1.0" encoding="UTF-8"?>
<!DOCTYPE svg PUBLIC "-//W3C//DTD SVG 1.0//EN" "http://www.w3.org/TR/2001/REC-SVG-20010904/DTD/svg10.dtd">
<!-- Creator: CorelDRAW -->
<svg xmlns="http://www.w3.org/2000/svg" xml:space="preserve" width="1300px" height="1300px" version="1.0" style="shape-rendering:geometricPrecision; text-rendering:geometricPrecision; image-rendering:optimizeQuality; fill-rule:evenodd; clip-rule:evenodd"
viewBox="0 0 1300 1056"
 xmlns:xlink="http://www.w3.org/1999/xlink">
 <defs>
  <style type="text/css">
   <![CDATA[
    .fil0 {fill:#333300}
   ]]>
  </style>
 </defs>
 <g id="_100:master">
  <metadata id="CorelCorpID_0Corel-Layer"/>
  <path class="fil0" d="M721 548c85,70 113,80 148,32 -58,-48 -99,-97 -120,-73 -14,16 -15,22 -28,41zm185 59c-60,110 -125,98 -227,-3l-1 -2c-31,31 -74,48 -118,48l0 0 -2 0 0 0c-20,-1 -39,-20 -39,-41 1,-20 19,-39 39,-40l0 0c35,-1 93,0 131,-35 24,-25 41,-61 62,-79 68,-62 120,114 280,114l0 81c-47,0 -89,-19 -125,-43z"/>
 </g>
</svg>
