<?xml version="1.0" encoding="UTF-8"?>
<!DOCTYPE svg PUBLIC "-//W3C//DTD SVG 1.0//EN" "http://www.w3.org/TR/2001/REC-SVG-20010904/DTD/svg10.dtd">
<!-- Creator: CorelDRAW -->
<svg xmlns="http://www.w3.org/2000/svg" xml:space="preserve" width="1300px" height="1300px" version="1.0" style="shape-rendering:geometricPrecision; text-rendering:geometricPrecision; image-rendering:optimizeQuality; fill-rule:evenodd; clip-rule:evenodd"
viewBox="0 0 1300 1056"
 xmlns:xlink="http://www.w3.org/1999/xlink">
 <defs>
  <style type="text/css">
   <![CDATA[
    .fil0 {fill:#FF6633}
   ]]>
  </style>
 </defs>
 <g id="_100:master">
  <metadata id="CorelCorpID_0Corel-Layer"/>
  <path class="fil0" d="M929 502c-94,1 -178,7 -227,40 3,107 6,159 6,255 0,34 -34,74 -47,99l-10 -5 -1 -289c0,0 0,0 0,0 -7,-100 28,-145 92,-166l-27 -14c53,-125 75,-159 115,-157 61,3 125,92 145,155l0 0 0 0 -46 82zm-182 -67c37,-11 84,-14 137,-15 -36,-49 -81,-89 -94,-66l-43 81z"/>
 </g>
</svg>
