<?xml version="1.0" encoding="UTF-8"?>
<!DOCTYPE svg PUBLIC "-//W3C//DTD SVG 1.0//EN" "http://www.w3.org/TR/2001/REC-SVG-20010904/DTD/svg10.dtd">
<!-- Creator: CorelDRAW -->
<svg xmlns="http://www.w3.org/2000/svg" xml:space="preserve" width="1300px" height="1300px" version="1.0" style="shape-rendering:geometricPrecision; text-rendering:geometricPrecision; image-rendering:optimizeQuality; fill-rule:evenodd; clip-rule:evenodd"
viewBox="0 0 1300 1056"
 xmlns:xlink="http://www.w3.org/1999/xlink">
 <defs>
  <style type="text/css">
   <![CDATA[
    .fil0 {fill:#333300}
   ]]>
  </style>
 </defs>
 <g id="_100:master">
  <metadata id="CorelCorpID_0Corel-Layer"/>
  <path class="fil0" d="M736 554c56,64 115,75 174,22 -51,-41 -89,-84 -123,-85 -33,-1 -38,26 -51,63zm205 45l1 2c-72,113 -162,107 -251,12 -27,23 -62,37 -99,37l0 0 -1 0 0 0c-20,-1 -39,-20 -39,-41 0,-20 19,-39 39,-40l0 0c31,-1 85,-12 116,-36 26,-51 43,-123 101,-123 64,0 142,159 288,159l0 81c-63,0 -113,-23 -155,-51z"/>
 </g>
</svg>
