<?xml version="1.0" encoding="UTF-8"?>
<!DOCTYPE svg PUBLIC "-//W3C//DTD SVG 1.0//EN" "http://www.w3.org/TR/2001/REC-SVG-20010904/DTD/svg10.dtd">
<!-- Creator: CorelDRAW -->
<svg xmlns="http://www.w3.org/2000/svg" xml:space="preserve" width="1300px" height="1300px" version="1.0" style="shape-rendering:geometricPrecision; text-rendering:geometricPrecision; image-rendering:optimizeQuality; fill-rule:evenodd; clip-rule:evenodd"
viewBox="0 0 1300 1056"
 xmlns:xlink="http://www.w3.org/1999/xlink">
 <defs>
  <style type="text/css">
   <![CDATA[
    .fil0 {fill:#333300}
   ]]>
  </style>
 </defs>
 <g id="_100:master">
  <metadata id="CorelCorpID_0Corel-Layer"/>
  <path class="fil0" d="M723 553c78,63 129,85 165,36 -31,-24 -60,-51 -87,-74 -17,-14 -31,-16 -41,-5l-37 43zm192 55c-53,116 -117,102 -231,0 -29,29 -67,42 -115,42l-9 0 0 0c-21,0 -41,-20 -41,-41 1,-21 20,-40 41,-40l0 0 9 0c18,0 41,-1 63,-6l-1 -1c8,-1 16,-3 23,-6 46,-22 86,-86 110,-117 17,-21 34,-19 53,-4 78,62 120,134 214,134l0 81c-41,0 -80,-17 -116,-42z"/>
 </g>
</svg>
