<?xml version="1.0" encoding="UTF-8"?>
<!DOCTYPE svg PUBLIC "-//W3C//DTD SVG 1.0//EN" "http://www.w3.org/TR/2001/REC-SVG-20010904/DTD/svg10.dtd">
<!-- Creator: CorelDRAW -->
<svg xmlns="http://www.w3.org/2000/svg" xml:space="preserve" width="1300px" height="1300px" version="1.0" style="shape-rendering:geometricPrecision; text-rendering:geometricPrecision; image-rendering:optimizeQuality; fill-rule:evenodd; clip-rule:evenodd"
viewBox="0 0 1300 1056"
 xmlns:xlink="http://www.w3.org/1999/xlink">
 <defs>
  <style type="text/css">
   <![CDATA[
    .fil0 {fill:#996633}
   ]]>
  </style>
 </defs>
 <g id="_100:master">
  <metadata id="CorelCorpID_0Corel-Layer"/>
  <path class="fil0" d="M979 451c23,70 112,118 161,118l1 81c-28,0 -58,-5 -88,-20 -50,178 -202,87 -230,-33l-4 3 0 57c0,219 -13,296 -65,322l-7 -7c17,-34 17,-173 16,-274l0 0c-1,-42 -4,-73 -2,-97l0 -1 0 0c6,-59 43,-82 217,-154l1 5zm52 166c-26,-19 -52,-47 -75,-88 -32,15 -58,27 -80,38 37,82 120,118 155,50z"/>
 </g>
</svg>
