<?xml version="1.0" encoding="UTF-8"?>
<!DOCTYPE svg PUBLIC "-//W3C//DTD SVG 1.0//EN" "http://www.w3.org/TR/2001/REC-SVG-20010904/DTD/svg10.dtd">
<!-- Creator: CorelDRAW -->
<svg xmlns="http://www.w3.org/2000/svg" xml:space="preserve" width="1300px" height="1300px" version="1.0" style="shape-rendering:geometricPrecision; text-rendering:geometricPrecision; image-rendering:optimizeQuality; fill-rule:evenodd; clip-rule:evenodd"
viewBox="0 0 1300 1056"
 xmlns:xlink="http://www.w3.org/1999/xlink">
 <defs>
  <style type="text/css">
   <![CDATA[
    .fil0 {fill:#CC9933}
   ]]>
  </style>
 </defs>
 <g id="_100:master">
  <metadata id="CorelCorpID_0Corel-Layer"/>
  <path class="fil0" d="M760 639l1 -1c-3,-90 9,-107 217,-192 19,60 45,123 180,123l0 81c-33,0 -72,-9 -108,-27 -74,189 -195,92 -215,-33 -14,8 -25,16 -33,23l12 295c0,26 -14,40 -39,59 -3,-28 -11,-175 -15,-328zm263 -32c-29,-20 -52,-46 -63,-80 -34,16 -61,29 -84,40 35,80 114,111 147,40z"/>
 </g>
</svg>
