<?xml version="1.0" encoding="UTF-8"?>
<!DOCTYPE svg PUBLIC "-//W3C//DTD SVG 1.0//EN" "http://www.w3.org/TR/2001/REC-SVG-20010904/DTD/svg10.dtd">
<!-- Creator: CorelDRAW -->
<svg xmlns="http://www.w3.org/2000/svg" xml:space="preserve" width="1300px" height="1300px" version="1.0" style="shape-rendering:geometricPrecision; text-rendering:geometricPrecision; image-rendering:optimizeQuality; fill-rule:evenodd; clip-rule:evenodd"
viewBox="0 0 1300 1056"
 xmlns:xlink="http://www.w3.org/1999/xlink">
 <defs>
  <style type="text/css">
   <![CDATA[
    .fil0 {fill:#CC9933}
   ]]>
  </style>
 </defs>
 <g id="_100:master">
  <metadata id="CorelCorpID_0Corel-Layer"/>
  <path class="fil0" d="M760 639l1 -1c-3,-90 9,-107 217,-192l15 53c23,50 63,70 123,70l0 81c-21,0 -47,-4 -71,-14 -75,172 -191,76 -210,-46 -14,8 -25,16 -33,23l12 295c0,26 -14,40 -39,59 -3,-28 -11,-175 -15,-328zm256 -19c-27,-19 -49,-48 -58,-92 -33,15 -60,28 -82,39 33,75 104,107 140,53z"/>
 </g>
</svg>
