<?xml version="1.0" encoding="UTF-8"?>
<!DOCTYPE svg PUBLIC "-//W3C//DTD SVG 1.0//EN" "http://www.w3.org/TR/2001/REC-SVG-20010904/DTD/svg10.dtd">
<!-- Creator: CorelDRAW -->
<svg xmlns="http://www.w3.org/2000/svg" xml:space="preserve" width="1300px" height="1300px" version="1.0" style="shape-rendering:geometricPrecision; text-rendering:geometricPrecision; image-rendering:optimizeQuality; fill-rule:evenodd; clip-rule:evenodd"
viewBox="0 0 1300 1056"
 xmlns:xlink="http://www.w3.org/1999/xlink">
 <defs>
  <style type="text/css">
   <![CDATA[
    .fil0 {fill:#CC9933}
   ]]>
  </style>
 </defs>
 <g id="_100:master">
  <metadata id="CorelCorpID_0Corel-Layer"/>
  <path class="fil0" d="M760 639l1 -1c-3,-90 9,-107 217,-192l2 8c22,68 87,115 136,115l0 81c-20,0 -43,-3 -65,-12 -53,167 -200,77 -228,-41 -8,5 -15,11 -21,16l12 295c0,26 -14,40 -39,59 -3,-28 -11,-175 -15,-328zm253 -20c-27,-19 -50,-46 -64,-87 -29,13 -53,25 -73,35 37,80 116,115 137,52z"/>
 </g>
</svg>
