<?xml version="1.0" encoding="UTF-8"?>
<!DOCTYPE svg PUBLIC "-//W3C//DTD SVG 1.0//EN" "http://www.w3.org/TR/2001/REC-SVG-20010904/DTD/svg10.dtd">
<!-- Creator: CorelDRAW -->
<svg xmlns="http://www.w3.org/2000/svg" xml:space="preserve" width="1300px" height="1300px" version="1.0" style="shape-rendering:geometricPrecision; text-rendering:geometricPrecision; image-rendering:optimizeQuality; fill-rule:evenodd; clip-rule:evenodd"
viewBox="0 0 1300 1056"
 xmlns:xlink="http://www.w3.org/1999/xlink">
 <defs>
  <style type="text/css">
   <![CDATA[
    .fil0 {fill:#FF9933}
   ]]>
  </style>
 </defs>
 <g id="_100:master">
  <metadata id="CorelCorpID_0Corel-Layer"/>
  <path class="fil0" d="M650 91l79 -91c8,25 14,48 20,72l0 0c104,253 259,106 261,-25 0,-14 53,-26 54,0 3,44 0,82 -8,116 86,55 172,-51 173,-149 1,-13 53,-26 55,1 16,237 -158,331 -277,247 -58,69 -148,83 -219,32 15,141 9,255 8,356l-69 20c4,-183 -3,-373 -77,-579z"/>
 </g>
</svg>
