<?xml version="1.0" encoding="UTF-8"?>
<!DOCTYPE svg PUBLIC "-//W3C//DTD SVG 1.0//EN" "http://www.w3.org/TR/2001/REC-SVG-20010904/DTD/svg10.dtd">
<!-- Creator: CorelDRAW -->
<svg xmlns="http://www.w3.org/2000/svg" xml:space="preserve" width="1300px" height="1300px" version="1.0" style="shape-rendering:geometricPrecision; text-rendering:geometricPrecision; image-rendering:optimizeQuality; fill-rule:evenodd; clip-rule:evenodd"
viewBox="0 0 1300 1056"
 xmlns:xlink="http://www.w3.org/1999/xlink">
 <defs>
  <style type="text/css">
   <![CDATA[
    .fil0 {fill:#999933}
   ]]>
  </style>
 </defs>
 <g id="Layer_x0020_1">
  <metadata id="CorelCorpID_0Corel-Layer"/>
  <path class="fil0" d="M929 731c1,-16 3,-86 -50,-204l39 -80c11,19 19,37 26,54 31,53 44,68 121,68l12 0 0 81 -12 0c-46,0 -72,-10 -89,-23 1,22 0,37 -1,43 0,122 -101,224 -246,224 -155,0 -221,-142 -138,-359 6,-15 37,-3 32,11 -54,145 -38,266 113,266 112,0 158,-40 193,-81z"/>
 </g>
</svg>
