<?xml version="1.0" encoding="UTF-8"?>
<!DOCTYPE svg PUBLIC "-//W3C//DTD SVG 1.0//EN" "http://www.w3.org/TR/2001/REC-SVG-20010904/DTD/svg10.dtd">
<!-- Creator: CorelDRAW -->
<svg xmlns="http://www.w3.org/2000/svg" xml:space="preserve" width="1300px" height="1300px" version="1.0" style="shape-rendering:geometricPrecision; text-rendering:geometricPrecision; image-rendering:optimizeQuality; fill-rule:evenodd; clip-rule:evenodd"
viewBox="0 0 1300 1056"
 xmlns:xlink="http://www.w3.org/1999/xlink">
 <defs>
  <style type="text/css">
   <![CDATA[
    .fil0 {fill:#FF9933}
   ]]>
  </style>
 </defs>
 <g id="_100:master">
  <metadata id="CorelCorpID_0Corel-Layer"/>
  <path class="fil0" d="M650 91l79 -91c12,40 21,78 29,114 1,-2 1,-4 1,-6l0 0 0 0c1,-2 1,-4 2,-6l0 0c31,-103 172,-138 272,-62l-17 43c-67,-18 -159,-14 -209,38 7,50 47,114 81,117l0 0c53,-5 107,-20 159,-43l-10 67c-78,36 -159,55 -248,45 14,135 8,245 7,343l-69 20c4,-183 -3,-373 -77,-579zm130 140l0 1 0 0 0 -1z"/>
 </g>
</svg>
