<?xml version="1.0" encoding="UTF-8"?>
<!DOCTYPE svg PUBLIC "-//W3C//DTD SVG 1.0//EN" "http://www.w3.org/TR/2001/REC-SVG-20010904/DTD/svg10.dtd">
<!-- Creator: CorelDRAW -->
<svg xmlns="http://www.w3.org/2000/svg" xml:space="preserve" width="1300px" height="1300px" version="1.0" style="shape-rendering:geometricPrecision; text-rendering:geometricPrecision; image-rendering:optimizeQuality; fill-rule:evenodd; clip-rule:evenodd"
viewBox="0 0 1300 1056"
 xmlns:xlink="http://www.w3.org/1999/xlink">
 <defs>
  <style type="text/css">
   <![CDATA[
    .fil0 {fill:#FF9933}
   ]]>
  </style>
 </defs>
 <g id="_100:master">
  <metadata id="CorelCorpID_0Corel-Layer"/>
  <path class="fil0" d="M650 91l79 -91c7,23 13,45 18,66l1 -2c104,253 219,114 221,-17 0,-14 53,-26 55,0 3,51 -1,95 -10,132 81,34 157,-65 158,-157 1,-13 53,-26 55,1 15,230 -147,325 -265,254 -48,51 -116,56 -175,12 16,144 10,259 9,361l-69 20c4,-183 -3,-373 -77,-579z"/>
 </g>
</svg>
