<?xml version="1.0" encoding="UTF-8"?>
<!DOCTYPE svg PUBLIC "-//W3C//DTD SVG 1.0//EN" "http://www.w3.org/TR/2001/REC-SVG-20010904/DTD/svg10.dtd">
<!-- Creator: CorelDRAW -->
<svg xmlns="http://www.w3.org/2000/svg" xml:space="preserve" width="1300px" height="1300px" version="1.0" style="shape-rendering:geometricPrecision; text-rendering:geometricPrecision; image-rendering:optimizeQuality; fill-rule:evenodd; clip-rule:evenodd"
viewBox="0 0 1300 1056"
 xmlns:xlink="http://www.w3.org/1999/xlink">
 <defs>
  <style type="text/css">
   <![CDATA[
    .fil0 {fill:#FF9966}
   ]]>
  </style>
 </defs>
 <g id="_100:master" visibility="hidden">
  <metadata id="CorelCorpID_0Corel-Layer"/>
  <path class="fil0" d="M902 409l-36 79c53,118 69,180 68,197 -141,214 -528,160 -390,-180 6,-13 -26,-25 -32,-11 -215,532 459,477 467,156 1,-34 -8,-114 -77,-241z"/>
 </g>
 <g id="Layer_x0020_1">
  <metadata id="CorelCorpID_1Corel-Layer"/>
  <path class="fil0" d="M929 724c1,-16 7,-69 -45,-187l38 -80c69,128 53,215 52,232 1,105 -130,203 -245,204 -155,1 -221,-141 -138,-358 6,-15 37,-3 32,11 -54,145 -38,266 113,266 80,1 164,-41 193,-88z"/>
 </g>
</svg>
