<?xml version="1.0" encoding="UTF-8"?>
<!DOCTYPE svg PUBLIC "-//W3C//DTD SVG 1.0//EN" "http://www.w3.org/TR/2001/REC-SVG-20010904/DTD/svg10.dtd">
<!-- Creator: CorelDRAW -->
<svg xmlns="http://www.w3.org/2000/svg" xml:space="preserve" width="1300px" height="1300px" version="1.0" style="shape-rendering:geometricPrecision; text-rendering:geometricPrecision; image-rendering:optimizeQuality; fill-rule:evenodd; clip-rule:evenodd"
viewBox="0 0 1300 1056"
 xmlns:xlink="http://www.w3.org/1999/xlink">
 <defs>
  <style type="text/css">
   <![CDATA[
    .fil0 {fill:#FF9933}
   ]]>
  </style>
 </defs>
 <g id="_100:master">
  <metadata id="CorelCorpID_0Corel-Layer"/>
  <path class="fil0" d="M650 91l79 -91c24,83 40,159 50,228 6,2 12,3 18,4 -19,-36 -28,-86 -21,-124l0 0 0 0c0,-2 0,-4 1,-6l0 0c31,-103 173,-138 272,-62l-17 43c-67,-18 -159,-14 -209,38 7,50 47,114 81,117l0 0c53,-5 108,-20 159,-43l-9 67c-83,39 -169,57 -265,43 14,136 8,247 7,345l-69 20c4,-183 -3,-373 -77,-579z"/>
 </g>
</svg>
