<?xml version="1.0" encoding="UTF-8"?>
<!DOCTYPE svg PUBLIC "-//W3C//DTD SVG 1.0//EN" "http://www.w3.org/TR/2001/REC-SVG-20010904/DTD/svg10.dtd">
<!-- Creator: CorelDRAW -->
<svg xmlns="http://www.w3.org/2000/svg" xml:space="preserve" width="1300px" height="1300px" version="1.0" style="shape-rendering:geometricPrecision; text-rendering:geometricPrecision; image-rendering:optimizeQuality; fill-rule:evenodd; clip-rule:evenodd"
viewBox="0 0 1300 1056"
 xmlns:xlink="http://www.w3.org/1999/xlink">
 <defs>
  <style type="text/css">
   <![CDATA[
    .fil0 {fill:#999933}
   ]]>
  </style>
 </defs>
 <g id="_100:master">
  <metadata id="CorelCorpID_0Corel-Layer"/>
  <path class="fil0" d="M927 568c-58,-2 -90,-7 -114,-14 -18,-5 -28,-14 -26,-26 -3,-15 20,-65 58,-65 43,0 70,47 82,105zm-10 160c12,-17 15,-50 16,-79 -66,-1 -112,-7 -141,-23 -29,-15 -47,-43 -42,-94 10,-69 47,-149 110,-149 67,0 119,82 126,186l70 0 0 81c-25,0 -49,0 -74,0 -3,17 -7,34 -12,50 -56,240 -533,250 -363,-165 6,-14 37,-3 32,11 -107,286 171,279 278,182z"/>
 </g>
</svg>
