<?xml version="1.0" encoding="UTF-8"?>
<!DOCTYPE svg PUBLIC "-//W3C//DTD SVG 1.0//EN" "http://www.w3.org/TR/2001/REC-SVG-20010904/DTD/svg10.dtd">
<!-- Creator: CorelDRAW -->
<svg xmlns="http://www.w3.org/2000/svg" xml:space="preserve" width="1300px" height="1300px" version="1.0" style="shape-rendering:geometricPrecision; text-rendering:geometricPrecision; image-rendering:optimizeQuality; fill-rule:evenodd; clip-rule:evenodd"
viewBox="0 0 1300 1056"
 xmlns:xlink="http://www.w3.org/1999/xlink">
 <defs>
  <style type="text/css">
   <![CDATA[
    .fil0 {fill:#FFCC00}
   ]]>
  </style>
 </defs>
 <g id="_100:master">
  <metadata id="CorelCorpID_0Corel-Layer"/>
  <path class="fil0" d="M984 569l72 0 0 81 -73 0c-3,19 -6,37 -12,50 -58,240 -549,250 -378,-165 5,-14 37,-3 32,11 -107,285 182,279 292,183 3,-14 8,-37 10,-50 2,-10 3,-20 3,-30 -112,-7 -192,-5 -172,-125 9,-67 52,-144 113,-144 70,0 106,96 113,189zm-57 -2c-8,-55 -31,-99 -72,-101 -38,-2 -60,44 -62,62 -2,36 46,34 134,39z"/>
 </g>
</svg>
