<?xml version="1.0" encoding="UTF-8"?>
<!DOCTYPE svg PUBLIC "-//W3C//DTD SVG 1.0//EN" "http://www.w3.org/TR/2001/REC-SVG-20010904/DTD/svg10.dtd">
<!-- Creator: CorelDRAW -->
<svg xmlns="http://www.w3.org/2000/svg" xml:space="preserve" width="1300px" height="1300px" version="1.0" style="shape-rendering:geometricPrecision; text-rendering:geometricPrecision; image-rendering:optimizeQuality; fill-rule:evenodd; clip-rule:evenodd"
viewBox="0 0 1300 1056"
 xmlns:xlink="http://www.w3.org/1999/xlink">
 <defs>
  <style type="text/css">
   <![CDATA[
    .fil0 {fill:#999933}
   ]]>
  </style>
 </defs>
 <g id="_100:master">
  <metadata id="CorelCorpID_0Corel-Layer"/>
  <path class="fil0" d="M924 554c-67,12 -143,4 -137,-26 -3,-15 20,-65 58,-65 40,0 66,40 79,91zm-7 174c14,-22 16,-66 16,-99 -75,20 -195,23 -183,-97 10,-69 47,-149 110,-149 94,0 159,160 110,317 -56,240 -533,250 -363,-165 6,-14 37,-3 32,11 -107,286 171,279 278,182z"/>
 </g>
</svg>
