<?xml version="1.0" encoding="UTF-8"?>
<!DOCTYPE svg PUBLIC "-//W3C//DTD SVG 1.0//EN" "http://www.w3.org/TR/2001/REC-SVG-20010904/DTD/svg10.dtd">
<!-- Creator: CorelDRAW -->
<svg xmlns="http://www.w3.org/2000/svg" xml:space="preserve" width="1300px" height="1300px" version="1.0" style="shape-rendering:geometricPrecision; text-rendering:geometricPrecision; image-rendering:optimizeQuality; fill-rule:evenodd; clip-rule:evenodd"
viewBox="0 0 1300 1056"
 xmlns:xlink="http://www.w3.org/1999/xlink">
 <defs>
  <style type="text/css">
   <![CDATA[
    .fil0 {fill:#660066;fill-opacity:0.549020}
    .fil1 {fill:#666633}
   ]]>
  </style>
 </defs>
 <g id="_100:master" visibility="hidden">
  <metadata id="CorelCorpID_0Corel-Layer"/>
  <path class="fil0" d="M960 544l-22 47c15,25 35,59 118,59l12 0 0 -81 -12 0c-44,0 -74,-11 -96,-25z"/>
  <path class="fil0" d="M936 724l-14 -1c12,-33 -2,-130 -52,-203l39 -80c94,125 73,196 27,284z"/>
  <path class="fil1" d="M923 650l52 -49c1,155 -117,293 -198,293 -33,0 -88,-14 -124,-27 -7,-7 -4,-24 8,-27 107,13 269,-85 262,-190z"/>
 </g>
 <g id="Layer_x0020_1">
  <metadata id="CorelCorpID_1Corel-Layer"/>
  <path class="fil0" d="M938 490c36,62 45,79 127,79l12 0 0 81 -12 0c-45,0 -72,-10 -89,-23 1,14 0,26 -3,37l1 1c-18,101 -92,196 -148,196 -33,0 -72,-14 -108,-26 -7,-7 -4,-25 8,-28 86,11 187,-69 204,-160 -6,-29 -21,-68 -52,-119l39 -80c8,15 15,29 21,42l0 0z"/>
 </g>
</svg>
