<?xml version="1.0" encoding="UTF-8"?>
<!DOCTYPE svg PUBLIC "-//W3C//DTD SVG 1.0//EN" "http://www.w3.org/TR/2001/REC-SVG-20010904/DTD/svg10.dtd">
<!-- Creator: CorelDRAW -->
<svg xmlns="http://www.w3.org/2000/svg" xml:space="preserve" width="1300px" height="1300px" version="1.0" style="shape-rendering:geometricPrecision; text-rendering:geometricPrecision; image-rendering:optimizeQuality; fill-rule:evenodd; clip-rule:evenodd"
viewBox="0 0 1300 1056"
 xmlns:xlink="http://www.w3.org/1999/xlink">
 <defs>
  <style type="text/css">
   <![CDATA[
    .fil0 {fill:#CC9933}
   ]]>
  </style>
 </defs>
 <g id="_100:master">
  <metadata id="CorelCorpID_0Corel-Layer"/>
  <path class="fil0" d="M623 650c-74,-3 -93,-35 -107,-59 -19,28 -54,59 -114,59l-20 0 0 0c-20,-1 -40,-20 -40,-41 1,-21 20,-40 41,-40l0 0 19 0c83,0 97,-36 114,-119l34 7c-8,38 -25,84 7,98 9,3 19,6 30,9 124,-109 208,-189 283,-190 84,-2 116,125 99,165 0,3 -1,5 -2,8 26,24 64,22 96,22l0 81 -20 0c-53,0 -85,-18 -104,-47 -25,30 -62,47 -106,47l-20 0 0 0 -167 0 0 0 -23 0 0 0zm192 -81l18 0c42,0 72,-10 93,-24l2 -2c1,-29 -28,-87 -78,-89 -56,-1 -120,36 -224,115l6 0 183 0z"/>
 </g>
</svg>
