<?xml version="1.0" encoding="UTF-8"?>
<!DOCTYPE svg PUBLIC "-//W3C//DTD SVG 1.0//EN" "http://www.w3.org/TR/2001/REC-SVG-20010904/DTD/svg10.dtd">
<!-- Creator: CorelDRAW -->
<svg xmlns="http://www.w3.org/2000/svg" xml:space="preserve" width="1300px" height="1300px" version="1.0" style="shape-rendering:geometricPrecision; text-rendering:geometricPrecision; image-rendering:optimizeQuality; fill-rule:evenodd; clip-rule:evenodd"
viewBox="0 0 1300 1056"
 xmlns:xlink="http://www.w3.org/1999/xlink">
 <defs>
  <style type="text/css">
   <![CDATA[
    .fil0 {fill:#660066;fill-opacity:0.549020}
   ]]>
  </style>
 </defs>
 <g id="_100:master">
  <metadata id="CorelCorpID_0Corel-Layer"/>
  <path class="fil0" d="M969 539l0 0c0,3 -1,5 -2,8 26,24 64,22 96,22l0 81 -20 0c-53,0 -85,-18 -104,-47 -25,30 -62,47 -106,47l-20 0 0 0 -163 0 0 0 0 0 0 0c-32,0 -57,-7 -75,-19 1,11 1,19 0,23 0,283 -565,321 -384,-119 6,-14 37,-3 32,11 -112,298 211,278 306,169 1,-16 3,-70 -49,-188l38 -80c4,6 7,13 10,19l0 0c16,34 31,70 65,89 77,-86 159,-200 260,-201 91,0 139,94 116,185zm-156 30l0 0 20 0c41,0 71,-10 92,-23 9,-44 -25,-112 -96,-113 -78,-1 -139,68 -205,133 8,2 17,3 26,3l163 0z"/>
 </g>
</svg>
