<?xml version="1.0" encoding="UTF-8"?>
<!DOCTYPE svg PUBLIC "-//W3C//DTD SVG 1.0//EN" "http://www.w3.org/TR/2001/REC-SVG-20010904/DTD/svg10.dtd">
<!-- Creator: CorelDRAW -->
<svg xmlns="http://www.w3.org/2000/svg" xml:space="preserve" width="1300px" height="1300px" version="1.0" style="shape-rendering:geometricPrecision; text-rendering:geometricPrecision; image-rendering:optimizeQuality; fill-rule:evenodd; clip-rule:evenodd"
viewBox="0 0 1300 1056"
 xmlns:xlink="http://www.w3.org/1999/xlink">
 <defs>
  <style type="text/css">
   <![CDATA[
    .fil0 {fill:#CC9933}
   ]]>
  </style>
 </defs>
 <g id="_100:master">
  <metadata id="CorelCorpID_0Corel-Layer"/>
  <path class="fil0" d="M813 650l-163 0 0 0c-26,0 -53,-4 -75,-19 1,11 1,19 0,23 0,283 -565,321 -384,-119 6,-14 37,-3 32,11 -112,298 211,278 306,169 1,-16 3,-70 -49,-188l38 -80c4,6 7,13 10,19l0 0c16,34 32,71 67,90 119,-105 201,-181 275,-182 84,-2 116,125 99,165 -16,70 -67,111 -136,111l-20 0 0 -81 20 0c43,0 74,-11 95,-25 2,-29 -28,-88 -78,-90 -56,-1 -119,36 -222,113 7,1 14,2 22,2l162 0 1 81z"/>
 </g>
</svg>
