<?xml version="1.0" encoding="UTF-8"?>
<!DOCTYPE svg PUBLIC "-//W3C//DTD SVG 1.0//EN" "http://www.w3.org/TR/2001/REC-SVG-20010904/DTD/svg10.dtd">
<!-- Creator: CorelDRAW -->
<svg xmlns="http://www.w3.org/2000/svg" xml:space="preserve" width="1300px" height="1300px" version="1.0" style="shape-rendering:geometricPrecision; text-rendering:geometricPrecision; image-rendering:optimizeQuality; fill-rule:evenodd; clip-rule:evenodd"
viewBox="0 0 1300 1056"
 xmlns:xlink="http://www.w3.org/1999/xlink">
 <defs>
  <style type="text/css">
   <![CDATA[
    .fil0 {fill:#CC9933}
   ]]>
  </style>
 </defs>
 <g id="_100:master">
  <metadata id="CorelCorpID_0Corel-Layer"/>
  <path class="fil0" d="M813 650l-195 0c-84,0 -103,-34 -118,-59 -19,28 -54,59 -114,59l-21 0 0 0c-20,-1 -39,-20 -39,-41 0,-21 20,-40 40,-40l0 0 20 0c83,0 97,-36 114,-119l33 7c-8,38 -24,84 8,98 5,2 10,3 15,5 81,-89 202,-244 329,-214 59,14 117,98 82,204 -4,12 -9,24 -15,34l0 1 0 0c-25,41 -67,65 -119,65l-20 0 0 -81 20 0c43,0 73,-11 94,-24 11,-47 -31,-116 -81,-120 -101,-8 -186,75 -255,142 8,1 17,2 27,2l194 0 1 81z"/>
 </g>
</svg>
