<?xml version="1.0" encoding="UTF-8"?>
<!DOCTYPE svg PUBLIC "-//W3C//DTD SVG 1.0//EN" "http://www.w3.org/TR/2001/REC-SVG-20010904/DTD/svg10.dtd">
<!-- Creator: CorelDRAW -->
<svg xmlns="http://www.w3.org/2000/svg" xml:space="preserve" width="1300px" height="1300px" version="1.0" style="shape-rendering:geometricPrecision; text-rendering:geometricPrecision; image-rendering:optimizeQuality; fill-rule:evenodd; clip-rule:evenodd"
viewBox="0 0 1300 1056"
 xmlns:xlink="http://www.w3.org/1999/xlink">
 <defs>
  <style type="text/css">
   <![CDATA[
    .fil0 {fill:#CC9933}
   ]]>
  </style>
 </defs>
 <g id="_100:master">
  <metadata id="CorelCorpID_0Corel-Layer"/>
  <path class="fil0" d="M813 650l-151 0 0 0 -41 0 0 -2c-59,-7 -76,-35 -88,-57 -20,28 -55,59 -115,59l-20 0 0 0c-20,-1 -40,-20 -39,-41 0,-21 20,-40 40,-40l0 0 19 0c83,0 97,-36 114,-119l34 7c-8,38 -25,84 7,98 5,2 10,3 16,5 78,-87 167,-205 264,-206 96,0 139,94 116,185l0 0c-4,17 -10,32 -17,45l0 1 0 0c-25,41 -67,65 -119,65l-20 0 0 -81 20 0c41,0 71,-10 92,-23 9,-44 -21,-111 -96,-113 -75,-1 -139,69 -206,134 9,1 17,2 27,2l162 0 1 81z"/>
 </g>
</svg>
