<?xml version="1.0" encoding="UTF-8"?>
<!DOCTYPE svg PUBLIC "-//W3C//DTD SVG 1.0//EN" "http://www.w3.org/TR/2001/REC-SVG-20010904/DTD/svg10.dtd">
<!-- Creator: CorelDRAW -->
<svg xmlns="http://www.w3.org/2000/svg" xml:space="preserve" width="1300px" height="1300px" version="1.0" style="shape-rendering:geometricPrecision; text-rendering:geometricPrecision; image-rendering:optimizeQuality; fill-rule:evenodd; clip-rule:evenodd"
viewBox="0 0 1300 1056"
 xmlns:xlink="http://www.w3.org/1999/xlink">
 <defs>
  <style type="text/css">
   <![CDATA[
    .fil0 {fill:#CC9933}
   ]]>
  </style>
 </defs>
 <g id="_100:master">
  <metadata id="CorelCorpID_0Corel-Layer"/>
  <path class="fil0" d="M813 650l-150 0c-47,0 -74,-11 -91,-25 1,14 1,24 1,29 -1,283 -549,321 -368,-119 6,-14 37,-3 32,11 -112,298 194,278 290,169 0,-16 3,-70 -50,-188l39 -80c8,16 15,31 21,46 25,43 38,63 73,71 96,-116 176,-190 240,-198 97,-10 142,97 119,173 0,3 -1,5 -1,7l1 -2c21,14 51,25 95,25l12 0 0 81 -12 0c-82,0 -102,-33 -117,-58 -25,37 -65,58 -114,58l-20 0 0 -81 20 0c43,0 74,-11 95,-25 -3,-50 -37,-96 -97,-96 -67,0 -141,71 -185,120 9,1 18,1 28,1l138 0 1 81z"/>
 </g>
</svg>
