<?xml version="1.0" encoding="UTF-8"?>
<!DOCTYPE svg PUBLIC "-//W3C//DTD SVG 1.0//EN" "http://www.w3.org/TR/2001/REC-SVG-20010904/DTD/svg10.dtd">
<!-- Creator: CorelDRAW -->
<svg xmlns="http://www.w3.org/2000/svg" xml:space="preserve" width="1300px" height="1300px" version="1.0" style="shape-rendering:geometricPrecision; text-rendering:geometricPrecision; image-rendering:optimizeQuality; fill-rule:evenodd; clip-rule:evenodd"
viewBox="0 0 1300 1056"
 xmlns:xlink="http://www.w3.org/1999/xlink">
 <defs>
  <style type="text/css">
   <![CDATA[
    .fil0 {fill:#CC9933}
   ]]>
  </style>
 </defs>
 <g id="_100:master">
  <metadata id="CorelCorpID_0Corel-Layer"/>
  <path class="fil0" d="M813 650l-126 0 0 0 -18 0 0 0c-33,-1 -56,-7 -72,-16 1,9 1,16 0,20 0,283 -548,321 -368,-119 6,-14 37,-3 32,11 -111,298 195,278 290,169 1,-16 3,-70 -50,-188l39 -80c19,37 32,70 41,98 9,6 20,11 32,15 95,-114 173,-186 237,-194 97,-10 142,97 119,173 -16,70 -67,111 -136,111l-20 0 0 -81 20 0c43,0 74,-11 95,-25 -3,-50 -37,-96 -97,-96 -67,0 -139,70 -184,119 8,1 17,2 27,2l138 0 1 81z"/>
 </g>
</svg>
