<?xml version="1.0" encoding="UTF-8"?>
<!DOCTYPE svg PUBLIC "-//W3C//DTD SVG 1.0//EN" "http://www.w3.org/TR/2001/REC-SVG-20010904/DTD/svg10.dtd">
<!-- Creator: CorelDRAW -->
<svg xmlns="http://www.w3.org/2000/svg" xml:space="preserve" width="1300px" height="1300px" version="1.0" style="shape-rendering:geometricPrecision; text-rendering:geometricPrecision; image-rendering:optimizeQuality; fill-rule:evenodd; clip-rule:evenodd"
viewBox="0 0 1300 1056"
 xmlns:xlink="http://www.w3.org/1999/xlink">
 <defs>
  <style type="text/css">
   <![CDATA[
    .fil0 {fill:#CC9933}
   ]]>
  </style>
 </defs>
 <g id="_100:master">
  <metadata id="CorelCorpID_0Corel-Layer"/>
  <path class="fil0" d="M813 650l-195 0c-84,0 -103,-34 -118,-59 -19,28 -54,59 -114,59l-21 0 0 0c-20,-1 -39,-20 -39,-41 0,-21 20,-40 40,-40l0 0 20 0c83,0 97,-36 114,-119l33 7c-8,38 -24,84 8,98 9,3 18,6 29,9 105,-110 207,-214 272,-214 95,0 150,113 127,189 -16,70 -67,111 -136,111l-20 0 0 -81 20 0c42,0 72,-10 94,-24 -8,-48 -41,-106 -96,-114 -66,-9 -171,87 -224,138 6,0 12,0 18,0l0 0 187 0 1 81z"/>
 </g>
</svg>
