<?xml version="1.0" encoding="UTF-8"?>
<!DOCTYPE svg PUBLIC "-//W3C//DTD SVG 1.0//EN" "http://www.w3.org/TR/2001/REC-SVG-20010904/DTD/svg10.dtd">
<!-- Creator: CorelDRAW -->
<svg xmlns="http://www.w3.org/2000/svg" xml:space="preserve" width="1300px" height="1300px" version="1.0" style="shape-rendering:geometricPrecision; text-rendering:geometricPrecision; image-rendering:optimizeQuality; fill-rule:evenodd; clip-rule:evenodd"
viewBox="0 0 1300 1056"
 xmlns:xlink="http://www.w3.org/1999/xlink">
 <defs>
  <style type="text/css">
   <![CDATA[
    .fil0 {fill:#CC9933}
   ]]>
  </style>
 </defs>
 <g id="_100:master">
  <metadata id="CorelCorpID_0Corel-Layer"/>
  <path class="fil0" d="M813 650l-126 0 0 0 -18 0 0 0c-78,-1 -98,-34 -112,-59 -19,28 -54,59 -114,59l-21 0 0 0c-20,-1 -39,-20 -39,-41 0,-21 20,-40 40,-40l0 0 20 0c83,0 96,-36 114,-119l33 7c-5,26 -20,83 -11,87 10,6 21,12 34,16 95,-114 173,-186 237,-194 97,-10 142,97 119,173 0,3 -1,5 -1,7l1 -2c21,14 51,25 95,25l12 0 0 81 -12 0c-82,0 -102,-33 -117,-58 -25,37 -65,58 -114,58l-20 0 0 -81 20 0c43,0 74,-11 95,-25 -3,-50 -37,-96 -97,-96 -67,0 -139,70 -184,119 8,1 17,2 27,2l138 0 1 81z"/>
 </g>
</svg>
