<?xml version="1.0" encoding="UTF-8"?>
<!DOCTYPE svg PUBLIC "-//W3C//DTD SVG 1.0//EN" "http://www.w3.org/TR/2001/REC-SVG-20010904/DTD/svg10.dtd">
<!-- Creator: CorelDRAW -->
<svg xmlns="http://www.w3.org/2000/svg" xml:space="preserve" width="1300px" height="1300px" version="1.0" style="shape-rendering:geometricPrecision; text-rendering:geometricPrecision; image-rendering:optimizeQuality; fill-rule:evenodd; clip-rule:evenodd"
viewBox="0 0 1300 1056"
 xmlns:xlink="http://www.w3.org/1999/xlink">
 <defs>
  <style type="text/css">
   <![CDATA[
    .fil0 {fill:#CC6633}
   ]]>
  </style>
 </defs>
 <g id="_100:master">
  <metadata id="CorelCorpID_0Corel-Layer"/>
  <path class="fil0" d="M376 650c-20,0 -41,-20 -40,-41 0,-21 20,-40 40,-40l70 0 0 0c82,-1 95,-37 113,-119l33 7c-5,26 -22,80 -11,87 20,13 41,24 71,25l0 0c79,-1 93,-38 110,-119l33 7c-5,26 -22,80 -11,87 20,13 42,24 71,25l0 0c31,0 50,-6 65,-15 -10,-35 -14,-76 -14,-117l33 -18c1,90 17,150 105,150l17 0 -2 81 -16 0c-43,0 -73,-15 -94,-39 -20,20 -51,38 -95,39l0 0 -3 0 0 0c-54,-1 -88,-29 -102,-43 -20,22 -51,42 -98,43l0 0 -3 0 0 0c-54,-1 -88,-29 -102,-43 -21,23 -53,43 -102,43l0 0 -68 0z"/>
 </g>
</svg>
