<?xml version="1.0" encoding="UTF-8"?>
<!DOCTYPE svg PUBLIC "-//W3C//DTD SVG 1.0//EN" "http://www.w3.org/TR/2001/REC-SVG-20010904/DTD/svg10.dtd">
<!-- Creator: CorelDRAW -->
<svg xmlns="http://www.w3.org/2000/svg" xml:space="preserve" width="1300px" height="1300px" version="1.0" style="shape-rendering:geometricPrecision; text-rendering:geometricPrecision; image-rendering:optimizeQuality; fill-rule:evenodd; clip-rule:evenodd"
viewBox="0 0 1300 1056"
 xmlns:xlink="http://www.w3.org/1999/xlink">
 <defs>
  <style type="text/css">
   <![CDATA[
    .fil0 {fill:#CC6633}
   ]]>
  </style>
 </defs>
 <g id="_100:master">
  <metadata id="CorelCorpID_0Corel-Layer"/>
  <path class="fil0" d="M423 650c-20,0 -40,-20 -40,-41 0,-21 20,-40 40,-40l25 0 0 0c83,0 97,-37 114,-119l33 7c-5,26 -22,80 -11,87 7,6 40,24 68,25 82,-1 96,-37 113,-119l34 7c-6,26 -22,80 -12,87 7,6 41,24 69,25 32,0 53,-6 68,-15 -7,-27 -9,-58 -9,-93l32 -18c2,79 23,126 130,126l-1 81c-60,0 -98,-14 -122,-40 -21,22 -54,40 -100,40l0 0c-54,-1 -87,-29 -101,-43 -21,23 -53,43 -102,43l0 0c-54,-1 -88,-29 -102,-43 -21,23 -53,43 -101,43l0 0 -25 0z"/>
 </g>
</svg>
