<?xml version="1.0" encoding="UTF-8"?>
<!DOCTYPE svg PUBLIC "-//W3C//DTD SVG 1.0//EN" "http://www.w3.org/TR/2001/REC-SVG-20010904/DTD/svg10.dtd">
<!-- Creator: CorelDRAW -->
<svg xmlns="http://www.w3.org/2000/svg" xml:space="preserve" width="1300px" height="1300px" version="1.0" style="shape-rendering:geometricPrecision; text-rendering:geometricPrecision; image-rendering:optimizeQuality; fill-rule:evenodd; clip-rule:evenodd"
viewBox="0 0 1300 1056"
 xmlns:xlink="http://www.w3.org/1999/xlink">
 <defs>
  <style type="text/css">
   <![CDATA[
    .fil0 {fill:#CC6633}
   ]]>
  </style>
 </defs>
 <g id="_100:master">
  <metadata id="CorelCorpID_0Corel-Layer"/>
  <path class="fil0" d="M376 650c-20,0 -41,-20 -40,-41 0,-21 20,-40 40,-40l16 0 0 0 52 0c84,0 97,-36 115,-119l33 7c-5,26 -22,80 -11,87 20,13 41,24 71,25l0 0c82,-1 95,-37 112,-119l34 7c-6,26 -22,80 -11,87 20,13 41,24 70,25 30,0 51,-12 71,-25 -2,-28 -12,-60 -37,-98l39 -79c31,46 43,86 45,120l0 0 0 1c1,19 -1,36 -6,51 -13,57 -61,111 -113,111 -55,0 -90,-29 -104,-43 -21,23 -53,43 -101,43l0 0 -1 0 0 0c-37,0 -67,-19 -91,-59 -20,28 -55,59 -115,59l-52 0 0 0 -16 0z"/>
 </g>
</svg>
