<?xml version="1.0" encoding="UTF-8"?>
<!DOCTYPE svg PUBLIC "-//W3C//DTD SVG 1.0//EN" "http://www.w3.org/TR/2001/REC-SVG-20010904/DTD/svg10.dtd">
<!-- Creator: CorelDRAW -->
<svg xmlns="http://www.w3.org/2000/svg" xml:space="preserve" width="1300px" height="1300px" version="1.0" style="shape-rendering:geometricPrecision; text-rendering:geometricPrecision; image-rendering:optimizeQuality; fill-rule:evenodd; clip-rule:evenodd"
viewBox="0 0 1300 1056"
 xmlns:xlink="http://www.w3.org/1999/xlink">
 <defs>
  <style type="text/css">
   <![CDATA[
    .fil0 {fill:#660066;fill-opacity:0.549020}
   ]]>
  </style>
 </defs>
 <g id="_100:master">
  <metadata id="CorelCorpID_0Corel-Layer"/>
  <path class="fil0" d="M813 569l-191 0c67,-66 132,-137 207,-136 75,2 105,69 96,113 -21,13 -51,23 -92,23l-20 0 0 0zm133 24c-25,37 -64,57 -113,57l-341 0c-20,0 -40,-20 -40,-41 0,-21 20,-40 40,-40l47 0c9,0 79,-4 80,-82 0,-80 -2,-163 -2,-196l0 -104c0,-33 12,-52 47,-106l10 5 0 262c0,29 0,56 -1,80 0,14 -1,27 -3,40 55,-61 103,-113 183,-114 79,0 139,94 116,185l0 0 -1 6c21,13 51,24 94,24l12 0 0 81 -12 0c-80,0 -101,-32 -116,-57z"/>
 </g>
</svg>
