<?xml version="1.0" encoding="UTF-8"?>
<!DOCTYPE svg PUBLIC "-//W3C//DTD SVG 1.0//EN" "http://www.w3.org/TR/2001/REC-SVG-20010904/DTD/svg10.dtd">
<!-- Creator: CorelDRAW -->
<svg xmlns="http://www.w3.org/2000/svg" xml:space="preserve" width="1300px" height="1300px" version="1.0" style="shape-rendering:geometricPrecision; text-rendering:geometricPrecision; image-rendering:optimizeQuality; fill-rule:evenodd; clip-rule:evenodd"
viewBox="0 0 1300 1056"
 xmlns:xlink="http://www.w3.org/1999/xlink">
 <defs>
  <style type="text/css">
   <![CDATA[
    .fil0 {fill:#CC9933}
   ]]>
  </style>
 </defs>
 <g id="_100:master">
  <metadata id="CorelCorpID_0Corel-Layer"/>
  <path class="fil0" d="M564 569c8,0 75,-4 76,-82 0,-80 -2,-163 -2,-196l0 -86c0,-34 28,-77 50,-124l11 5 0 262c0,29 -1,56 -1,80 -1,15 -2,29 -4,42 59,-61 112,-99 156,-104 97,-10 142,97 119,173l-1 6c21,13 51,24 94,24l12 0 0 81 -12 0c-80,0 -101,-32 -116,-57 -25,37 -64,57 -113,57l-334 0 29 -81 36 0zm249 0l20 0c43,0 74,-11 95,-25 -3,-50 -37,-96 -97,-96 -67,0 -141,72 -185,121l167 0z"/>
 </g>
</svg>
