<?xml version="1.0" encoding="UTF-8"?>
<!DOCTYPE svg PUBLIC "-//W3C//DTD SVG 1.0//EN" "http://www.w3.org/TR/2001/REC-SVG-20010904/DTD/svg10.dtd">
<!-- Creator: CorelDRAW -->
<svg xmlns="http://www.w3.org/2000/svg" xml:space="preserve" width="1300px" height="1300px" version="1.0" style="shape-rendering:geometricPrecision; text-rendering:geometricPrecision; image-rendering:optimizeQuality; fill-rule:evenodd; clip-rule:evenodd"
viewBox="0 0 1300 1056"
 xmlns:xlink="http://www.w3.org/1999/xlink">
 <defs>
  <style type="text/css">
   <![CDATA[
    .fil0 {fill:#660066;fill-opacity:0.549020}
   ]]>
  </style>
 </defs>
 <g id="_100:master">
  <metadata id="CorelCorpID_0Corel-Layer"/>
  <path class="fil0" d="M969 539c-16,70 -67,111 -136,111l-284 0c-20,0 -40,-20 -40,-41 0,-21 20,-40 40,-40l15 0c8,0 75,-4 76,-82 0,-80 -2,-163 -2,-196l0 -86c0,-34 28,-77 50,-124l11 5 0 262c0,29 -1,56 -1,80 -1,15 -2,29 -4,42 59,-61 112,-99 156,-104 97,-10 142,97 119,173zm-156 30l0 0 20 0c43,0 74,-11 95,-25 -3,-50 -37,-96 -97,-96 -67,0 -141,72 -185,121l167 0z"/>
 </g>
</svg>
