<?xml version="1.0" encoding="UTF-8"?>
<!DOCTYPE svg PUBLIC "-//W3C//DTD SVG 1.0//EN" "http://www.w3.org/TR/2001/REC-SVG-20010904/DTD/svg10.dtd">
<!-- Creator: CorelDRAW -->
<svg xmlns="http://www.w3.org/2000/svg" xml:space="preserve" width="1300px" height="1300px" version="1.0" style="shape-rendering:geometricPrecision; text-rendering:geometricPrecision; image-rendering:optimizeQuality; fill-rule:evenodd; clip-rule:evenodd"
viewBox="0 0 1300 1056"
 xmlns:xlink="http://www.w3.org/1999/xlink">
 <defs>
  <style type="text/css">
   <![CDATA[
    .fil0 {fill:#660066;fill-opacity:0.549020}
   ]]>
  </style>
 </defs>
 <g id="_100:master">
  <metadata id="CorelCorpID_0Corel-Layer"/>
  <path class="fil0" d="M969 539c0,3 -1,5 -2,8 26,24 64,22 96,22l0 81 -20 0c-53,0 -85,-18 -104,-47 -25,30 -62,47 -106,47l-308 0c-58,0 -91,-96 -76,-105 14,-8 12,24 87,24l3 0c9,0 79,-4 80,-82 0,-80 -2,-163 -2,-196l0 -104c0,-33 12,-52 47,-106l10 5 0 262c0,29 0,56 -1,80 0,28 -5,52 -11,72 72,-64 137,-115 201,-106 51,7 117,63 106,145zm-156 30l0 0 20 0c42,0 72,-10 93,-24l2 -1c-10,-34 -45,-70 -82,-78 -91,-17 -156,49 -221,103l188 0z"/>
 </g>
</svg>
