<?xml version="1.0" encoding="UTF-8"?>
<!DOCTYPE svg PUBLIC "-//W3C//DTD SVG 1.0//EN" "http://www.w3.org/TR/2001/REC-SVG-20010904/DTD/svg10.dtd">
<!-- Creator: CorelDRAW -->
<svg xmlns="http://www.w3.org/2000/svg" xml:space="preserve" width="1300px" height="1300px" version="1.0" style="shape-rendering:geometricPrecision; text-rendering:geometricPrecision; image-rendering:optimizeQuality; fill-rule:evenodd; clip-rule:evenodd"
viewBox="0 0 1300 1056"
 xmlns:xlink="http://www.w3.org/1999/xlink">
 <defs>
  <style type="text/css">
   <![CDATA[
    .fil0 {fill:#666666}
   ]]>
  </style>
 </defs>
 <g id="_100:master">
  <metadata id="CorelCorpID_0Corel-Layer"/>
  <path class="fil0" d="M980 634l1 0c-1,8 -1,15 -2,22l0 0 0 0c-19,141 -134,238 -198,238 -33,0 -88,-14 -124,-27 -7,-7 -4,-24 8,-27 50,-2 62,1 113,-22 71,-31 142,-98 153,-151 1,-9 1,-19 1,-30 -18,7 -40,13 -67,13 -95,0 -122,-55 -117,-114 8,-73 47,-150 113,-150 64,0 129,75 119,248zm-116 -65c-34,0 -78,-7 -77,-27 1,-24 23,-76 69,-76 34,1 56,45 67,95 -17,5 -37,8 -59,8z"/>
 </g>
</svg>
