<?xml version="1.0" encoding="UTF-8"?>
<!DOCTYPE svg PUBLIC "-//W3C//DTD SVG 1.0//EN" "http://www.w3.org/TR/2001/REC-SVG-20010904/DTD/svg10.dtd">
<!-- Creator: CorelDRAW -->
<svg xmlns="http://www.w3.org/2000/svg" xml:space="preserve" width="1300px" height="1300px" version="1.0" style="shape-rendering:geometricPrecision; text-rendering:geometricPrecision; image-rendering:optimizeQuality; fill-rule:evenodd; clip-rule:evenodd"
viewBox="0 0 1300 1056"
 xmlns:xlink="http://www.w3.org/1999/xlink">
 <defs>
  <style type="text/css">
   <![CDATA[
    .fil0 {fill:#660066;fill-opacity:0.549020}
   ]]>
  </style>
 </defs>
 <g id="_100:master">
  <metadata id="CorelCorpID_0Corel-Layer"/>
  <path class="fil0" d="M925 636c-83,26 -214,29 -173,-120 39,-159 231,-170 223,114l0 0 0 0 0 0c0,6 -1,31 -2,35 -18,101 -100,204 -156,204 -33,0 -80,-5 -116,-18 -7,-7 -4,-25 8,-28 101,7 191,-73 216,-158 0,-10 0,-20 0,-29zm-142 -86c23,23 86,22 132,13 -30,-105 -115,-87 -132,-13z"/>
 </g>
</svg>
