<?xml version="1.0" encoding="UTF-8"?>
<!DOCTYPE svg PUBLIC "-//W3C//DTD SVG 1.0//EN" "http://www.w3.org/TR/2001/REC-SVG-20010904/DTD/svg10.dtd">
<!-- Creator: CorelDRAW -->
<svg xmlns="http://www.w3.org/2000/svg" xml:space="preserve" width="1300px" height="1300px" version="1.0" style="shape-rendering:geometricPrecision; text-rendering:geometricPrecision; image-rendering:optimizeQuality; fill-rule:evenodd; clip-rule:evenodd"
viewBox="0 0 1300 1056"
 xmlns:xlink="http://www.w3.org/1999/xlink">
 <defs>
  <style type="text/css">
   <![CDATA[
    .fil0 {fill:#660066;fill-opacity:0.549020}
   ]]>
  </style>
 </defs>
 <g id="_100:master">
  <metadata id="CorelCorpID_0Corel-Layer"/>
  <path class="fil0" d="M867 519c-30,9 -104,75 9,75 20,0 37,-5 51,-13 -10,-32 -29,-59 -60,-62zm114 115l0 0c-9,153 -133,260 -200,260 -33,0 -88,-14 -124,-27 -7,-7 -4,-24 8,-27 50,-2 62,1 113,-22 75,-33 139,-104 148,-159 -17,11 -35,16 -51,16 -162,0 -99,-208 -7,-232 58,0 98,63 111,123l9 -1c-2,7 -4,13 -6,20 2,18 2,35 -1,49zm-34 8l-4 3 19 -5 -15 2z"/>
 </g>
</svg>
