<?xml version="1.0" encoding="UTF-8"?>
<!DOCTYPE svg PUBLIC "-//W3C//DTD SVG 1.0//EN" "http://www.w3.org/TR/2001/REC-SVG-20010904/DTD/svg10.dtd">
<!-- Creator: CorelDRAW -->
<svg xmlns="http://www.w3.org/2000/svg" xml:space="preserve" width="1300px" height="1300px" version="1.0" style="shape-rendering:geometricPrecision; text-rendering:geometricPrecision; image-rendering:optimizeQuality; fill-rule:evenodd; clip-rule:evenodd"
viewBox="0 0 1300 1056"
 xmlns:xlink="http://www.w3.org/1999/xlink">
 <defs>
  <style type="text/css">
   <![CDATA[
    .fil0 {fill:#666666}
   ]]>
  </style>
 </defs>
 <g id="_100:master">
  <metadata id="CorelCorpID_0Corel-Layer"/>
  <path class="fil0" d="M975 610c0,186 -152,284 -202,284 -33,0 -88,-22 -124,-35 -7,-7 -4,-24 8,-28 89,10 270,-55 273,-211 -83,49 -152,37 -176,-22l0 0 -1 -3c-9,-23 -10,-52 -4,-88l1 1c12,-62 56,-100 102,-102 60,-2 123,83 123,204zm-195 -59c26,26 81,20 135,8 -32,-79 -93,-108 -135,-8z"/>
 </g>
</svg>
