<?xml version="1.0" encoding="UTF-8"?>
<!DOCTYPE svg PUBLIC "-//W3C//DTD SVG 1.0//EN" "http://www.w3.org/TR/2001/REC-SVG-20010904/DTD/svg10.dtd">
<!-- Creator: CorelDRAW -->
<svg xmlns="http://www.w3.org/2000/svg" xml:space="preserve" width="1300px" height="1300px" version="1.0" style="shape-rendering:geometricPrecision; text-rendering:geometricPrecision; image-rendering:optimizeQuality; fill-rule:evenodd; clip-rule:evenodd"
viewBox="0 0 1300 1056"
 xmlns:xlink="http://www.w3.org/1999/xlink">
 <defs>
  <style type="text/css">
   <![CDATA[
    .fil0 {fill:#660066;fill-opacity:0.549020}
   ]]>
  </style>
 </defs>
 <g id="_100:master">
  <metadata id="CorelCorpID_0Corel-Layer"/>
  <path class="fil0" d="M920 631c-82,30 -235,44 -187,-119 46,-166 220,-138 241,114 1,8 1,16 1,24l0 0 0 0c-3,102 -116,219 -167,219 -33,0 -83,-5 -119,-18 -7,-7 -4,-25 7,-28 36,-3 76,-15 108,-30 68,-32 123,-92 123,-133 0,-5 0,-9 -2,-14l-5 -15zm-157 -80c26,24 95,21 142,10 -40,-96 -117,-90 -142,-10z"/>
 </g>
</svg>
