<?xml version="1.0" encoding="UTF-8"?>
<!DOCTYPE svg PUBLIC "-//W3C//DTD SVG 1.0//EN" "http://www.w3.org/TR/2001/REC-SVG-20010904/DTD/svg10.dtd">
<!-- Creator: CorelDRAW -->
<svg xmlns="http://www.w3.org/2000/svg" xml:space="preserve" width="1300px" height="1300px" version="1.0" style="shape-rendering:geometricPrecision; text-rendering:geometricPrecision; image-rendering:optimizeQuality; fill-rule:evenodd; clip-rule:evenodd"
viewBox="0 0 1300 1056"
 xmlns:xlink="http://www.w3.org/1999/xlink">
 <defs>
  <style type="text/css">
   <![CDATA[
    .fil0 {fill:#666666}
   ]]>
  </style>
 </defs>
 <g id="_100:master">
  <metadata id="CorelCorpID_0Corel-Layer"/>
  <path class="fil0" d="M973 650c-20,160 -154,244 -200,244 -33,0 -88,-22 -124,-35 -7,-7 -4,-24 8,-28 85,9 252,-48 272,-189 -61,46 -220,25 -188,-97l0 0c12,-86 53,-139 113,-139 66,0 143,66 119,244l0 0zm-192 -102l0 0c-4,37 102,35 147,14 -15,-45 -49,-74 -75,-74 -32,0 -55,11 -72,60z"/>
 </g>
</svg>
