<?xml version="1.0" encoding="UTF-8"?>
<!DOCTYPE svg PUBLIC "-//W3C//DTD SVG 1.0//EN" "http://www.w3.org/TR/2001/REC-SVG-20010904/DTD/svg10.dtd">
<!-- Creator: CorelDRAW -->
<svg xmlns="http://www.w3.org/2000/svg" xml:space="preserve" width="1300px" height="1300px" version="1.0" style="shape-rendering:geometricPrecision; text-rendering:geometricPrecision; image-rendering:optimizeQuality; fill-rule:evenodd; clip-rule:evenodd"
viewBox="0 0 1300 1056"
 xmlns:xlink="http://www.w3.org/1999/xlink">
 <defs>
  <style type="text/css">
   <![CDATA[
    .fil0 {fill:#660066;fill-opacity:0.549020}
   ]]>
  </style>
 </defs>
 <g id="_100:master">
  <metadata id="CorelCorpID_0Corel-Layer"/>
  <path class="fil0" d="M923 624l-2 6c-75,29 -212,43 -196,-82 8,-133 115,-205 192,-100l0 0 2 3c12,18 23,40 33,67 6,13 10,26 14,38l0 0 0 0c7,21 10,40 12,58l0 0 0 0c0,3 0,7 0,10l0 0c18,107 -110,245 -166,245 -32,0 -74,-13 -110,-26 -7,-7 -4,-25 7,-28 102,7 224,-95 223,-156 -3,-12 -6,-24 -9,-35zm-160 -73c25,23 88,21 135,12 -5,-10 -11,-21 -18,-32 -45,-64 -97,-51 -117,20z"/>
 </g>
</svg>
