<?xml version="1.0" encoding="UTF-8"?>
<!DOCTYPE svg PUBLIC "-//W3C//DTD SVG 1.0//EN" "http://www.w3.org/TR/2001/REC-SVG-20010904/DTD/svg10.dtd">
<!-- Creator: CorelDRAW -->
<svg xmlns="http://www.w3.org/2000/svg" xml:space="preserve" width="1300px" height="1300px" version="1.0" style="shape-rendering:geometricPrecision; text-rendering:geometricPrecision; image-rendering:optimizeQuality; fill-rule:evenodd; clip-rule:evenodd"
viewBox="0 0 1300 1056"
 xmlns:xlink="http://www.w3.org/1999/xlink">
 <defs>
  <style type="text/css">
   <![CDATA[
    .fil1 {fill:#660066;fill-opacity:0.549020}
    .fil0 {fill:#666666}
   ]]>
  </style>
 </defs>
 <g id="_100:master" visibility="hidden">
  <metadata id="CorelCorpID_0Corel-Layer"/>
  <path class="fil0" d="M933 650l48 -16c-9,153 -133,260 -200,260 -33,0 -88,-14 -124,-27 -7,-7 -4,-24 8,-27 50,-2 62,1 113,-22 79,-34 158,-114 155,-168z"/>
  <path class="fil1" d="M861 650l-2 -81 189 0 0 81 -187 0z"/>
  <path class="fil1" d="M931 668l48 -12c16,-189 -52,-270 -118,-270 -66,0 -105,77 -113,150 -5,59 22,114 117,114l-1 -81c-34,0 -78,-7 -77,-27 1,-24 23,-76 69,-76 58,1 81,131 75,202z"/>
 </g>
 <g id="Layer_x0020_1">
  <metadata id="CorelCorpID_1Corel-Layer"/>
  <path class="fil1" d="M840 650l0 0c-63,-1 -117,-31 -88,-134 37,-146 202,-167 221,53l54 0 0 81 -54 0c-2,102 -115,219 -167,219 -32,0 -75,-13 -110,-26 -8,-7 -4,-25 7,-28 98,7 213,-87 222,-148l0 0c0,-5 0,-10 0,-14l0 -3 -85 0zm0 -81l76 0c-28,-112 -116,-94 -133,-19 12,12 33,17 57,19z"/>
 </g>
</svg>
