<?xml version="1.0" encoding="UTF-8"?>
<!DOCTYPE svg PUBLIC "-//W3C//DTD SVG 1.0//EN" "http://www.w3.org/TR/2001/REC-SVG-20010904/DTD/svg10.dtd">
<!-- Creator: CorelDRAW -->
<svg xmlns="http://www.w3.org/2000/svg" xml:space="preserve" width="1300px" height="1300px" version="1.0" style="shape-rendering:geometricPrecision; text-rendering:geometricPrecision; image-rendering:optimizeQuality; fill-rule:evenodd; clip-rule:evenodd"
viewBox="0 0 1300 1056"
 xmlns:xlink="http://www.w3.org/1999/xlink">
 <defs>
  <style type="text/css">
   <![CDATA[
    .fil0 {fill:#666666}
   ]]>
  </style>
 </defs>
 <g id="_100:master">
  <metadata id="CorelCorpID_0Corel-Layer"/>
  <path class="fil0" d="M975 610c0,186 -144,284 -194,284 -33,0 -88,-14 -124,-27 -7,-7 -4,-24 8,-27 151,4 225,-98 270,-170 -1,-17 -2,-34 -4,-50 -84,49 -153,37 -177,-22l0 0 -1 -3c-9,-23 -10,-52 -4,-88l1 1c28,-142 225,-158 225,102zm-195 -59c26,26 81,20 135,8 -32,-79 -93,-108 -135,-8z"/>
 </g>
</svg>
