<?xml version="1.0" encoding="UTF-8"?>
<!DOCTYPE svg PUBLIC "-//W3C//DTD SVG 1.0//EN" "http://www.w3.org/TR/2001/REC-SVG-20010904/DTD/svg10.dtd">
<!-- Creator: CorelDRAW -->
<svg xmlns="http://www.w3.org/2000/svg" xml:space="preserve" width="1300px" height="1300px" version="1.0" style="shape-rendering:geometricPrecision; text-rendering:geometricPrecision; image-rendering:optimizeQuality; fill-rule:evenodd; clip-rule:evenodd"
viewBox="0 0 1300 1056"
 xmlns:xlink="http://www.w3.org/1999/xlink">
 <defs>
  <style type="text/css">
   <![CDATA[
    .fil0 {fill:#666666}
   ]]>
  </style>
 </defs>
 <g id="_100:master">
  <metadata id="CorelCorpID_0Corel-Layer"/>
  <path class="fil0" d="M973 650c-20,160 -154,244 -200,244 -33,0 -88,-22 -124,-35 -7,-7 -4,-24 8,-28 89,10 271,-55 274,-212l4 -1 0 -3c-66,51 -201,57 -197,-41l-1 0 1 0c0,-4 0,-8 1,-12 10,-97 66,-177 131,-177 65,0 127,87 103,265l0 0zm-192 -102l0 0c-4,35 86,23 143,-1 -16,-46 -43,-80 -71,-80 -28,0 -55,28 -72,81z"/>
 </g>
</svg>
