<?xml version="1.0" encoding="UTF-8"?>
<!DOCTYPE svg PUBLIC "-//W3C//DTD SVG 1.0//EN" "http://www.w3.org/TR/2001/REC-SVG-20010904/DTD/svg10.dtd">
<!-- Creator: CorelDRAW -->
<svg xmlns="http://www.w3.org/2000/svg" xml:space="preserve" width="1300px" height="1300px" version="1.0" style="shape-rendering:geometricPrecision; text-rendering:geometricPrecision; image-rendering:optimizeQuality; fill-rule:evenodd; clip-rule:evenodd"
viewBox="0 0 1300 1056"
 xmlns:xlink="http://www.w3.org/1999/xlink">
 <defs>
  <style type="text/css">
   <![CDATA[
    .fil0 {fill:#666666}
   ]]>
  </style>
 </defs>
 <g id="_100:master">
  <metadata id="CorelCorpID_0Corel-Layer"/>
  <path class="fil0" d="M974 628c0,7 -1,14 -1,21l0 1 0 0c-20,160 -154,244 -200,244 -33,0 -88,-22 -124,-35 -7,-7 -4,-24 8,-28 86,9 257,-50 272,-194 -51,23 -168,27 -166,-83l-1 0c0,-187 234,-227 212,74zm-175 -78c23,25 85,22 128,11 -24,-103 -111,-83 -128,-11z"/>
 </g>
</svg>
