<?xml version="1.0" encoding="UTF-8"?>
<!DOCTYPE svg PUBLIC "-//W3C//DTD SVG 1.0//EN" "http://www.w3.org/TR/2001/REC-SVG-20010904/DTD/svg10.dtd">
<!-- Creator: CorelDRAW -->
<svg xmlns="http://www.w3.org/2000/svg" xml:space="preserve" width="1300px" height="1300px" version="1.0" style="shape-rendering:geometricPrecision; text-rendering:geometricPrecision; image-rendering:optimizeQuality; fill-rule:evenodd; clip-rule:evenodd"
viewBox="0 0 1300 1056"
 xmlns:xlink="http://www.w3.org/1999/xlink">
 <defs>
  <style type="text/css">
   <![CDATA[
    .fil0 {fill:#666666}
   ]]>
  </style>
 </defs>
 <g id="_100:master">
  <metadata id="CorelCorpID_0Corel-Layer"/>
  <path class="fil0" d="M976 603c0,187 -113,291 -164,291 -32,0 -110,-31 -146,-44 -7,-7 -4,-24 8,-27 38,0 115,5 147,-11 46,-22 84,-70 106,-174 -52,22 -166,25 -164,-84l-1 0c0,-182 221,-225 214,49l0 0zm-177 -53c23,25 85,22 128,11 -24,-103 -111,-83 -128,-11z"/>
 </g>
</svg>
