<?xml version="1.0" encoding="UTF-8"?>
<!DOCTYPE svg PUBLIC "-//W3C//DTD SVG 1.0//EN" "http://www.w3.org/TR/2001/REC-SVG-20010904/DTD/svg10.dtd">
<!-- Creator: CorelDRAW -->
<svg xmlns="http://www.w3.org/2000/svg" xml:space="preserve" width="1300px" height="1300px" version="1.0" style="shape-rendering:geometricPrecision; text-rendering:geometricPrecision; image-rendering:optimizeQuality; fill-rule:evenodd; clip-rule:evenodd"
viewBox="0 0 1300 1056"
 xmlns:xlink="http://www.w3.org/1999/xlink">
 <defs>
  <style type="text/css">
   <![CDATA[
    .fil1 {fill:#660066;fill-opacity:0.549020}
    .fil0 {fill:#666666}
   ]]>
  </style>
 </defs>
 <g id="_100:master" visibility="hidden">
  <metadata id="CorelCorpID_0Corel-Layer"/>
  <path class="fil0" d="M933 650l48 -16c-9,153 -133,260 -200,260 -33,0 -88,-14 -124,-27 -7,-7 -4,-24 8,-27 50,-2 62,1 113,-22 79,-34 158,-114 155,-168z"/>
  <path class="fil1" d="M861 650l-2 -81 189 0 0 81 -187 0z"/>
  <path class="fil1" d="M931 668l48 -12c16,-189 -52,-270 -118,-270 -66,0 -105,77 -113,150 -5,59 22,114 117,114l-1 -81c-34,0 -78,-7 -77,-27 1,-24 23,-76 69,-76 58,1 81,131 75,202z"/>
 </g>
 <g id="Layer_x0020_1">
  <metadata id="CorelCorpID_1Corel-Layer"/>
  <path class="fil1" d="M853 650l0 0c-46,-3 -91,-28 -90,-96l-1 0c0,-168 189,-218 212,-7 1,7 2,14 3,22l63 0 0 81 -64 0c-14,107 -75,211 -134,211 -33,0 -88,-14 -124,-26 -7,-7 -4,-25 8,-28 85,11 185,-67 203,-157l-68 0 0 0 -8 0zm-2 -81l0 0 71 0c-21,-112 -106,-92 -123,-19 11,12 30,17 52,19z"/>
 </g>
</svg>
