<?xml version="1.0" encoding="UTF-8"?>
<!DOCTYPE svg PUBLIC "-//W3C//DTD SVG 1.0//EN" "http://www.w3.org/TR/2001/REC-SVG-20010904/DTD/svg10.dtd">
<!-- Creator: CorelDRAW -->
<svg xmlns="http://www.w3.org/2000/svg" xml:space="preserve" width="1300px" height="1300px" version="1.0" style="shape-rendering:geometricPrecision; text-rendering:geometricPrecision; image-rendering:optimizeQuality; fill-rule:evenodd; clip-rule:evenodd"
viewBox="0 0 1300 1056"
 xmlns:xlink="http://www.w3.org/1999/xlink">
 <defs>
  <style type="text/css">
   <![CDATA[
    .fil0 {fill:#666666}
   ]]>
  </style>
 </defs>
 <g id="_100:master">
  <metadata id="CorelCorpID_0Corel-Layer"/>
  <path class="fil0" d="M975 610c0,5 0,10 0,15 0,8 0,17 0,25l-2 0c-20,160 -154,244 -200,244 -33,0 -88,-22 -124,-35 -7,-7 -4,-24 8,-28 89,10 269,-54 273,-210 -76,48 -171,45 -188,-31l-2 0c0,-4 0,-9 -1,-13 -1,-13 0,-27 3,-44l0 0c11,-82 58,-125 110,-127 58,-2 114,53 122,204l1 0zm-191 -59c15,25 79,18 138,6 -16,-50 -45,-69 -70,-70 -30,-1 -50,19 -68,64z"/>
 </g>
</svg>
