<?xml version="1.0" encoding="UTF-8"?>
<!DOCTYPE svg PUBLIC "-//W3C//DTD SVG 1.0//EN" "http://www.w3.org/TR/2001/REC-SVG-20010904/DTD/svg10.dtd">
<!-- Creator: CorelDRAW -->
<svg xmlns="http://www.w3.org/2000/svg" xml:space="preserve" width="1300px" height="1300px" version="1.0" style="shape-rendering:geometricPrecision; text-rendering:geometricPrecision; image-rendering:optimizeQuality; fill-rule:evenodd; clip-rule:evenodd"
viewBox="0 0 1300 1056"
 xmlns:xlink="http://www.w3.org/1999/xlink">
 <defs>
  <style type="text/css">
   <![CDATA[
    .fil0 {fill:#660066;fill-opacity:0.549020}
   ]]>
  </style>
 </defs>
 <g id="_100:master">
  <metadata id="CorelCorpID_0Corel-Layer"/>
  <path class="fil0" d="M923 624l-2 6c-77,29 -218,44 -194,-91 23,-170 191,-203 243,28 4,17 7,33 8,46l0 1 0 0c0,3 0,7 0,10l0 0c19,107 -110,245 -166,245 -32,0 -74,-13 -110,-26 -7,-7 -4,-25 7,-28 102,7 224,-95 223,-156 -1,-7 -3,-13 -4,-19l-5 -16zm-161 -75c23,25 89,23 136,14 -2,-4 -4,-8 -6,-11 -48,-75 -115,-68 -130,-3z"/>
 </g>
</svg>
