<?xml version="1.0" encoding="UTF-8"?>
<!DOCTYPE svg PUBLIC "-//W3C//DTD SVG 1.0//EN" "http://www.w3.org/TR/2001/REC-SVG-20010904/DTD/svg10.dtd">
<!-- Creator: CorelDRAW -->
<svg xmlns="http://www.w3.org/2000/svg" xml:space="preserve" width="1300px" height="1300px" version="1.0" style="shape-rendering:geometricPrecision; text-rendering:geometricPrecision; image-rendering:optimizeQuality; fill-rule:evenodd; clip-rule:evenodd"
viewBox="0 0 1300 1056"
 xmlns:xlink="http://www.w3.org/1999/xlink">
 <defs>
  <style type="text/css">
   <![CDATA[
    .fil1 {fill:#660066;fill-opacity:0.549020}
    .fil0 {fill:#666666}
   ]]>
  </style>
 </defs>
 <g id="_100:master" visibility="hidden">
  <metadata id="CorelCorpID_0Corel-Layer"/>
  <path class="fil0" d="M933 650l48 -16c-9,153 -133,260 -200,260 -33,0 -88,-14 -124,-27 -7,-7 -4,-24 8,-27 50,-2 62,1 113,-22 79,-34 158,-114 155,-168z"/>
  <path class="fil1" d="M861 650l-2 -81 189 0 0 81 -187 0z"/>
  <path class="fil1" d="M931 668l48 -12c16,-189 -52,-270 -118,-270 -66,0 -105,77 -113,150 -5,59 22,114 117,114l-1 -81c-34,0 -78,-7 -77,-27 1,-24 23,-76 69,-76 58,1 81,131 75,202z"/>
 </g>
 <g id="Layer_x0020_1">
  <metadata id="CorelCorpID_1Corel-Layer"/>
  <path class="fil1" d="M833 650l0 -3 0 3c-59,-1 -114,-29 -86,-119 19,-77 57,-125 102,-125 60,0 104,66 120,163l58 0 0 81 -51 0c-1,102 -100,219 -151,219 -33,0 -83,-5 -119,-18 -7,-7 -4,-25 7,-28 67,9 204,-77 215,-151 0,-7 -1,-15 -2,-22l-93 0zm4 -81l73 0c-15,-49 -39,-79 -66,-80 -24,-1 -47,21 -59,57l0 0c-8,16 18,22 52,23z"/>
 </g>
</svg>
