<?xml version="1.0" encoding="UTF-8"?>
<!DOCTYPE svg PUBLIC "-//W3C//DTD SVG 1.0//EN" "http://www.w3.org/TR/2001/REC-SVG-20010904/DTD/svg10.dtd">
<!-- Creator: CorelDRAW -->
<svg xmlns="http://www.w3.org/2000/svg" xml:space="preserve" width="1300px" height="1300px" version="1.0" style="shape-rendering:geometricPrecision; text-rendering:geometricPrecision; image-rendering:optimizeQuality; fill-rule:evenodd; clip-rule:evenodd"
viewBox="0 0 1300 1056"
 xmlns:xlink="http://www.w3.org/1999/xlink">
 <defs>
  <style type="text/css">
   <![CDATA[
    .fil0 {fill:#660066;fill-opacity:0.549020}
   ]]>
  </style>
 </defs>
 <g id="_100:master">
  <metadata id="CorelCorpID_0Corel-Layer"/>
  <path class="fil0" d="M925 636c-83,26 -214,29 -173,-120 39,-156 225,-170 223,99l0 0c0,5 0,10 0,15l0 0c-1,17 -4,29 -5,35 -18,101 -117,212 -173,212 -32,0 -80,-5 -115,-18 -7,-7 -4,-24 7,-28 85,2 216,-90 236,-180 0,-5 0,-10 0,-15zm-142 -86c23,23 86,22 132,13 -30,-105 -115,-87 -132,-13z"/>
 </g>
</svg>
