<?xml version="1.0" encoding="UTF-8"?>
<!DOCTYPE svg PUBLIC "-//W3C//DTD SVG 1.0//EN" "http://www.w3.org/TR/2001/REC-SVG-20010904/DTD/svg10.dtd">
<!-- Creator: CorelDRAW -->
<svg xmlns="http://www.w3.org/2000/svg" xml:space="preserve" width="1300px" height="1300px" version="1.0" style="shape-rendering:geometricPrecision; text-rendering:geometricPrecision; image-rendering:optimizeQuality; fill-rule:evenodd; clip-rule:evenodd"
viewBox="0 0 1300 1056"
 xmlns:xlink="http://www.w3.org/1999/xlink">
 <defs>
  <style type="text/css">
   <![CDATA[
    .fil0 {fill:#660066;fill-opacity:0.549020}
   ]]>
  </style>
 </defs>
 <g id="_100:master">
  <metadata id="CorelCorpID_0Corel-Layer"/>
  <path class="fil0" d="M754 537c12,-64 53,-131 99,-131 111,4 137,198 126,250l0 0c-19,141 -134,238 -198,238 -33,0 -88,-14 -124,-27 -7,-7 -4,-24 8,-27 50,-2 62,1 113,-22 76,-33 152,-108 155,-162 0,-7 -1,-13 -1,-20 -24,7 -54,14 -83,14 -59,0 -111,-24 -95,-113zm99 -131l0 81c-32,1 -65,31 -66,55 -1,20 27,27 60,27 24,0 51,-4 72,-9 -13,-42 -37,-70 -66,-73l0 -81z"/>
 </g>
</svg>
