<?xml version="1.0" encoding="UTF-8"?>
<!DOCTYPE svg PUBLIC "-//W3C//DTD SVG 1.0//EN" "http://www.w3.org/TR/2001/REC-SVG-20010904/DTD/svg10.dtd">
<!-- Creator: CorelDRAW -->
<svg xmlns="http://www.w3.org/2000/svg" xml:space="preserve" width="1300px" height="1300px" version="1.0" style="shape-rendering:geometricPrecision; text-rendering:geometricPrecision; image-rendering:optimizeQuality; fill-rule:evenodd; clip-rule:evenodd"
viewBox="0 0 1300 1056"
 xmlns:xlink="http://www.w3.org/1999/xlink">
 <defs>
  <style type="text/css">
   <![CDATA[
    .fil0 {fill:#660066;fill-opacity:0.549020}
   ]]>
  </style>
 </defs>
 <g id="_100:master">
  <metadata id="CorelCorpID_0Corel-Layer"/>
  <path class="fil0" d="M922 637c-83,25 -211,26 -170,-121 37,-151 214,-169 223,76l0 0 0 9c0,9 0,19 0,29l-1 1c-11,151 -85,242 -146,238 -32,-2 -80,-5 -115,-18 -7,-7 -4,-25 7,-28 97,7 186,-71 202,-173 0,-4 0,-9 0,-13zm-139 -87c23,23 84,22 130,14 -27,-111 -113,-89 -130,-14z"/>
 </g>
</svg>
