<?xml version="1.0" encoding="UTF-8"?>
<!DOCTYPE svg PUBLIC "-//W3C//DTD SVG 1.0//EN" "http://www.w3.org/TR/2001/REC-SVG-20010904/DTD/svg10.dtd">
<!-- Creator: CorelDRAW -->
<svg xmlns="http://www.w3.org/2000/svg" xml:space="preserve" width="1300px" height="1300px" version="1.0" style="shape-rendering:geometricPrecision; text-rendering:geometricPrecision; image-rendering:optimizeQuality; fill-rule:evenodd; clip-rule:evenodd"
viewBox="0 0 1300 1056"
 xmlns:xlink="http://www.w3.org/1999/xlink">
 <defs>
  <style type="text/css">
   <![CDATA[
    .fil0 {fill:#336699;fill-opacity:0.549020}
   ]]>
  </style>
 </defs>
 <g id="_100:master">
  <metadata id="CorelCorpID_0Corel-Layer"/>
  <path class="fil0" d="M851 752c61,-31 94,-71 43,-88 -28,-9 -74,-11 -103,-14 -45,-5 -56,-30 -38,-104 19,-75 76,-171 166,-173 41,-1 70,39 79,71l-15 29c-16,-18 -48,-26 -67,-23 -64,11 -112,70 -126,119 40,4 106,10 140,29 68,37 68,112 -32,198 -145,116 -461,57 -323,-277 6,-15 37,-3 32,11 -89,238 119,273 244,222z"/>
 </g>
</svg>
